<svg width="612" height="401" viewBox="0 0 612 401" fill="none" xmlns="http://www.w3.org/2000/svg">
  <g clip-path="url(#clip0_384_7122)">
    <path d="M601.33 94.5404L591.76 140.88L585.6 134.88L575.12 142.35L567.11 132.41L549.15 145.47L533.8 119.8L516.68 129.83L509.89 120.46L488.15 132.71L481.61 118.71L496.85 44.9004L578.55 61.7704L601.33 94.5404Z" fill="#EBEBEB"/>
    <path d="M578.55 61.7705L601.33 94.5405L572.99 88.6905L578.55 61.7705Z" fill="#DBDBDB"/>
    <path d="M589.72 150.151L575.69 218.141L465.64 195.431L479.57 127.971L486.11 141.981L507.86 129.731L514.64 139.091L531.77 129.061L547.11 154.731L565.08 141.671L573.08 151.611L583.57 144.141L589.72 150.151Z" fill="#EBEBEB"/>
    <path d="M432.21 142.18L320.06 149.12L311.15 5.15L394.43 0L425 25.64L432.21 142.18Z" fill="#EBEBEB"/>
    <path d="M394.43 0L425 25.64L396.12 27.43L394.43 0Z" fill="#DBDBDB"/>
    <path d="M363.34 96.8599L362.91 93.6099C361.78 86.8799 363.62 79.3499 369.47 71.4799C374.74 64.5199 377.6 59.4499 377.29 53.7999C376.93 47.3999 372.68 43.3599 364.77 43.6799C360.25 43.9299 355.32 45.7199 352.32 48.2799L348.87 40.5499C352.84 37.3099 359.88 34.8999 366.53 34.5299C380.95 33.7199 387.97 42.2599 388.51 51.7899C388.99 60.3199 384.57 66.7299 378.95 74.2199C373.8 81.0499 372.1 86.6799 372.83 93.0599L373.14 96.3099L363.34 96.8599ZM361.56 114.58C361.3 109.94 364.25 106.5 368.64 106.26C373.03 106.01 376.22 109.11 376.48 113.75C376.73 118.14 374.03 121.69 369.39 121.95C365.01 122.19 361.81 118.97 361.56 114.58Z" fill="#DBDBDB"/>
    <path d="M82.86 72.3798L71.57 67.2598L70.01 70.7198C69.55 71.7398 68.55 72.3798 67.44 72.4298C66.82 72.4598 66.21 72.5198 65.6 72.6098C64.5 72.7798 63.4 72.3298 62.75 71.4298L60.54 68.3498L50.46 75.5698L52.67 78.6498C53.32 79.5498 53.38 80.7398 52.87 81.7298C52.58 82.2798 52.33 82.8398 52.11 83.4198C51.71 84.4598 50.77 85.1998 49.66 85.2998L45.88 85.6698L47.1 97.9998L50.89 97.6198C52 97.5098 53.05 98.0598 53.66 98.9998C53.82 99.2598 53.99 99.5098 54.17 99.7598C54.35 100.01 54.53 100.25 54.72 100.49C55.41 101.36 55.6 102.53 55.14 103.54L53.56 107.02L64.85 112.14L66.42 108.68C66.88 107.66 67.88 107.02 68.99 106.97C69.6 106.94 70.22 106.88 70.83 106.79C71.93 106.62 73.03 107.07 73.68 107.97L75.89 111.05L85.97 103.83L83.76 100.75C83.11 99.8498 83.05 98.6598 83.56 97.6698C83.84 97.1198 84.1 96.5598 84.32 95.9898C84.72 94.9498 85.66 94.2098 86.77 94.0998L90.55 93.7298L89.32 81.3998L85.53 81.7698C84.42 81.8798 83.38 81.3298 82.77 80.3898C82.61 80.1298 82.43 79.8798 82.25 79.6298C82.07 79.3798 81.89 79.1398 81.7 78.8998C81 78.0298 80.82 76.8498 81.28 75.8398L82.86 72.3798ZM76.46 83.7898C79.72 88.3498 78.68 94.6798 74.12 97.9498C69.56 101.21 63.22 100.17 59.95 95.6198C56.69 91.0598 57.73 84.7098 62.29 81.4498C66.85 78.1798 73.19 79.2298 76.46 83.7898Z" fill="#EBEBEB"/>
    <path d="M592.76 235.98L585.24 240.32L586.57 242.62C586.96 243.3 586.92 244.13 586.5 244.78C586.26 245.14 586.05 245.52 585.85 245.9C585.5 246.59 584.79 247.04 584.02 247.04H581.36V255.72H584.02C584.8 255.72 585.5 256.17 585.85 256.86C586.05 257.25 586.26 257.62 586.5 257.98C586.93 258.63 586.96 259.47 586.57 260.14L585.24 262.44L592.76 266.78L594.09 264.47C594.48 263.79 595.22 263.42 596.01 263.46C596.22 263.47 596.44 263.48 596.65 263.48C596.86 263.48 597.08 263.47 597.29 263.46C598.07 263.42 598.81 263.79 599.2 264.46L600.54 266.78L608.06 262.44L606.73 260.13C606.34 259.45 606.38 258.62 606.81 257.97C607.05 257.61 607.26 257.24 607.46 256.85C607.81 256.16 608.51 255.71 609.29 255.71H611.95V247.03H609.29C608.51 247.03 607.81 246.58 607.46 245.89C607.26 245.5 607.05 245.13 606.81 244.77C606.38 244.12 606.34 243.28 606.73 242.61L608.06 240.3L600.54 235.96L599.21 238.27C598.82 238.95 598.08 239.32 597.3 239.28C597.09 239.27 596.87 239.26 596.66 239.26C596.45 239.26 596.23 239.27 596.02 239.28C595.24 239.32 594.49 238.95 594.1 238.27L592.76 235.98ZM596.65 244.28C600.58 244.28 603.76 247.46 603.76 251.39C603.76 255.32 600.58 258.51 596.65 258.51C592.72 258.51 589.54 255.32 589.54 251.39C589.53 247.46 592.72 244.28 596.65 244.28Z" fill="#EBEBEB"/>
    <path d="M105.68 35.4297L98.78 40.6997L100.4 42.8097C100.88 43.4297 100.95 44.2597 100.61 44.9697C100.42 45.3597 100.26 45.7597 100.11 46.1697C99.85 46.8997 99.21 47.4397 98.44 47.5397L95.8 47.8797L96.92 56.4897L99.56 56.1497C100.33 56.0497 101.09 56.3997 101.53 57.0497C101.78 57.4097 102.04 57.7497 102.32 58.0797C102.83 58.6697 102.97 59.4897 102.67 60.2197L101.65 62.6697L109.67 65.9997L110.69 63.5397C110.99 62.8197 111.68 62.3497 112.46 62.2897C112.67 62.2697 112.88 62.2497 113.1 62.2197C113.31 62.1897 113.52 62.1597 113.73 62.1197C114.5 61.9797 115.28 62.2497 115.75 62.8697L117.38 64.9997L124.28 59.7297L122.66 57.6097C122.19 56.9897 122.12 56.1597 122.46 55.4497C122.65 55.0597 122.81 54.6597 122.96 54.2597C123.22 53.5297 123.86 52.9897 124.63 52.8897L127.27 52.5497L126.15 43.9397L123.51 44.2797C122.74 44.3797 121.98 44.0297 121.54 43.3897C121.3 43.0297 121.03 42.6897 120.75 42.3597C120.24 41.7697 120.1 40.9497 120.4 40.2197L121.42 37.7597L113.4 34.4297L112.38 36.8897C112.08 37.6097 111.39 38.0697 110.62 38.1397C110.41 38.1597 110.19 38.1797 109.98 38.2097C109.77 38.2397 109.56 38.2697 109.35 38.3097C108.58 38.4497 107.79 38.1797 107.32 37.5597L105.68 35.4297ZM110.61 43.1597C114.5 42.6497 118.07 45.3997 118.58 49.2897C119.09 53.1797 116.34 56.7597 112.45 57.2597C108.56 57.7697 104.98 55.0197 104.48 51.1197C103.96 47.2297 106.71 43.6697 110.61 43.1597Z" fill="#EBEBEB"/>
    <path d="M54.2001 261.05C54.5901 251.37 54.4401 241.68 53.8001 232.02C52.4901 212.09 49.2101 192.31 44.7001 172.87C42.1601 161.92 39.0401 151.16 35.7901 140.41C35.6901 140.09 35.1701 140.18 35.2601 140.52C45.3201 178.42 53.58 217.52 53.01 256.92C52.85 267.94 51.5701 278.77 50.5301 289.73C50.5001 290.02 50.9801 290.14 51.0501 289.84C53.1301 280.45 53.8101 270.62 54.2001 261.05Z" fill="#EBEBEB"/>
    <path d="M35.26 140.51C35.26 140.51 20.01 179.21 23.43 188.3C26.84 197.4 33.88 199.34 33.88 199.34C33.88 199.34 24.55 212.66 31.07 225.15C37.59 237.64 52.07 237.05 53.03 251.21C53.04 251.21 53.84 191.99 35.26 140.51Z" fill="#EBEBEB"/>
    <path d="M51.38 226.76C51.4 226.7 51.39 226.63 51.36 226.56C49.22 200.25 44.55 174.02 36.57 148.71C36.55 148.64 36.42 148.66 36.44 148.74C39.46 160.06 42.15 171.44 44.45 182.88C42.47 180.84 39.88 179.67 37.17 178.82C37.12 178.8 37.09 178.88 37.14 178.9C39.96 180.12 42.66 181.53 44.65 183.92C45.1 186.16 45.53 188.41 45.95 190.65C42.54 186.84 37.82 184.95 33.09 183.16C33.02 183.13 32.99 183.24 33.05 183.26C37.97 185.26 42.88 187.85 46.22 192.09C47.38 198.51 48.4 204.96 49.28 211.42C46.79 208.82 43.72 207.07 40.19 206.21C40.08 206.18 40.02 206.34 40.13 206.37C43.75 207.41 46.87 209.44 49.35 212.28C49.37 212.3 49.39 212.31 49.41 212.32C49.72 214.59 50 216.87 50.27 219.15C48.35 217.51 46.23 216.27 43.9 215.31C43.84 215.28 43.8 215.38 43.87 215.41C46.24 216.42 48.37 217.87 50.25 219.63C50.28 219.65 50.3 219.65 50.33 219.66C50.58 221.83 50.84 224 51.06 226.17C47.56 221.96 43.24 218.91 38.13 216.94C38.03 216.9 37.98 217.05 38.07 217.1C43.04 219.26 47.42 222.69 50.81 226.91C50.9 227.03 51.02 227.04 51.13 227.01C51.46 230.34 51.75 233.68 52 237.02C52 237.07 52.08 237.07 52.08 237.02C51.9 233.59 51.66 230.18 51.38 226.76Z" fill="white"/>
    <path d="M39.13 174.97C36.49 173.15 33.13 172.38 29.97 172.11C29.89 172.1 29.89 172.22 29.96 172.23C33.24 172.72 36 173.91 39.02 175.19C39.15 175.25 39.24 175.05 39.13 174.97Z" fill="white"/>
    <path d="M40.98 215.95C38.89 214.69 36.5 213.98 34.1 213.6C34.02 213.59 34.01 213.72 34.09 213.73C36.52 214.17 38.68 215.04 40.89 216.12C40.99 216.16 41.07 216 40.98 215.95Z" fill="white"/>
    <path d="M94.28 188.93C87.92 193.4 81.82 198.56 76.63 204.36C71.1 210.54 67.07 217.56 64.25 225.35C58.48 241.31 55.32 258.59 55.03 275.55C54.87 285.06 55.71 294.49 57.75 303.78C57.82 304.12 58.33 304.02 58.28 303.68C55.79 287.33 55.88 270.65 58.56 254.34C61.18 238.33 65.29 220.91 75.47 207.9C81.01 200.82 87.92 195.24 94.75 189.48C95.11 189.17 94.65 188.67 94.28 188.93Z" fill="#EBEBEB"/>
    <path d="M57.2799 264.02C57.2799 264.02 62.5199 255.2 70.1399 247.58C77.7699 239.96 84.1899 234.54 85.1799 229.49C86.1699 224.45 77.5399 220.73 77.5399 220.73C77.5399 220.73 88.0899 222.62 90.9799 218.2C93.8699 213.77 95.2599 188.12 95.2599 188.12C95.2599 188.12 76.0599 201.83 67.1099 221.05C58.1799 240.25 57.2799 264.02 57.2799 264.02Z" fill="#EBEBEB"/>
    <path d="M88.6299 194.69C80.5499 202.63 72.42 211.08 67.66 221.51C66.03 225.08 64.6399 228.79 63.4199 232.57C63.4199 232.58 63.42 232.58 63.41 232.59C63.16 233.35 62.92 234.1 62.68 234.87C62.66 234.91 62.64 234.95 62.64 234.99C60.29 242.78 58.6299 250.83 57.1899 258.69C57.1799 258.74 57.26 258.77 57.27 258.72C58.1 254.72 59.01 250.68 60.03 246.65C60.07 246.65 60.1 246.64 60.14 246.63C61.77 245.94 63.42 245.51 65.18 245.35C65.29 245.34 65.2899 245.14 65.1699 245.15C63.4699 245.23 61.8 245.53 60.1899 246.06C61.12 242.43 62.13 238.8 63.27 235.23C66.98 234.32 70.85 233.83 74.66 233.74C74.7 233.74 74.7099 233.68 74.6699 233.68C70.8299 233.5 67.22 233.83 63.47 234.63C63.67 234.02 63.87 233.41 64.08 232.8C66.58 232.23 69.1 231.75 71.66 231.52C71.71 231.52 71.7 231.44 71.66 231.44C69.15 231.51 66.6799 231.77 64.2399 232.34C65.2799 229.25 66.4099 226.2 67.6699 223.23C68.7099 220.77 69.94 218.44 71.3 216.19C73.35 215.73 75.3399 215.28 77.4499 215.09C77.5099 215.08 77.5 214.99 77.44 214.99C75.53 214.87 73.54 215.01 71.69 215.56C72.7 213.93 73.76 212.33 74.9 210.78C79.21 209.83 83.57 208.94 87.97 209.77C88.05 209.78 88.07 209.66 88 209.64C83.8099 208.54 79.65 209.17 75.47 210C75.93 209.39 76.39 208.8 76.86 208.2C79.5 207.38 82.13 206.99 84.91 206.94C84.97 206.94 84.9799 206.86 84.9199 206.85C82.3899 206.61 79.8599 206.85 77.4199 207.52C80.9799 203.1 84.91 198.94 88.8 194.83C88.96 194.61 88.8199 194.5 88.6299 194.69Z" fill="white"/>
    <path d="M88.4099 212.17C87.1499 212.04 85.8599 211.89 84.5899 212.04C84.4399 212.06 84.4499 212.31 84.5999 212.31C85.8599 212.35 87.1299 212.25 88.3899 212.32C88.4999 212.33 88.5099 212.18 88.4099 212.17Z" fill="white"/>
    <path d="M74.59 237.06C72.57 237.04 70.56 237.58 68.67 238.25C68.62 238.27 68.65 238.35 68.7 238.33C70.65 237.86 72.63 237.68 74.61 237.35C74.77 237.33 74.76 237.06 74.59 237.06Z" fill="white"/>
    <path d="M70.4499 228.46C69.6299 228.42 68.7399 228.56 67.9399 228.69C67.8599 228.7 67.8599 228.84 67.9499 228.84C68.7699 228.85 69.6599 228.88 70.4699 228.72C70.6099 228.7 70.5999 228.47 70.4499 228.46Z" fill="white"/>
    <path d="M0.990017 216.16C7.17002 218.31 13.3 221.07 18.84 224.56C24.74 228.29 29.63 233.03 33.71 238.68C42.07 250.26 48.62 263.52 52.77 277.17C55.1 284.83 56.59 292.65 57.1 300.64C57.12 300.93 56.69 300.97 56.65 300.68C54.88 286.88 50.95 273.4 45.02 260.81C39.2 248.46 31.84 235.32 20.6 227.14C14.48 222.69 7.60002 219.77 0.740017 216.69C0.380017 216.54 0.630017 216.03 0.990017 216.16Z" fill="#EBEBEB"/>
    <path d="M48.29 268.37C48.29 268.37 42.01 262.44 34.08 258.04C26.15 253.63 19.69 250.73 17.73 246.88C15.76 243.03 21.89 238.03 21.89 238.03C21.89 238.03 13.79 242 10.43 239.09C7.06 236.16 0 215.72 0 215.72C0 215.72 18.71 222.38 30.39 235.86C42.07 249.35 48.29 268.37 48.29 268.37Z" fill="#EBEBEB"/>
    <path d="M47.31 264.15C37.95 246.59 25.47 230.7 8.35997 220.21C8.34997 220.21 8.33997 220.22 8.34997 220.22C12.85 223.09 17 226.4 20.87 230.02C17.41 229.92 13.88 230.48 10.81 232.14C10.74 232.18 10.79 232.27 10.86 232.25C14.28 231.09 17.57 230.33 21.21 230.5C21.26 230.5 21.29 230.48 21.33 230.46C21.94 231.04 22.54 231.62 23.13 232.21C21.33 232.29 19.51 232.54 17.76 232.92C17.71 232.93 17.73 233 17.77 232.99C19.67 232.62 21.52 232.5 23.45 232.52C26.59 235.67 29.51 239.04 32.27 242.54C31.02 242.36 29.71 242.46 28.51 242.81C28.42 242.84 28.44 242.96 28.54 242.95C29.9 242.78 31.2 242.8 32.55 242.89C33.06 243.54 33.58 244.19 34.08 244.85C30.23 244.62 26.46 244.99 22.73 245.95C22.67 245.96 22.69 246.05 22.75 246.04C26.61 245.28 30.49 245.04 34.41 245.28C34.89 245.91 35.34 246.56 35.81 247.2C33.51 247.13 31.29 247.42 29.05 247.97C28.96 247.99 28.99 248.12 29.08 248.11C31.38 247.59 33.72 247.45 36.08 247.56C38.09 250.33 40.02 253.17 41.87 256.04C40.89 255.84 39.86 255.95 38.9 256.22C38.85 256.23 38.86 256.31 38.92 256.3C40.02 256.17 41.05 256.31 42.13 256.45C43.8 259.04 45.41 261.66 46.95 264.3C47.08 264.55 47.44 264.39 47.31 264.15Z" fill="white"/>
    <path d="M32.76 249.59C30.93 249.43 29.07 249.72 27.32 250.25C27.27 250.27 27.28 250.34 27.34 250.33C29.14 250 30.92 249.87 32.74 249.78C32.86 249.77 32.89 249.6 32.76 249.59Z" fill="white"/>
    <path d="M16.4399 228.18C15.6099 228.09 14.7499 228.19 13.9299 228.33C13.8299 228.35 13.8599 228.49 13.9599 228.48C14.7799 228.39 15.5999 228.42 16.4199 228.4C16.5599 228.39 16.5799 228.2 16.4399 228.18Z" fill="white"/>
    <path d="M72.4199 326.45H30.1899L36.2099 282.34L37.7499 271.03H64.8599L66.3999 282.34L72.4199 326.45Z" fill="#DBDBDB"/>
    <path d="M66.4 282.34H36.21L37.75 271.03H64.86L66.4 282.34Z" fill="#C7C7C7"/>
    <path d="M68.73 267.11H33.87V276.69H68.73V267.11Z" fill="#DBDBDB"/>
    <path d="M3.33997 326.45L79.35 326.2L155.36 326.12L307.38 325.95L459.4 326.11L535.41 326.2L611.42 326.45L535.41 326.69L459.4 326.78L307.38 326.95L155.36 326.78L79.35 326.69L3.33997 326.45Z" fill="#263238"/>
    <path d="M309.38 400.98C467.742 400.98 596.12 386.912 596.12 369.56C596.12 352.207 467.742 338.14 309.38 338.14C151.018 338.14 22.64 352.207 22.64 369.56C22.64 386.912 151.018 400.98 309.38 400.98Z" fill="#EBEBEB"/>
    <path d="M242.63 364.35C240.3 365.14 173.49 365.37 170.93 363.77C169.96 363.17 169.36 353.44 168.96 341.66C168.87 339.12 168.8 336.49 168.74 333.82L163.32 298.18L207.98 297.89L212.2 333.53L212.03 341.37C212.03 341.37 237.65 352.72 240.26 354.78C242.87 356.86 244.96 363.56 242.63 364.35Z" fill="#EB9481"/>
    <path d="M242.63 364.35C240.3 365.14 173.49 365.37 170.93 363.77C169.75 363.03 169.11 348.82 168.75 333.83L212.21 333.55L212.04 341.39C212.04 341.39 237.66 352.74 240.27 354.8C242.87 356.86 244.96 363.56 242.63 364.35Z" fill="white"/>
    <path d="M242.63 364.35C240.3 365.14 173.49 365.37 170.93 363.77C169.96 363.17 169.36 353.44 168.96 341.66L212.04 341.38C212.04 341.38 237.66 352.73 240.27 354.79C242.87 356.86 244.96 363.56 242.63 364.35Z" fill="#A6A6A6"/>
    <path d="M241.66 361.68C230.46 361.44 185.26 361.55 174.17 362.17C174.08 362.17 174.08 362.24 174.17 362.24C185.27 362.72 230.46 362.24 241.66 361.86C241.9 361.86 241.9 361.69 241.66 361.68Z" fill="#263238"/>
    <path d="M235.97 352.411C233.31 352.311 230.72 353.581 229.28 355.171C227.89 356.691 226.71 358.841 226.8 361.161C226.8 361.231 226.93 361.231 226.94 361.161C227.56 356.771 231.54 352.911 235.98 352.551C236.06 352.551 236.06 352.421 235.97 352.411Z" fill="#263238"/>
    <path d="M216.39 342.49C211.91 342.44 206.72 344.04 203.94 347.72C203.83 347.86 204.04 348.01 204.17 347.94C208.22 345.84 212.06 344.27 216.47 343.04C216.78 342.96 216.71 342.5 216.39 342.49Z" fill="#263238"/>
    <path d="M219.86 343.83C215.38 343.78 210.19 345.38 207.41 349.06C207.3 349.2 207.51 349.35 207.64 349.28C211.68 347.18 215.53 345.61 219.94 344.38C220.25 344.29 220.18 343.83 219.86 343.83Z" fill="#263238"/>
    <path d="M223.32 345.17C218.84 345.12 213.65 346.72 210.87 350.4C210.76 350.54 210.97 350.69 211.1 350.62C215.14 348.52 218.99 346.95 223.4 345.72C223.71 345.63 223.64 345.17 223.32 345.17Z" fill="#263238"/>
    <path d="M226.79 346.5C222.31 346.45 217.12 348.05 214.34 351.73C214.23 351.87 214.44 352.02 214.57 351.95C218.61 349.85 222.46 348.28 226.87 347.05C227.18 346.97 227.11 346.51 226.79 346.5Z" fill="#263238"/>
    <path d="M176.99 351.53C171.96 351.56 172 359.38 177.04 359.35C182.07 359.31 182.03 351.49 176.99 351.53Z" fill="#263238"/>
    <path d="M221.19 330.51C218.91 328.64 216.06 330.49 214.67 332.44C212.42 335.61 210.87 340.05 210.64 343.92C210.63 344.02 210.71 344.05 210.78 344.05C210.88 344.37 211.26 344.64 211.59 344.41C214.77 342.19 218.45 340.21 220.86 337.08C222.26 335.26 223.34 332.29 221.19 330.51ZM215.73 340.06C214.19 341.19 212.61 342.24 211.11 343.42C211.9 341.18 212.59 338.92 213.61 336.77C214.1 335.74 214.61 334.69 215.24 333.74C216.21 332.26 220.6 328.49 221.06 333.37C221.31 336.06 217.56 338.71 215.73 340.06Z" fill="#263238"/>
    <path d="M199.51 345.63C203.42 346.22 207.44 345.09 211.27 344.48C211.67 344.42 211.76 343.96 211.6 343.66C211.66 343.61 211.68 343.54 211.61 343.47C208.76 340.85 204.57 338.72 200.75 337.99C198.39 337.54 195.05 338.19 194.71 341.12C194.39 343.89 197.23 345.28 199.51 345.63ZM196.79 343.08C193.74 339.25 199.51 338.92 201.24 339.31C202.35 339.57 203.45 339.96 204.51 340.37C206.74 341.22 208.8 342.37 210.93 343.43C209.03 343.61 207.16 343.96 205.27 344.21C203.01 344.51 198.47 345.2 196.79 343.08Z" fill="#263238"/>
    <path d="M97.7 133.47C97.7 133.47 149.57 221.71 150.96 227.9C153.09 237.42 164.41 331.43 164.41 331.43L218.38 330.46C218.38 330.46 209.08 247.57 200.27 220.26C193.92 200.59 148.15 135.35 148.15 135.35L97.7 133.47Z" fill="#37474F"/>
    <path d="M213.47 322.19C205.72 322.13 178.25 321.82 167.94 322.79C167.86 322.8 167.86 322.93 167.94 322.94C171.49 323.45 205.73 322.66 213.47 322.41C213.62 322.4 213.61 322.19 213.47 322.19Z" fill="#263238"/>
    <path d="M106.55 141.57C109.95 146.9 113.54 152.12 117.01 157.41C120.49 162.7 123.95 167.99 127.37 173.32C134.2 183.96 140.86 194.71 147.39 205.53C150.45 210.6 153.37 215.73 155.48 221.26C157.56 226.74 158.98 232.45 160.03 238.2C161.09 243.99 161.78 249.84 162.44 255.69C163.14 261.92 163.83 268.14 164.53 274.37C165.95 287.11 167.37 299.85 168.8 312.59C168.97 314.15 169.15 315.72 169.3 317.28C169.32 317.51 168.91 317.55 168.88 317.32C167.29 304.66 165.97 291.97 164.53 279.29C163.81 272.98 163.09 266.67 162.38 260.36C161.71 254.49 161.08 248.62 160.17 242.78C159.28 237.05 158.11 231.34 156.37 225.79C154.55 219.99 151.96 214.55 148.91 209.28C142.66 198.49 136.04 187.89 129.42 177.31C122.74 166.64 116.01 156.01 109.02 145.53C108.16 144.24 107.29 142.95 106.39 141.68C106.31 141.56 106.49 141.46 106.55 141.57Z" fill="#263238"/>
    <path d="M114.7 369.56C112.24 369.41 48.7 343.67 46.93 341.23C46.87 341.15 46.84 340.99 46.83 340.76C46.84 338.58 51.24 330.93 54.92 320.89C55.15 320.25 56.79 317.27 59.07 313.25C65.33 302.22 76.4 283.33 76.4 283.33L117.93 299.83L98.05 329.59L94.96 336.79C94.96 336.79 114.45 356.93 116.1 359.82C117.73 362.7 117.15 369.7 114.7 369.56Z" fill="#EB9481"/>
    <path d="M114.7 369.56C112.24 369.41 48.7 343.67 46.93 341.23C46.87 341.15 46.84 340.99 46.83 340.76C46.84 338.58 51.24 330.93 54.92 320.89C55.15 320.25 56.79 317.27 59.07 313.25L98.05 329.58L94.96 336.78C94.96 336.78 114.45 356.92 116.1 359.81C117.73 362.7 117.15 369.7 114.7 369.56Z" fill="white"/>
    <path d="M114.7 369.55C112.24 369.41 48.7099 343.66 46.9399 341.22C46.2699 340.3 49.1099 331.62 54.9299 320.89L94.9599 336.79C94.9599 336.79 114.45 356.92 116.1 359.81C117.73 362.7 117.15 369.7 114.7 369.55Z" fill="#A6A6A6"/>
    <path d="M114.8 366.72C104.51 362.3 62.5699 345.44 52.0599 341.86C51.9699 341.83 51.9499 341.89 52.0299 341.93C62.1399 346.53 104.21 363.05 114.73 366.9C114.96 366.97 115.02 366.81 114.8 366.72Z" fill="#263238"/>
    <path d="M113 355.99C110.57 354.9 107.7 355.11 105.76 356.04C103.9 356.93 102 358.47 101.21 360.66C101.19 360.72 101.3 360.77 101.34 360.71C103.56 356.88 108.7 354.79 112.95 356.12C113.04 356.14 113.08 356.02 113 355.99Z" fill="#263238"/>
    <path d="M98.5698 339.44C94.4298 337.71 89.0198 337.25 85.0698 339.62C84.9198 339.71 85.0498 339.93 85.1998 339.91C89.7398 339.48 93.8898 339.47 98.4398 339.98C98.7598 340.02 98.8698 339.57 98.5698 339.44Z" fill="#263238"/>
    <path d="M101.28 341.98C97.1399 340.25 91.7299 339.79 87.7799 342.16C87.6299 342.25 87.7599 342.47 87.9099 342.45C92.4499 342.02 96.5999 342.01 101.15 342.52C101.47 342.56 101.58 342.11 101.28 341.98Z" fill="#263238"/>
    <path d="M104 344.52C99.8599 342.8 94.4499 342.33 90.4999 344.7C90.3499 344.79 90.4799 345.01 90.6299 344.99C95.1699 344.56 99.3199 344.55 103.87 345.06C104.18 345.1 104.29 344.65 104 344.52Z" fill="#263238"/>
    <path d="M106.71 347.06C102.57 345.33 97.1598 344.87 93.2098 347.24C93.0598 347.33 93.1898 347.55 93.3398 347.53C97.8798 347.1 102.03 347.09 106.58 347.6C106.89 347.64 107 347.19 106.71 347.06Z" fill="#263238"/>
    <path d="M58.6598 333.039C53.9898 331.179 51.0898 338.439 55.7698 340.299C60.4498 342.159 63.3398 334.899 58.6598 333.039Z" fill="#263238"/>
    <path d="M107.52 330.139C106.11 327.549 102.78 328.189 100.75 329.489C97.4699 331.579 94.3799 335.119 92.7099 338.619C92.6699 338.709 92.7199 338.769 92.7899 338.789C92.7599 339.119 93.0099 339.519 93.3999 339.429C97.1799 338.569 101.34 338.109 104.74 336.119C106.73 334.939 108.85 332.589 107.52 330.139ZM98.8699 336.939C97.0199 337.409 95.1599 337.789 93.3199 338.319C94.8899 336.539 96.3799 334.709 98.1399 333.089C98.9799 332.319 99.8499 331.539 100.78 330.889C102.23 329.879 107.71 328.039 106.31 332.729C105.55 335.329 101.08 336.379 98.8699 336.939Z" fill="#263238"/>
    <path d="M81.7498 336.019C85.1498 338.029 89.2998 338.489 93.0798 339.369C93.4698 339.459 93.7298 339.069 93.6998 338.739C93.7698 338.719 93.8198 338.659 93.7798 338.569C92.1198 335.069 89.0398 331.519 85.7598 329.419C83.7398 328.119 80.3998 327.469 78.9898 330.049C77.6498 332.489 79.7598 334.839 81.7498 336.019ZM80.1898 332.639C78.7998 327.939 84.2798 329.799 85.7298 330.819C86.6598 331.469 87.5298 332.249 88.3698 333.029C90.1198 334.649 91.5998 336.489 93.1698 338.269C91.3398 337.729 89.4798 337.349 87.6298 336.869C85.4198 336.299 80.9498 335.229 80.1898 332.639Z" fill="#263238"/>
    <path d="M101.26 327.92L54.7699 309.15C54.7699 309.15 112.41 224.41 112.83 218.1C113.21 212.51 87.8899 163.89 86.8899 149.72C85.8099 134.43 93.1799 122.59 101.27 115.25L149.23 135.63C149.23 135.63 144.17 143.73 136.2 148.23C136.2 148.23 160.79 204.43 159.4 221.71C157.99 239.09 101.26 327.92 101.26 327.92Z" fill="#37474F"/>
    <path d="M103.32 319.08C96.5999 316.19 98.5699 316.92 91.8099 314.11C88.4999 312.73 66.7799 303.7 63.4699 302.96C63.3999 302.94 63.3499 303.06 63.4099 303.1C66.2999 304.87 88.1799 313.52 91.5199 314.84C98.3299 317.52 96.3999 316.68 103.24 319.29C103.37 319.33 103.45 319.14 103.32 319.08Z" fill="#263238"/>
    <path d="M144.09 147.21C139.09 148.28 134.19 150.05 129.48 151.95C129.3 152.02 129.38 152.3 129.58 152.24C134.48 150.81 139.47 149.47 144.28 147.78C144.66 147.64 144.47 147.13 144.09 147.21Z" fill="#263238"/>
    <path d="M138.4 145.24C137.93 146.06 137.53 146.93 137.17 147.81C136.89 148.49 136.54 149.22 136.54 149.96C136.54 150.1 136.73 150.14 136.82 150.05C137.38 149.5 137.67 148.7 138.02 148.02C138.43 147.23 138.85 146.44 139.24 145.64C139.5 145.11 138.69 144.73 138.4 145.24Z" fill="#263238"/>
    <path d="M138.98 140.73C139.27 139.99 139.57 139.26 139.88 138.52C140.2 137.76 140.57 137.02 140.84 136.24C140.88 136.12 141.08 136.2 141.03 136.32C140.74 137.06 140.55 137.85 140.31 138.61C140.07 139.37 139.83 140.13 139.57 140.89C139.1 142.3 138.53 143.7 137.92 145.06C138.7 145.05 139.51 145.02 140.22 144.66C140.99 144.27 141.46 143.45 141.84 142.71C142.26 141.88 142.65 141.04 143.09 140.22C143.57 139.31 144.1 138.42 144.42 137.44C144.46 137.32 144.65 137.4 144.61 137.52C143.89 139.54 143.18 141.57 142.05 143.43C141.61 144.16 141.25 144.93 140.44 145.21C139.57 145.52 138.61 145.46 137.7 145.39C137.59 145.42 137.44 145.35 137.48 145.21C137.92 143.72 138.4 142.19 138.98 140.73Z" fill="#263238"/>
    <path d="M136.94 150.07C138.64 153.68 140.14 157.28 141.74 160.88C143.3 164.4 144.75 167.96 146.17 171.53C149.03 178.76 151.59 186.12 153.84 193.56C154.95 197.24 155.98 200.95 156.9 204.68C157.83 208.42 158.73 212.2 159.12 216.05C159.51 219.91 159.23 223.72 158.16 227.45C157.07 231.23 155.63 234.54 153.93 238.08C152.89 240.24 152.53 239.95 153.03 238.86C154.46 235.76 158.21 226.37 157.94 218.48C157.81 214.67 157.03 210.92 156.17 207.22C155.29 203.44 154.3 199.69 153.22 195.97C151.09 188.63 148.56 181.44 145.96 174.26C144.5 170.24 142.94 166.26 141.46 162.24C139.97 158.2 138.43 154.56 136.78 150.14C136.72 150.02 136.89 149.96 136.94 150.07Z" fill="#263238"/>
    <path d="M101.65 138.13C102.48 137.82 103.64 138.33 104.49 138.47C105.58 138.65 106.68 138.76 107.78 138.8C108.87 138.84 109.96 138.79 111.05 138.69C112.13 138.58 113.24 138.45 114.18 137.86C115.77 136.87 117.09 135.13 118.17 133.62C119.35 131.97 120.58 130.07 121.28 128.16C121.32 128.04 121.49 128.12 121.46 128.24C121.11 129.35 120.85 130.48 120.4 131.57C119.98 132.59 119.44 133.57 118.87 134.52C117.8 136.28 116.57 138.17 114.73 139.22C112.8 140.32 110.32 140.25 108.17 140.13C106.93 140.06 105.69 139.89 104.47 139.64C103.59 139.45 102.11 139.31 101.55 138.54C101.43 138.4 101.49 138.19 101.65 138.13Z" fill="#263238"/>
    <path d="M68.0399 300.29C75.6799 288.73 83.1799 277.07 90.5399 265.33C97.9199 253.56 105.17 241.7 112.32 229.78C114.03 226.93 116 224.08 117.1 220.92C118.3 217.49 117.62 214.16 116.53 210.81C114.54 204.65 112.07 198.66 109.39 192.77C106.71 186.86 103.82 181.05 100.98 175.22C98.1599 169.44 95.1699 163.63 93.0299 157.55C90.9899 151.74 90.2099 145.72 91.7799 139.7C93.3299 133.72 96.6899 128.36 100.2 123.35C101.13 122.03 102.07 120.72 103 119.4C103.07 119.3 103.22 119.42 103.15 119.52C99.2799 124.74 95.5099 130.27 93.2399 136.4C92.1199 139.43 91.3899 142.62 91.3199 145.85C91.2499 149.13 91.8599 152.39 92.8299 155.52C94.7099 161.6 97.6799 167.36 100.45 173.07C103.28 178.91 106.18 184.71 108.91 190.6C111.65 196.52 114.22 202.54 116.33 208.72C117.27 211.47 118.32 214.35 118.25 217.3C118.18 220.53 116.64 223.44 115.04 226.16C108.09 238.02 100.87 249.72 93.5699 261.36C86.2399 273.04 78.7599 284.64 71.1599 296.15C70.1999 297.6 69.2399 299.05 68.2799 300.5C68.1799 300.68 67.9199 300.47 68.0399 300.29Z" fill="#263238"/>
    <path d="M151.89 81.7306C156.22 91.2306 178.08 104.321 188.32 105.731C195.69 106.741 218.06 107.091 225.73 105.921C234.72 104.551 227.85 80.2906 222.54 80.9106C207.94 82.6206 195.54 84.5205 191.65 84.5205C186.89 84.5205 161.14 76.2505 158.03 75.0905C150.44 72.2505 149.44 76.3506 151.89 81.7306Z" fill="#EB9481"/>
    <path d="M152.03 84.2502C157.51 92.3602 175.73 105.62 175.73 105.62L178.26 100.02L186.63 81.5102C186.63 81.5102 169.9 76.2302 158.89 73.8802C157.4 73.5602 156.09 73.3702 154.95 73.3202C147.91 72.9302 147.3 77.2702 152.03 84.2502Z" fill="#FFC727"/>
    <path d="M152.03 84.2502C157.51 92.3602 175.73 105.62 175.73 105.62L178.26 100.02C171.47 92.1302 160.98 80.1802 154.95 73.3102C147.91 72.9302 147.3 77.2702 152.03 84.2502Z" fill="#263238"/>
    <path d="M172.44 101.87C173.83 98.47 180.01 84.74 181.55 81.86C181.66 81.66 181.81 81.68 181.72 81.9C177.8 92.19 174.1 98.65 172.57 101.92C172.54 102 172.4 101.96 172.44 101.87Z" fill="#263238"/>
    <path d="M219.87 81.18C228.76 80.01 239.75 78.02 249.05 81.97C250.88 82.75 251.54 84.11 251.54 84.11C255.74 85.81 256.2 88.3 256.2 88.3C259.63 91.08 259.75 93.7 259.75 93.7C259.75 93.7 264.66 95.75 263.92 98.92C263.1 102.48 256.36 98.91 251.45 99.21C240.21 99.9 224.42 104.03 221.2 104.56L219.87 81.18Z" fill="#EB9481"/>
    <path d="M239.16 91.6604C242.47 91.5204 245.72 91.3004 249.04 91.6104C252.68 91.9504 256.12 92.8904 259.64 93.7604C259.75 93.7904 259.8 93.6404 259.69 93.5904C253.55 91.0104 245.68 90.3304 239.15 91.5104C239 91.5404 239 91.6604 239.16 91.6604Z" fill="#263238"/>
    <path d="M237.76 84.9299C240.99 84.9699 246.67 85.0899 256.17 88.3999C256.2 88.4099 256.23 88.3599 256.2 88.3499C250.32 85.3799 244.29 84.3199 237.77 84.7799C237.56 84.7899 237.54 84.9299 237.76 84.9299Z" fill="#263238"/>
    <path d="M237.07 81.3095C242.56 81.5895 245.99 82.4695 251.51 84.1295C251.54 84.1395 251.57 84.0895 251.53 84.0695C245.45 81.5195 242.96 81.2895 237.05 81.1195C236.85 81.1095 236.86 81.2895 237.07 81.3095Z" fill="#263238"/>
    <path d="M237.96 100.9C236.53 101.57 236.87 102.32 239.61 102.96C242.37 103.61 253.69 103.78 253.29 107.73C252.9 111.7 236.88 111.19 232.41 109.79C227.94 108.4 221.2 104.55 221.2 104.55C224.34 104.03 231.82 102.02 237.96 100.9Z" fill="#EB9481"/>
    <path d="M163.78 96.8798C163.71 98.5898 163.54 100.33 163.3 102.05C163.32 101.99 163.35 101.93 163.37 101.87C163.7 100.97 164.03 100.05 164.43 99.1798C164.45 99.1298 164.53 99.1498 164.52 99.1998C164.34 100.14 164.01 101.09 163.65 101.98C163.48 102.41 163.3 102.83 163.12 103.25C163 104.02 162.86 104.78 162.7 105.53C162.4 106.96 161.05 113.04 160.75 114.07C160.69 114.29 160.43 114.24 160.44 114C160.51 112.88 161.65 106.54 161.88 105.11C162.32 102.36 162.93 99.5498 163.66 96.8598C163.69 96.7898 163.79 96.8198 163.78 96.8798Z" fill="#263238"/>
    <path d="M153.36 142.34C150.69 143.72 147.25 145.85 131.75 142.79C130.78 142.59 129.81 142.36 128.83 142.06C114.3 137.69 96.86 120.6 95.88 119.4C95.88 119.4 118.96 81.9695 148.49 70.1995C152.14 68.7495 158.18 71.5495 161.53 75.0395C162.72 76.2895 165.32 85.4695 164.32 92.9095C163.32 100.36 156.04 140.98 153.36 142.34Z" fill="#FFC727"/>
    <path d="M151.3 92.5801C151.38 93.3801 151.32 94.1701 151.22 94.9501C151.1 95.7301 150.95 96.5001 150.65 97.2501C150.56 96.4501 150.63 95.6601 150.73 94.8801C150.84 94.1001 150.99 93.3301 151.3 92.5801Z" fill="white"/>
    <path d="M141.23 118.07C141.31 118.87 141.25 119.66 141.15 120.44C141.03 121.22 140.88 121.99 140.58 122.74C140.49 121.94 140.56 121.15 140.66 120.37C140.78 119.59 140.93 118.82 141.23 118.07Z" fill="white"/>
    <path d="M124.12 98.8096C124.2 99.6096 124.14 100.4 124.04 101.18C123.92 101.96 123.77 102.73 123.47 103.48C123.38 102.68 123.45 101.89 123.55 101.11C123.66 100.33 123.82 99.5596 124.12 98.8096Z" fill="white"/>
    <path d="M157.89 116.78C157.97 117.58 157.91 118.37 157.81 119.15C157.69 119.93 157.54 120.7 157.24 121.45C157.15 120.65 157.22 119.86 157.32 119.08C157.44 118.3 157.59 117.53 157.89 116.78Z" fill="white"/>
    <path d="M135.92 95.5C136.72 95.42 137.51 95.48 138.29 95.58C139.07 95.7 139.84 95.85 140.59 96.15C139.79 96.24 139 96.17 138.22 96.07C137.44 95.96 136.67 95.8 135.92 95.5Z" fill="white"/>
    <path d="M116.5 113.92C117.3 113.84 118.09 113.9 118.87 114C119.65 114.12 120.42 114.27 121.17 114.57C120.37 114.66 119.58 114.59 118.8 114.49C118.02 114.37 117.25 114.22 116.5 113.92Z" fill="white"/>
    <path d="M139.34 133.85C140.14 133.77 140.93 133.83 141.71 133.93C142.49 134.05 143.26 134.2 144.01 134.5C143.21 134.59 142.42 134.52 141.64 134.42C140.86 134.3 140.09 134.15 139.34 133.85Z" fill="white"/>
    <path d="M110.51 126.61C111.31 126.53 112.1 126.59 112.88 126.69C113.66 126.81 114.43 126.96 115.18 127.26C114.38 127.35 113.59 127.28 112.81 127.18C112.03 127.06 111.26 126.91 110.51 126.61Z" fill="white"/>
    <path d="M151.15 74.6699C151.95 74.5899 152.74 74.6499 153.52 74.7499C154.3 74.8699 155.07 75.0199 155.82 75.3199C155.02 75.4099 154.23 75.3399 153.45 75.2399C152.67 75.1199 151.9 74.9699 151.15 74.6699Z" fill="white"/>
    <path d="M145.5 81.0498C144.99 81.6798 144.39 82.1898 143.77 82.6698C143.14 83.1398 142.49 83.5698 141.74 83.8898C142.25 83.2598 142.85 82.7498 143.47 82.2698C144.11 81.7998 144.76 81.3598 145.5 81.0498Z" fill="white"/>
    <path d="M114.71 99.1699C114.2 99.7999 113.6 100.31 112.98 100.79C112.35 101.26 111.7 101.69 110.95 102.01C111.46 101.38 112.06 100.87 112.68 100.39C113.31 99.9299 113.97 99.4899 114.71 99.1699Z" fill="white"/>
    <path d="M153.16 107.36C152.65 107.99 152.05 108.5 151.43 108.98C150.8 109.45 150.15 109.88 149.4 110.2C149.91 109.57 150.51 109.06 151.13 108.58C151.76 108.12 152.41 107.68 153.16 107.36Z" fill="white"/>
    <path d="M128.26 123.04C127.75 123.67 127.15 124.18 126.53 124.66C125.9 125.13 125.25 125.56 124.5 125.88C125.01 125.25 125.61 124.74 126.23 124.26C126.86 123.79 127.51 123.36 128.26 123.04Z" fill="white"/>
    <path d="M162.7 85.9297C162.19 86.5597 161.59 87.0697 160.97 87.5497C160.34 88.0197 159.69 88.4497 158.94 88.7697C159.45 88.1397 160.05 87.6297 160.67 87.1497C161.3 86.6897 161.95 86.2497 162.7 85.9297Z" fill="white"/>
    <path d="M162.17 104.11C161.54 103.6 161.03 103 160.55 102.38C160.08 101.75 159.65 101.1 159.33 100.35C159.96 100.86 160.47 101.46 160.95 102.08C161.42 102.71 161.86 103.37 162.17 104.11Z" fill="white"/>
    <path d="M106.68 116.62C106.05 116.11 105.54 115.51 105.06 114.89C104.59 114.26 104.16 113.61 103.84 112.86C104.47 113.37 104.98 113.97 105.46 114.59C105.93 115.23 106.36 115.88 106.68 116.62Z" fill="white"/>
    <path d="M155.43 131.52C154.8 131.01 154.29 130.41 153.81 129.79C153.34 129.16 152.91 128.51 152.59 127.76C153.22 128.27 153.73 128.87 154.21 129.49C154.68 130.12 155.11 130.78 155.43 131.52Z" fill="white"/>
    <path d="M131 89.0696C130.37 88.5596 129.86 87.9596 129.38 87.3396C128.91 86.7096 128.48 86.0596 128.16 85.3096C128.79 85.8196 129.3 86.4196 129.78 87.0396C130.24 87.6696 130.68 88.3296 131 89.0696Z" fill="white"/>
    <path d="M131.43 140C130.8 139.49 130.29 138.89 129.81 138.27C129.34 137.64 128.91 136.99 128.59 136.24C129.22 136.75 129.73 137.35 130.21 137.97C130.68 138.6 131.11 139.25 131.43 140Z" fill="white"/>
    <path d="M135.58 109.949C134.95 109.439 134.44 108.839 133.96 108.219C133.49 107.589 133.06 106.939 132.74 106.189C133.37 106.699 133.88 107.299 134.36 107.919C134.83 108.559 135.27 109.209 135.58 109.949Z" fill="white"/>
    <path d="M156.11 85.0098C152.35 84.3098 148.8 76.5198 148.35 71.2798C148.32 70.9198 150.11 68.0698 152.12 64.4998C153.33 62.3298 154.63 59.8798 155.65 57.5698C155.86 57.0898 157.09 58.6798 157.09 58.6798L159.77 60.7298L168.62 67.5198C168.62 67.5198 165.04 71.7498 163.28 75.7998C163.14 76.1398 163.03 76.4698 162.96 76.7998C162.95 76.8498 162.94 76.8998 162.91 76.9698C162.43 78.8998 159.74 85.6898 156.11 85.0098Z" fill="#EB9481"/>
    <path d="M162.98 76.7994C162.97 76.8494 162.96 76.8994 162.93 76.9694C162.45 76.8294 161.94 76.6394 161.4 76.3894C151.71 71.8494 155.98 58.8594 155.98 58.8594L159.77 60.7394L168.62 67.5294C168.62 67.5294 165.04 71.7594 163.28 75.8094C163.15 76.1394 163.05 76.4694 162.98 76.7994Z" fill="#263238"/>
    <path d="M178.8 39.8496C178.8 39.8496 183.23 42.6596 183.26 47.6596C183.29 52.6596 181.3 57.5496 180.84 57.7196C180.37 57.8996 178.8 39.8496 178.8 39.8496Z" fill="#263238"/>
    <path d="M156.82 42.4396C154.16 47.6996 154.29 64.2396 157.62 68.4996C162.44 74.6796 171.72 76.8096 177.33 70.6996C182.76 64.7796 182.21 43.2196 178.36 39.1996C172.7 33.2896 160.76 34.6796 156.82 42.4396Z" fill="#EB9481"/>
    <path d="M170.94 55.6997C170.93 55.6597 170.85 55.7597 170.86 55.7997C170.92 56.9297 170.8 58.2297 169.79 58.6297C169.76 58.6397 169.76 58.6997 169.8 58.6897C171.04 58.4797 171.18 56.7597 170.94 55.6997Z" fill="#263238"/>
    <path d="M169.91 54.5401C168.09 54.4401 168.04 58.0901 169.72 58.1701C171.37 58.2601 171.43 54.6201 169.91 54.5401Z" fill="#263238"/>
    <path d="M177.11 55.6594C177.12 55.6194 177.2 55.7094 177.2 55.7594C177.15 56.8894 177.27 58.1894 178.29 58.5794C178.32 58.5894 178.32 58.6494 178.28 58.6394C177.03 58.4394 176.88 56.7194 177.11 55.6594Z" fill="#263238"/>
    <path d="M178.14 54.4897C179.96 54.3797 180.04 58.0197 178.36 58.1197C176.7 58.2297 176.62 54.5897 178.14 54.4897Z" fill="#263238"/>
    <path d="M168.77 51.7702C169.27 51.6502 169.71 51.4602 170.19 51.3002C170.73 51.1102 171.18 51.0202 171.54 50.5402C171.73 50.2802 171.66 49.8202 171.43 49.6102C170.89 49.1202 170.17 49.1802 169.51 49.3802C168.79 49.6002 168.29 49.9502 167.87 50.5702C167.47 51.1702 168.11 51.9302 168.77 51.7702Z" fill="#263238"/>
    <path d="M179.4 53.3898C178.9 53.2998 178.45 53.1298 177.96 52.9898C177.41 52.8298 176.95 52.7598 176.57 52.2998C176.36 52.0498 176.41 51.5898 176.63 51.3598C177.14 50.8398 177.86 50.8698 178.54 51.0298C179.27 51.2098 179.78 51.5298 180.24 52.1298C180.67 52.7098 180.06 53.4998 179.4 53.3898Z" fill="#263238"/>
    <path d="M168.37 66.3802C168.64 66.6502 168.9 67.0202 169.31 67.0602C169.7 67.1002 170.16 66.9302 170.53 66.8002C170.57 66.7902 170.6 66.8302 170.58 66.8602C170.28 67.2902 169.66 67.5502 169.14 67.4502C168.63 67.3502 168.39 66.9102 168.27 66.4402C168.25 66.3702 168.34 66.3402 168.37 66.3802Z" fill="#263238"/>
    <path d="M174.92 61.5602C174.92 61.5602 174.97 63.2502 174.88 64.0302C174.87 64.1002 172.66 63.6702 170.28 64.1902C169.92 64.2702 169.96 63.9802 170.37 63.7902C171.2 63.4102 172.24 63.0502 174.28 63.2702C174.36 63.0602 174.16 60.6702 174.28 60.6802C174.71 60.6902 175.53 61.0702 176.02 61.2802C176.02 57.7602 175.46 54.2702 175.51 50.7702C175.51 50.6502 175.7 50.6302 175.72 50.7402C176.57 54.3602 176.65 58.4102 176.75 62.0402C176.77 62.5002 175.22 61.7302 174.92 61.5602Z" fill="#263238"/>
    <path d="M172.67 63.4302C172.67 63.4302 171.88 65.4102 170.57 65.9402C169.06 66.5502 168.54 65.1802 170.08 63.9702C170.9 63.3402 172.67 63.4302 172.67 63.4302Z" fill="#263238"/>
    <path d="M171.1 65.6305C170.93 65.7605 170.76 65.8705 170.57 65.9405C169.18 66.5005 168.63 65.3905 169.75 64.2705C170.51 64.3305 171.34 64.6105 171.1 65.6305Z" fill="#FF99BA"/>
    <path d="M156.06 56.6002C157.89 57.1602 159.99 51.6602 160.59 49.5502C161.11 47.6902 161.72 41.7802 161.81 41.3702C161.9 40.9702 169.78 46.6002 174.39 45.2502C179 43.9002 182.08 39.7702 182.14 37.8402C182.2 35.9102 176.48 31.0102 171.53 30.7602C166.58 30.5102 159.88 36.8002 159.88 36.8002C159.88 36.8002 162.16 34.0802 162.08 33.8602C162 33.6402 158.8 34.9202 158.21 37.1902C158.21 37.1902 158.84 34.3302 158.6 34.2802C158.36 34.2302 155.87 36.6802 156.43 38.5302C156.43 38.5302 153.55 41.0202 153.29 43.7502C153.02 46.4802 153.91 55.9402 156.06 56.6002Z" fill="#263238"/>
    <path d="M177.66 44.2905C176.26 44.9305 174.85 45.6405 173.31 45.8505C171.64 46.0705 169.9 45.6505 168.34 45.0505C166.75 44.4405 165.3 43.5505 163.98 42.4705C162.83 41.5205 161.8 40.3805 160.57 39.5305C160.26 39.3205 159.91 39.7605 160.09 40.0505C161.96 42.8505 165.27 45.2005 168.45 46.2105C171.8 47.2705 174.96 46.5305 177.67 44.3305C177.69 44.3105 177.68 44.2805 177.66 44.2905Z" fill="#263238"/>
    <path d="M157.97 56.1103C157.97 56.1103 155.13 50.3503 152.57 51.2803C150.01 52.2103 151.59 60.1803 154.2 61.6303C156.81 63.0903 158.21 60.7003 158.21 60.7003L157.97 56.1103Z" fill="#EB9481"/>
    <path d="M153.08 53.5499C153.04 53.5399 153.02 53.5999 153.05 53.6199C154.87 54.7099 155.62 56.6699 156.05 58.6399C155.58 57.8299 154.86 57.3199 153.79 57.8599C153.73 57.8899 153.77 57.9799 153.83 57.9699C154.65 57.9199 155.21 58.1499 155.65 58.8699C155.96 59.3799 156.13 59.9899 156.33 60.5499C156.39 60.7399 156.72 60.6899 156.69 60.4799C156.69 60.4599 156.68 60.4499 156.68 60.4299C157.1 57.9699 155.7 54.2099 153.08 53.5499Z" fill="#263238"/>
    <path d="M139.22 81.8201C137.26 93.1501 149.5 131.32 157.37 138.45C169.08 149.05 190.73 156.02 198.58 158.29C202 159.28 211.46 135.22 208 133.63C200.59 130.24 177.57 123.06 175.4 121.21C173.23 119.37 160 100.33 154.12 89.3601C146.24 74.6401 140.21 76.0901 139.22 81.8201Z" fill="#EB9481"/>
    <path d="M202.17 131.521C202.17 131.521 212.38 134.121 218.98 136.141C222.66 137.261 228.8 139.761 231.13 141.821C234.61 144.911 247.19 160.031 243.59 163.161C240.33 165.991 231.17 151.62 231.17 151.62C231.17 151.62 241.69 165.301 237.14 167.991C232.59 170.681 224.4 153.071 224.4 153.071C224.4 153.071 234.9 167.37 229.76 169.4C225.88 170.93 217.56 155.4 217.56 155.4C217.56 155.4 226.5 167.751 222.58 169.501C218.25 171.431 209.67 157.581 209.67 157.581C198.95 160.351 192.72 157.281 188.54 154.571C187.53 153.931 202.17 131.521 202.17 131.521Z" fill="#EB9481"/>
    <path d="M227.83 146.66C229.12 148.22 230.44 149.8 231.6 151.47C232.75 153.14 233.84 154.86 234.83 156.63C237.26 160.98 238.1 164.08 238.03 163.89C236.31 159.49 232.28 153.44 231.13 151.77C229.98 150.1 228.92 148.37 227.77 146.7C227.74 146.66 227.8 146.62 227.83 146.66Z" fill="#263238"/>
    <path d="M221.72 150.7C223.94 152.46 228.59 159.01 230.39 163.39C230.47 163.57 230.37 163.56 230.26 163.39C228.85 161.22 223.18 152.82 221.67 150.73C221.64 150.71 221.69 150.68 221.72 150.7Z" fill="#263238"/>
    <path d="M215.85 153.23C218.42 155.77 220.57 159.24 222.27 163.25C222.35 163.43 222.2 163.4 222.1 163.23C220.03 159.86 218.43 157.2 215.75 153.31C215.7 153.26 215.79 153.17 215.85 153.23Z" fill="#263238"/>
    <path d="M150.35 82.6604C141.22 69.7504 135.76 74.5304 137.59 88.5504C139.3 101.66 143.9 117.28 143.9 117.28L166.94 106.12C166.94 106.11 156.19 90.9204 150.35 82.6604Z" fill="#FFC727"/>
    <path d="M155.93 87.7305C156.26 88.4705 156.43 89.2305 156.58 90.0105C156.71 90.7805 156.8 91.5705 156.74 92.3705C156.41 91.6305 156.23 90.8705 156.09 90.0905C155.96 89.3205 155.87 88.5405 155.93 87.7305Z" fill="white"/>
    <path d="M142.3 95.5897C143.04 95.2597 143.81 95.0897 144.58 94.9397C145.35 94.8097 146.14 94.7197 146.94 94.7797C146.2 95.1097 145.44 95.2897 144.66 95.4297C143.88 95.5497 143.1 95.6397 142.3 95.5897Z" fill="white"/>
    <path d="M142.89 75.5C142.6 76.25 142.18 76.92 141.74 77.57C141.28 78.21 140.79 78.82 140.18 79.35C140.47 78.6 140.89 77.93 141.33 77.28C141.79 76.65 142.28 76.03 142.89 75.5Z" fill="white"/>
    <path d="M162.33 101.62C162.04 102.37 161.62 103.04 161.18 103.69C160.72 104.33 160.23 104.94 159.62 105.47C159.91 104.72 160.33 104.05 160.77 103.4C161.23 102.76 161.72 102.15 162.33 101.62Z" fill="white"/>
    <path d="M146.39 109.45C145.64 109.16 144.97 108.74 144.32 108.3C143.68 107.84 143.07 107.35 142.54 106.74C143.29 107.03 143.96 107.45 144.61 107.89C145.25 108.35 145.86 108.84 146.39 109.45Z" fill="white"/>
    <path d="M153.41 86.5405C154.64 88.2305 155.91 89.8805 157.17 91.5405C156.85 90.7005 156.57 89.8605 156.32 88.9905C156.31 88.9505 156.37 88.9305 156.38 88.9705C156.64 89.6305 156.92 90.2905 157.17 90.9505C157.29 91.2705 157.41 91.5905 157.53 91.9105C157.56 91.9805 157.58 92.0505 157.61 92.1205C158.6 93.4105 159.58 94.7105 160.52 96.0305C161.65 97.6005 162.74 99.2105 163.84 100.811C164.97 102.461 166.05 104.401 167.24 106.011C167.34 106.151 165.2 107.011 165 107.131C164.8 107.241 164.66 107.051 164.87 106.981C165.07 106.921 166.77 105.881 166.79 105.861C165.69 104.251 164.42 102.761 163.27 101.181C162.13 99.6105 160.98 98.0505 159.87 96.4505C157.62 93.2105 155.55 89.8505 153.32 86.6005C153.32 86.5405 153.38 86.5005 153.41 86.5405Z" fill="#263238"/>
    <path d="M138.16 97.8205C138.51 98.5005 138.89 99.1805 139.2 99.8805C139.33 100.171 139.45 100.461 139.58 100.751C139.05 98.2505 138.54 95.7605 138.03 93.2605C138.02 93.2305 138.07 93.2205 138.08 93.2505C139.14 97.3005 140.2 101.341 141.18 105.411C142.12 109.291 143.24 113.211 143.78 117.171C144.1 117.061 145.89 116.321 145.94 116.441C145.99 116.561 143.6 117.691 143.56 117.591C142.26 113.731 141.45 109.331 140.56 105.361C140.31 104.241 140.08 103.121 139.84 101.991C139.58 101.311 139.27 100.661 138.96 100.011C138.63 99.3105 138.37 98.5905 138.09 97.8705C138.07 97.8105 138.14 97.7805 138.16 97.8205Z" fill="#263238"/>
    <path d="M144.27 113.42C147.47 111.61 160.84 104.69 163.84 103.39C164.05 103.3 164.16 103.41 163.95 103.53C154.49 109.17 147.58 111.93 144.35 113.55C144.26 113.58 144.18 113.47 144.27 113.42Z" fill="#263238"/>
    <path d="M510.7 376.32H206.02L250.07 126.47H554.75L510.7 376.32Z" fill="#FFC727"/>
    <path d="M354.35 100.59H254.64L250.07 126.47H356.78L354.35 100.59Z" fill="#FFC727"/>
    <g opacity="0.1">
      <path d="M510.7 376.32H206.02L250.07 126.47H554.75L510.7 376.32Z" fill="black"/>
      <path d="M354.35 100.59H254.64L250.07 126.47H356.78L354.35 100.59Z" fill="black"/>
    </g>
    <path d="M243.88 111.15C243.49 109.7 243.4 108.25 243.38 106.8C243.39 105.35 243.48 103.9 243.88 102.45C244.28 103.9 244.37 105.35 244.38 106.8C244.36 108.25 244.27 109.7 243.88 111.15Z" fill="#263238"/>
    <path d="M235.02 113.71C233.95 112.65 233.15 111.44 232.41 110.19C231.7 108.93 231.05 107.63 230.67 106.17C231.74 107.23 232.54 108.44 233.28 109.69C233.98 110.96 234.63 112.26 235.02 113.71Z" fill="#263238"/>
    <path d="M228.62 120.36C227.17 119.98 225.87 119.33 224.6 118.62C223.35 117.88 222.14 117.08 221.08 116.01C222.53 116.39 223.83 117.04 225.1 117.75C226.35 118.49 227.56 119.29 228.62 120.36Z" fill="#263238"/>
    <path d="M226.41 129.311C224.96 129.701 223.51 129.791 222.06 129.811C220.61 129.801 219.16 129.711 217.71 129.311C219.16 128.911 220.61 128.821 222.06 128.811C223.51 128.831 224.96 128.921 226.41 129.311Z" fill="#263238"/>
    <path d="M228.97 138.17C227.91 139.24 226.7 140.04 225.45 140.78C224.19 141.49 222.89 142.14 221.43 142.52C222.49 141.45 223.7 140.65 224.95 139.91C226.22 139.21 227.52 138.56 228.97 138.17Z" fill="#263238"/>
    <path d="M235.62 144.57C235.24 146.02 234.59 147.32 233.88 148.59C233.14 149.84 232.34 151.05 231.27 152.11C231.65 150.66 232.3 149.36 233.01 148.09C233.76 146.84 234.56 145.63 235.62 144.57Z" fill="#263238"/>
    <path d="M244.58 146.78C244.97 148.23 245.06 149.68 245.08 151.13C245.07 152.58 244.98 154.03 244.58 155.48C244.18 154.03 244.09 152.58 244.08 151.13C244.1 149.68 244.18 148.23 244.58 146.78Z" fill="#263238"/>
    <path d="M253.44 144.21C254.51 145.27 255.31 146.48 256.05 147.73C256.76 148.99 257.41 150.29 257.79 151.75C256.72 150.69 255.92 149.48 255.18 148.23C254.47 146.97 253.82 145.67 253.44 144.21Z" fill="#263238"/>
    <path d="M259.83 137.57C261.28 137.95 262.58 138.6 263.85 139.31C265.1 140.05 266.31 140.85 267.37 141.92C265.92 141.54 264.62 140.89 263.35 140.18C262.1 139.43 260.89 138.63 259.83 137.57Z" fill="#263238"/>
    <path d="M262.04 128.61C263.49 128.22 264.94 128.13 266.39 128.11C267.84 128.12 269.29 128.21 270.74 128.61C269.29 129.01 267.84 129.1 266.39 129.11C264.94 129.09 263.49 129.01 262.04 128.61Z" fill="#263238"/>
    <path d="M259.48 119.75C260.54 118.68 261.75 117.88 263 117.14C264.26 116.43 265.56 115.78 267.02 115.4C265.96 116.47 264.75 117.27 263.5 118.01C262.23 118.72 260.93 119.37 259.48 119.75Z" fill="#263238"/>
    <path d="M252.83 113.36C253.21 111.91 253.86 110.61 254.57 109.34C255.31 108.09 256.11 106.88 257.18 105.82C256.8 107.27 256.15 108.57 255.44 109.84C254.7 111.09 253.9 112.3 252.83 113.36Z" fill="#263238"/>
    <path d="M510.25 376.32H204.91L161.56 135.54H466.9L510.25 376.32Z" fill="#FFC727"/>
    <path d="M267.37 282.73C274.379 282.73 280.06 277.048 280.06 270.04C280.06 263.031 274.379 257.35 267.37 257.35C260.362 257.35 254.68 263.031 254.68 270.04C254.68 277.048 260.362 282.73 267.37 282.73Z" fill="#263238"/>
    <path d="M367.69 282.73C374.698 282.73 380.38 277.048 380.38 270.04C380.38 263.031 374.698 257.35 367.69 257.35C360.682 257.35 355 263.031 355 270.04C355 277.048 360.682 282.73 367.69 282.73Z" fill="#263238"/>
    <path d="M335.76 284.75L335.06 283.42C335 283.3 328.44 271.18 315.25 271.18C303.22 271.18 300.29 282.59 300.17 283.08L299.81 284.53L296.9 283.83L297.25 282.37C297.28 282.23 300.82 268.18 315.25 268.18C330.29 268.18 337.42 281.46 337.72 282.03L338.42 283.36L335.76 284.75Z" fill="#263238"/>
    <path d="M489.99 268.58C490.64 268.44 491.29 268.29 491.94 268.12" stroke="#263238" stroke-miterlimit="10"/>
    <path d="M495.77 266.99C511.07 261.82 523.88 249.79 525.08 235.73C527.74 204.73 489.98 187.61 493.88 151.78C497.6 117.61 533.44 115.17 547.81 119.89C563.68 125.11 558.24 140.36 543.87 138.39C518.96 134.98 503.3 107.9 515.13 77.1797C523.97 54.2297 546 45.5697 554.95 42.9297" stroke="#263238" stroke-miterlimit="10" stroke-dasharray="4 4"/>
    <path d="M556.9 42.41C558.14 42.09 558.84 41.96 558.84 41.96" stroke="#263238" stroke-miterlimit="10"/>
    <path d="M574.7 36.4303C572.15 28.5303 555.07 31.3703 558.4 41.6903C561.74 52.0203 577.25 44.3303 574.7 36.4303Z" fill="#263238"/>
    <path d="M549.11 33.2403C549.24 29.7703 554.06 27.1103 560.88 28.3403C567.7 29.5703 574.12 34.1603 574.12 34.1603C574.12 34.1603 567.38 38.2803 560.49 39.0103C553.6 39.7403 548.98 36.7303 549.11 33.2403Z" fill="#EBEBEB"/>
    <path d="M574.11 34.1597C570.57 34.1797 567.04 34.0697 563.5 33.9597C559.97 33.8097 556.43 33.6697 552.91 33.3797C556.45 33.3497 559.98 33.4697 563.52 33.5797C567.05 33.7397 570.59 33.8797 574.11 34.1597Z" fill="#263238"/>
    <path d="M555.96 30.1699C556.98 30.6299 557.93 31.2099 558.88 31.7799C559.81 32.3899 560.75 32.9899 561.61 33.7099C560.59 33.2499 559.64 32.6699 558.69 32.0999C557.76 31.4899 556.82 30.8899 555.96 30.1699Z" fill="#263238"/>
    <path d="M565.23 33.8398C564.33 34.5998 563.36 35.2398 562.39 35.8898C561.4 36.4998 560.41 37.1198 559.35 37.6198C560.25 36.8598 561.22 36.2198 562.19 35.5698C563.18 34.9598 564.17 34.3398 565.23 33.8398Z" fill="#263238"/>
    <path d="M566.26 31.8799C566.79 32.1099 567.23 32.4499 567.67 32.7799C568.09 33.1399 568.51 33.4999 568.85 33.9699C568.32 33.7399 567.88 33.3999 567.44 33.0699C567.02 32.7099 566.59 32.3499 566.26 31.8799Z" fill="#263238"/>
    <path d="M555.61 53.82C557.74 56.56 563.21 55.9 568.02 50.92C572.83 45.94 575.35 38.46 575.35 38.46C575.35 38.46 567.47 39.06 561.46 42.5C555.45 45.92 553.47 51.07 555.61 53.82Z" fill="#EBEBEB"/>
    <path d="M575.35 38.4502C572.46 40.5002 569.67 42.6602 566.86 44.8202C564.08 47.0102 561.3 49.1902 558.6 51.4802C561.49 49.4302 564.28 47.2702 567.09 45.1102C569.87 42.9202 572.65 40.7402 575.35 38.4502Z" fill="#263238"/>
    <path d="M562.96 52.3001C563.52 51.3301 563.95 50.3001 564.39 49.2801C564.79 48.2401 565.2 47.2101 565.47 46.1201C564.91 47.0901 564.48 48.1201 564.04 49.1401C563.64 50.1801 563.23 51.2101 562.96 52.3001Z" fill="#263238"/>
    <path d="M568.33 43.9098C567.16 43.8198 565.99 43.8698 564.83 43.9098C563.67 43.9898 562.5 44.0598 561.35 44.2798C562.52 44.3698 563.69 44.3198 564.85 44.2798C566.02 44.1998 567.18 44.1298 568.33 43.9098Z" fill="#263238"/>
    <path d="M570.31 44.8904C570.61 44.4004 570.76 43.8704 570.93 43.3404C571.06 42.8004 571.19 42.2604 571.19 41.6904C570.89 42.1804 570.74 42.7104 570.57 43.2404C570.44 43.7804 570.31 44.3204 570.31 44.8904Z" fill="#263238"/>
    <path d="M574.7 36.43C573.13 36.94 571.44 36.07 570.93 34.5C570.42 32.93 571.29 31.24 572.86 30.73C574.43 30.22 576.12 31.09 576.63 32.66C577.14 34.23 576.27 35.92 574.7 36.43Z" fill="#455A64"/>
    <path d="M576.54 42.1302C574.97 42.6402 573.28 41.7702 572.77 40.2002C572.26 38.6302 573.13 36.9402 574.7 36.4302C576.27 35.9202 577.96 36.7902 578.47 38.3602C578.98 39.9402 578.11 41.6202 576.54 42.1302Z" fill="#455A64"/>
    <path d="M248.69 39.5901C247.26 53.2801 234.99 63.2201 221.31 61.7901C215.78 61.2101 210.86 58.8601 207.05 55.3601L194.58 57.1901L200.82 46.4101C199.31 42.7301 198.67 38.6301 199.11 34.4101C200.54 20.7201 212.81 10.7801 226.49 12.2101C240.18 13.6301 250.13 25.9001 248.69 39.5901Z" fill="white"/>
    <path d="M248.69 39.5901C248.17 44.1401 246.51 48.6001 243.66 52.2201C243.01 53.1701 242.16 53.9601 241.4 54.8201C240.53 55.5701 239.73 56.4001 238.77 57.0501C236.95 58.4501 234.9 59.5501 232.76 60.4001C230.63 61.3001 228.34 61.7301 226.05 62.0001C224.9 62.0601 223.74 62.1701 222.59 62.0701C221.43 62.0401 220.28 61.9201 219.14 61.7101C214.58 60.8801 210.26 58.7501 206.81 55.6201L207.1 55.7101L194.64 57.6201L193.74 57.7601L194.2 56.9601L200.4 46.1601L200.37 46.5901C197.35 39.4801 198.03 31.0001 201.91 24.3801C203.84 21.0601 206.54 18.2001 209.72 16.0701C212.9 13.9301 216.58 12.5901 220.36 12.0801C224.14 11.5801 228.02 11.9201 231.63 13.1201C235.23 14.3301 238.54 16.3701 241.24 19.0101C246.74 24.2301 249.5 32.0801 248.69 39.5901ZM248.69 39.5901C249.45 32.0801 246.63 24.2801 241.12 19.1201C238.39 16.5401 235.08 14.5801 231.51 13.4501C227.93 12.3301 224.11 12.0601 220.42 12.6201C216.74 13.1901 213.17 14.5601 210.13 16.6901C207.09 18.8301 204.53 21.6201 202.67 24.8201C200.78 28.0201 199.8 31.6901 199.51 35.3701C199.28 39.0601 199.88 42.8001 201.26 46.2301L201.35 46.4501L201.23 46.6501L194.95 57.4101L194.5 56.7501L207 55.0001L207.17 54.9801L207.29 55.1001C210.59 58.2001 214.76 60.3601 219.22 61.2501C220.33 61.4701 221.46 61.6201 222.6 61.6601C223.74 61.7801 224.87 61.7001 226.01 61.6501C228.27 61.4201 230.54 61.0401 232.67 60.1801C234.8 59.3801 236.87 58.3301 238.68 56.9401C239.64 56.3001 240.44 55.4901 241.31 54.7401C242.08 53.8901 242.92 53.1101 243.58 52.1701C246.45 48.5701 248.14 44.1301 248.69 39.5901Z" fill="#263238"/>
    <path d="M211.72 48.6104C211.72 47.1204 212.75 46.0504 214.16 46.0504C215.65 46.0504 216.6 47.1204 216.6 48.6104C216.6 50.0604 215.65 51.1703 214.16 51.1703C212.71 51.1803 211.72 50.0604 211.72 48.6104ZM212.75 42.7004L212.17 22.8604H216.14L215.56 42.7004H212.75Z" fill="#FFC727"/>
    <path d="M221.22 48.6104C221.22 47.1204 222.25 46.0504 223.66 46.0504C225.15 46.0504 226.1 47.1204 226.1 48.6104C226.1 50.0604 225.15 51.1703 223.66 51.1703C222.22 51.1803 221.22 50.0604 221.22 48.6104ZM222.26 42.7004L221.68 22.8604H225.65L225.07 42.7004H222.26Z" fill="#FFC727"/>
    <path d="M230.73 48.6104C230.73 47.1204 231.76 46.0504 233.17 46.0504C234.66 46.0504 235.61 47.1204 235.61 48.6104C235.61 50.0604 234.66 51.1703 233.17 51.1703C231.72 51.1803 230.73 50.0604 230.73 48.6104ZM231.77 42.7004L231.19 22.8604H235.16L234.58 42.7004H231.77Z" fill="#FFC727"/>
  </g>
  <defs>
    <clipPath id="clip0_384_7122">
      <rect width="611.94" height="400.98" fill="white"/>
    </clipPath>
  </defs>
</svg>
