<svg width="602" height="444" viewBox="0 0 602 444" fill="none" xmlns="http://www.w3.org/2000/svg">
  <g clip-path="url(#clip0_384_7408)">
    <path d="M133.551 122.272L21.3469 197.326L131.863 362.544L244.067 287.489L133.551 122.272Z" fill="#F5F5F5"/>
    <path d="M186.09 279.66L184.81 287.54L129.03 279.5L130.31 271.62L186.09 279.66Z" fill="#E0E0E0"/>
    <path d="M158 251.55L166 252.7L157.13 307.62L149.12 306.46L158 251.55Z" fill="#E0E0E0"/>
    <path d="M106.62 181.749C106.7 181.869 95.46 189.529 81.51 198.859C67.56 208.189 56.19 215.659 56.11 215.539C56.03 215.419 67.27 207.759 81.22 198.429C95.16 189.089 106.54 181.629 106.62 181.749Z" fill="#E0E0E0"/>
    <path d="M147.88 171.39C147.96 171.51 129.26 184.16 106.12 199.63C82.9701 215.11 64.1501 227.56 64.0701 227.44C63.9901 227.32 82.6801 214.68 105.83 199.19C128.97 183.72 147.8 171.27 147.88 171.39Z" fill="#E0E0E0"/>
    <path d="M156.15 183.75C156.23 183.87 137.53 196.52 114.39 211.99C91.2401 227.47 72.4201 239.92 72.3401 239.8C72.2601 239.68 90.9501 227.04 114.1 211.55C137.25 196.09 156.07 183.63 156.15 183.75Z" fill="#E0E0E0"/>
    <path d="M164.42 196.12C164.5 196.24 145.8 208.89 122.66 224.36C99.5101 239.84 80.6901 252.29 80.6101 252.17C80.5301 252.05 99.2201 239.41 122.37 223.92C145.52 208.45 164.34 196 164.42 196.12Z" fill="#E0E0E0"/>
    <path d="M172.7 208.489C172.78 208.609 154.08 221.259 130.94 236.729C107.79 252.209 88.9699 264.659 88.8899 264.539C88.8099 264.419 107.5 251.779 130.65 236.289C153.79 220.819 172.62 208.369 172.7 208.489Z" fill="#E0E0E0"/>
    <path d="M508.744 232.981L414.51 296.015L507.324 434.767L601.557 371.733L508.744 232.981Z" fill="#F5F5F5"/>
    <path d="M552.87 365.181L551.8 371.801L504.95 365.051L506.02 358.431L552.87 365.181Z" fill="#E0E0E0"/>
    <path d="M529.27 341.57L536 342.54L528.54 388.66L521.82 387.69L529.27 341.57Z" fill="#E0E0E0"/>
    <path d="M486.13 282.95C486.21 283.07 476.78 289.52 465.06 297.35C453.34 305.19 443.78 311.44 443.7 311.32C443.62 311.2 453.05 304.75 464.77 296.91C476.48 289.08 486.05 282.83 486.13 282.95Z" fill="#E0E0E0"/>
    <path d="M520.78 274.25C520.86 274.37 505.17 285.01 485.73 298.01C466.29 311.01 450.47 321.45 450.39 321.33C450.31 321.21 466 310.58 485.44 297.57C504.88 284.57 520.7 274.13 520.78 274.25Z" fill="#E0E0E0"/>
    <path d="M527.73 284.63C527.81 284.75 512.12 295.39 492.68 308.39C473.24 321.39 457.42 331.83 457.34 331.71C457.26 331.59 472.95 320.96 492.39 307.95C511.82 294.96 527.65 284.52 527.73 284.63Z" fill="#E0E0E0"/>
    <path d="M534.67 295.02C534.75 295.14 519.06 305.78 499.62 318.78C480.18 331.78 464.36 342.22 464.28 342.1C464.2 341.98 479.89 331.35 499.33 318.34C518.77 305.34 534.59 294.9 534.67 295.02Z" fill="#E0E0E0"/>
    <path d="M541.62 305.41C541.7 305.53 526.01 316.17 506.57 329.17C487.13 342.17 471.31 352.61 471.23 352.49C471.15 352.37 486.84 341.74 506.28 328.73C525.72 315.73 541.54 305.29 541.62 305.41Z" fill="#E0E0E0"/>
    <path d="M359.661 128.33L256.844 73.3418L175.875 224.738L278.692 279.727L359.661 128.33Z" fill="#F5F5F5"/>
    <path d="M261.09 232.371L254.57 234.601L238.01 188.831L244.53 186.591L261.09 232.371Z" fill="#E0E0E0"/>
    <path d="M271.09 199.531L273.47 206.101L228.01 221.671L225.63 215.101L271.09 199.531Z" fill="#E0E0E0"/>
    <path d="M303.39 131.991C303.31 132.141 292.88 126.721 280.1 119.881C267.31 113.041 257.02 107.381 257.1 107.231C257.18 107.081 267.61 112.501 280.39 119.341C293.17 126.181 303.47 131.841 303.39 131.991Z" fill="#E0E0E0"/>
    <path d="M328.06 159.23C327.98 159.38 310.72 150.31 289.52 138.97C268.31 127.63 251.18 118.31 251.26 118.16C251.34 118.01 268.6 127.08 289.81 138.43C311.02 149.76 328.14 159.08 328.06 159.23Z" fill="#E0E0E0"/>
    <path d="M322 170.56C321.92 170.71 304.66 161.64 283.46 150.3C262.25 138.96 245.12 129.64 245.2 129.49C245.28 129.34 262.54 138.41 283.75 149.76C304.96 161.09 322.08 170.41 322 170.56Z" fill="#E0E0E0"/>
    <path d="M315.94 181.89C315.86 182.04 298.6 172.97 277.4 161.63C256.19 150.29 239.06 140.97 239.14 140.82C239.22 140.67 256.48 149.74 277.69 161.09C298.89 172.42 316.02 181.74 315.94 181.89Z" fill="#E0E0E0"/>
    <path d="M309.88 193.22C309.8 193.37 292.54 184.3 271.34 172.96C250.13 161.62 233 152.3 233.08 152.15C233.16 152 250.42 161.07 271.63 172.42C292.83 183.75 309.96 193.07 309.88 193.22Z" fill="#E0E0E0"/>
    <path opacity="0.2" d="M310.42 0H307.84V43.98H310.42V0Z" fill="black"/>
    <path d="M248.9 97.19H369.36C369.36 97.19 358.24 43.96 308.22 43.96C263.72 43.96 248.9 97.19 248.9 97.19Z" fill="#E8505B"/>
    <path d="M310.42 0H307.84V43.98H310.42V0Z" fill="#E8505B"/>
    <path d="M577.33 439.83C577.33 439.97 448.08 440.09 288.68 440.09C129.22 440.09 0 439.97 0 439.83C0 439.69 129.22 439.57 288.68 439.57C448.08 439.57 577.33 439.68 577.33 439.83Z" fill="#263238"/>
    <path d="M31.9499 377.2C35.3299 377.32 38.4999 379.15 40.7299 381.7C42.9599 384.24 44.3299 387.44 45.1999 390.71C46.8899 397.03 45.8499 404.5 44.0499 410.79C37.1999 408.34 32.9799 401.04 31.0699 397.2C28.0599 391.14 26.2999 378.34 31.9499 377.2Z" fill="#E8505B"/>
    <path d="M53.91 418.45C51.75 415.35 51.7 411.04 53.41 407.66C55.12 404.29 58.4 401.86 62.01 400.75C63.68 400.24 65.62 400.02 67.07 400.99C68.43 401.9 69.02 403.68 68.84 405.3C68.66 406.92 67.84 408.41 66.87 409.72C63.54 414.24 59.49 417.99 53.91 418.45Z" fill="#E8505B"/>
    <path d="M54.66 439.581C54.63 439.591 54.52 439.121 54.35 438.271C54.17 437.331 53.93 436.121 53.65 434.671C53.11 431.641 52.25 427.331 52.9 422.571C53.52 417.831 55.41 413.771 57.39 411.351C58.36 410.131 59.3 409.261 59.99 408.731C60.32 408.451 60.62 408.281 60.8 408.141C60.99 408.011 61.1 407.951 61.11 407.971C61.18 408.051 59.51 409.091 57.66 411.561C55.79 413.991 53.99 417.971 53.37 422.641C52.73 427.311 53.52 431.581 53.98 434.621C54.22 436.151 54.42 437.391 54.54 438.251C54.65 439.101 54.69 439.581 54.66 439.581Z" fill="#263238"/>
    <path d="M34.16 386.83C34.17 386.82 34.27 387 34.44 387.35C34.62 387.74 34.86 388.25 35.15 388.87C35.75 390.2 36.61 392.13 37.64 394.52C39.7 399.31 42.46 405.97 45.34 413.38C48.22 420.8 50.67 427.58 52.37 432.5C53.22 434.96 53.9 436.96 54.35 438.35C54.56 439.01 54.73 439.541 54.86 439.951C54.97 440.32 55.02 440.51 55.01 440.52C54.99 440.53 54.91 440.34 54.77 439.98C54.62 439.57 54.42 439.05 54.18 438.41C53.66 436.99 52.94 435.02 52.06 432.61C50.27 427.71 47.77 420.96 44.9 413.54C42.02 406.13 39.32 399.461 37.34 394.641C36.37 392.271 35.57 390.33 34.99 388.93C34.73 388.29 34.53 387.77 34.37 387.37C34.21 387.02 34.15 386.83 34.16 386.83Z" fill="#263238"/>
    <path d="M46.5401 425.6C42.5001 418.73 34.9701 414.05 27.0201 413.47C25.0001 413.32 22.5601 413.66 21.6601 415.48C20.7601 417.3 21.9601 419.45 23.3401 420.95C29.0801 427.16 38.7801 429.33 46.6101 426.15" fill="#E8505B"/>
    <path d="M30.1 418.89C30.1 418.86 30.55 418.88 31.37 418.94C31.78 418.97 32.28 419 32.85 419.11C33.42 419.22 34.08 419.28 34.79 419.47C35.5 419.64 36.29 419.82 37.1 420.11C37.93 420.35 38.78 420.71 39.67 421.09C41.43 421.89 43.31 422.94 45.09 424.3C46.86 425.68 48.35 427.22 49.57 428.73C50.15 429.5 50.71 430.24 51.15 430.99C51.63 431.71 51.99 432.43 52.32 433.08C52.68 433.72 52.89 434.35 53.13 434.88C53.37 435.41 53.51 435.89 53.63 436.28C53.87 437.06 53.99 437.49 53.96 437.5C53.86 437.54 53.37 435.79 52.02 433.23C51.67 432.6 51.3 431.9 50.81 431.2C50.37 430.47 49.81 429.76 49.22 429.01C48.01 427.54 46.53 426.04 44.79 424.68C43.04 423.34 41.21 422.3 39.48 421.49C38.61 421.11 37.77 420.74 36.96 420.49C36.17 420.19 35.4 420 34.7 419.8C31.89 419.09 30.08 419 30.1 418.89Z" fill="#263238"/>
    <path d="M484.03 105.47C481.09 106.15 479.66 109.53 479.38 112.53C479.1 115.53 479.48 118.71 478.22 121.45C476.8 124.54 473.41 126.81 473.29 130.2C473.22 132.27 474.45 134.22 474.39 136.29C474.29 139.69 470.83 142.26 470.64 145.65C470.51 148.1 472.14 150.44 471.75 152.86C471.45 154.74 469.98 156.22 469.36 158.03C468.13 161.62 470.59 165.58 473.81 167.6C477.39 169.85 481.98 170.44 486.01 169.15C490.04 167.86 493.44 164.73 495.05 160.81C496.83 156.49 496.44 151.63 496.05 146.97C494.84 132.46 493.95 117.93 493.36 103.39" fill="#263238"/>
    <path d="M475.49 156.659C475.43 156.599 476.29 156.339 476.83 155.059C477.09 154.429 477.23 153.589 477.17 152.619C477.14 151.639 476.8 150.579 476.44 149.379C476.11 148.189 475.67 146.809 475.92 145.279C476.17 143.719 477.29 142.439 478.3 141.189C478.81 140.549 479.33 139.889 479.65 139.139C479.99 138.399 480.06 137.539 479.81 136.739C479.29 135.109 477.69 133.899 476.96 132.019C476.6 131.069 476.59 130.039 476.8 129.099C477 128.159 477.38 127.299 477.77 126.479C478.55 124.849 479.42 123.359 479.76 121.769C480.46 118.599 480.13 115.569 480.61 113.079C481.04 110.589 482.1 108.709 483.14 107.749C483.65 107.249 484.14 106.989 484.46 106.809C484.8 106.659 484.98 106.599 484.99 106.609C485.02 106.669 484.25 106.899 483.28 107.889C482.32 108.859 481.35 110.699 480.97 113.139C480.77 114.349 480.74 115.719 480.69 117.179C480.64 118.639 480.59 120.229 480.22 121.869C479.87 123.529 478.99 125.089 478.23 126.679C477.48 128.249 476.79 130.089 477.45 131.809C478.09 133.509 479.7 134.719 480.3 136.559C480.6 137.479 480.5 138.489 480.11 139.309C479.74 140.139 479.2 140.829 478.68 141.469C477.63 142.729 476.59 143.939 476.35 145.339C476.1 146.729 476.49 148.079 476.8 149.259C477.13 150.449 477.46 151.569 477.47 152.589C477.5 153.599 477.33 154.479 477.02 155.119C476.72 155.769 476.3 156.179 476 156.379C475.69 156.619 475.49 156.659 475.49 156.659Z" fill="#455A64"/>
    <path d="M467.62 180.37L458.59 206.39L420.95 208.41L414.67 222.38L453.97 226.36C461.81 229.6 470.76 225.63 473.62 217.65L484.11 188.37L467.62 180.37Z" fill="#B78876"/>
    <path d="M545.48 425.7C545.48 425.7 517.89 338.08 517.31 335.24C516.78 332.67 527.32 269.62 528.65 253.3L491.38 254.69C491.38 254.69 491.38 254.79 491.38 254.96L475.54 255.84L489.73 435.03H506.88L505.18 375.58C515.76 403.98 530.91 432.91 530.91 432.91L545.48 425.7Z" fill="#B78876"/>
    <path d="M505.87 396.88C505.89 396.34 505.66 376.96 505.66 376.96C505.45 378.12 499.08 360.14 499.24 359.04C499.32 358.48 505.87 396.88 505.87 396.88Z" fill="#A36957"/>
    <path d="M498.51 350.53C498.47 350.53 498.43 350.92 498.4 351.62C498.36 352.32 498.35 353.34 498.42 354.59C498.44 355.22 498.51 355.9 498.59 356.64C498.68 357.37 498.78 358.16 498.95 358.97C499.26 360.61 499.74 362.38 500.35 364.19C501.6 367.81 502.97 370.98 503.95 373.29C504.41 374.34 504.81 375.24 505.14 376C505.43 376.64 505.61 376.98 505.65 376.96C505.69 376.95 505.58 376.57 505.35 375.91C505.12 375.25 504.77 374.3 504.32 373.13C503.44 370.79 502.13 367.6 500.89 364C500.28 362.2 499.8 360.46 499.46 358.86C499.28 358.06 499.16 357.29 499.05 356.57C498.95 355.85 498.86 355.17 498.81 354.55C498.69 353.31 498.64 352.3 498.61 351.61C498.59 350.92 498.55 350.54 498.51 350.53Z" fill="#A36957"/>
    <path d="M489.39 435.91L489.38 434.3L506.95 433.53L507 440.17L505.92 440.24C501.1 440.52 481.38 441.34 478.15 440.37C474.55 439.3 489.39 435.91 489.39 435.91Z" fill="#455A64"/>
    <path d="M507.25 439.781C507.25 439.791 507.15 439.801 506.95 439.811C506.69 439.831 506.41 439.841 506.09 439.871C505.23 439.911 504.17 439.961 502.91 440.021C500.23 440.131 496.52 440.221 492.42 440.241C488.32 440.261 484.61 440.191 481.93 440.111C480.68 440.061 479.62 440.021 478.75 439.991C478.43 439.971 478.15 439.961 477.89 439.941C477.69 439.931 477.59 439.921 477.59 439.911C477.59 439.901 477.69 439.901 477.89 439.901C478.15 439.901 478.43 439.911 478.75 439.911C479.61 439.921 480.68 439.941 481.93 439.961C484.61 440.001 488.32 440.051 492.42 440.031C496.51 440.011 500.22 439.941 502.91 439.871C504.16 439.841 505.22 439.811 506.09 439.791C506.41 439.781 506.7 439.781 506.95 439.771C507.15 439.771 507.25 439.771 507.25 439.781Z" fill="#263238"/>
    <path d="M483.7 440.34C483.64 440.35 483.58 439.59 483.1 438.83C482.63 438.06 481.98 437.67 482.01 437.62C482.02 437.57 482.77 437.89 483.28 438.72C483.8 439.54 483.76 440.36 483.7 440.34Z" fill="#263238"/>
    <path d="M488.85 437.71C488.8 437.74 488.55 437.44 488.3 437.04C488.04 436.64 487.88 436.29 487.92 436.26C487.97 436.23 488.22 436.53 488.47 436.93C488.73 437.33 488.9 437.68 488.85 437.71Z" fill="#263238"/>
    <path d="M490.26 436.95C490.22 436.99 489.94 436.81 489.64 436.54C489.34 436.27 489.12 436.02 489.16 435.97C489.2 435.93 489.48 436.11 489.78 436.38C490.09 436.66 490.3 436.91 490.26 436.95Z" fill="#263238"/>
    <path d="M491.15 435.301C491.15 435.361 490.74 435.411 490.24 435.421C489.74 435.431 489.33 435.391 489.33 435.331C489.33 435.271 489.74 435.221 490.24 435.211C490.74 435.201 491.15 435.241 491.15 435.301Z" fill="#263238"/>
    <path d="M491.46 434.141C491.48 434.191 491.04 434.391 490.44 434.441C489.85 434.491 489.38 434.361 489.39 434.301C489.4 434.241 489.86 434.271 490.42 434.231C490.98 434.181 491.44 434.081 491.46 434.141Z" fill="#263238"/>
    <path d="M488.25 436.18C488.25 436.2 487.82 436.26 487.13 436.18C486.78 436.14 486.37 436.06 485.93 435.92C485.71 435.84 485.48 435.79 485.24 435.64C485.13 435.57 485 435.46 484.96 435.29C484.91 435.12 485 434.93 485.13 434.84C486.2 434.28 487.28 434.88 487.68 435.43C487.9 435.71 488 435.99 488.05 436.18C488.1 436.37 488.09 436.48 488.08 436.48C488.04 436.49 488 436.04 487.56 435.52C487.34 435.27 487.02 435.02 486.6 434.9C486.2 434.78 485.64 434.75 485.26 435C485.08 435.13 485.15 435.34 485.35 435.46C485.54 435.58 485.77 435.65 485.98 435.73C486.41 435.87 486.8 435.97 487.14 436.03C487.82 436.15 488.25 436.15 488.25 436.18Z" fill="#263238"/>
    <path d="M487.96 436.241C487.94 436.251 487.78 435.971 487.83 435.461C487.86 435.211 487.95 434.921 488.13 434.641C488.33 434.391 488.58 434.051 489.06 434.061C489.32 434.091 489.45 434.391 489.41 434.581C489.39 434.781 489.3 434.951 489.22 435.081C489.05 435.361 488.87 435.591 488.69 435.761C488.34 436.111 488.06 436.241 488.05 436.221C488.03 436.191 488.27 436.021 488.58 435.661C488.73 435.481 488.9 435.261 489.05 434.981C489.2 434.741 489.31 434.321 489.03 434.271C488.75 434.241 488.46 434.521 488.29 434.751C488.11 434.991 488.02 435.261 487.97 435.481C487.89 435.941 488 436.231 487.96 436.241Z" fill="#263238"/>
    <path d="M506.88 434.99C506.88 435.03 506.38 434.94 505.59 435.04C504.81 435.13 503.72 435.45 502.78 436.21C501.84 436.97 501.28 437.96 501.03 438.7C500.77 439.45 500.74 439.95 500.7 439.95C500.69 439.95 500.68 439.82 500.7 439.6C500.72 439.37 500.77 439.05 500.89 438.66C501.12 437.88 501.67 436.84 502.65 436.05C503.63 435.26 504.77 434.95 505.58 434.89C505.99 434.86 506.32 434.88 506.54 434.91C506.76 434.95 506.88 434.98 506.88 434.99Z" fill="#263238"/>
    <path d="M498.46 438.38C498.47 438.43 497.33 438.62 495.91 438.62C494.49 438.63 493.35 438.46 493.35 438.4C493.36 438.34 494.5 438.41 495.9 438.4C497.32 438.41 498.46 438.32 498.46 438.38Z" fill="#263238"/>
    <path d="M501.89 438.35C501.93 438.39 501.8 438.59 501.68 438.85C501.56 439.11 501.5 439.34 501.44 439.34C501.38 439.34 501.35 439.06 501.49 438.76C501.62 438.46 501.85 438.3 501.89 438.35Z" fill="#263238"/>
    <path d="M503.17 436.74C503.21 436.78 503.1 436.96 502.92 437.15C502.74 437.33 502.56 437.45 502.52 437.41C502.48 437.37 502.59 437.19 502.77 437C502.95 436.81 503.13 436.69 503.17 436.74Z" fill="#263238"/>
    <path d="M505.02 435.99C505.01 436.05 504.78 436.05 504.52 436.14C504.26 436.23 504.08 436.37 504.03 436.33C503.98 436.3 504.13 436.05 504.45 435.94C504.77 435.83 505.03 435.94 505.02 435.99Z" fill="#263238"/>
    <path d="M506.33 435.64C506.35 435.69 506.25 435.78 506.11 435.84C505.97 435.9 505.83 435.9 505.81 435.84C505.79 435.79 505.89 435.7 506.03 435.64C506.18 435.59 506.31 435.59 506.33 435.64Z" fill="#263238"/>
    <path d="M530.56 434.36L529.89 432.89L545.6 424.99L548.37 431.03L547.41 431.54C543.13 433.77 525.47 442.59 522.13 443.03C518.41 443.53 530.56 434.36 530.56 434.36Z" fill="#455A64"/>
    <path d="M548.43 430.57C548.43 430.58 548.34 430.63 548.17 430.72C547.94 430.84 547.69 430.97 547.41 431.12C546.64 431.51 545.69 431.99 544.57 432.56C542.17 433.76 538.82 435.36 535.09 437.06C531.36 438.75 527.95 440.21 525.46 441.24C524.3 441.71 523.31 442.11 522.51 442.43C522.21 442.55 521.95 442.65 521.7 442.74C521.51 442.81 521.42 442.84 521.41 442.83C521.41 442.82 521.5 442.78 521.68 442.7C521.92 442.6 522.18 442.48 522.47 442.35C523.26 442.01 524.24 441.59 525.39 441.1C527.86 440.04 531.26 438.56 534.99 436.87C538.72 435.18 542.07 433.59 544.49 432.43C545.62 431.89 546.58 431.43 547.36 431.05C547.65 430.91 547.91 430.79 548.14 430.68C548.33 430.61 548.43 430.57 548.43 430.57Z" fill="#263238"/>
    <path d="M527.18 440.74C527.12 440.77 526.77 440.1 526.01 439.6C525.27 439.09 524.51 439 524.52 438.94C524.51 438.89 525.33 438.88 526.13 439.43C526.94 439.96 527.24 440.72 527.18 440.74Z" fill="#263238"/>
    <path d="M530.8 436.22C530.77 436.27 530.42 436.1 530.02 435.84C529.62 435.58 529.33 435.33 529.36 435.28C529.39 435.23 529.74 435.4 530.14 435.66C530.53 435.92 530.83 436.17 530.8 436.22Z" fill="#263238"/>
    <path d="M531.78 434.961C531.76 435.021 531.43 434.961 531.05 434.841C530.66 434.721 530.37 434.571 530.38 434.521C530.4 434.461 530.72 434.521 531.11 434.641C531.5 434.761 531.8 434.901 531.78 434.961Z" fill="#263238"/>
    <path d="M531.91 433.08C531.93 433.13 531.58 433.35 531.13 433.56C530.67 433.77 530.28 433.9 530.26 433.85C530.24 433.8 530.59 433.58 531.04 433.37C531.5 433.16 531.89 433.03 531.91 433.08Z" fill="#263238"/>
    <path d="M531.71 431.9C531.75 431.94 531.43 432.31 530.91 432.59C530.39 432.88 529.91 432.95 529.9 432.9C529.88 432.84 530.32 432.68 530.81 432.41C531.3 432.13 531.67 431.85 531.71 431.9Z" fill="#263238"/>
    <path d="M529.63 435.081C529.64 435.101 529.27 435.331 528.6 435.541C528.27 435.641 527.86 435.741 527.4 435.791C527.17 435.811 526.94 435.851 526.66 435.821C526.53 435.801 526.37 435.751 526.26 435.621C526.15 435.491 526.15 435.281 526.23 435.141C526.98 434.191 528.21 434.301 528.8 434.641C529.12 434.811 529.32 435.021 529.44 435.171C529.56 435.331 529.6 435.431 529.59 435.431C529.56 435.461 529.34 435.061 528.73 434.771C528.43 434.631 528.03 434.541 527.6 434.601C527.19 434.661 526.66 434.861 526.42 435.241C526.31 435.431 526.46 435.601 526.69 435.621C526.91 435.651 527.16 435.621 527.38 435.611C527.83 435.571 528.23 435.491 528.56 435.411C529.22 435.221 529.62 435.051 529.63 435.081Z" fill="#263238"/>
    <path d="M529.39 435.25C529.38 435.27 529.11 435.07 528.95 434.59C528.87 434.35 528.83 434.05 528.89 433.72C528.97 433.41 529.06 432.99 529.51 432.81C529.76 432.73 530.35 433.24 530.39 433.43C530.45 433.62 530.09 433.52 530.08 433.68C530.04 434 529.97 434.29 529.88 434.52C529.7 434.98 529.5 435.21 529.48 435.2C529.45 435.18 529.6 434.92 529.74 434.47C529.81 434.24 529.87 433.97 529.89 433.66C529.93 433.38 529.85 432.95 529.57 433.02C529.3 433.11 529.16 433.48 529.09 433.76C529.03 434.05 529.05 434.33 529.1 434.56C529.2 435 529.42 435.23 529.39 435.25Z" fill="#263238"/>
    <path d="M546.13 426.36C546.14 426.4 545.65 426.52 544.97 426.93C544.29 427.33 543.43 428.07 542.88 429.15C542.33 430.23 542.23 431.36 542.3 432.14C542.37 432.93 542.55 433.4 542.51 433.41C542.5 433.41 542.44 433.3 542.36 433.09C542.28 432.88 542.2 432.56 542.14 432.15C542.03 431.35 542.1 430.17 542.68 429.04C543.25 427.92 544.17 427.16 544.88 426.79C545.24 426.6 545.55 426.48 545.77 426.42C546 426.37 546.13 426.35 546.13 426.36Z" fill="#263238"/>
    <path d="M539.84 432.901C539.87 432.951 538.9 433.581 537.61 434.171C536.32 434.761 535.21 435.071 535.19 435.021C535.17 434.961 536.24 434.561 537.52 433.981C538.81 433.401 539.81 432.851 539.84 432.901Z" fill="#263238"/>
    <path d="M542.95 431.47C543.01 431.49 542.96 431.73 542.97 432.02C542.97 432.31 543.01 432.54 542.95 432.57C542.9 432.59 542.75 432.36 542.75 432.02C542.76 431.68 542.9 431.44 542.95 431.47Z" fill="#263238"/>
    <path d="M543.47 429.47C543.52 429.49 543.5 429.7 543.41 429.94C543.32 430.18 543.2 430.36 543.15 430.34C543.1 430.32 543.12 430.11 543.21 429.87C543.29 429.63 543.41 429.45 543.47 429.47Z" fill="#263238"/>
    <path d="M544.85 428.04C544.86 428.1 544.65 428.19 544.45 428.38C544.25 428.56 544.14 428.77 544.08 428.75C544.02 428.74 544.06 428.45 544.3 428.22C544.55 427.99 544.84 427.98 544.85 428.04Z" fill="#263238"/>
    <path d="M545.9 427.181C545.94 427.221 545.89 427.341 545.78 427.461C545.67 427.571 545.55 427.631 545.51 427.591C545.47 427.551 545.52 427.431 545.63 427.311C545.74 427.191 545.86 427.141 545.9 427.181Z" fill="#263238"/>
    <path d="M526.23 223.64L523.3 187.94L538.33 188.21C538.33 188.21 539.03 182.95 536.81 171.4C535.45 164.32 530.74 159.98 525.45 157.4V157.31L524.99 157.19C518.26 154.04 511.22 153.6 511.22 153.6L492.77 153.81C492.77 153.81 478.68 152.05 470.88 162.1C467.88 165.97 458.58 192.46 458.58 192.46L480.72 203.12L478.61 188.43C478.61 188.43 479.03 199.08 480.39 202.45C481.15 204.33 483.34 210.17 483.34 210.17L483.05 227.78L526.23 223.64Z" fill="#E8505B"/>
    <path d="M516.05 182.759L513.32 194.419H539.15L537.45 174.859L516.05 182.759Z" fill="#E8505B"/>
    <path d="M539.15 194.42C539.15 194.34 537.85 194.21 535.73 194.08C533.61 193.96 530.68 193.85 527.45 193.87C524.21 193.89 521.28 194.03 519.17 194.19C517.05 194.36 515.75 194.54 515.76 194.61C515.77 194.69 517.08 194.66 519.19 194.59C521.31 194.53 524.23 194.45 527.45 194.43C530.68 194.42 533.6 194.46 535.72 194.48C537.83 194.51 539.14 194.5 539.15 194.42Z" fill="#263238"/>
    <path d="M514.94 174.77C514.86 174.77 514.83 175.91 514.85 177.74C514.87 179.57 514.94 182.1 515.04 184.89C515.15 187.68 515.28 190.21 515.4 192.03C515.52 193.86 515.64 194.98 515.72 194.98C515.8 194.98 515.83 193.84 515.81 192.01C515.79 190.18 515.72 187.65 515.62 184.86C515.51 182.07 515.38 179.55 515.26 177.72C515.13 175.89 515.02 174.77 514.94 174.77Z" fill="#263238"/>
    <g opacity="0.3">
      <path d="M491.43 184.869C491.43 184.869 497.17 227.439 513.31 226.309C513.31 226.309 520.58 226.219 522.91 221.389V219.489L491.43 184.869Z" fill="black"/>
    </g>
    <g opacity="0.3">
      <path d="M514.94 177.279L511.85 198.149L513.85 201.809L517.14 194.649L515.75 194.609L514.94 177.279Z" fill="black"/>
    </g>
    <path d="M483.35 210.16C483.32 210.17 483.16 209.82 482.91 209.16C482.66 208.51 482.33 207.55 481.94 206.37C481.17 203.99 480.22 200.67 479.47 196.92C478.73 193.17 478.36 189.73 478.25 187.23C478.19 185.98 478.17 184.97 478.19 184.27C478.2 183.57 478.23 183.18 478.26 183.18C478.34 183.18 478.4 184.72 478.61 187.2C478.82 189.68 479.24 193.09 479.98 196.82C480.72 200.54 481.61 203.86 482.29 206.26C482.61 207.37 482.88 208.32 483.1 209.1C483.3 209.77 483.39 210.15 483.35 210.16Z" fill="#263238"/>
    <path d="M489.88 222.39C489.74 222.43 489.34 221.51 488.99 220.34C488.63 219.17 488.46 218.18 488.6 218.14C488.74 218.1 489.14 219.02 489.49 220.19C489.84 221.37 490.02 222.35 489.88 222.39Z" fill="#263238"/>
    <path d="M492.11 222.23C491.98 222.26 491.54 220.89 491.52 219.12C491.49 217.35 491.88 215.96 492.02 215.99C492.17 216.02 492.01 217.4 492.04 219.11C492.06 220.82 492.26 222.2 492.11 222.23Z" fill="#263238"/>
    <path d="M481.18 203.6C481.12 203.73 475.96 201.28 469.67 198.14C463.38 195 458.33 192.34 458.39 192.21C458.45 192.08 463.61 194.53 469.9 197.67C476.2 200.81 481.25 203.47 481.18 203.6Z" fill="#263238"/>
    <path d="M490.26 157.25C490.38 152.19 490.4 146.86 490.4 146.86C490.4 146.86 483.91 145.61 482.78 137.07C481.7 128.93 484.72 109.82 484.72 109.82C494.2 106.24 504.05 109.48 510.54 117.16L508.93 158.23C508.74 163 504.49 166.64 499.39 166.4C494.24 166.17 490.15 162.07 490.26 157.25Z" fill="#B78876"/>
    <path d="M484.23 125.101C484.19 125.681 484.65 126.181 485.25 126.231C485.85 126.281 486.36 125.851 486.4 125.281C486.44 124.701 485.98 124.201 485.38 124.151C484.78 124.101 484.27 124.521 484.23 125.101Z" fill="#263238"/>
    <path d="M483.83 123.67C483.96 123.82 484.8 123.23 485.98 123.26C487.15 123.28 488 123.9 488.13 123.76C488.19 123.7 488.06 123.44 487.7 123.16C487.34 122.88 486.72 122.6 485.98 122.58C485.25 122.57 484.63 122.82 484.27 123.08C483.89 123.35 483.76 123.6 483.83 123.67Z" fill="#263238"/>
    <path d="M496.14 125.84C496.1 126.42 496.56 126.92 497.16 126.97C497.76 127.02 498.27 126.59 498.31 126.02C498.35 125.44 497.89 124.94 497.29 124.89C496.69 124.84 496.17 125.27 496.14 125.84Z" fill="#263238"/>
    <path d="M496.06 124.41C496.19 124.56 497.03 123.97 498.21 124C499.38 124.02 500.23 124.64 500.36 124.5C500.42 124.44 500.29 124.18 499.92 123.89C499.56 123.61 498.94 123.33 498.2 123.31C497.47 123.3 496.85 123.55 496.49 123.81C496.12 124.09 495.99 124.34 496.06 124.41Z" fill="#263238"/>
    <path d="M491.57 133C491.58 132.93 490.85 132.79 489.67 132.61C489.37 132.57 489.09 132.5 489.04 132.3C488.97 132.08 489.11 131.76 489.26 131.42C489.56 130.7 489.87 129.95 490.21 129.16C491.52 125.94 492.48 123.3 492.35 123.24C492.22 123.19 491.05 125.75 489.73 128.97C489.41 129.76 489.11 130.52 488.82 131.24C488.7 131.58 488.49 131.96 488.63 132.41C488.7 132.64 488.92 132.8 489.11 132.86C489.3 132.92 489.47 132.93 489.62 132.94C490.83 133.04 491.57 133.07 491.57 133Z" fill="#263238"/>
    <path d="M490.41 146.87C490.41 146.87 496.12 147.39 501.88 144.13C501.88 144.13 498.97 149.9 490.48 148.88L490.41 146.87Z" fill="#A36957"/>
    <path d="M499.81 121.02C499.57 121.39 498.68 121.22 497.68 121.04C496.68 120.84 495.79 120.66 495.71 120.23C495.61 119.82 496.64 119.25 497.98 119.5C499.31 119.77 500.06 120.68 499.81 121.02Z" fill="#263238"/>
    <path d="M488.15 119.3C488.06 119.73 487.1 119.88 486 119.94C484.9 119.98 483.93 119.92 483.8 119.5C483.67 119.1 484.6 118.44 485.93 118.38C487.25 118.32 488.24 118.89 488.15 119.3Z" fill="#263238"/>
    <path d="M491.59 135.81C491.34 135.74 491.06 135.88 490.94 136.11C490.79 136.38 490.86 136.74 491.09 136.94C491.32 137.14 491.7 137.14 491.94 136.95C492.18 136.76 492.26 136.39 492.12 136.12C491.98 135.85 491.64 135.7 491.34 135.79" fill="#A36957"/>
    <path d="M491.87 135.93C491.92 135.88 491.68 135.59 491.17 135.71C490.93 135.76 490.62 135.97 490.53 136.34C490.44 136.68 490.52 137.12 490.88 137.4C491.26 137.66 491.71 137.61 492 137.41C492.32 137.2 492.41 136.82 492.36 136.58C492.26 136.05 491.87 135.97 491.86 136.04C491.82 136.11 492 136.29 491.96 136.6C491.94 136.75 491.87 136.89 491.72 136.97C491.58 137.05 491.34 137.05 491.21 136.95C491.07 136.85 491 136.63 491.03 136.47C491.05 136.3 491.16 136.18 491.3 136.1C491.58 135.92 491.83 136 491.87 135.93Z" fill="#263238"/>
    <path d="M506.62 127.21C505.61 129.55 503.14 131.36 503.48 133.89C503.7 135.52 504.75 137.05 504.54 138.68C504.28 140.73 502.15 142.16 501.85 144.21C501.48 146.72 503.92 148.67 504.9 151.02C506.32 154.43 504.5 158.27 504.46 161.97C504.39 167.63 509.21 172.92 514.85 173.39C517.13 173.58 519.7 172.89 520.89 170.93C521.87 169.31 521.67 167.26 522.26 165.46C523.13 162.78 525.68 160.83 526.22 158.06C527.2 153.02 521.11 148.86 521.51 143.74C521.68 141.55 523.03 139.65 523.6 137.53C524.35 134.76 523.66 131.64 521.81 129.44C520.31 127.65 518.13 126.48 516.85 124.53C515.4 122.32 515.35 119.51 514.8 116.92C513.47 110.61 508.73 105.13 502.68 102.9C496.63 100.67 489.46 101.76 484.35 105.69C484.35 105.69 482.9 112.28 489.66 113.38C496.43 114.48 499.56 113.21 500.32 115.92C500.32 115.92 499.55 119.09 502.35 122.11C505.16 125.13 507.79 124.49 506.62 127.21Z" fill="#263238"/>
    <path d="M517.41 172.92C517.41 172.94 517.2 172.92 516.79 172.86C516.39 172.8 515.8 172.66 515.07 172.4C513.63 171.87 511.58 170.72 509.84 168.52C508.97 167.43 508.16 166.11 507.61 164.56C507.05 163.02 506.73 161.27 506.7 159.43C506.66 157.59 506.92 155.65 507.42 153.72C507.67 152.75 508 151.79 508.38 150.83C508.75 149.87 509.21 148.94 509.48 147.96C509.76 146.98 509.73 145.98 509.47 145.03C509.21 144.08 508.76 143.18 508.33 142.29C507.89 141.4 507.45 140.52 507.16 139.58C506.87 138.65 506.76 137.64 506.95 136.71C507.35 134.83 508.49 133.43 509.17 132C509.88 130.58 510.11 129.09 510.08 127.74C509.96 125.02 508.8 123 507.85 121.84C506.86 120.68 506.11 120.23 506.15 120.19C506.15 120.19 506.94 120.56 508 121.71C509.02 122.86 510.27 124.9 510.44 127.72C510.5 129.11 510.29 130.69 509.56 132.18C508.87 133.66 507.77 135.07 507.42 136.79C507.07 138.53 507.89 140.32 508.78 142.06C509.22 142.95 509.68 143.87 509.96 144.89C510.24 145.9 510.28 147.05 509.97 148.09C509.69 149.14 509.22 150.08 508.85 151.02C508.48 151.96 508.15 152.91 507.9 153.85C507.4 155.74 507.14 157.63 507.17 159.42C507.18 163.02 508.42 166.18 510.11 168.29C511.77 170.46 513.73 171.63 515.13 172.2C516.56 172.77 517.42 172.86 517.41 172.92Z" fill="#455A64"/>
    <path d="M516.42 122.46C516.42 122.49 515.9 122.59 514.93 122.68C513.97 122.76 512.55 122.87 510.81 122.57C509.12 122.26 506.97 121.43 505.61 119.42C504.94 118.41 504.68 117.19 504.25 116.06C503.84 114.92 503.05 113.93 501.97 113.25C499.78 111.86 497.21 111.69 494.96 111.42C492.7 111.16 490.57 110.68 489.13 109.6C487.68 108.57 486.94 107.23 486.74 106.26C486.63 105.78 486.64 105.39 486.66 105.13C486.7 104.87 486.72 104.74 486.74 104.74C486.8 104.74 486.67 105.29 486.93 106.2C487.17 107.1 487.92 108.34 489.33 109.29C490.72 110.27 492.75 110.7 495 110.93C497.23 111.18 499.9 111.32 502.24 112.8C503.4 113.52 504.29 114.65 504.71 115.86C505.16 117.05 505.4 118.22 506 119.14C507.22 121 509.24 121.85 510.86 122.19C512.53 122.53 513.94 122.48 514.9 122.46C515.88 122.45 516.41 122.42 516.42 122.46Z" fill="#455A64"/>
    <path d="M513.93 114.321C513.94 114.351 513.53 114.471 512.76 114.491C512 114.511 510.86 114.381 509.6 113.781C508.97 113.481 508.33 113.061 507.74 112.491C507.14 111.921 506.65 111.191 506.19 110.421C505.29 108.901 504.42 107.021 502.55 106.251C500.72 105.461 498.7 105.641 496.95 105.761C495.18 105.931 493.52 105.991 492.17 105.721C490.81 105.481 489.79 104.921 489.22 104.401C488.93 104.141 488.74 103.911 488.63 103.741C488.52 103.571 488.47 103.481 488.48 103.471C488.52 103.441 488.76 103.791 489.35 104.241C489.93 104.691 490.92 105.171 492.23 105.361C493.55 105.571 495.13 105.491 496.91 105.291C498.67 105.151 500.75 104.931 502.76 105.781C503.76 106.201 504.57 106.951 505.15 107.761C505.74 108.571 506.16 109.421 506.61 110.181C507.05 110.951 507.5 111.651 508.05 112.191C508.59 112.741 509.18 113.161 509.77 113.461C510.94 114.071 512.03 114.261 512.77 114.301C513.51 114.331 513.93 114.271 513.93 114.321Z" fill="#455A64"/>
    <path d="M520.4 170.761C520.35 170.741 520.67 170.091 521.04 168.861C521.41 167.631 521.77 165.791 521.71 163.501C521.63 161.231 521.09 158.481 519.58 155.861C518.85 154.551 517.74 153.381 516.83 151.951C516.38 151.231 515.99 150.431 515.82 149.541C515.65 148.651 515.75 147.701 516.04 146.841C516.6 145.111 517.61 143.661 517.82 142.071C518.09 140.481 517.28 139.031 516.52 137.731C516.13 137.071 515.75 136.421 515.45 135.741C515.15 135.061 514.96 134.341 514.88 133.651C514.73 132.261 514.89 130.981 514.99 129.841C515.28 127.561 515.07 125.681 514.52 124.531C513.99 123.361 513.29 123.011 513.34 122.961C513.35 122.951 513.39 122.971 513.46 123.021C513.53 123.071 513.65 123.131 513.78 123.251C514.05 123.471 514.4 123.851 514.7 124.441C515.33 125.611 515.6 127.571 515.36 129.871C515.28 131.021 515.14 132.281 515.31 133.601C515.44 134.931 516.13 136.181 516.93 137.481C517.32 138.141 517.73 138.831 518.02 139.611C518.32 140.381 518.45 141.271 518.32 142.131C518.08 143.881 517.05 145.361 516.53 146.981C516.26 147.791 516.18 148.631 516.32 149.431C516.47 150.231 516.82 150.981 517.25 151.671C518.11 153.051 519.23 154.241 519.98 155.611C521.51 158.321 522.03 161.151 522.07 163.481C522.09 165.821 521.66 167.691 521.23 168.911C521.01 169.521 520.82 169.991 520.65 170.291C520.5 170.611 520.41 170.771 520.4 170.761Z" fill="#455A64"/>
    <path d="M479.66 357.09C479.66 357.09 472.93 293.25 472.54 269.66C472.15 246.07 483.15 222.79 483.15 222.79L526.23 220.97C526.23 220.97 534.75 244.91 534.9 254.96C535.2 274.5 529.71 293.79 530.34 309.29L531.78 357.09" fill="#263238"/>
    <path d="M533.22 278.6C533.23 278.62 532.98 278.8 532.52 279.13C532.4 279.22 532.27 279.31 532.13 279.41C532 279.52 531.86 279.67 531.71 279.81C531.41 280.1 531.05 280.43 530.75 280.88C529.36 282.58 528.34 285.63 527.38 289.43C526.85 291.32 526.31 293.43 525.2 295.5C524.9 296.01 524.63 296.54 524.24 297.01C524.05 297.25 523.88 297.51 523.68 297.74L523.02 298.4C522.12 299.29 520.98 299.95 519.78 300.48C517.37 301.54 514.65 302.04 512.16 303.29C509.66 304.51 507.78 306.87 506.63 309.59C505.42 312.3 504.68 315.14 503.67 317.8C502.68 320.44 501.32 323 499.17 324.62C497.04 326.3 494.4 326.68 492.12 326.83C489.8 326.97 487.65 326.9 485.73 327.19C483.81 327.46 482.11 328.06 480.91 329.01C479.7 329.96 479 331.15 478.67 332.17C478.33 333.2 478.39 334.07 478.5 334.62C478.61 335.18 478.77 335.45 478.73 335.46C478.73 335.46 478.54 335.21 478.39 334.64C478.24 334.08 478.14 333.18 478.47 332.1C478.78 331.03 479.48 329.79 480.72 328.78C481.96 327.77 483.71 327.12 485.67 326.82C487.63 326.5 489.8 326.55 492.09 326.39C494.35 326.23 496.87 325.83 498.88 324.23C500.91 322.69 502.22 320.22 503.19 317.61C504.18 314.98 504.92 312.14 506.15 309.37C507.31 306.6 509.3 304.09 511.92 302.83C514.51 301.55 517.23 301.06 519.58 300.04C520.75 299.53 521.84 298.9 522.7 298.07L523.34 297.44C523.54 297.22 523.7 296.97 523.88 296.75C524.26 296.3 524.52 295.78 524.81 295.3C525.91 293.3 526.46 291.21 527.02 289.33C528.03 285.55 529.11 282.46 530.59 280.76C530.91 280.31 531.29 279.98 531.6 279.7C531.76 279.56 531.9 279.42 532.04 279.31C532.19 279.22 532.33 279.13 532.45 279.05C532.95 278.74 533.21 278.59 533.22 278.6Z" fill="#FAFAFA"/>
    <path d="M533.49 249.061C533.51 249.061 533.53 249.351 533.55 249.921C533.56 250.481 533.49 251.321 533.25 252.361C532.75 254.441 531.23 257.301 528.38 259.891C526.97 261.191 525.28 262.441 523.33 263.581C521.4 264.731 519.27 265.821 517.09 267.051C514.92 268.291 512.67 269.681 510.7 271.541C508.7 273.371 507.21 275.781 505.86 278.341C504.5 280.891 503.3 283.481 501.67 285.731C500.86 286.851 499.95 287.881 498.94 288.751C497.92 289.621 496.81 290.331 495.69 290.921C493.43 292.091 491.13 292.821 489 293.491C486.86 294.151 484.87 294.741 483.12 295.471C481.37 296.191 479.86 297.011 478.64 297.871C477.42 298.741 476.49 299.641 475.83 300.461C474.5 302.111 474.22 303.301 474.14 303.271C474.12 303.261 474.22 302.991 474.42 302.461C474.65 301.951 475.01 301.191 475.67 300.341C476.32 299.491 477.24 298.541 478.47 297.631C479.7 296.731 481.22 295.881 482.98 295.131C484.74 294.371 486.74 293.761 488.87 293.081C490.99 292.401 493.27 291.661 495.47 290.501C496.57 289.921 497.64 289.231 498.62 288.381C499.59 287.531 500.48 286.531 501.26 285.441C502.85 283.241 504.04 280.671 505.41 278.101C506.76 275.541 508.3 273.061 510.36 271.181C512.38 269.281 514.67 267.881 516.86 266.641C519.06 265.411 521.19 264.341 523.12 263.221C525.05 262.121 526.73 260.901 528.14 259.641C530.97 257.131 532.51 254.361 533.06 252.331C533.59 250.261 533.41 249.051 533.49 249.061Z" fill="#FAFAFA"/>
    <path d="M472.76 273.04C472.75 273.04 472.72 272.98 472.67 272.85C472.63 272.72 472.54 272.52 472.48 272.25C472.36 271.72 472.28 270.87 472.58 269.85C473.14 267.81 475.35 265.28 478.91 264.01C480.68 263.4 482.7 263.03 484.79 262.48C486.86 261.92 489.12 261.14 490.81 259.41C491.65 258.55 492.36 257.54 492.94 256.42C493.51 255.29 493.99 254.08 494.43 252.83C495.33 250.34 496.08 247.63 497.6 245.16C499.11 242.68 501.57 240.95 504.12 240.09C506.66 239.16 509.23 238.74 511.6 238.19C513.99 237.67 516.22 237 518.11 235.97C519.98 234.91 521.46 233.5 522.51 232C524.67 229 525.23 225.93 525.31 223.9C525.36 221.84 525.03 220.71 525.1 220.7C525.1 220.7 525.5 221.8 525.52 223.9C525.5 225.96 524.99 229.11 522.82 232.21C521.76 233.76 520.25 235.23 518.33 236.34C516.39 237.41 514.11 238.11 511.72 238.65C509.33 239.21 506.78 239.64 504.31 240.56C501.82 241.42 499.51 243.05 498.05 245.43C496.58 247.8 495.83 250.48 494.92 252.99C494.47 254.25 493.98 255.48 493.39 256.64C492.78 257.79 492.04 258.85 491.15 259.74C489.36 261.56 487 262.34 484.9 262.89C482.77 263.43 480.77 263.77 479.03 264.35C475.56 265.53 473.36 267.96 472.77 269.9C472.45 270.87 472.49 271.69 472.58 272.22C472.69 272.75 472.78 273.03 472.76 273.04Z" fill="#FAFAFA"/>
    <path d="M529.78 327.021C529.8 327.021 529.82 327.231 529.85 327.651C529.87 328.061 529.84 328.681 529.67 329.461C529.32 331.001 528.13 333.111 525.89 334.861C524.79 335.751 523.46 336.561 521.92 337.211C520.39 337.861 518.7 338.381 516.94 338.931C515.18 339.481 513.33 340.061 511.53 340.901C509.72 341.731 508.05 342.941 506.61 344.491C505.15 346.021 503.89 347.691 502.5 349.161C501.11 350.641 499.53 351.861 497.89 352.771C494.6 354.591 491.19 355.211 488.38 355.241C485.55 355.271 483.31 354.681 481.83 354.151C481.09 353.891 480.53 353.631 480.17 353.441C479.8 353.261 479.61 353.151 479.62 353.141C479.63 353.121 479.83 353.201 480.21 353.351C480.59 353.511 481.15 353.741 481.89 353.971C483.37 354.431 485.59 354.961 488.36 354.881C491.12 354.801 494.45 354.151 497.64 352.361C499.23 351.471 500.75 350.281 502.11 348.821C503.48 347.371 504.73 345.701 506.22 344.141C507.68 342.561 509.45 341.291 511.3 340.451C513.15 339.591 515.02 339.021 516.79 338.481C518.56 337.941 520.24 337.441 521.74 336.821C523.24 336.201 524.56 335.421 525.64 334.571C527.85 332.891 529.05 330.891 529.45 329.401C529.87 327.901 529.71 327.021 529.78 327.021Z" fill="#FAFAFA"/>
    <path d="M524.87 194.46L516.54 194.66C515.99 197.47 514.66 199.39 514.66 199.39C507.69 187.3 502.29 171.1 500.95 164.59C501.15 163.94 501.38 163.22 501.67 162.42C502 161.49 501.72 159.73 501.56 158.76C501.33 157.31 500.92 155.36 500.8 154.46C500.43 151.71 499.99 151.28 499.03 151.59C497.72 152.01 499.57 159.32 498.5 159.47C497.93 159.56 497.22 157.05 497.02 155C496.82 152.95 495.89 146.63 495.21 146.21C494.22 145.59 493.35 146.57 493.6 148.61C493.85 150.68 494.18 156.85 493.09 156.93C492.02 157.01 491.12 146.54 491.12 146.54C491.12 146.54 491.29 144.26 490.03 144.32C487.76 144.42 489.53 155.46 489.73 156.5C489.87 157.23 488.69 157.36 488.59 156.57C488.48 155.76 487.94 146.1 485.63 146.18C483.86 146.24 487 155.28 486.01 157.37C485.02 159.46 484.33 150.26 482.63 150.38C482 150.43 481.54 150.55 482.69 155.76C483.31 158.56 485.14 163.71 486.73 167.97C489.41 182.42 501.17 228.65 519.6 220.18C529.91 215.45 534.1 194.46 534.1 194.46H524.87Z" fill="#B78876"/>
    <path d="M489.32 157.2C489.32 157.2 489.4 157.21 489.56 157.17C489.7 157.13 489.98 156.95 489.94 156.59C489.92 155.97 489.82 155.07 489.68 153.9C489.57 152.72 489.22 151.31 489.22 149.64C489.21 148.8 489.23 147.9 489.28 146.95C489.31 146.47 489.32 145.98 489.43 145.51C489.51 145.06 489.81 144.54 490.16 144.6L490.2 144.61H490.22C490.58 144.59 490.85 144.87 490.97 145.29C491.1 145.69 491.13 146.17 491.1 146.63V146.65V146.66C491.33 149.22 491.59 152.02 492.17 155.01C492.25 155.38 492.33 155.76 492.45 156.14C492.51 156.33 492.57 156.52 492.66 156.71C492.71 156.81 492.75 156.9 492.83 157.01C492.9 157.1 492.99 157.25 493.25 157.27C493.67 157.24 493.79 156.92 493.88 156.74C493.97 156.53 494.03 156.33 494.07 156.13C494.16 155.72 494.2 155.32 494.23 154.91C494.34 153.28 494.28 151.61 494.16 149.91C494.12 149.05 493.91 148.19 494.06 147.41C494.13 147.03 494.29 146.64 494.55 146.48C494.68 146.4 494.82 146.39 494.98 146.43C495.06 146.45 495.14 146.49 495.22 146.53C495.29 146.59 495.27 146.56 495.33 146.68C495.66 147.4 495.84 148.33 496.02 149.19C496.2 150.08 496.35 150.98 496.49 151.89C496.63 152.8 496.76 153.72 496.87 154.65C496.96 155.58 497.09 156.55 497.33 157.49C497.45 157.96 497.58 158.43 497.78 158.9C497.88 159.13 497.99 159.37 498.19 159.61C498.26 159.71 498.5 159.9 498.79 159.83C499.07 159.74 499.15 159.51 499.2 159.38C499.36 158.8 499.31 158.33 499.31 157.82C499.29 157.32 499.25 156.83 499.21 156.34C499.14 155.5 499.06 154.66 499.03 153.84C499.02 153.43 499.02 153.02 499.06 152.64C499.08 152.45 499.12 152.26 499.18 152.12C499.21 152.05 499.25 152 499.28 151.97C499.3 151.95 499.31 151.96 499.32 151.94L499.45 151.9C500.11 151.63 500.33 152.55 500.51 153.29C500.66 154.07 500.76 154.87 500.92 155.66C501.18 157.24 501.52 158.8 501.7 160.3C501.77 161.05 501.83 161.82 501.61 162.45C501.37 163.17 501.14 163.89 500.91 164.6L500.89 164.66L500.91 164.73C502.13 170.11 503.82 174.92 505.38 179.19C506.96 183.46 508.55 187.14 509.94 190.16C511.33 193.18 512.58 195.5 513.45 197.09C513.89 197.84 514.23 198.44 514.49 198.88C514.73 199.28 514.86 199.49 514.88 199.48C514.89 199.47 514.79 199.25 514.57 198.83C514.33 198.38 514.01 197.77 513.61 197C512.8 195.39 511.6 193.05 510.25 190.02C508.9 186.99 507.36 183.3 505.81 179.03C504.28 174.76 502.62 169.94 501.44 164.62L501.43 164.75C501.66 164.05 501.89 163.35 502.13 162.63C502.4 161.81 502.32 161.02 502.25 160.24C502.07 158.68 501.74 157.16 501.48 155.57C501.33 154.79 501.23 153.98 501.07 153.17C500.98 152.76 500.89 152.35 500.66 151.93C500.55 151.73 500.38 151.5 500.11 151.37C499.83 151.25 499.55 151.28 499.32 151.34L499.15 151.39C499.07 151.42 498.98 151.46 498.92 151.52C498.79 151.63 498.72 151.76 498.67 151.88C498.56 152.12 498.53 152.34 498.5 152.56C498.45 153 498.45 153.43 498.47 153.85C498.5 154.7 498.58 155.54 498.65 156.38C498.69 156.87 498.73 157.35 498.75 157.83C498.77 158.3 498.78 158.81 498.68 159.17C498.66 159.27 498.61 159.26 498.66 159.31C498.66 159.28 498.67 159.36 498.67 159.35V159.34C498.67 159.33 498.67 159.31 498.67 159.31C498.68 159.3 498.7 159.27 498.68 159.26C498.67 159.26 498.65 159.24 498.62 159.2C498.51 159.07 498.4 158.87 498.31 158.66C498.13 158.24 498 157.79 497.89 157.33C497.66 156.41 497.53 155.5 497.44 154.56C497.33 153.62 497.2 152.69 497.05 151.77C496.91 150.85 496.75 149.94 496.57 149.05C496.36 148.15 496.23 147.28 495.81 146.38C495.78 146.29 495.61 146.09 495.5 146.03C495.39 145.96 495.26 145.91 495.13 145.87C494.86 145.8 494.53 145.83 494.28 145.99C493.78 146.32 493.63 146.84 493.54 147.29C493.46 147.76 493.47 148.22 493.52 148.66C493.57 149.09 493.61 149.51 493.64 149.93C493.77 151.61 493.83 153.27 493.73 154.86C493.7 155.25 493.66 155.65 493.59 156.02C493.55 156.21 493.5 156.38 493.44 156.54C493.41 156.62 493.37 156.69 493.33 156.73C493.29 156.81 493.26 156.71 493.27 156.85C493.32 156.75 493.27 156.8 493.23 156.72C493.19 156.67 493.15 156.58 493.11 156.51C493.04 156.35 492.98 156.17 492.92 156C492.81 155.65 492.72 155.28 492.64 154.91C492.05 151.97 491.77 149.16 491.51 146.63V146.66C491.53 146.15 491.5 145.66 491.35 145.17C491.27 144.93 491.16 144.69 490.96 144.5C490.76 144.31 490.48 144.22 490.22 144.23L490.28 144.24C489.88 144.17 489.58 144.41 489.42 144.65C489.25 144.9 489.17 145.17 489.11 145.43C489 145.96 489 146.45 488.98 146.93C488.94 147.89 488.94 148.8 488.96 149.64C488.99 151.35 489.38 152.76 489.51 153.92C489.68 155.08 489.81 155.98 489.87 156.59C489.93 156.88 489.7 157.07 489.58 157.11C489.4 157.18 489.32 157.19 489.32 157.2Z" fill="#A36957"/>
    <path d="M424.2 208.23C424.2 208.23 421.43 208.1 418.41 208.89C413.25 210.25 404.33 215.65 403.96 222.33H410.43C410.43 222.33 406.8 230.05 407.87 229.33C410.63 227.48 416.14 221.88 416.14 221.88L424.2 208.23Z" fill="#B78876"/>
    <path d="M512.52 92.0401C512.38 92.0501 511.79 86.7001 511.21 80.0801C510.63 73.4601 510.27 68.0901 510.42 68.0801C510.56 68.0701 511.15 73.4201 511.73 80.0401C512.31 86.6601 512.67 92.0301 512.52 92.0401Z" fill="#263238"/>
    <path d="M540.93 68.4099C541.05 68.4899 536.67 74.8399 531.16 82.5899C525.65 90.3399 521.08 96.5499 520.96 96.4699C520.84 96.3899 525.22 90.0399 530.73 82.2899C536.25 74.5399 540.81 68.3299 540.93 68.4099Z" fill="#263238"/>
    <path d="M552.73 97.1906C552.76 97.3306 547.65 98.5006 541.33 99.8006C535 101.101 529.85 102.041 529.82 101.901C529.79 101.761 534.9 100.591 541.22 99.2906C547.55 97.9906 552.71 97.0506 552.73 97.1906Z" fill="#263238"/>
    <path d="M212.62 234.54L177.26 416.34L172.63 440.141L408.69 438.981C419.28 438.931 428.67 429.52 432.08 415.55L473.94 243.911C476.53 233.301 470.85 222.271 462.81 222.271L223.89 222.521C218.62 222.531 214.01 227.45 212.62 234.54Z" fill="#E8505B"/>
    <g opacity="0.5">
      <path d="M212.62 234.54L177.26 416.34L172.63 440.141L408.69 438.981C419.28 438.931 428.67 429.52 432.08 415.55L473.94 243.911C476.53 233.301 470.85 222.271 462.81 222.271L223.89 222.521C218.62 222.531 214.01 227.45 212.62 234.54Z" fill="black"/>
    </g>
    <path d="M386.05 404.03L361.06 202.62C360.04 194.37 353.46 188.21 345.7 188.24L290.89 188.42C286.83 188.43 282.94 190.16 280.06 193.22L254.04 220.88L101.61 221.68C92.3 221.73 85.14 230.54 86.37 240.45L109.58 426.6C110.61 434.84 117.17 440.99 124.92 440.97L390.57 440.45C420.16 441.06 422.98 432.33 422.98 432.33C389.08 439.83 386.06 404.05 386.05 404.03Z" fill="#E8505B"/>
    <g opacity="0.5">
      <path d="M271.51 363.721L262.55 373.341L193.55 311.261L202.51 301.641L271.51 363.721Z" fill="white"/>
      <path d="M258.79 299.511L268.7 308.421L206.26 375.471L196.36 366.571L258.79 299.511Z" fill="white"/>
    </g>
    <path d="M423.99 103.78C423.35 103.51 422.89 102.88 422.86 102.14L422.46 92.8603C422.43 92.2803 422.68 91.7103 423.13 91.3403C423.58 90.9703 424.18 90.8303 424.75 90.9603C426.24 91.3103 427.89 90.9903 429.26 90.0703C430.53 89.2203 431.38 87.9803 431.59 86.6503C431.81 85.3303 431.4 83.8603 430.47 82.6303C429.47 81.3103 428 80.4303 426.53 80.2603C423.52 79.9103 420.27 82.2203 419.43 85.3003C419.16 86.2903 418.14 86.8803 417.14 86.6103C416.13 86.3303 415.56 85.3103 415.83 84.3203C417.14 79.4803 422.14 76.0003 426.96 76.5503C429.46 76.8403 431.83 78.2303 433.45 80.3803C434.99 82.4203 435.66 84.9203 435.28 87.2503C434.9 89.5903 433.46 91.7503 431.33 93.1703C429.79 94.2003 428.03 94.7603 426.27 94.8203L426.58 101.98C426.62 103.01 425.83 103.88 424.8 103.92C424.51 103.94 424.24 103.89 423.99 103.78Z" fill="#E8505B"/>
    <path d="M426.72 107.58C426.78 108.42 426.14 109.15 425.3 109.21C424.46 109.27 423.73 108.63 423.67 107.79C423.61 106.95 424.25 106.22 425.09 106.16C425.93 106.1 426.66 106.74 426.72 107.58Z" fill="#E8505B"/>
    <path d="M391.85 90.6902C391.86 90.6902 391.89 90.4802 391.94 90.0802C391.99 89.6502 392.05 89.0502 392.14 88.2902C392.18 87.5002 392.39 86.5402 392.62 85.4202C392.75 84.8602 392.82 84.2402 393.03 83.6102C393.23 82.9802 393.43 82.3002 393.65 81.5902C394.62 78.7802 396.11 75.4102 398.62 72.0602C401.11 68.7202 404.62 65.4102 409.12 62.9102C411.34 61.5902 413.87 60.6702 416.53 59.8502C419.23 59.2102 422.09 58.6602 425.08 58.7302C426.57 58.6502 428.08 58.8702 429.62 59.0002C430.39 59.0702 431.14 59.2802 431.91 59.4102C432.68 59.5502 433.46 59.7002 434.21 59.9702C437.3 60.7602 440.3 62.2202 443.15 64.0202C448.89 67.6302 453.72 73.5002 456.37 80.6202C457.7 84.1802 458.33 88.0802 458.33 92.0302C458.41 95.9802 457.64 99.9902 456.24 103.77L455.79 104.91L455.73 105.06L455.79 105.2C458.3 110.98 460.76 116.64 463.14 122.13L463.56 121.65C458.4 119.67 453.39 117.74 448.58 115.9L448.39 115.83L448.24 115.97C444.08 120 439.12 122.72 434.1 124.13C429.06 125.55 423.98 125.62 419.37 124.8C414.74 123.98 410.58 122.21 407.1 119.94C403.62 117.67 400.82 114.9 398.67 112.09C396.53 109.25 395.12 106.33 394.06 103.73C393.12 101.07 392.55 98.7102 392.27 96.7502C392.15 95.7702 392.05 94.9102 391.96 94.1502C391.94 93.4002 391.92 92.7702 391.91 92.2402C391.89 91.7502 391.88 91.3602 391.87 91.0702C391.87 90.8302 391.86 90.6902 391.85 90.6902C391.84 90.6902 391.83 90.8202 391.83 91.0902C391.83 91.3802 391.82 91.7702 391.81 92.2602C391.81 92.7902 391.81 93.4302 391.81 94.1802C391.89 94.9402 391.98 95.8202 392.07 96.8002C392.32 98.7702 392.86 101.16 393.78 103.86C394.82 106.5 396.22 109.46 398.36 112.36C400.52 115.22 403.33 118.05 406.85 120.38C410.36 122.71 414.58 124.53 419.28 125.38C423.97 126.23 429.13 126.18 434.26 124.75C439.38 123.32 444.44 120.57 448.69 116.47L448.36 116.54C453.16 118.39 458.17 120.32 463.33 122.32L464.08 122.61L463.75 121.84C461.37 116.35 458.91 110.68 456.41 104.9V105.19L456.87 104.02C458.31 100.16 459.09 96.0502 459.01 92.0202C459.01 87.9902 458.36 84.0002 457 80.3602C454.29 73.0902 449.34 67.1102 443.49 63.4502C440.57 61.6202 437.52 60.1502 434.37 59.3502C433.6 59.0902 432.81 58.9402 432.03 58.7902C431.25 58.6602 430.48 58.4502 429.7 58.3802C428.14 58.2502 426.61 58.0402 425.09 58.1302C422.05 58.0702 419.15 58.6402 416.41 59.3002C413.71 60.1402 411.15 61.0902 408.91 62.4402C404.36 65.0102 400.83 68.3802 398.33 71.7902C395.82 75.2002 394.34 78.6302 393.41 81.4702C393.2 82.1902 393 82.8702 392.81 83.5202C392.61 84.1602 392.55 84.7902 392.43 85.3502C392.21 86.4902 392.03 87.4502 392.01 88.2502C391.95 89.0202 391.91 89.6102 391.88 90.0502C391.85 90.4902 391.84 90.6902 391.85 90.6902Z" fill="#263238"/>
  </g>
  <defs>
    <clipPath id="clip0_384_7408">
      <rect width="601.55" height="443.06" fill="white"/>
    </clipPath>
  </defs>
</svg>
