<svg width="88" height="89" viewBox="0 0 88 89" fill="none" xmlns="http://www.w3.org/2000/svg">
  <g clip-path="url(#clip0_991_20226)">
    <path d="M75.1109 75.9249C92.2938 58.742 92.2938 30.883 75.1109 13.7001C57.928 -3.4828 30.069 -3.4828 12.8861 13.7001C-4.29682 30.883 -4.29682 58.742 12.8861 75.9249C30.069 93.1078 57.928 93.1078 75.1109 75.9249Z" fill="#FCE8E3"/>
    <path d="M55.7447 39.0654H32.4678V65.3614H55.7447V39.0654Z" fill="#E2988F"/>
    <path d="M81.7097 67.7102C69.2869 62.1688 55.7448 60.2061 55.7448 60.2061C49.5334 66.6855 37.954 66.7722 32.4678 60.2061C32.4678 60.2061 18.9257 62.1688 6.50293 67.7102C14.2278 80.3852 28.1797 88.8589 44.1102 88.8589C60.0407 88.8589 73.9927 80.3931 81.7097 67.7102Z" fill="#D85D63"/>
    <path d="M43.7791 68.0811C43.7082 68.0811 43.6293 68.0811 43.5584 68.0811C37.5441 68.0181 32.4756 65.3696 29.6379 60.8056L30.1424 60.4903C32.8619 64.873 37.7569 67.419 43.5663 67.4821C43.6372 67.4821 43.7082 67.4821 43.7791 67.4821C49.7698 67.4821 55.2166 64.8099 58.0306 60.4824L58.5272 60.8056C55.6028 65.3065 49.9669 68.0811 43.7791 68.0811Z" fill="#B73D49"/>
    <path d="M66.1182 24.5697C66.1182 36.7245 59.4417 52.5131 44.67 52.2135C28.7789 52.2135 22.7409 38.1985 22.7409 26.0437C19.9584 18.1455 23.3006 9.56933 29.0942 7.99283C32.7122 1.94697 39.0024 0 45.3242 0C57.4869 0 69.4761 8.93873 66.1182 24.5697Z" fill="#4C224B"/>
    <path d="M66.0866 26.2649C64.849 23.309 62.3188 24.7593 62.3188 24.7593C62.8469 13.1642 56.935 5.11621 44.1102 5.11621C31.2855 5.11621 25.4445 14.7722 25.9017 24.7593C25.9017 24.7593 23.3714 23.309 22.1339 26.2649C20.8963 29.2208 23.1586 36.1653 24.5538 38.3724C25.949 40.5795 28.0694 39.6494 28.0694 39.6494C28.0694 39.6494 28.5896 44.7257 29.236 46.4441C29.8824 48.1624 37.1973 56.0843 39.3492 57.2903C42.1712 58.9535 46.3252 58.9535 48.8634 57.2903C51.0153 56.0764 58.3302 48.1624 58.9766 46.4441C59.623 44.7257 60.1274 39.5548 60.1274 39.5548C60.1274 39.5548 62.2557 40.5795 63.6588 38.3724C65.0619 36.1653 67.3241 29.2287 66.0866 26.2649Z" fill="#E2988F"/>
    <path d="M44.2126 57.6839C38.9865 57.6839 35.1162 54.0658 32.6648 51.3385L33.1062 50.9443C35.4867 53.585 39.223 57.0927 44.2126 57.0927C48.9264 57.0927 52.3631 53.987 55.1062 50.9443L55.5476 51.3385C52.7178 54.4757 49.1628 57.6839 44.2126 57.6839Z" fill="#C46966"/>
    <path d="M28.0087 36.4429L27.4211 36.5088L27.7771 39.6814L28.3646 39.6155L28.0087 36.4429Z" fill="#C46966"/>
    <path d="M60.165 36.4414L59.8425 39.5225L60.4305 39.584L60.753 36.5029L60.165 36.4414Z" fill="#C46966"/>
    <path d="M23.7734 32.9248C23.6552 32.4913 22.6462 28.6289 24.0414 27.5647C24.5065 27.2652 24.8848 27.2888 25.1292 27.3677C25.8386 27.5963 26.1933 28.4791 26.2327 28.5816L25.681 28.7944C25.6022 28.5973 25.3184 28.0534 24.94 27.9352C24.7666 27.88 24.5853 27.9194 24.3804 28.0534C23.5842 28.6604 23.9311 31.2695 24.341 32.7751L23.7734 32.9248Z" fill="#C46966"/>
    <path d="M64.4391 32.9249L63.8715 32.7673C64.2814 31.2696 64.6283 28.6526 63.8164 28.0378C63.6272 27.9195 63.4459 27.8801 63.2725 27.9353C62.8941 28.0535 62.6103 28.5974 62.5315 28.7945L61.9797 28.5817C62.0191 28.4792 62.3739 27.6042 63.0833 27.3678C63.3198 27.2889 63.706 27.2574 64.1474 27.5491C65.5663 28.6211 64.5573 32.4835 64.4391 32.9249Z" fill="#C46966"/>
    <path d="M25.9019 24.7585C26.9975 20.9749 28.6765 17.68 31.3092 15.1891C38.7109 23.8126 47.8309 29.4328 62.3189 24.7585L63.4382 21.0852C63.4382 21.0852 61.6883 13.2973 61.6883 13.0136C61.6883 12.7377 55.9577 7.39336 55.9577 7.39336L48.5009 4.33496H40.8234L34.7066 6.06122L29.3071 10.6252L25.9019 17.4672V24.7585V24.7585Z" fill="#4C224B"/>
  </g>
  <defs>
    <clipPath id="clip0_991_20226">
      <rect width="88" height="88.8592" fill="white"/>
    </clipPath>
  </defs>
</svg>
