<svg width="20" height="20" viewBox="0 0 20 20" fill="none" xmlns="http://www.w3.org/2000/svg">
  <path d="M17.5 15V15.8333C17.5 16.75 16.75 17.5 15.8333 17.5H4.16667C3.72464 17.5 3.30072 17.3244 2.98816 17.0118C2.67559 16.6993 2.5 16.2754 2.5 15.8333V4.16667C2.5 3.72464 2.67559 3.30072 2.98816 2.98816C3.30072 2.67559 3.72464 2.5 4.16667 2.5H15.8333C16.75 2.5 17.5 3.25 17.5 4.16667V5H10C9.55797 5 9.13405 5.17559 8.82149 5.48816C8.50893 5.80072 8.33333 6.22464 8.33333 6.66667V13.3333C8.33333 13.7754 8.50893 14.1993 8.82149 14.5118C9.13405 14.8244 9.55797 15 10 15H17.5ZM10 13.3333H18.3333V6.66667H10V13.3333ZM13.3333 11.25C12.6417 11.25 12.0833 10.6917 12.0833 10C12.0833 9.30833 12.6417 8.75 13.3333 8.75C14.025 8.75 14.5833 9.30833 14.5833 10C14.5833 10.6917 14.025 11.25 13.3333 11.25Z" fill="#282828"/>
</svg>
