<svg width="20" height="20" viewBox="0 0 20 20" fill="none" xmlns="http://www.w3.org/2000/svg">
  <path d="M5.83333 3.33366V9.16699L7.91667 7.91699L10 9.16699V3.33366H5.83333ZM15 19.167C13.8472 19.167 12.8647 18.7609 12.0525 17.9487C11.2397 17.1359 10.8333 16.1531 10.8333 15.0003C10.8333 13.8475 11.2397 12.8648 12.0525 12.052C12.8647 11.2398 13.8472 10.8337 15 10.8337C16.1528 10.8337 17.1356 11.2398 17.9483 12.052C18.7606 12.8648 19.1667 13.8475 19.1667 15.0003C19.1667 16.1531 18.7606 17.1359 17.9483 17.9487C17.1356 18.7609 16.1528 19.167 15 19.167ZM13.9583 17.0837L17.2917 15.0003L13.9583 12.917V17.0837ZM9.16667 15.0003C9.16667 15.5975 9.26056 16.1773 9.44833 16.7395C9.63556 17.3023 9.88889 17.8337 10.2083 18.3337H4.16667C3.70833 18.3337 3.31583 18.1706 2.98917 17.8445C2.66306 17.5178 2.5 17.1253 2.5 16.667V3.33366C2.5 2.87533 2.66306 2.48283 2.98917 2.15616C3.31583 1.83005 3.70833 1.66699 4.16667 1.66699H14.1667C14.625 1.66699 15.0175 1.83005 15.3442 2.15616C15.6703 2.48283 15.8333 2.87533 15.8333 3.33366V9.20866C15.6944 9.19477 15.5556 9.18421 15.4167 9.17699C15.2778 9.17033 15.1389 9.16699 15 9.16699C13.375 9.16699 11.9967 9.73283 10.865 10.8645C9.73278 11.9967 9.16667 13.3753 9.16667 15.0003Z" fill="black"/>
</svg>
