<svg width="1440" height="287" viewBox="0 0 1440 287" fill="none" xmlns="http://www.w3.org/2000/svg">
  <g clip-path="url(#clip0_991_21735)">
    <path d="M1440 -74H0V449H1440V-74Z" fill="#95ACCF"/>
    <path opacity="0.2" d="M719.56 299.108C796.278 299.108 858.471 236.95 858.471 160.274C858.471 83.5983 796.278 21.4404 719.56 21.4404C642.841 21.4404 580.648 83.5983 580.648 160.274C580.648 236.95 642.841 299.108 719.56 299.108Z" fill="white"/>
    <path d="M1303.31 118.925V144.828H1264.46C1259.83 144.828 1258.27 138.638 1262.36 136.474C1264.22 135.513 1266.27 134.912 1267.83 135.032C1269.15 131.546 1272.7 128 1276.49 130.705C1279.38 125.476 1284.67 120.788 1290.92 124.755C1293.69 120.067 1298.62 117.062 1303.31 118.925Z" fill="white"/>
    <path d="M812.229 174.278L719.502 107.205L626.834 174.278V287.268H812.229V174.278Z" fill="#E5E5E5"/>
    <path d="M770.134 118.024L719.501 79.8594L668.867 118.024V287.268H770.134V118.024Z" fill="white"/>
    <path d="M717.696 119.766V138.217H699.234C700.136 128.42 707.894 120.667 717.696 119.766Z" fill="#95ACCF"/>
    <path d="M739.766 138.217H721.305V119.766C724.131 120.006 726.837 120.847 729.182 122.17C730.265 122.771 731.287 123.432 732.249 124.213C733.572 125.295 734.775 126.497 735.797 127.879C737.962 130.824 739.405 134.37 739.766 138.217Z" fill="#95ACCF"/>
    <path d="M717.696 141.822V160.273C713.847 159.913 710.299 158.53 707.413 156.367C706.03 155.345 704.827 154.143 703.744 152.821C702.963 151.859 702.241 150.837 701.64 149.756C700.317 147.352 699.535 144.707 699.234 141.882H717.696V141.822Z" fill="#95ACCF"/>
    <path d="M739.766 141.822C738.924 151.619 731.107 159.372 721.305 160.273V141.822H739.766Z" fill="#95ACCF"/>
    <path opacity="0.2" d="M699.234 141.822H709.517L701.64 149.696C700.317 147.352 699.535 144.647 699.234 141.822Z" fill="white"/>
    <path opacity="0.2" d="M700.557 138.217L717.695 121.088V133.649L713.125 138.217H700.557Z" fill="white"/>
    <path opacity="0.2" d="M729.182 122.17L721.305 130.043V119.766C724.131 120.066 726.837 120.847 729.182 122.17Z" fill="white"/>
    <path opacity="0.2" d="M714.689 141.822H717.695V146.029L707.412 156.367C706.029 155.345 704.827 154.143 703.744 152.821L714.689 141.822Z" fill="white"/>
    <path opacity="0.2" d="M721.305 141.822H721.906L721.305 142.423V141.822Z" fill="white"/>
    <path opacity="0.2" d="M735.796 127.879L725.513 138.216H721.363V135.151L732.308 124.213C733.571 125.295 734.773 126.497 735.796 127.879Z" fill="white"/>
    <path opacity="0.2" d="M719.502 76.7936C734.613 76.7936 746.863 64.5504 746.863 49.4476C746.863 34.3448 734.613 22.1016 719.502 22.1016C704.391 22.1016 692.141 34.3448 692.141 49.4476C692.141 64.5504 704.391 76.7936 719.502 76.7936Z" fill="white"/>
    <path opacity="0.2" d="M727.349 67.0766C737.091 62.7486 741.477 51.347 737.147 41.6105C732.816 31.8741 721.409 27.4897 711.667 31.8177C701.925 36.1457 697.538 47.5473 701.868 57.2837C706.199 67.0202 717.607 71.4046 727.349 67.0766Z" fill="white"/>
    <path d="M732.189 46.9831H722.087V38.3887H716.915V46.9831H706.812V52.0917H716.915V74.6897H722.087V52.0917H732.189V46.9831Z" fill="white"/>
    <path d="M786.191 140.02L719.502 89.4153L652.812 140.02L643.672 127.82L719.502 70.3633L795.392 127.82L786.191 140.02Z" fill="#38384F"/>
    <path d="M795.392 127.82L719.502 73.3683L643.672 127.82L719.502 70.3633L795.392 127.82Z" fill="white"/>
    <path d="M668.868 136.834V155.886L611.379 199.219L602.238 187.018L668.868 136.834Z" fill="#38384F"/>
    <path d="M668.868 136.834V140.921L602.238 187.018L668.868 136.834Z" fill="white"/>
    <path d="M770.135 136.834V155.886L827.624 199.219L836.824 187.018L770.135 136.834Z" fill="#38384F"/>
    <path d="M770.135 136.834V140.921L836.824 187.018L770.135 136.834Z" fill="white"/>
    <path d="M748.065 207.814V287.267H690.938V207.814C690.938 192.187 703.506 179.506 719.081 179.266C719.201 179.266 719.321 179.266 719.501 179.266C735.257 179.266 748.065 192.067 748.065 207.814Z" fill="#38384F"/>
    <path d="M658.885 202.285V223.741H636.756V202.285C636.756 196.215 641.627 191.287 647.64 191.227C647.7 191.227 647.761 191.227 647.761 191.227C649.264 191.227 650.767 191.527 652.09 192.068C654.917 193.27 657.142 195.614 658.164 198.499C658.705 199.701 658.885 200.963 658.885 202.285Z" fill="#38384F"/>
    <path d="M661.109 223.74H634.59V227.286H661.109V223.74Z" fill="white"/>
    <path opacity="0.2" d="M658.284 198.558L636.816 220.014V207.453L652.211 192.067C654.977 193.269 657.202 195.613 658.284 198.558Z" fill="white"/>
    <path d="M804.41 223.74H777.891V227.286H804.41V223.74Z" fill="white"/>
    <path d="M802.247 202.285V223.741H780.117V202.285C780.117 196.155 785.048 191.227 791.182 191.227C791.242 191.227 791.302 191.227 791.302 191.227C792.806 191.227 794.189 191.527 795.452 192.068C798.278 193.27 800.503 195.614 801.585 198.499C802.006 199.701 802.247 200.963 802.247 202.285Z" fill="#38384F"/>
    <path opacity="0.2" d="M801.585 198.558L780.117 220.014V207.453L795.512 192.067C798.278 193.269 800.503 195.613 801.585 198.558Z" fill="white"/>
    <path d="M748.065 207.814V287.267H719.141V179.266C719.261 179.266 719.381 179.266 719.562 179.266C735.257 179.266 748.065 192.067 748.065 207.814Z" fill="#38384F"/>
    <path opacity="0.2" d="M748.065 -74H690.937L597.066 311.188H841.935L748.065 -74Z" fill="white"/>
    <path d="M1533.71 92.5457C1538.34 87.9328 1541.22 81.5402 1541.22 74.481C1541.22 60.4102 1529.81 49 1515.75 49C1502.95 49 1492.35 58.446 1490.55 70.749C1484.06 65.4576 1475.79 62.2851 1466.77 62.2851C1451.91 62.2851 1439.07 70.8919 1432.93 83.3913C1427.12 78.0999 1419.28 74.8441 1410.64 74.8441C1397.85 74.8441 1386.8 81.9688 1381.51 92.3136C1377.74 89.4863 1373.14 87.8257 1368.18 87.8257C1360.73 87.8257 1354.11 91.5636 1349.84 97.3788C1344.43 88.9625 1335 83.3794 1324.26 83.3794C1309.99 83.3794 1298.02 93.2123 1294.75 106.474C1292.44 105.813 1290 105.45 1287.48 105.45C1278.33 105.45 1270.27 110.098 1265.53 117.158C1260.97 114.824 1255.69 113.485 1250.07 113.485C1243.32 113.485 1237.08 115.402 1231.99 118.652C1226.19 107.057 1213.75 99.0335 1199.34 99.0335C1181.99 99.0335 1167.5 110.652 1164.01 126.139C1159.06 120.217 1151.62 116.443 1143.3 116.443C1131.1 116.443 1120.78 124.55 1117.45 135.675C1113.56 133.574 1109.1 132.377 1104.37 132.377C1097.53 132.377 1091.28 134.871 1086.47 138.99C1080.96 129.371 1070.94 122.931 1059.49 122.931C1046.99 122.931 1036.2 130.598 1031.12 141.704C1027.39 138.02 1022.08 135.716 1016.19 135.716C1009.49 135.716 1003.55 138.692 999.803 143.293C993.931 136.579 985.541 132.371 976.223 132.371C961.878 132.371 949.734 142.329 945.599 156.085C940.523 153.287 934.55 151.668 928.153 151.668C909.75 151.668 894.827 165.037 894.827 181.524C894.827 181.744 894.839 181.964 894.845 182.185C882.434 185.107 861.454 195.499 861.454 223.468C855.016 218.1 843.176 221.028 838.82 223.671C832.882 227.272 829.764 234.998 831.097 243.753C822.19 235.593 804.744 241.462 805.5 256.425C800.318 248.688 785.871 248.128 777.148 253.205C765.409 260.038 761.982 273.038 761.982 277.901C759.435 273.514 750.284 270.704 743.549 273.24C737.872 275.383 733.297 279.198 730.715 285.228C731.107 278.651 723.283 271.044 717.839 269.46C711.55 267.627 704.082 268.502 699.108 273.907C698.501 267.663 690.891 262.139 685.298 260.991C680.187 259.937 673.315 260.794 668.995 263.889C668.924 255.985 662.266 245.604 655.596 241.7C646.51 236.373 635.663 236.95 624.4 243.866C624.37 235.123 622.99 222.451 611.358 214.338C597.369 204.588 584.059 209.076 578.395 218.338C578.395 197.773 562.996 186.631 545.39 182.786C546.312 180.107 546.812 177.262 546.812 174.31C546.812 158.662 532.818 145.978 515.551 145.978C502.199 145.978 490.805 153.567 486.324 164.245C483.147 161.739 479.143 160.239 474.781 160.239C474.27 160.239 473.764 160.263 473.264 160.305C470.741 150.246 461.65 142.793 450.809 142.793C445.382 142.793 440.39 144.668 436.446 147.799C434.054 131.074 419.678 118.211 402.293 118.211C389.684 118.211 378.665 124.979 372.644 135.074C368.467 132.514 363.516 131.026 358.203 131.026C348.653 131.026 340.27 135.818 335.474 143.038C330.553 138.115 323.753 135.068 316.238 135.068C312.459 135.068 308.866 135.841 305.599 137.228C299.655 128.991 289.98 123.622 279.044 123.622C266.252 123.622 255.185 130.967 249.8 141.663L249.503 141.621C247.718 124.681 233.402 111.479 215.992 111.479C211.893 111.479 207.96 112.217 204.324 113.557C199.475 106.938 191.062 102.563 181.494 102.563C172.98 102.563 165.381 106.027 160.395 111.45C154.541 102.051 144.122 95.7896 132.234 95.7896C125.409 95.7896 119.073 97.855 113.801 101.385C108.166 90.6529 96.9208 83.3318 83.9617 83.3318C74.1323 83.3318 65.2906 87.54 59.1323 94.2539C54.4794 91.6648 49.1244 90.1827 43.4243 90.1827C36.3795 90.1827 29.8702 92.4386 24.5569 96.2598C18.6604 84.8079 6.7307 76.975 -7.03165 76.975C-9.6556 76.975 -12.2081 77.2666 -14.6714 77.8082C-19.604 69.1896 -29.5167 63.297 -40.9585 63.297C-48.5626 63.297 -55.5003 65.904 -60.7423 70.1776C-66.5971 65.8564 -73.8382 63.297 -81.6803 63.297C-90.8612 63.297 -99.2269 66.8087 -105.504 72.5525C-111.395 67.3563 -119.118 64.1958 -127.591 64.1958C-132.743 64.1958 -137.622 65.3624 -141.984 67.4516C-148.63 62.6482 -157.085 59.7674 -166.295 59.7674C-187.668 59.7674 -205 75.2548 -205 94.3611C-205 109.533 -194.07 122.413 -178.874 127.08V452H1525.37V162.132H1564V92.5457H1533.71ZM1168.63 152.739C1168.74 152.454 1168.83 152.168 1168.93 151.876C1169.1 152.138 1169.28 152.394 1169.46 152.65L1168.63 152.739ZM1437.11 124.086C1437.22 123.931 1437.34 123.782 1437.45 123.622C1437.56 123.753 1437.66 123.884 1437.76 124.015L1437.11 124.086Z" fill="white"/>
  </g>
  <defs>
    <clipPath id="clip0_991_21735">
      <rect width="1440" height="287" fill="white"/>
    </clipPath>
  </defs>
</svg>
