<svg width="16" height="16" viewBox="0 0 16 16" fill="none" xmlns="http://www.w3.org/2000/svg">
<path d="M3 0C2.20435 0 1.44129 0.316071 0.87868 0.87868C0.316071 1.44129 0 2.20435 0 3V11C0 11.7956 0.316071 12.5587 0.87868 13.1213C1.44129 13.6839 2.20435 14 3 14H8.038C8.01264 13.8345 7.99993 13.6674 8 13.5C8 13.329 8.017 13.162 8.05 13H3C2.46957 13 1.96086 12.7893 1.58579 12.4142C1.21071 12.0391 1 11.5304 1 11V3C1 2.46957 1.21071 1.96086 1.58579 1.58579C1.96086 1.21071 2.46957 1 3 1H11C11.5304 1 12.0391 1.21071 12.4142 1.58579C12.7893 1.96086 13 2.46957 13 3V6.041C13.359 6.101 13.696 6.226 14 6.401V3C14 2.20435 13.6839 1.44129 13.1213 0.87868C12.5587 0.316071 11.7956 0 11 0H3ZM10.854 4.854C10.9479 4.76011 11.0006 4.63278 11.0006 4.5C11.0006 4.36722 10.9479 4.23989 10.854 4.146C10.7601 4.05211 10.6328 3.99937 10.5 3.99937C10.3672 3.99937 10.2399 4.05211 10.146 4.146L5.5 8.793L3.854 7.146C3.76011 7.05211 3.63278 6.99937 3.5 6.99937C3.36722 6.99937 3.23989 7.05211 3.146 7.146C3.05211 7.23989 2.99937 7.36722 2.99937 7.5C2.99937 7.63278 3.05211 7.76011 3.146 7.854L5.146 9.854C5.19245 9.90056 5.24762 9.93751 5.30837 9.96271C5.36911 9.98792 5.43423 10.0009 5.5 10.0009C5.56577 10.0009 5.63089 9.98792 5.69163 9.96271C5.75238 9.93751 5.80755 9.90056 5.854 9.854L10.854 4.854ZM14.5 9C14.5 9.53043 14.2893 10.0391 13.9142 10.4142C13.5391 10.7893 13.0304 11 12.5 11C11.9696 11 11.4609 10.7893 11.0858 10.4142C10.7107 10.0391 10.5 9.53043 10.5 9C10.5 8.46957 10.7107 7.96086 11.0858 7.58579C11.4609 7.21071 11.9696 7 12.5 7C13.0304 7 13.5391 7.21071 13.9142 7.58579C14.2893 7.96086 14.5 8.46957 14.5 9ZM16 13.5C16 14.745 15 16 12.5 16C10 16 9 14.75 9 13.5C9 13.1022 9.15804 12.7206 9.43934 12.4393C9.72064 12.158 10.1022 12 10.5 12H14.5C14.8978 12 15.2794 12.158 15.5607 12.4393C15.842 12.7206 16 13.1022 16 13.5Z" fill="#0C3176"/>
</svg>
