<svg width="19" height="16" viewBox="0 0 19 16" fill="none" xmlns="http://www.w3.org/2000/svg">
<path d="M16.5355 7.28333C16.6538 7.28333 16.7655 7.33083 16.8521 7.41917L17.9155 8.4825C17.958 8.52444 17.9917 8.57439 18.0147 8.62947C18.0377 8.68454 18.0496 8.74364 18.0496 8.80333C18.0496 8.86303 18.0377 8.92212 18.0147 8.9772C17.9917 9.03227 17.958 9.08223 17.9155 9.12417L17.0821 9.9575L15.3771 8.2525L16.2105 7.41917C16.2972 7.33369 16.4137 7.28503 16.5355 7.28333V7.28333ZM14.8871 8.73333L16.5921 10.4433L11.5538 15.5H9.83464V13.7808L14.8871 8.73333ZM9.0013 2.74L4.83464 6.49V13H8.16797V14.6667H3.16797V8H0.667969L9.0013 0.5L15.2171 6.09417L13.168 8.14333V6.49L9.0013 2.74V2.74Z" fill="#0C3176"/>
</svg>
