<svg width="22" height="22" viewBox="0 0 22 22" fill="none" xmlns="http://www.w3.org/2000/svg">
<path d="M11.0015 9.65338C12.754 9.65338 14.1748 8.25054 14.1748 6.52005C14.1748 4.78956 12.754 3.38672 11.0015 3.38672C9.24887 3.38672 7.82812 4.78956 7.82812 6.52005C7.82812 8.25054 9.24887 9.65338 11.0015 9.65338Z" fill="#000"/>
<path d="M6.18538 6.8333H6.50538V6.54664C6.50732 5.71304 6.7425 4.89661 7.18431 4.18972C7.62612 3.48282 8.25693 2.91367 9.00538 2.54664C8.7838 2.03635 8.42815 1.59559 7.9762 1.2712C7.52425 0.946797 6.99287 0.750865 6.43851 0.704211C5.88415 0.657556 5.3275 0.76192 4.82769 1.00622C4.32788 1.25052 3.90356 1.62563 3.59982 2.09171C3.29607 2.55779 3.12423 3.09744 3.10255 3.65334C3.08087 4.20924 3.21016 4.76063 3.47669 5.24895C3.74322 5.73727 4.13703 6.14429 4.6163 6.42677C5.09557 6.70925 5.6424 6.85665 6.19871 6.8533L6.18538 6.8333ZM15.5054 6.51997V6.80664H15.8254C16.3743 6.80113 16.9115 6.64775 17.3806 6.36263C17.8497 6.07752 18.2332 5.67122 18.4909 5.18651C18.7485 4.70179 18.8707 4.15658 18.8446 3.60827C18.8185 3.05996 18.6451 2.52883 18.3426 2.07078C18.0401 1.61273 17.6197 1.2447 17.1256 1.00544C16.6316 0.766171 16.0822 0.664517 15.5352 0.711175C14.9883 0.757832 14.464 0.951074 14.0176 1.27056C13.5713 1.59005 13.2193 2.02397 12.9987 2.52664C13.7474 2.89223 14.3789 3.45995 14.8219 4.16562C15.2648 4.8713 15.5016 5.6868 15.5054 6.51997ZM13.8587 9.96664C15.1842 10.229 16.4659 10.6779 17.6654 11.3C17.8344 11.3928 17.9874 11.5121 18.1187 11.6533H21.6654V9.37331C21.666 9.28586 21.6428 9.19989 21.5981 9.1247C21.5535 9.0495 21.4891 8.98793 21.412 8.94664C19.6841 8.04285 17.762 7.57376 15.812 7.57997H15.372C15.141 8.51912 14.6096 9.35714 13.8587 9.96664V9.96664ZM3.35204 12.9466C3.35083 12.6109 3.4415 12.2812 3.61425 11.9933C3.78699 11.7054 4.03522 11.4702 4.33204 11.3133C5.53157 10.6912 6.8132 10.2423 8.13871 9.97997C7.39142 9.37566 6.86039 8.54519 6.62538 7.6133H6.18538C4.2354 7.6071 2.31328 8.07618 0.585378 8.97997C0.50829 9.02127 0.443948 9.08284 0.399301 9.15803C0.354654 9.23323 0.331398 9.31919 0.332044 9.40664V13.6666H3.35204V12.9466ZM13.3054 16.7933H17.2787V17.7266H13.3054V16.7933Z" fill="#000"/>
<path d="M20.8742 13.1734H16.2942V12.5068C16.2942 12.33 16.2239 12.1604 16.0989 12.0354C15.9739 11.9103 15.8043 11.8401 15.6275 11.8401C15.4507 11.8401 15.2811 11.9103 15.1561 12.0354C15.0311 12.1604 14.9608 12.33 14.9608 12.5068V13.1734H13.6675V11.2868C12.7904 11.1026 11.8971 11.0066 11.0008 11.0001C8.89669 10.9913 6.82259 11.4996 4.96085 12.4801C4.87792 12.5231 4.8085 12.5882 4.76027 12.6682C4.71203 12.7482 4.68685 12.84 4.68751 12.9334V16.6734H9.42751V20.7334C9.42751 20.9103 9.49775 21.0798 9.62278 21.2048C9.7478 21.3299 9.91737 21.4001 10.0942 21.4001H20.8742C21.051 21.4001 21.2206 21.3299 21.3456 21.2048C21.4706 21.0798 21.5408 20.9103 21.5408 20.7334V13.8401C21.5408 13.6633 21.4706 13.4937 21.3456 13.3687C21.2206 13.2437 21.051 13.1734 20.8742 13.1734ZM20.2075 20.0801H10.7608V14.5068H14.9608V15.1134C14.9608 15.2903 15.0311 15.4598 15.1561 15.5848C15.2811 15.7099 15.4507 15.7801 15.6275 15.7801C15.8043 15.7801 15.9739 15.7099 16.0989 15.5848C16.2239 15.4598 16.2942 15.2903 16.2942 15.1134V14.5068H20.2075V20.0801Z" fill="#000"/>
</svg>
