<svg width="21" height="20" viewBox="0 0 21 20" fill="none" xmlns="http://www.w3.org/2000/svg">
  <path fill-rule="evenodd" clip-rule="evenodd" d="M6.72051 0.888008C7.69801 0.843008 8.00967 0.833008 10.4997 0.833008C12.9897 0.833008 13.3013 0.843841 14.278 0.888008C15.2547 0.932174 15.9213 1.08801 16.5047 1.31384C17.1155 1.54467 17.6697 1.90551 18.128 2.37217C18.5947 2.82967 18.9547 3.38301 19.1847 3.99467C19.4113 4.57801 19.5663 5.24467 19.6113 6.21967C19.6563 7.19884 19.6663 7.51051 19.6663 9.99967C19.6663 12.4897 19.6555 12.8013 19.6113 13.7788C19.5672 14.7538 19.4113 15.4205 19.1847 16.0038C18.9547 16.6156 18.5941 17.1698 18.128 17.628C17.6697 18.0947 17.1155 18.4547 16.5047 18.6847C15.9213 18.9113 15.2547 19.0663 14.2797 19.1113C13.3013 19.1563 12.9897 19.1663 10.4997 19.1663C8.00967 19.1663 7.69801 19.1555 6.72051 19.1113C5.74551 19.0672 5.07884 18.9113 4.49551 18.6847C3.88378 18.4546 3.32952 18.0941 2.87134 17.628C2.40499 17.1702 2.0441 16.6162 1.81384 16.0047C1.58801 15.4213 1.43301 14.7547 1.38801 13.7797C1.34301 12.8005 1.33301 12.4888 1.33301 9.99967C1.33301 7.50967 1.34384 7.19801 1.38801 6.22134C1.43217 5.24467 1.58801 4.57801 1.81384 3.99467C2.04444 3.38308 2.40561 2.8291 2.87217 2.37134C3.32971 1.90509 3.8834 1.54421 4.49467 1.31384C5.07801 1.08801 5.74467 0.933008 6.71967 0.888008H6.72051ZM14.2038 2.53801C13.2372 2.49384 12.9472 2.48467 10.4997 2.48467C8.05217 2.48467 7.76217 2.49384 6.79551 2.53801C5.90134 2.57884 5.41634 2.72801 5.09301 2.85384C4.66551 3.02051 4.35967 3.21801 4.03884 3.53884C3.73471 3.83472 3.50066 4.19491 3.35384 4.59301C3.22801 4.91634 3.07884 5.40134 3.03801 6.29551C2.99384 7.26217 2.98467 7.55217 2.98467 9.99967C2.98467 12.4472 2.99384 12.7372 3.03801 13.7038C3.07884 14.598 3.22801 15.083 3.35384 15.4063C3.50051 15.8038 3.73467 16.1647 4.03884 16.4605C4.33467 16.7647 4.69551 16.9988 5.09301 17.1455C5.41634 17.2713 5.90134 17.4205 6.79551 17.4613C7.76217 17.5055 8.05134 17.5147 10.4997 17.5147C12.948 17.5147 13.2372 17.5055 14.2038 17.4613C15.098 17.4205 15.583 17.2713 15.9063 17.1455C16.3338 16.9788 16.6397 16.7813 16.9605 16.4605C17.2647 16.1647 17.4988 15.8038 17.6455 15.4063C17.7713 15.083 17.9205 14.598 17.9613 13.7038C18.0055 12.7372 18.0147 12.4472 18.0147 9.99967C18.0147 7.55217 18.0055 7.26217 17.9613 6.29551C17.9205 5.40134 17.7713 4.91634 17.6455 4.59301C17.4788 4.16551 17.2813 3.85967 16.9605 3.53884C16.6646 3.23473 16.3044 3.00068 15.9063 2.85384C15.583 2.72801 15.098 2.57884 14.2038 2.53801V2.53801ZM9.32884 12.8255C9.98272 13.0977 10.7108 13.1344 11.3888 12.9294C12.0667 12.7244 12.6525 12.2904 13.046 11.7015C13.4395 11.1126 13.6164 10.4054 13.5464 9.7006C13.4764 8.99579 13.1638 8.33715 12.6622 7.83717C12.3424 7.51757 11.9557 7.27285 11.53 7.12063C11.1042 6.96841 10.65 6.91248 10.2001 6.95685C9.75014 7.00123 9.31564 7.14482 8.92784 7.37728C8.54005 7.60974 8.20863 7.92529 7.95743 8.30122C7.70623 8.67714 7.5415 9.10408 7.4751 9.55131C7.40871 9.99854 7.4423 10.4549 7.57346 10.8876C7.70461 11.3203 7.93008 11.7185 8.23361 12.0536C8.53714 12.3887 8.9112 12.6523 9.32884 12.8255ZM7.16801 6.66801C7.60553 6.23049 8.12494 5.88343 8.69659 5.64664C9.26824 5.40986 9.88093 5.28799 10.4997 5.28799C11.1184 5.28799 11.7311 5.40986 12.3028 5.64664C12.8744 5.88343 13.3938 6.23049 13.8313 6.66801C14.2689 7.10553 14.6159 7.62494 14.8527 8.19659C15.0895 8.76824 15.2114 9.38093 15.2114 9.99967C15.2114 10.6184 15.0895 11.2311 14.8527 11.8028C14.6159 12.3744 14.2689 12.8938 13.8313 13.3313C12.9477 14.215 11.7493 14.7114 10.4997 14.7114C9.25006 14.7114 8.05162 14.215 7.16801 13.3313C6.28439 12.4477 5.78799 11.2493 5.78799 9.99967C5.78799 8.75006 6.28439 7.55162 7.16801 6.66801V6.66801ZM16.2563 5.98967C16.3648 5.8874 16.4516 5.76441 16.5116 5.62799C16.5716 5.49156 16.6037 5.34448 16.6059 5.19545C16.608 5.04642 16.5803 4.89846 16.5242 4.76035C16.4682 4.62224 16.385 4.49677 16.2796 4.39137C16.1742 4.28598 16.0488 4.20281 15.9107 4.14677C15.7726 4.09074 15.6246 4.06299 15.4756 4.06516C15.3265 4.06733 15.1795 4.09939 15.043 4.15942C14.9066 4.21946 14.7836 4.30625 14.6813 4.41467C14.4824 4.62553 14.3735 4.90561 14.3778 5.19545C14.382 5.48529 14.499 5.76207 14.704 5.96704C14.9089 6.17201 15.1857 6.28903 15.4756 6.29326C15.7654 6.29748 16.0455 6.18858 16.2563 5.98967V5.98967Z" fill="white"/>
</svg>
