<svg width="157" height="51" viewBox="0 0 157 51" fill="none" xmlns="http://www.w3.org/2000/svg">
  <path d="M56.1135 41.2096H55.1683L54.5537 42.6942C54.4901 42.8658 54.3034 43.0747 54.0941 43.0747H53.8848V43.7933H54.3352C54.5663 43.7933 54.7739 43.7403 54.9397 43.6201C55.0921 43.5115 55.2118 43.3598 55.3031 43.1617L55.3868 42.9545H59.6007V42.1836H55.7075L56.1135 41.2096Z" fill="#0C3178"/>
  <path d="M57.3089 48.0375H59.2061V47.2666H57.3089V45.5507H59.4246V44.7691H57.3089V43.4884H56.4197V44.7691H55.3857L55.5314 44.0952H54.7175L54.3893 45.5831C54.3575 45.7256 54.2261 45.8765 54.062 45.8765H53.8945V46.6035H54.2579C54.4563 46.6035 54.6422 46.5272 54.7921 46.4186C54.9813 46.2677 55.1127 46.0514 55.1579 45.8177L55.2107 45.5507H56.4189V47.2666H54.3458V48.0375H56.4189V49.8511H54.026V50.6203H59.5987V49.8511H57.308V48.0375H57.3089Z" fill="#0C3178"/>
  <path d="M52.3521 41.2096H51.4965V42.4787H49.9258V43.2512H50.532V49.4166C50.532 49.5899 50.2766 49.8518 50.1225 49.8518H49.873V50.621H50.3653C50.6366 50.621 50.8702 50.5124 51.0444 50.3409C51.2319 50.1436 51.3533 49.8742 51.3533 49.5899V45.5622H52.7348V49.3619C52.7348 49.5998 52.4493 49.8526 52.2508 49.8526H51.7008V50.6219H52.4267C52.744 50.6219 53.0052 50.4909 53.2078 50.2754C53.4238 50.0474 53.5469 49.7333 53.5469 49.4075V44.7921H51.3525V43.2529H53.6423V42.4803H52.3505V41.2096H52.3521Z" fill="#0C3178"/>
  <path d="M72.3667 49.6344L71.82 48.9447H70.832L71.6182 50.0115C71.7513 50.1881 71.9514 50.3389 72.1683 50.4359C72.3876 50.5429 72.6187 50.6009 72.8347 50.6009H73.3856V49.8723H72.8506C72.6857 49.8723 72.4663 49.762 72.3667 49.6344Z" fill="#0C3178"/>
  <path d="M68.4715 49.6195C68.3853 49.7297 68.1433 49.8723 67.9993 49.8723H67.3965V50.6009H68.0772C68.3175 50.6009 68.5368 50.5329 68.7252 50.4243C68.9002 50.3141 69.0509 50.164 69.1832 49.9809L69.8756 48.9447H68.9437L68.4715 49.6195Z" fill="#0C3178"/>
  <path d="M65.9933 41.2283H65.1385V42.499H63.6431V43.2716H64.1296V49.6359C64.1296 49.7412 64.0074 49.8738 63.886 49.8738H63.5996V50.6024H64.1045C64.3247 50.6024 64.5432 50.4889 64.6964 50.3305C64.8513 50.1656 64.9618 49.9617 64.9618 49.7312V45.5337H66.2654V49.534C66.2654 49.6798 66.0913 49.8738 65.9473 49.8738H65.3897V50.6024H66.0603C66.355 50.6024 66.6196 50.4565 66.8055 50.2626C66.9922 50.057 67.101 49.7752 67.101 49.5116V44.7586H64.9627V43.2724H67.1889V42.4999H65.9925V41.2283H65.9933Z" fill="#0C3178"/>
  <path d="M73.2782 47.9301H72.4652V44.7346H73.1116V44.006H72.456V43.2708H71.6414V44.006H69.1095V43.2708H68.7553C68.8114 43.2028 68.901 43.1166 68.9446 43.0105L69.1187 42.5993H73.2221V41.8367H69.4251L69.6805 41.2283H68.8006L68.2848 42.533C68.2321 42.6623 68.0453 42.8149 67.9039 42.8149H67.4643V43.5534H68.2656V44.0068H67.5974V44.7354H68.2656V47.9309H67.4316V48.6578H73.2791V47.9301H73.2782ZM71.6414 47.9301H69.1095V47.2744H71.6414V47.9301ZM71.6414 46.5914H69.1095V46.007H71.6414V46.5914ZM71.6414 45.3306H69.1095V44.7346H71.6414V45.3306Z" fill="#0C3178"/>
  <path d="M85.6871 49.4481L84.7326 47.4181L85.4911 45.0706C85.5883 44.7564 85.6536 44.332 85.6536 44.0171V43.5106H86.598V42.7347H83.6341L84.0084 41.1639H83.1318L82.5825 43.7377C82.5281 43.9855 82.3422 44.1845 81.9462 44.1687V44.9181H82.1446C82.3874 44.9181 82.6286 44.8418 82.837 44.7125C83.0656 44.5633 83.2398 44.3453 83.3168 44.0975L83.4842 43.5098H84.8423V44.0162C84.8423 44.3014 84.8088 44.6139 84.7334 44.8567L84.2386 46.3753L83.6693 45.1676H82.8044L83.8543 47.4264L83.1669 49.4257C83.0656 49.7216 82.8044 49.8625 82.5072 49.8625H81.7168V50.5762H82.6621C82.9467 50.5762 83.2071 50.5232 83.4147 50.403C83.6249 50.2844 83.7907 50.1095 83.8777 49.8625L84.36 48.5023L84.9838 49.8716C85.0625 50.0316 85.2391 50.2148 85.435 50.3607C85.6201 50.4776 85.8193 50.5762 85.9952 50.5762H86.6633V49.8625H86.1919C86.0044 49.8625 85.7884 49.6445 85.6871 49.4481Z" fill="#0C3178"/>
  <path d="M82.1896 47.3195H81.3783C81.1029 47.3195 80.6968 47.3941 80.4347 47.4828L80.0303 47.6104V47.3187L81.8154 46.232V45.5373H78.921L79.2961 44.6877H81.7626V43.9417H81.0937L82.1151 41.5876H81.2033L80.1819 43.9417H79.636V42.8135H80.4674V42.0733H79.636V41.251H78.7887V42.0733H77.2414V42.8135H78.7887V43.9417H77.0137V44.6877H78.4044L77.7254 46.2568C77.6492 46.4268 77.3762 46.5677 77.146 46.5677H76.9141V47.2863H77.3545C77.6391 47.2863 77.8593 47.2101 78.0435 47.0775C78.2403 46.9415 78.3968 46.7534 78.4931 46.537L78.6037 46.2684H80.5226L79.2282 47.0161V47.9064L78.6614 48.1542C78.4747 48.2305 78.2537 48.2951 78.0234 48.2951H77.0355V49.0577L78.0134 49.0461C78.2989 49.0461 78.5509 49.0005 78.8155 48.8936L79.2282 48.7088V49.3578C79.2282 49.633 79.0013 49.8609 78.6832 49.8609H77.969V50.5995H78.7376C79.1747 50.5995 79.5037 50.4652 79.7105 50.2597C79.9332 50.0425 80.0312 49.7383 80.0312 49.3835V48.4576L80.4691 48.2761C80.742 48.1608 81.0828 48.0896 81.4888 48.0896H82.1905V47.3195H82.1896Z" fill="#0C3178"/>
  <path d="M90.168 46.8677H97.5936C98.1227 46.8677 98.4702 46.6928 98.7013 46.4292C98.9114 46.1813 99.0077 45.8581 99.0077 45.5066V43.8994H90.168V46.8677ZM95.0048 44.5418H98.1428V45.6931C98.1428 46.0296 97.8557 46.2352 97.53 46.2352H95.0048V44.5418ZM91.0471 44.5418H94.1516V46.2352H91.0471V44.5418Z" fill="#0C3178"/>
  <path d="M98.4488 42.6758L97.496 41.3694H91.6922L90.6632 42.7711C90.5409 42.9203 90.3099 42.999 90.1022 42.999H89.6953V43.6613H90.2772C90.628 43.6613 90.9688 43.5304 91.2091 43.3339H97.9875C98.2613 43.5395 98.6472 43.6613 98.978 43.6613H99.4678V42.999H99.1278C98.8666 42.999 98.5937 42.8764 98.4488 42.6758ZM91.76 42.6932L92.254 42.0209H96.9367L97.4299 42.6932H91.76Z" fill="#0C3178"/>
  <path d="M92.7573 45.1135L92.4157 44.8209H91.3867L92.1193 45.5433C92.2759 45.6916 92.6024 45.7817 92.8787 45.7817H93.767V45.2084H93.0202C92.9239 45.2084 92.8234 45.1789 92.7573 45.1135Z" fill="#0C3178"/>
  <path d="M90.4316 50.6205H97.3641C97.812 50.6205 98.1963 50.4373 98.4366 50.1431C98.6476 49.8936 98.7665 49.5794 98.7665 49.2313V47.4525H90.4316V50.6205ZM91.3325 48.0932H97.9008V48.7323H91.3325V48.0932ZM91.3325 49.32H97.9008V49.4592C97.9008 49.7311 97.6169 49.9906 97.2745 49.9906H91.3325V49.32Z" fill="#0C3178"/>
  <path d="M96.7623 44.8209L96.4986 45.0872C96.4308 45.1557 96.2575 45.2084 96.1134 45.2084H95.4336V45.7817H96.409C96.6292 45.7817 97.0244 45.6278 97.1659 45.4795L97.8122 44.8209H96.7623Z" fill="#0C3178"/>
  <path d="M21.5384 7.67852C9.68117 7.67852 0.0410156 17.2251 0.0410156 28.9599C0.0410156 40.6989 9.68117 50.2463 21.5384 50.2463C33.3948 50.2463 43.0366 40.6989 43.0366 28.9599C43.0366 27.9462 42.9596 26.949 42.8206 25.9742L49.5086 21.8645V0.88562L33.0473 10.9983C29.7175 8.90033 25.7699 7.67852 21.5384 7.67852ZM38.6753 28.9599C38.6753 38.3191 30.9893 45.9285 21.5384 45.9285C12.0883 45.9285 4.39977 38.3191 4.39977 28.9599C4.39977 19.6048 12.0883 11.9905 21.5384 11.9905C24.1381 11.9905 26.6029 12.5699 28.8125 13.6002L18.8391 19.7259V40.7022L38.6636 28.5256C38.6678 28.6714 38.6753 28.8157 38.6753 28.9599ZM37.8515 23.7676L22.7717 33.0298V22.5682L32.951 16.3157C35.1949 18.3035 36.907 20.8648 37.8515 23.7676ZM45.5785 19.0213L41.6451 21.4376C40.5625 18.6126 38.893 16.0712 36.7789 13.965L45.5785 8.56048V19.0213Z" fill="#0C3178"/>
  <path d="M56.6987 35.7898C56.8552 35.1474 56.8686 34.1221 56.4525 33.5634C56.2708 33.3288 56.0356 33.139 55.7559 33.0279C56.172 32.7718 56.409 32.461 56.5304 32.0838C56.7204 31.5044 56.666 30.6125 56.3839 30.0679C55.9678 29.2597 55.0685 29.1014 54.2371 29.1014H49.7051V37.1592H54.3728C55.4034 37.1592 56.4174 36.9006 56.6987 35.7898ZM50.6822 29.9709H54.3401C54.8643 29.9709 55.2159 30.1574 55.4168 30.4467C55.6312 30.7609 55.6881 31.1496 55.6211 31.6271C55.5332 32.3035 55.0803 32.6052 54.4038 32.6052H50.6822V29.9709ZM50.6822 36.2789V33.488H54.3276C55.0351 33.488 55.5868 33.7648 55.7559 34.4769C55.8221 34.7554 55.8087 35.0115 55.7769 35.3141C55.6982 36.08 55.0007 36.2789 54.3401 36.2789H50.6822Z" fill="#0C3178"/>
  <path d="M65.8172 37.1589H66.2567V36.3027H65.9285C65.7267 36.3027 65.5693 36.2024 65.5693 36.0018V32.9614C65.5693 32.0744 64.9297 31.3491 64.0296 31.2845C63.2861 31.2265 62.4665 31.2265 61.661 31.2488C60.7108 31.2712 59.9606 31.6144 59.9606 32.6654V32.997H60.9929V32.7301C60.9929 32.251 61.3387 32.1051 61.7699 32.0844C62.2094 32.0636 63.0743 32.0388 63.6813 32.1051C64.2364 32.1631 64.5914 32.3612 64.5914 32.9531V33.4877H61.7347C61.0708 33.4877 60.1498 33.8309 60.0049 34.5661C59.9522 34.843 59.9137 35.1314 59.9363 35.502C60.0049 36.4461 60.4889 37.0736 61.4877 37.1258C62.0738 37.1598 62.747 37.1681 63.3196 37.1598C63.8731 37.1465 64.3905 37.0139 64.8501 36.7354C65.0754 37.0131 65.4814 37.1589 65.8172 37.1589ZM64.5923 35.9015C64.1753 36.2024 63.6704 36.2902 63.1321 36.3027C62.6683 36.3126 62.2228 36.3234 61.7356 36.2894C61.2407 36.2604 60.9619 36.0258 60.9385 35.5658C60.9276 35.376 60.9276 35.1464 60.951 34.9217C60.9929 34.5205 61.4199 34.3208 61.8729 34.3208H64.5923V35.9015Z" fill="#0C3178"/>
  <path d="M73.4862 31.3063C72.4288 31.2176 71.1704 31.1165 70.241 31.7191V31.2723H69.2715V37.1609H70.241V32.7619C70.586 32.4071 71.0289 32.1949 71.4977 32.1419C71.9381 32.0946 72.5996 32.0755 73.0366 32.1062C73.6227 32.1535 74.0706 32.5207 74.0706 33.1233V37.1609H75.0519V32.999C75.0519 32.1203 74.3737 31.3851 73.4862 31.3063Z" fill="#0C3178"/>
  <path d="M78.1908 32.7611C78.5366 32.4063 78.977 32.1941 79.4517 32.141C79.8896 32.0938 80.551 32.0747 80.9906 32.1054C81.5758 32.1526 82.0238 32.5199 82.0238 33.1225V37.1601H83.0017V32.9981C83.0017 32.1203 82.3285 31.3859 81.4377 31.3063C80.3844 31.2176 79.1252 31.1165 78.1908 31.7191V31.2723H77.2246V37.1609H78.1908V32.7611Z" fill="#0C3178"/>
  <path d="M92.0683 36.213C92.1135 36.0919 92.1889 35.9817 92.2149 35.525L91.2939 35.5316C91.2127 36.2826 91.1197 36.3133 90.223 36.3365C89.6261 36.3464 88.8985 36.3464 88.3635 36.3141C87.8963 36.2801 87.5907 36.1599 87.414 35.927C87.1537 35.5805 87.1989 35.0251 87.1989 34.5991H92.2684V33.3524C92.2684 32.206 91.6405 31.4418 90.4466 31.3191C90.0095 31.2718 89.1899 31.2379 88.5803 31.2611C87.265 31.3067 86.3432 31.8098 86.2519 33.243C86.2084 33.955 86.241 34.7458 86.2628 35.4023C86.2871 35.9693 86.4998 36.3589 86.8255 36.6357C87.6912 37.3693 89.2543 37.1471 90.3001 37.1372C91.0452 37.1372 91.7435 36.9689 92.0683 36.213ZM87.224 33.2422C87.2993 32.3304 87.7933 32.1414 88.6138 32.1057C89.2208 32.085 90.1217 32.1206 90.6274 32.2193C91.0862 32.3196 91.2554 32.7614 91.2788 33.1874C91.2914 33.3864 91.2788 33.5845 91.2788 33.7751H87.2089C87.224 33.5978 87.2089 33.4204 87.224 33.2422Z" fill="#0C3178"/>
  <path d="M96.5097 31.9877V31.2723H95.5059V37.1592H96.5097V33.1979C96.8329 32.4858 97.3847 32.1211 98.1725 32.1211H99.4996V31.2732H98.0478C97.4625 31.2723 96.853 31.5036 96.5097 31.9877Z" fill="#0C3178"/>
  <path d="M113.233 34.5107C113.233 35.5012 112.769 36.1345 111.702 36.2041C111.103 36.2365 109.942 36.2232 109.393 36.1585C108.263 36.0143 108.039 35.2774 107.969 34.2902C107.912 33.4646 107.903 32.2958 107.991 31.481C108.129 30.2567 108.602 29.8381 109.829 29.8025C110.405 29.7801 111.137 29.7801 111.812 29.8265C112.658 29.8812 113.185 30.4921 113.185 31.3177V31.3683H114.166V31.273C114.166 29.9127 113.3 29.0565 111.925 28.9918C111.204 28.9578 110.438 28.9446 109.727 28.9678C107.991 29.0258 107.103 29.737 106.987 31.5158C106.935 32.3853 106.944 33.3079 106.987 34.1642C107.07 35.7673 107.608 36.9054 109.412 37.038C110.089 37.0944 111.058 37.0736 111.577 37.0496C112.487 37.0057 113.211 36.7711 113.672 36.2481C114.022 35.8469 114.213 35.2782 114.213 34.5355V34.4452H113.233V34.5107Z" fill="#0C3178"/>
  <path d="M121.375 31.1279C120.911 31.0823 120.37 31.0972 119.896 31.1163C119.308 31.1503 118.731 31.2373 118.248 31.5158V28.9769H117.246V37.038H118.248V32.5727C118.669 32.1483 119.153 32.0073 119.802 31.9717C120.192 31.9493 120.639 31.9493 121.022 31.98C121.677 32.0413 122.331 32.3182 122.331 33.0634V37.038H123.335V33.4646C123.335 32.0297 122.861 31.2738 121.375 31.1279Z" fill="#0C3178"/>
  <path d="M132.013 35.7441V31.1395H131.042V35.5012C130.717 35.914 130.277 36.0906 129.781 36.1585C129.41 36.2025 128.945 36.2025 128.586 36.1909C127.684 36.1469 127.372 35.8253 127.372 34.9326V31.1395H126.41V35.1241C126.41 36.2787 127.132 36.9601 128.281 37.0488C128.846 37.0944 129.443 37.0604 130.007 37.0015C130.346 36.9692 130.863 36.8573 131.236 36.5141C131.447 36.8134 131.856 37.0372 132.193 37.0372H132.757V36.1793H132.427C132.27 36.1801 132.013 36.0665 132.013 35.7441Z" fill="#0C3178"/>
  <path d="M136.557 31.8602V31.1499H135.553V37.0384H136.557V33.0754C136.882 32.3617 137.436 31.997 138.227 31.997H139.553V31.1507H138.101C137.515 31.149 136.904 31.3836 136.557 31.8602Z" fill="#0C3178"/>
  <path d="M148.173 33.2324C148.173 32.7873 148.074 32.3305 147.802 31.9617C147.499 31.5422 146.992 31.238 146.214 31.1941C145.549 31.1618 144.806 31.1278 144.139 31.2057C143.025 31.34 142.237 31.9086 142.149 33.1097C142.102 33.7123 142.066 34.358 142.132 34.9897C142.268 36.2057 142.778 36.9417 144.105 37.0503C144.718 37.0976 145.492 37.1166 146.053 37.0843C146.744 37.0387 147.241 36.8282 147.589 36.5032C147.993 36.1261 148.173 35.6238 148.173 35.1256L148.167 35.0154L147.241 35.0038V34.9888C147.241 35.7125 146.88 36.1692 146.091 36.2222C145.47 36.2695 144.907 36.2695 144.266 36.2048C143.476 36.1145 143.158 35.5914 143.113 34.8562C143.079 34.3771 143.047 33.7422 143.104 33.2796C143.227 32.3181 143.698 32.0636 144.602 32.0313C145.052 32.0056 145.682 31.9956 146.182 32.0636C146.838 32.1482 147.206 32.6074 147.226 33.239H148.154L148.173 33.2324Z" fill="#0C3178"/>
  <path d="M147.227 33.2821C147.227 33.2653 147.225 33.2522 147.225 33.2377L147.227 33.2821Z" fill="#0C3178"/>
  <path d="M154.998 31.1279C154.536 31.0823 153.994 31.0972 153.522 31.1163C152.937 31.1503 152.358 31.2373 151.878 31.5158V28.9769H150.873V37.038H151.878V32.5727C152.291 32.1483 152.777 32.0073 153.43 31.9717C153.813 31.9493 154.264 31.9493 154.648 31.98C155.301 32.0413 155.954 32.3182 155.954 33.0634V37.038H156.957V33.4646C156.958 32.0297 156.483 31.2738 154.998 31.1279Z" fill="#0C3178"/>
</svg>
