<svg width="487" height="487" viewBox="0 0 487 487" fill="none" xmlns="http://www.w3.org/2000/svg">
  <path d="M487 243.5C487 377.981 377.981 487 243.5 487C109.019 487 0 377.981 0 243.5C0 109.019 109.019 0 243.5 0C377.981 0 487 109.019 487 243.5Z" fill="#F2E6DC"/>
  <path d="M95 348H484V54H95V348Z" fill="#E6D0BE"/>
  <path d="M472 313V66H107V313H472Z" fill="#F2E6DC"/>
  <path d="M282 328.999C282 332.865 285.359 336 289.501 336C293.644 336 297 332.865 297 328.999C297 325.133 293.644 322 289.501 322C285.359 322 282 325.133 282 328.999Z" fill="#F7F1EB"/>
  <path d="M387 280H117V74H387V280Z" fill="#E6D0BE"/>
  <path d="M464 122H392V74H464V122Z" fill="#E6D0BE"/>
  <path d="M464 174H393V126H464V174Z" fill="#E6D0BE"/>
  <path d="M464 229H393V180H464V229Z" fill="#E6D0BE"/>
  <path d="M464 281H394V233H464V281Z" fill="#E6D0BE"/>
  <path d="M386 303H119V295H386V303Z" fill="#F7F1EB"/>
  <path d="M331 303H119V295H331V303Z" fill="#D3BBA3"/>
  <path d="M338 298.999C338 302.313 335.315 305 332.001 305C328.687 305 326 302.313 326 298.999C326 295.685 328.687 293 332.001 293C335.315 293 338 295.685 338 298.999Z" fill="white"/>
  <path d="M13.1767 125.467H165.052L202.804 125.814L185.498 111.068C185.372 110.96 185.298 110.803 185.292 110.639L182.501 1.1698H13.1767V125.467ZM204.412 127H204.407L165.047 126.637H12.5881C12.2634 126.637 12 126.377 12 126.053V0.58622C12 0.262596 12.2634 0 12.5881 0H183.075C183.395 0 183.657 0.254654 183.665 0.570312L186.461 110.349L204.794 125.971C204.981 126.13 205.05 126.39 204.962 126.621C204.877 126.849 204.658 127 204.412 127Z" fill="#D3BBA3"/>
  <path d="M0.0502 107C0.0199228 106.625 0 106.251 0 105.871C0 98.278 6.15264 92.1251 13.7418 92.1251C15.6684 92.1251 17.501 92.5236 19.1652 93.2383C20.2881 89.0699 24.0911 86.004 28.6122 86.004C30.364 86.004 32.0067 86.4663 33.4289 87.2713C36.8654 80.0185 44.2493 75 52.8068 75C62.1888 75 70.1575 81.0334 73.0625 89.4285C73.7907 89.3382 74.5309 89.2851 75.2844 89.2851C85.0661 89.2851 92.996 97.2154 93 107H0.0502Z" fill="white"/>
  <path d="M97.9762 10.0244C99.0082 9.48045 101.023 9.18569 103.009 10.0244C106.745 11.6001 108.075 14.7058 108.465 18.2671C109.173 24.7331 104.265 27.7826 106.188 32.0674C107.18 34.2781 109.13 34.305 109.808 36.8024C110.486 39.2999 109.235 41.8429 108.131 43.5445C100.714 43.6945 93.2965 43.8473 85.8795 44C84.2607 41.2507 84.2891 39.4339 84.6433 38.2602C85.1633 36.5398 86.424 36.0896 86.7624 34.3451C87.161 32.2898 86.604 29.5271 86.0717 28.6428C82.9954 23.5246 83.2697 15.6544 87.4014 11.6001C90.4811 8.57742 95.8315 8.38446 97.9762 10.0244Z" fill="#84524D"/>
  <path d="M53 79.0589C53 79.0589 52.0157 59.5024 50.7388 49.174C49.3976 38.3248 45.7858 22.4942 43.5053 23.0124C42.2065 23.3089 42.238 25.5658 42.7367 31.594C42.3969 31.3136 41.15 30.71 39.9914 31.1747C38.2772 31.8638 38.4709 33.3569 38.4234 33.4957C38.3164 33.3916 37.0281 32.2698 35.8 32.5422C34.4169 32.8467 33.8067 33.8536 33.6061 34.914C33.3314 34.6629 31.9858 33.7896 30.8203 34.1074C29.3047 34.5241 28.8619 36.1559 29.0355 37.4033C29.3541 39.6922 30.3852 45.9235 30.4958 49.2888C30.7132 55.9074 28.2269 79.5156 31.1527 89C38.3167 83.968 53 79.0589 53 79.0589Z" fill="#E2A18D"/>
  <path d="M33.8836 42C32.8168 42 31.6373 41.272 31.0319 39.4975C30.9269 39.1897 31.0896 38.8525 31.3957 38.7481C31.7024 38.6411 32.0352 38.8043 32.1404 39.1121C32.6465 40.5975 33.5485 40.9401 34.1624 40.7849C34.6488 40.6644 35.0131 39.9044 34.9749 39.0934L34.951 38.5849L35.4753 38.4484C35.7788 38.3868 36.077 38.5581 36.1817 38.8525C36.561 39.9097 37.4184 40.4611 38.313 40.2255C38.8913 40.0703 39.5315 38.9917 39.4268 37.9987L39.3729 37.4875L40.3857 37.2145L40.6021 37.7097C41.0478 38.8445 42.2594 39.5109 42.813 39.345C43.1519 39.2406 43.3873 39.0479 43.5534 38.7321C44.3345 37.2493 43.2576 33.8021 42.7399 32.1453L42.6211 31.7653C42.5254 31.4521 42.6982 31.1229 43.0073 31.0266C43.3161 30.9302 43.6443 31.1042 43.7406 31.4147L43.8578 31.792C44.5094 33.877 45.5994 37.3644 44.5889 39.2834C44.275 39.8803 43.7908 40.2817 43.1495 40.4744C42.2929 40.734 41.1992 40.2844 40.3929 39.4734C40.0657 40.3968 39.4002 41.1569 38.613 41.3657C37.5959 41.636 36.6014 41.3202 35.8825 40.5735C35.6109 41.2265 35.1327 41.7591 34.4471 41.9304C34.2655 41.9759 34.0766 42 33.8836 42Z" fill="#363E44"/>
  <path d="M47 40.038C46.2852 39.2793 42.4228 35.2326 41.3086 36.1288C40.0001 37.1845 43.2599 44.4309 43.519 45L47 40.038Z" fill="#E2A18D"/>
  <path d="M43.4402 45C43.2175 45 43.0026 44.8817 42.8943 44.6774C41.3022 41.6614 38.8843 36.4249 40.5763 35.2502C40.9981 34.9572 42.2814 34.0674 47.8079 39.1238C48.0543 39.3469 48.0648 39.7232 47.8329 39.9625C47.6002 40.199 47.2125 40.2098 46.9673 39.984C43.3803 36.7045 41.5663 36.0244 41.2897 36.2152C40.8354 36.5297 41.6407 39.6964 43.9848 44.1371C44.1386 44.4274 44.0192 44.7849 43.7182 44.9355C43.6288 44.9785 43.5338 45 43.4402 45Z" fill="#363E44"/>
  <path d="M123.956 117C127.392 113.688 127.683 103.268 127.683 103.268C127.683 103.268 129.542 110.107 131.373 109.931C140.179 109.079 165 98.6279 165 86.1629C165 63.0404 123.54 42.7082 98.0324 41.0989C72.0979 39.4627 50.9354 58.6757 50.9354 58.6757L21 68.8512C21 68.8512 25.3184 97.4524 36.5045 100.783C50.4984 104.95 65.4707 83.6083 65.4707 83.6083C65.4707 83.6083 64.5371 114.502 68.1571 116.968L123.956 117Z" fill="#F7F1EB"/>
  <path d="M82.8025 41.9901C83.4158 47.7397 85.3284 60.9276 96.6234 74.6421C108.766 89.3884 121.368 96.9038 126.919 98.4675C127.575 100.739 127.916 102.419 127.916 105.627C127.916 109.379 128.322 111.719 127.349 113.387C123.654 119.716 95.9623 118.852 79.6792 101.672C61.2466 82.2266 64.239 46.3542 72.3931 43.4395C73.5727 43.0193 74.8372 43.2959 75.9512 43.7746C76.309 42.038 77.5624 41.4795 79.1707 41.0833C80.7605 40.6897 82.4882 41.8093 82.8025 41.9901Z" fill="#E6D0BE"/>
  <path d="M114.414 103C114.311 103 114.206 102.973 114.111 102.914C92.3365 89.4666 84.2233 73.8616 81.2511 63.1413C78.7676 54.1781 78.6644 44.5056 79.3964 43.3476C79.5522 43.1004 79.7628 43.0333 79.8745 43.0145C80.6405 42.8936 80.7554 43.49 81.3057 46.3622C82.1832 50.9432 84.0089 60.4787 89.1889 69.9094C93.3809 77.5426 99.3208 84.2676 106.844 89.9018C107.104 90.098 107.158 90.4688 106.967 90.7321C106.775 90.9927 106.409 91.0518 106.148 90.8557C98.4901 85.1193 92.4403 78.268 88.1664 70.487C82.9022 60.9005 81.0507 51.2549 80.1606 46.604C80.1322 50.0727 80.5992 56.4055 82.3779 62.8189C85.2931 73.3377 93.2705 88.6552 114.719 101.901C114.995 102.073 115.082 102.436 114.915 102.715C114.804 102.898 114.612 103 114.414 103Z" fill="#D3BBA3"/>
  <path d="M82.4341 99C82.2901 99 82.1466 98.9413 82.0362 98.8292C77.3639 94.0227 74.0211 88.3915 72.1005 82.0877C67.5463 67.1477 71.5554 48.8717 73.3174 46.4484C73.5391 46.1441 73.7814 46.0027 74.0612 46C74.2496 46.008 74.4267 46.0908 74.5594 46.2375C74.9569 46.6806 74.9433 47.5826 74.8348 50.6411C74.5871 57.6254 74.0712 72.1571 81.1757 85.1969C81.3297 85.4798 81.2344 85.8401 80.9621 86.0002C80.6911 86.1577 80.3448 86.0589 80.1908 85.776C72.9283 72.448 73.4521 57.6894 73.7039 50.5984C73.7357 49.707 73.7678 48.7969 73.7683 48.1084C72.2355 52.2877 69.0709 68.2553 73.179 81.7328C75.0439 87.8524 78.2918 93.3208 82.8322 97.9912C83.0542 98.2207 83.0562 98.5944 82.8365 98.8239C82.7256 98.9413 82.5801 99 82.4341 99Z" fill="#D3BBA3"/>
  <path d="M126.5 82C126.224 82 126 81.7286 126 81.3942V67.6031C126 67.2686 126.224 67 126.5 67C126.776 67 127 67.2686 127 67.6031V81.3942C127 81.7286 126.776 82 126.5 82Z" fill="#363E44"/>
  <path d="M65.5402 84L65.5005 83.9973C65.2035 83.9733 64.9799 83.6933 65.0014 83.3678L65.9223 69.5451C65.9441 69.2224 66.2088 68.9823 66.4995 69.001C66.7965 69.025 67.0201 69.3078 66.9986 69.6305L66.0777 83.4532C66.0569 83.7626 65.8203 84 65.5402 84Z" fill="#363E44"/>
  <path d="M122.806 82C122.806 82 88.6865 87.521 89.5521 90.763C90.213 93.2362 97.1263 91.1729 98.2318 91.0246C95.3713 92.0063 87.3889 93.6813 88.0373 96.1977C88.6865 98.7141 99.6914 96.0224 99.8016 96.0412C97.7803 96.4566 89.0448 97.6515 89.48 100.038C90.0571 103.205 100.22 100.537 101.643 100.427C101.542 100.678 94.423 101.309 94.818 103.647C95.1787 105.783 102.201 104.847 104.377 104.456C107.995 103.777 128 103.353 128 103.353L122.806 82Z" fill="#E2A18D"/>
  <path d="M102.277 89C101.954 89 101.66 88.8189 101.577 88.5485L101.022 86.7429C100.924 86.4239 101.158 86.0995 101.545 86.0184C101.931 85.9373 102.325 86.132 102.423 86.4482L102.978 88.2566C103.076 88.5756 102.842 88.9 102.455 88.981C102.396 88.9946 102.336 89 102.277 89Z" fill="#363E44"/>
  <path d="M103.277 94C102.954 94 102.66 93.8189 102.577 93.5485L102.022 91.7422C101.924 91.4231 102.159 91.0986 102.545 91.0175C102.934 90.9391 103.325 91.1311 103.423 91.4502L103.978 93.2564C104.076 93.5755 103.841 93.9 103.455 93.9811C103.395 93.9946 103.335 94 103.277 94Z" fill="#363E44"/>
  <path d="M104.638 98C104.477 98 104.33 97.8792 104.289 97.699L104.011 96.4953C103.962 96.2827 104.079 96.0664 104.273 96.0124C104.466 95.9583 104.662 96.0863 104.711 96.3007L104.989 97.5044C105.038 97.7171 104.921 97.9333 104.727 97.9874C104.698 97.9964 104.668 98 104.638 98Z" fill="#363E44"/>
  <path d="M105.639 102C105.477 102 105.33 101.881 105.289 101.701L105.011 100.495C104.962 100.282 105.079 100.064 105.273 100.012C105.464 99.9595 105.663 100.086 105.711 100.299L105.989 101.506C106.038 101.719 105.921 101.935 105.727 101.989C105.698 101.996 105.668 102 105.639 102Z" fill="#363E44"/>
  <path d="M53.4305 88H53.4102C53.1325 87.9863 52.9163 87.7042 52.9275 87.3728C53.4175 72.7089 51.0351 58.8667 51.0109 58.727C50.9536 58.4011 51.128 58.0806 51.4 58.0121C51.6722 57.9464 51.9387 58.1546 51.9956 58.4805C52.0202 58.6202 54.4279 72.6076 53.933 87.4194C53.922 87.7453 53.6993 88 53.4305 88Z" fill="#363E44"/>
  <path d="M122.583 83C122.301 83 122.053 82.7862 122.007 82.4836C121.957 82.1505 122.175 81.8369 122.493 81.7841C127.968 80.8792 133.399 79.4135 138.633 77.4315C142.554 75.9436 146.426 74.1421 150.142 72.0713C150.427 71.9131 150.78 72.0269 150.932 72.3267C151.083 72.6237 150.975 72.9957 150.69 73.1539C146.926 75.2497 143.003 77.0762 139.03 78.5808C133.726 80.5933 128.223 82.0756 122.675 82.9944C122.644 82.9972 122.613 83 122.583 83Z" fill="#363E44"/>
  <path d="M101.983 23.6332C100.533 25.2687 100.707 27.4288 102.373 28.4598C104.04 29.4908 106.566 29.0024 108.017 27.3668C109.467 25.7312 109.293 23.5712 107.626 22.5402C105.96 21.5093 103.434 21.9976 101.983 23.6332Z" fill="#E2A18D"/>
  <path d="M88.4598 22.9206C89.408 24.6452 89.0754 26.7519 87.7169 27.6231C86.3585 28.4943 84.4884 27.804 83.5402 26.0794C82.5919 24.3548 82.9246 22.2481 84.2833 21.3769C85.6418 20.5057 87.5116 21.196 88.4598 22.9206Z" fill="#E2A18D"/>
  <path d="M95.6426 49.9929C99.3186 49.8218 102.161 46.6833 101.993 42.9814L101.311 28L88 28.6161L88.682 43.5949C88.8506 47.2968 91.9669 50.1614 95.6426 49.9929Z" fill="#E2A18D"/>
  <path d="M86.0172 24.6505C85.7041 30.6519 89.6959 35.7303 94.933 35.9895C100.17 36.2513 104.67 31.5935 104.983 25.5921C105.296 19.588 101.304 15.2714 96.067 15.0122C90.83 14.753 86.3306 18.6464 86.0172 24.6505Z" fill="#E2A18D"/>
  <path d="M105 27.2369C105 27.2369 102.948 29.4506 100.335 29.6169C98.5194 29.7323 97.496 28.6161 95.2268 28.549C92.6954 28.4766 91.5277 29.7538 89.6565 29.2815C87.487 28.7368 86 26 86 26C86.5139 30.5882 86.3279 43.8592 93.9365 43.9987C102.285 44.149 104.024 31.2295 105 27.2369Z" fill="#B77250"/>
  <path d="M85.9926 28C85.6428 28 85.3322 27.8061 85.2672 27.5257C85.0523 26.5979 84.9516 25.1906 85.0225 24.103C85.0818 23.1936 85.2585 22.2947 85.5481 21.4298C85.6515 21.1206 86.0545 20.9397 86.4491 21.0184C86.8431 21.0996 87.0791 21.4141 86.9757 21.7233C86.7119 22.5122 86.5506 23.3325 86.4967 24.1632C86.4321 25.1565 86.5258 26.4826 86.7196 27.3186C86.7922 27.6331 86.5265 27.9345 86.1255 27.9895C86.0806 27.9974 86.0364 28 85.9926 28Z" fill="#363E44"/>
  <path d="M104.354 29C104.322 29 104.289 28.9945 104.257 28.9778C104.069 28.886 103.96 28.5467 104.014 28.2186C104.164 27.3037 104.255 26.3471 104.283 25.3766C104.309 24.4784 104.282 23.5829 104.202 22.7125C104.171 22.3788 104.302 22.0646 104.495 22.009C104.685 21.9506 104.869 22.1841 104.9 22.5178C104.988 23.4744 105.018 24.4561 104.989 25.4405C104.958 26.5028 104.859 27.5512 104.694 28.5551C104.65 28.8248 104.508 29 104.354 29Z" fill="#363E44"/>
  <path d="M97 25.3248C97 25.3248 97.7514 25.8326 98.7633 25.9967C99.2232 26.0723 99.9117 24.8391 99.9117 24.8391C99.9117 24.8391 100.976 25.6497 101.287 25.4384C102.346 24.7256 103 23.6312 103 23.6312C103 23.6312 102.357 23.2023 101.466 23.0067C100.949 22.89 99.7408 24.3345 99.7408 24.3345C99.7408 24.3345 98.3973 23.7006 97.9343 24.1579C97.3395 24.7477 97 25.3248 97 25.3248Z" fill="white"/>
  <path d="M98 24.1942C98.4976 23.7545 99.1598 23.3088 99.9411 23.113C100.594 22.9474 101.238 22.9836 101.794 23.095C102.121 23.8358 102.059 24.7363 101.606 25.4169C101.272 25.6157 100.902 25.7874 100.498 25.8867C99.9392 26.0283 99.3867 26.0223 98.8912 25.95C98.784 25.8687 98.6816 25.7783 98.5865 25.6729C98.218 25.2633 98.0237 24.7333 98 24.1942Z" fill="#363E44"/>
  <path d="M94 25.6815C94 25.6815 93.0266 26.0587 91.8511 25.9921C91.4365 25.9672 90.7483 24.9491 90.7483 24.9491C90.7483 24.9491 89.5911 25.1877 89.217 24.8409C88.4339 24.1169 88 23.2987 88 23.2987C88 23.2987 88.5923 23.0712 89.4073 23.0019C90.0088 22.9492 91.0706 24.031 91.0706 24.031C91.0706 24.031 92.5592 23.9062 92.9605 24.3056C93.6393 24.988 94 25.6815 94 25.6815Z" fill="white"/>
  <path d="M90.8167 23.2803C91.2932 23.5235 91.6897 23.9215 92 24.3223C91.9638 24.8806 91.7623 25.4196 91.4075 25.7844C91.3236 25.8701 91.2352 25.942 91.144 26C90.8227 25.9779 90.4819 25.8978 90.1471 25.7264C89.7325 25.5163 89.3793 25.1874 89.0898 24.8419C88.928 24.2366 88.9879 23.5567 89.2448 23.0204C89.7104 22.9679 90.2717 23.0039 90.8167 23.2803Z" fill="#363E44"/>
  <path d="M95.2228 29C95.0758 29 94.9286 28.9598 94.8032 28.8679C94.2807 28.5001 94.0102 28.0806 94.0003 27.6295C93.9912 27.2043 94.2171 26.9171 94.3818 26.7045C94.4944 26.5608 94.5755 26.4574 94.6089 26.308C94.6404 26.1672 94.6238 26.0149 94.5583 25.8426C94.4336 25.5122 94.6229 25.1502 94.9816 25.0353C95.3394 24.9203 95.7319 25.0956 95.8576 25.426C96.0051 25.8167 96.0385 26.1988 95.9555 26.5665C95.8632 26.9774 95.6523 27.2475 95.4985 27.4457C95.4517 27.5061 95.3881 27.5865 95.3744 27.6181H95.3747C95.3825 27.6181 95.4265 27.7129 95.643 27.8652C95.9437 28.0806 95.9998 28.4771 95.7677 28.7529C95.6323 28.9167 95.4286 29 95.2228 29Z" fill="#363E44"/>
  <path d="M95.8795 32C95.7778 32 95.6869 31.9956 95.6085 31.9912C95.2454 31.9713 94.9741 31.7374 95.002 31.4683C95.0301 31.2013 95.3411 30.9983 95.7105 31.0225C95.9923 31.038 96.5498 31.027 97.0834 30.7732C97.4357 30.6055 97.6523 30.3915 97.7719 30.2393C97.9564 30.0098 98.3596 29.9304 98.6743 30.0672C98.9883 30.204 99.0936 30.5018 98.9091 30.7335C98.6339 31.0777 98.2502 31.3756 97.7991 31.5896C97.0903 31.9272 96.364 32 95.8795 32Z" fill="#363E44"/>
  <path d="M93.7924 6.11596C91.6912 6.11596 89.7583 6.23731 88.1329 6.48254C85.105 6.9376 84.2512 7.65811 84.2226 7.97665C84.1944 8.29519 84.9091 9.13451 87.8165 10.0295C90.4329 10.8359 93.9633 11.4351 97.7577 11.7157C101.552 11.9964 105.142 11.9256 107.867 11.5185C110.895 11.0635 111.749 10.3404 111.777 10.0219C111.806 9.70589 111.091 8.86652 108.184 7.97156C105.567 7.16509 102.037 6.56595 98.2423 6.28533C96.7113 6.17156 95.2133 6.11596 93.7924 6.11596ZM102.203 13C100.749 13 99.2197 12.9419 97.6588 12.8281C93.768 12.5374 90.134 11.9205 87.4261 11.0862C84.3869 10.1508 82.8994 9.07385 83.0053 7.88817C83.1111 6.69995 84.7695 5.8581 87.9345 5.38281C90.7545 4.95809 94.4503 4.88475 98.3412 5.17296C102.232 5.46369 105.866 6.08056 108.574 6.91484C111.613 7.85024 113.101 8.92722 112.995 10.1129C112.889 11.3011 111.231 12.143 108.065 12.6183C106.377 12.8736 104.374 13 102.203 13Z" fill="#EFBC73"/>
  <path d="M35.9945 117H18.0424C18.017 116.655 18 116.311 18 115.96C18 112.46 19.3229 109.29 21.4608 107H42C39.93 110.278 37.9268 113.613 35.9945 117Z" fill="white"/>
  <path d="M68 117H36C37.9076 113.613 39.8851 110.278 41.9286 107H65.9009C66.2778 111.927 66.9217 115.915 68 117Z" fill="#F9F3EE"/>
  <path d="M66 107H21C23.1424 104.886 26.0997 103.578 29.3662 103.578C31.0265 103.578 32.6061 103.918 34.0397 104.526C34.4797 102.915 35.3966 101.496 36.6317 100.427C36.6549 100.435 36.6778 100.44 36.701 100.448C37.9426 100.811 39.1926 100.977 40.4385 100.977C48.396 100.977 56.2111 94.2094 60.969 89.1132C61.6454 89.0395 62.3326 89 63.0289 89C63.8688 89 64.6948 89.0553 65.5048 89.1632C65.4646 94.0436 65.5139 101.222 66 107Z" fill="white"/>
  <path d="M98 117H68.0028C66.8888 115.965 66.2237 112.161 65.8343 107.461C65.3404 101.498 65.2904 94.0886 65.3312 89.0516C68.0705 89.4211 70.6225 90.3829 72.8544 91.8065C74.7797 95.6509 77.1905 99.2697 80.154 102.457C85.2673 107.958 91.5054 111.822 97.7724 114.335C97.9215 115.199 97.9995 116.09 98 117ZM39.8671 101.245C38.6015 101.245 37.3316 101.074 36.0704 100.699C36.0468 100.691 36.0235 100.685 36 100.677C37.5059 99.3539 39.4777 98.5525 41.6366 98.5525C43.17 98.5525 44.608 98.9573 45.8527 99.6664C48.5771 93.8958 54.135 89.7336 60.7235 89C55.8901 94.2599 47.951 101.245 39.8671 101.245Z" fill="#FBF8F5"/>
  <path d="M97 113C90.9638 110.657 84.9556 107.056 80.0307 101.928C77.1763 98.9569 74.8544 95.5836 73 92C76.4205 94.1122 79.0612 97.3082 80.4089 101.094C81.0232 101.018 81.6474 100.975 82.2823 100.975C89.6583 100.975 95.7852 106.17 97 113Z" fill="#F3E8DF"/>
  <path d="M220 40H184.283L183.578 12.0541C184.046 12.0189 184.517 12 184.994 12C193.165 12 200.104 17.2791 202.634 24.6254C203.27 24.5469 203.913 24.501 204.57 24.501C213.089 24.501 219.997 31.4387 220 40ZM183.096 40H139.044C139.017 39.6753 139 39.3452 139 39.0124C139 32.3695 144.359 26.9849 150.969 26.9849C152.646 26.9849 154.243 27.334 155.692 27.959C156.67 24.3116 159.983 21.6274 163.92 21.6274C165.446 21.6274 166.877 22.0332 168.115 22.7395C170.754 17.1411 176.066 13.0661 182.393 12.1813L183.096 40Z" fill="#F9F3EE"/>
  <path d="M185 40H183.115L182 12.1274C182.624 12.0705 183.252 12.0298 183.88 12L185 40Z" fill="#E9DDD1"/>
  <path d="M115.52 140.025L115.519 140.022C112.31 138.567 107.28 136.135 103.047 131.112C99.2871 126.651 95.8892 121.087 97.3441 118.825C98.1407 117.589 99.7241 117.941 103.813 121.898H103.813C99.809 115.052 98.5775 110.441 100.425 108.687C101.599 107.574 104.687 109.544 107.51 114.833C105.178 110.463 101.684 103.069 104.43 101.315C106.882 99.924 110.546 105.79 113.054 110.222H113.055C110.461 104.089 110.389 100.789 112.131 100.087C114.636 99.075 117.103 107.136 126.456 112.067C128.419 113.103 130.293 113.803 132.078 114.361C130.138 106.869 131.048 103.553 132.446 103.155C135.114 102.394 141.268 109.68 147.731 123.463C148.159 124.264 148.441 124.95 148.637 125.431C150.16 129.166 152.993 136.714 157 147.327C146.197 154.777 134.644 160.936 122.996 167C120.754 158.843 118.32 150.08 115.52 140.025Z" fill="#BC8271"/>
  <path d="M131.404 136C131.151 136 130.917 135.85 130.836 135.611C130.29 134.002 129.119 131.688 126.642 129.807C123.135 127.145 119.17 127.056 117.631 127.14C117.297 127.163 117.02 126.921 117.001 126.613C116.981 126.303 117.233 126.039 117.561 126.021C119.241 125.927 123.56 126.026 127.391 128.935C130.098 130.991 131.376 133.516 131.972 135.27C132.072 135.565 131.899 135.881 131.585 135.975C131.525 135.992 131.464 136 131.404 136Z" fill="#363E44"/>
  <path d="M142.371 119C142.269 119 142.165 118.973 142.069 118.917C139.999 117.736 137.649 117.079 135.161 116.383C133.965 116.05 132.728 115.705 131.44 115.283C131.109 115.173 130.925 114.804 131.029 114.459C131.134 114.114 131.486 113.921 131.818 114.031C133.08 114.444 134.303 114.786 135.486 115.116C138.049 115.833 140.47 116.508 142.673 117.769C142.978 117.941 143.089 118.34 142.923 118.658C142.809 118.875 142.593 119 142.371 119Z" fill="#363E44"/>
  <path d="M120.406 117C120.304 117 120.202 116.975 120.108 116.925C118.969 116.313 117.886 115.601 116.891 114.807C115.446 113.657 114.171 112.326 113.101 110.855C112.918 110.604 112.99 110.263 113.263 110.093C113.535 109.924 113.903 109.991 114.086 110.243C115.098 111.632 116.302 112.888 117.666 113.976C118.607 114.725 119.629 115.4 120.705 115.977C120.988 116.129 121.084 116.465 120.92 116.726C120.809 116.903 120.61 117 120.406 117Z" fill="#363E44"/>
  <path d="M114.406 122C114.304 122 114.202 121.968 114.108 121.904C112.968 121.114 111.886 120.198 110.891 119.178C109.447 117.699 108.172 115.99 107.101 114.099C106.918 113.776 106.99 113.338 107.263 113.12C107.535 112.902 107.904 112.989 108.087 113.312C109.098 115.098 110.303 116.714 111.666 118.109C112.606 119.075 113.629 119.939 114.705 120.682C114.988 120.88 115.084 121.312 114.92 121.648C114.809 121.872 114.61 122 114.406 122Z" fill="#363E44"/>
  <path d="M111.406 129C111.305 129 111.202 128.978 111.108 128.925C109.967 128.313 108.885 127.601 107.891 126.807C106.447 125.656 105.172 124.327 104.101 122.855C103.918 122.604 103.99 122.263 104.263 122.093C104.534 121.924 104.904 121.991 105.086 122.243C106.098 123.632 107.303 124.887 108.666 125.975C109.605 126.724 110.627 127.397 111.705 127.977C111.988 128.129 112.084 128.465 111.919 128.729C111.809 128.903 111.61 129 111.406 129Z" fill="#363E44"/>
  <path d="M197.476 155.199C215.249 147.027 230.916 140.086 260.233 140C289.158 139.915 313.774 151.062 327.638 161.817C345.667 175.799 391.028 223.989 372.734 242.521C363.166 252.213 341.777 237.288 323.168 221.055L326.902 282L196.146 281.992L196.904 208.27C166.126 218.028 140.136 218.749 135.888 210.491C128.285 195.715 171.268 167.252 197.476 155.199Z" fill="#363E44"/>
  <path d="M196.592 208L196.538 207.997C196.214 207.968 195.973 207.682 196.002 207.36C197.358 192.311 201.793 174.623 201.836 174.444C201.916 174.129 202.237 173.94 202.553 174.017C202.869 174.097 203.062 174.418 202.982 174.733C202.936 174.909 198.525 192.508 197.178 207.464C197.151 207.771 196.894 208 196.592 208Z" fill="white"/>
  <path d="M329.397 214C329.258 214 329.121 213.956 329.006 213.864C321.767 207.995 305.315 190.135 305.151 189.955C304.93 189.717 304.954 189.351 305.206 189.143C305.458 188.934 305.838 188.957 306.057 189.195C306.221 189.375 322.615 207.169 329.788 212.987C330.04 213.193 330.073 213.556 329.857 213.799C329.736 213.932 329.567 214 329.397 214Z" fill="white"/>
  <path d="M156.913 147C161.878 160.274 168.652 178.314 177 199.721L176.997 199.723C163.771 207.577 156.955 210.225 144.712 214.535C140.184 216.129 135.268 213.481 134.079 208.8C130.356 194.153 126.984 181.449 123 166.81C134.617 160.704 146.139 154.501 156.913 147Z" fill="#363E44"/>
  <path d="M176.421 200C176.19 200 175.972 199.859 175.882 199.631C173.848 194.385 171.928 189.031 170.071 183.851C168.658 179.911 167.323 176.188 166.039 172.794C165.924 172.494 166.073 172.154 166.372 172.04C166.67 171.923 167.005 172.074 167.12 172.377C168.409 175.778 169.745 179.507 171.16 183.453C173.014 188.624 174.931 193.971 176.96 199.2C177.076 199.503 176.931 199.843 176.632 199.96C176.564 199.989 176.491 200 176.421 200Z" fill="white"/>
  <path d="M249 162.5C249 163.327 249.447 164 249.999 164C250.553 164 251 163.327 251 162.5C251 161.67 250.553 161 249.999 161C249.447 161 249 161.67 249 162.5Z" fill="#40484C"/>
  <path d="M246 180C246 181.103 246.67 182 247.501 182C248.33 182 249 181.103 249 180C249 178.897 248.33 178 247.501 178C246.67 178 246 178.897 246 180Z" fill="#40484C"/>
  <path d="M243 197.5C243 198.327 243.67 199 244.501 199C245.33 199 246 198.327 246 197.5C246 196.67 245.33 196 244.501 196C243.67 196 243 196.67 243 197.5Z" fill="#40484C"/>
  <path d="M232.165 296L292 276.808L266.838 199L207 218.189L232.165 296Z" fill="#8B865C"/>
  <path d="M292.148 220.858C292.823 220.721 294.528 220.421 296.98 220C300.184 232.391 305.76 244.346 310 256.534C295.973 258.152 273.498 261.501 267.324 262.748C263.707 263.182 254.762 265.095 253.939 263.127C253.195 261.351 261.775 255.997 261.959 255.537C259.135 256.347 249.599 258.618 248.509 255.674C247.673 253.409 256.389 248.418 258.522 247.079C258.312 247.047 247.716 251.572 246.265 248.081C245.03 245.108 253.136 240.099 255.08 238.589C252.386 239.163 244.369 240.628 244.01 237.79C243.26 231.847 284.434 222.42 292.148 220.858Z" fill="#BC8271"/>
  <path d="M254.593 239C254.394 239 254.201 238.901 254.089 238.722C253.917 238.444 254.003 238.081 254.279 237.91C255.701 237.036 257.193 236.254 258.712 235.586C261.444 234.383 264.336 233.515 267.309 233.008C267.631 232.957 267.937 233.168 267.991 233.488C268.047 233.809 267.833 234.114 267.508 234.17C264.631 234.661 261.833 235.5 259.19 236.662C257.722 237.309 256.278 238.065 254.904 238.912C254.805 238.971 254.698 239 254.593 239Z" fill="#363E44"/>
  <path d="M258.559 247C258.349 247 258.149 246.882 258.055 246.675C257.921 246.395 258.04 246.055 258.319 245.921C258.615 245.774 258.921 245.632 259.233 245.49C261.816 244.331 264.545 243.494 267.346 243.007C267.657 242.958 267.938 243.162 267.992 243.471C268.045 243.78 267.84 244.074 267.536 244.125C264.824 244.599 262.183 245.408 259.686 246.531C259.382 246.665 259.086 246.804 258.797 246.943C258.721 246.982 258.64 247 258.559 247Z" fill="#363E44"/>
  <path d="M262.523 256C262.305 256 262.104 255.883 262.028 255.694C261.936 255.458 262.08 255.201 262.355 255.119C263.986 254.634 265.682 254.258 267.389 254.006C267.678 253.967 267.943 254.129 267.993 254.375C268.04 254.622 267.848 254.856 267.567 254.897C265.911 255.144 264.273 255.507 262.693 255.977C262.636 255.994 262.58 256 262.523 256Z" fill="#363E44"/>
  <path d="M354.917 209C363.422 213.44 373.893 242.992 368.541 245.271C354.503 251.244 343.798 253.362 313.787 256.524C312.521 256.658 311.121 256.818 309.625 257C305.514 244.607 300.107 232.453 297 219.854C309.17 217.666 340.413 212.229 354.917 209Z" fill="#363E44"/>
  <path d="M296.584 220C296.307 220 296.06 219.79 296.01 219.493C295.951 219.158 296.161 218.836 296.48 218.777C304.868 217.165 349.473 208.278 355.294 207.013C355.616 206.943 355.924 207.159 355.987 207.492C356.054 207.828 355.849 208.152 355.533 208.222C349.707 209.487 305.083 218.38 296.69 219.989C296.655 219.997 296.618 220 296.584 220Z" fill="white"/>
  <path d="M309.594 257C309.296 257 309.04 256.772 309.005 256.458C308.964 256.125 309.199 255.819 309.526 255.777C310.21 255.697 312.704 255.419 315.574 255.102C319.178 254.702 323.38 254.235 325.337 254.005C325.666 253.963 325.958 254.207 325.996 254.544C326.034 254.88 325.799 255.183 325.472 255.222C323.515 255.452 319.311 255.919 315.701 256.319C312.836 256.636 310.348 256.911 309.664 256.994L309.594 257Z" fill="white"/>
  <path d="M269.1 119.302C277.648 114.975 281.351 105.079 281.964 94.7853C282.422 87.1045 278.438 81.8871 272.613 81.9377C268.607 75.39 253.565 74.1103 247.234 78.8345C235.6 87.5177 236.296 112.49 249.313 119.891C257.908 124.778 268.326 119.694 269.1 119.302Z" fill="white"/>
  <path d="M245.388 112.246C246.638 115.987 245.913 119.806 243.764 120.775C241.618 121.744 238.864 119.495 237.612 115.754C236.362 112.013 237.087 108.194 239.236 107.225C241.382 106.256 244.136 108.505 245.388 112.246Z" fill="#BC8271"/>
  <path d="M272.104 113.442C270.279 116.844 270.767 120.528 273.194 121.663C275.623 122.801 279.071 120.963 280.896 117.559C282.721 114.155 282.233 110.474 279.804 109.336C277.377 108.201 273.929 110.036 272.104 113.442Z" fill="#BC8271"/>
  <path d="M276.64 120C276.419 120 276.202 119.894 276.085 119.706C275.908 119.426 276.016 119.072 276.324 118.911C277.05 118.535 277.697 117.877 278.148 117.06C279.019 115.476 278.865 113.728 277.808 113.247C277.715 113.205 277.619 113.173 277.517 113.152C277.172 113.08 276.957 112.768 277.035 112.454C277.117 112.139 277.456 111.943 277.805 112.015C278.005 112.057 278.2 112.123 278.383 112.205C280.117 112.996 280.515 115.357 279.292 117.581C278.731 118.604 277.901 119.434 276.957 119.926C276.858 119.976 276.748 120 276.64 120Z" fill="#363E44"/>
  <path d="M240.457 118C240.349 118 240.241 117.966 240.146 117.895C239.397 117.331 238.771 116.438 238.389 115.381C238.003 114.323 237.9 113.212 238.099 112.254C238.315 111.212 238.855 110.462 239.623 110.144C239.783 110.076 239.952 110.031 240.126 110.005C240.418 109.963 240.693 110.186 240.732 110.504C240.772 110.821 240.563 111.113 240.266 111.152C240.18 111.165 240.097 111.189 240.016 111.223C239.596 111.396 239.292 111.853 239.154 112.504C239.002 113.241 239.088 114.115 239.397 114.961C239.704 115.808 240.192 116.512 240.769 116.947C241.015 117.131 241.073 117.491 240.902 117.753C240.796 117.913 240.627 118 240.457 118Z" fill="#363E44"/>
  <path d="M260.552 147L256.512 146.213L246.943 144.952L246 124.056L270.071 123L271 143.921L260.552 147Z" fill="#BC8271"/>
  <path d="M275.972 108.718C275.528 118.033 269.954 132.547 257.855 131.984C245.754 131.421 241.585 116.456 242.032 107.141C242.27 102.111 243.448 93.6995 247.13 91.4276C250.268 89.4938 255.898 94.735 260.211 94.9358C264.896 95.1551 269.25 90.2017 272.157 92.7854C275.062 95.369 276.197 104.061 275.972 108.718Z" fill="#BC8271"/>
  <path d="M257.816 138C276.932 138.143 275.992 105 275.992 105L242.162 105.63C242.162 105.63 239.28 137.858 257.816 138Z" fill="white"/>
  <path d="M242 107.246C242.011 117.834 248.978 112.59 258.19 112.582C267.402 112.574 276.011 118.069 276 107.48C275.992 96.8888 268.87 96.9929 259.658 97.0007C250.446 97.0085 241.989 96.6547 242 107.246Z" fill="#BC8271"/>
  <path d="M276 103.915C276 103.915 275.144 105.294 273.624 106.651C272.612 107.549 269.429 107.503 269.429 107.503C269.429 107.503 265.891 109.294 264.434 108.958C262.976 108.62 262 108.136 262 108.136C262 108.136 262.47 107.377 263.334 106.435C264.409 105.259 268.899 105.079 268.899 105.079C268.899 105.079 271.836 102.733 273.252 103.025C274.884 103.361 276 103.915 276 103.915Z" fill="white"/>
  <path d="M267.696 103.344C265.644 103.939 264.032 105.282 263 106.364C263.152 107.223 263.509 108.03 264.042 108.706C265.441 109.015 267.303 109.193 269.159 108.655C270.652 108.224 271.907 107.395 272.881 106.558C273.13 105.403 272.978 104.24 272.514 103.234C271.154 102.964 269.424 102.843 267.696 103.344Z" fill="#363E44"/>
  <path d="M244 102.629C244 102.629 244.804 104.348 246.334 105.992C247.181 106.904 250.044 106.626 250.044 106.626C250.044 106.626 252.963 109.151 254.346 108.993C255.908 108.814 257 108.371 257 108.371C257 108.371 256.623 107.57 255.897 106.533C254.972 105.218 250.951 104.309 250.951 104.309C250.951 104.309 248.032 101.849 246.651 102.007C245.092 102.187 244 102.629 244 102.629Z" fill="white"/>
  <path d="M256 106.522C255.05 105.231 253.516 103.567 251.446 102.692C249.721 101.964 247.933 101.917 246.518 102.073C246.044 103.138 245.872 104.374 246.1 105.627C246.125 105.753 246.157 105.874 246.186 105.994C247.056 106.886 248.146 107.755 249.454 108.307C251.179 109.035 252.967 109.082 254.385 108.929C255.112 108.298 255.669 107.465 256 106.522Z" fill="#363E44"/>
  <path d="M259.683 115C259.429 115 259.184 114.879 259.066 114.677C258.905 114.394 259.048 114.058 259.388 113.922C259.897 113.722 260.525 113.399 260.618 113.009C260.671 112.793 260.553 112.598 260.302 112.206C260.095 111.882 259.838 111.477 259.661 110.941C259.401 110.15 259.395 109.309 259.642 108.436C259.726 108.133 260.095 107.943 260.46 108.015C260.829 108.087 261.058 108.39 260.972 108.695C260.776 109.383 260.779 110.037 260.978 110.643C261.114 111.059 261.315 111.372 261.511 111.674C261.805 112.136 262.112 112.611 261.96 113.232C261.793 113.912 261.126 114.489 259.977 114.944C259.884 114.982 259.782 115 259.683 115Z" fill="#363E44"/>
  <path d="M258.305 119C257.316 119 256.291 118.448 255.656 117.557C255.245 116.984 255.013 116.292 255 115.612C254.995 115.282 255.242 115.006 255.554 115C255.854 114.992 256.12 115.257 256.125 115.59C256.132 116.017 256.283 116.454 256.548 116.825C257 117.456 257.721 117.831 258.405 117.792C258.713 117.771 258.981 118.027 258.999 118.361C259.017 118.691 258.78 118.978 258.471 118.997C258.415 119 258.361 119 258.305 119Z" fill="#BC8271"/>
  <path d="M271.437 90C271.255 90 271.078 89.9107 270.968 89.7451C270.094 88.4204 269.049 87.2745 267.865 86.3389C261.294 81.1428 252.335 83.6607 249.745 84.5569C249.45 84.662 249.13 84.4964 249.03 84.1916C248.93 83.8893 249.089 83.5608 249.383 83.4583C252.107 82.5174 261.54 79.8734 268.555 85.4216C269.833 86.4309 270.96 87.6688 271.903 89.0959C272.077 89.3614 272.011 89.7214 271.752 89.9002C271.655 89.9685 271.544 90 271.437 90Z" fill="#D3BBA3"/>
  <path d="M245.576 91C245.378 91 245.185 90.9071 245.078 90.7402C244.919 90.4898 245.01 90.1679 245.287 90.0201C248.081 88.5371 257.918 83.9356 267.115 87.0708C268.796 87.6454 270.366 88.4537 271.78 89.4717C272.031 89.6529 272.073 89.9843 271.877 90.2108C271.679 90.4373 271.319 90.4779 271.068 90.2991C269.748 89.3454 268.282 88.5919 266.711 88.0555C257.986 85.0824 248.548 89.5028 245.866 90.9309C245.775 90.9786 245.676 91 245.576 91Z" fill="#D3BBA3"/>
  <path d="M244 150H274V140H261.018L256.561 146.07L251.636 140H244V150Z" fill="#40484C"/>
  <path d="M251 150H261V140H251V150Z" fill="white"/>
  <path d="M440 114H293L318.643 101.718V34H440V114Z" fill="#F7F1EB"/>
  <path d="M291.14 108.82H433.827V29.1771H314.614V97.0008C314.614 97.2282 314.483 97.4342 314.281 97.5332L291.14 108.82ZM434.415 110H288.587C288.313 110 288.076 109.81 288.015 109.543C287.954 109.275 288.084 108.999 288.329 108.879L313.441 96.6316V28.5886C313.441 28.2622 313.701 28 314.026 28H434.415C434.739 28 435 28.2622 435 28.5886V109.409C435 109.735 434.739 110 434.415 110Z" fill="#D3BBA3"/>
  <path d="M400 59.5673H382.303V40H372.697V59.5673H355V69.2483H372.697V104H382.303V69.2483H400V59.5673Z" fill="#EFBC73"/>
  <path d="M23 260H139L118.763 250.175V196H23V260Z" fill="#F7F1EB"/>
  <path d="M27.1775 255.822H139.848L121.949 247.141C121.746 247.042 121.617 246.836 121.617 246.612V193.178H27.1775V255.822ZM142.411 257H26.5887C26.2635 257 26 256.736 26 256.41V192.587C26 192.262 26.2635 192 26.5887 192H122.205C122.531 192 122.794 192.262 122.794 192.587V246.241L142.668 255.881C142.915 255.999 143.047 256.274 142.985 256.541C142.923 256.808 142.686 257 142.411 257Z" fill="#D3BBA3"/>
  <path d="M67.4192 220H37.5808C37.26 220 37 219.775 37 219.499C37 219.224 37.26 219 37.5808 219H67.4192C67.74 219 68 219.224 68 219.499C68 219.775 67.74 220 67.4192 220Z" fill="#D3BBA3"/>
  <path d="M107.4 220H70.5997C70.2687 220 70 219.775 70 219.499C70 219.224 70.2687 219 70.5997 219H107.4C107.732 219 108 219.224 108 219.499C108 219.775 107.732 220 107.4 220Z" fill="#D3BBA3"/>
  <path d="M107.407 209H80.5931C80.2656 209 80 208.776 80 208.501C80 208.224 80.2656 208 80.5931 208H107.407C107.735 208 108 208.224 108 208.501C108 208.776 107.735 209 107.407 209Z" fill="#D3BBA3"/>
  <path d="M76.4086 209H55.5914C55.2647 209 55 208.776 55 208.501C55 208.224 55.2647 208 55.5914 208H76.4086C76.7353 208 77 208.224 77 208.501C77 208.776 76.7353 209 76.4086 209Z" fill="#D3BBA3"/>
  <path d="M52.4129 209H36.5871C36.2628 209 36 208.776 36 208.501C36 208.224 36.2628 208 36.5871 208H52.4129C52.7372 208 53 208.224 53 208.501C53 208.776 52.7372 209 52.4129 209Z" fill="#D3BBA3"/>
  <path d="M108.386 227H92.6137C92.2748 227 92 226.776 92 226.501C92 226.225 92.2748 226 92.6137 226H108.386C108.725 226 109 226.225 109 226.501C109 226.776 108.725 227 108.386 227Z" fill="#D3BBA3"/>
  <path d="M87.3862 227H64.6138C64.2747 227 64 226.776 64 226.501C64 226.225 64.2747 226 64.6138 226H87.3862C87.7253 226 88 226.225 88 226.501C88 226.776 87.7253 227 87.3862 227Z" fill="#D3BBA3"/>
  <path d="M60.3973 227H36.6027C36.27 227 36 226.776 36 226.501C36 226.225 36.27 226 36.6027 226H60.3973C60.7302 226 61 226.225 61 226.501C61 226.776 60.7302 227 60.3973 227Z" fill="#D3BBA3"/>
  <path d="M360.514 457.198L340 487L459.82 486.635L462 438L360.514 457.198Z" fill="#EFBC73"/>
  <path d="M387.983 298.708H387.988H387.983ZM392.432 295.118C391.85 295.118 391.229 295.351 390.622 295.802C389.702 296.491 388.945 297.589 388.494 298.896C387.585 301.519 388.194 304.147 389.849 304.757C390.615 305.038 391.511 304.84 392.371 304.197C393.292 303.509 394.048 302.412 394.5 301.106C394.951 299.8 395.042 298.455 394.75 297.321C394.48 296.263 393.908 295.524 393.144 295.242C392.916 295.159 392.678 295.118 392.432 295.118ZM390.566 306C390.195 306 389.834 305.937 389.486 305.81C387.268 304.992 386.365 301.724 387.475 298.521C387.998 297.005 388.891 295.718 389.986 294.898C391.145 294.035 392.395 293.782 393.508 294.192C394.62 294.599 395.433 295.612 395.798 297.035C396.142 298.387 396.044 299.964 395.521 301.481C394.996 302.997 394.102 304.283 393.007 305.101C392.211 305.696 391.371 306 390.566 306Z" fill="#363E44"/>
  <path d="M393.45 299.86C396.523 291.306 399.078 286.589 404.138 284.234C410.942 281.07 418.239 284.939 418.995 285.354C419.478 285.617 426.565 288.975 427.749 296.717C428.919 304.361 425.96 312.353 419.796 316.983L419.807 334.064C419.812 339.548 415.325 343.995 409.787 344H408.535C402.997 344.005 398.505 339.562 398.502 334.077L398.494 322.667C394.981 322.381 392.2 321.374 391.086 319.611C389.088 316.457 389.831 309.935 393.45 299.86Z" fill="#BC8271"/>
  <path d="M403.43 304C403.389 304 403.348 303.997 403.309 303.986L387.451 300.243C387.143 300.169 386.946 299.836 387.013 299.497C387.078 299.158 387.381 298.938 387.689 299.015L403.55 302.758C403.858 302.832 404.052 303.165 403.988 303.504C403.931 303.798 403.692 304 403.43 304Z" fill="#363E44"/>
  <path d="M397.913 323H397.888C397.386 322.993 396.988 322.744 397 322.444L397.17 318.529C397.183 318.234 397.589 318 398.083 318H398.108C398.614 318.01 399.012 318.258 399 318.559L398.825 322.471C398.813 322.766 398.406 323 397.913 323Z" fill="#363E44"/>
  <path d="M404.636 310C404.483 310 404.328 309.949 404.207 309.846C403.947 309.628 403.93 309.258 404.166 309.019C405.192 307.984 405.824 307.314 406.29 306.822C406.524 306.578 406.714 306.376 406.893 306.192C407.129 305.953 407.53 305.934 407.789 306.152C408.051 306.368 408.072 306.737 407.835 306.979C407.662 307.155 407.475 307.354 407.247 307.594C406.778 308.091 406.138 308.766 405.103 309.809C404.979 309.936 404.806 310 404.636 310Z" fill="#363E44"/>
  <path d="M401.337 283.008C407.186 277.078 422.049 280.48 427.805 288.29C435.587 298.849 431.742 314.86 422.817 320.32C419.823 322.152 414.822 324.399 409.511 321.868C406.41 320.388 407.021 315.701 407.188 314.571C410.082 314.028 412.157 311.448 412.12 308.579C412.083 305.688 409.912 303.256 407.406 302.821C405.743 302.532 404.374 303.201 403.816 303.515C398.933 295.159 397.168 287.236 401.337 283.008Z" fill="#363E44"/>
  <path d="M421.462 289C421.462 289 404.723 238.369 425.126 236.083C445.532 233.799 433.054 279.318 421.462 289Z" fill="#363E44"/>
  <path d="M421.469 285C421.469 285 425.763 254.322 409.93 256.072C394.095 257.822 421.469 285 421.469 285Z" fill="#363E44"/>
  <path d="M421 287.197C421 287.197 433.8 241.403 448.24 247.572C462.679 253.741 458.62 264.786 458.62 264.786C458.62 264.786 461.866 259.684 467.075 266.915C472.284 274.146 469.308 305.244 427.599 300.513L421 287.197Z" fill="#363E44"/>
  <path d="M403.502 312.194C403.374 312.194 403.245 312.199 403.113 312.213C401.942 312.324 400.878 312.927 400.124 313.912C399.368 314.897 399.008 316.141 399.11 317.421C399.214 318.701 399.767 319.859 400.67 320.681C401.573 321.507 402.714 321.902 403.887 321.788C406.308 321.555 408.101 319.218 407.89 316.577C407.687 314.08 405.759 312.194 403.502 312.194ZM403.495 323C400.68 323 398.274 320.643 398.021 317.527C397.756 314.231 399.998 311.315 403.016 311.022C406.037 310.738 408.713 313.179 408.979 316.474C409.244 319.77 407.002 322.686 403.984 322.976C403.82 322.992 403.656 323 403.495 323Z" fill="#EFBC73"/>
  <path d="M337.288 422L377 379.095L341.612 352L311 397.998L337.288 422Z" fill="#BC8271"/>
  <path d="M341.981 407.493C341.981 407.493 293.575 373.472 287.382 369.344C286.734 368.911 285.592 368.143 283.892 367.582C277.594 365.503 273.722 369.601 266.099 370.425C257.45 371.358 252.047 367.009 250.806 368.844C249.943 370.123 251.518 372.335 256.117 375.315C252.361 373.45 247.157 371.142 246.128 373.212C245.066 375.665 250.862 379.092 254.47 380.993C250.104 378.69 247.09 378.765 246.805 380.063C246.356 382.103 249.325 384.671 255.212 387.493C250.601 386.678 249.36 387.164 249.387 388.371C249.441 390.572 254.325 392.8 258.947 394.111C264.151 395.585 268.7 394.932 271.559 394.453H271.562C289.781 409.904 290.246 408.9 304.58 421.815C318.203 434.084 342.771 431.474 341.981 407.493Z" fill="#BC8271"/>
  <path d="M273.362 371C266.67 365.838 265.371 362.584 266.24 361.567C267.698 359.862 275.251 361.974 286 368.309C282.549 369.368 276.816 369.939 273.362 371Z" fill="#BC8271"/>
  <path d="M271.555 370C271.316 370 271.094 369.86 271.023 369.644C270.935 369.38 271.104 369.105 271.397 369.026C272.314 368.78 273.182 368.514 274.022 368.254C275.845 367.688 277.567 367.156 279.39 367.002C279.7 366.975 279.967 367.178 279.998 367.451C280.025 367.726 279.801 367.968 279.496 367.995C277.804 368.135 276.142 368.649 274.385 369.193C273.535 369.456 272.655 369.727 271.714 369.977C271.661 369.993 271.608 370 271.555 370Z" fill="#363E44"/>
  <path d="M263.197 377C262.488 377 261.778 376.967 261.077 376.9C259.47 376.75 257.89 376.427 256.382 375.94C256.069 375.838 255.919 375.553 256.044 375.305C256.171 375.055 256.529 374.935 256.842 375.035C258.247 375.489 259.722 375.79 261.221 375.931C262.255 376.029 263.305 376.049 264.347 375.993C264.694 375.982 264.974 376.177 264.999 376.447C265.021 376.715 264.766 376.947 264.43 376.967C264.02 376.989 263.607 377 263.197 377Z" fill="#363E44"/>
  <path d="M261.2 382C260.487 382 259.78 381.967 259.079 381.903C257.474 381.752 255.894 381.429 254.383 380.942C254.07 380.84 253.918 380.554 254.045 380.306C254.17 380.054 254.53 379.937 254.841 380.034C256.249 380.49 257.724 380.791 259.22 380.933C260.254 381.03 261.305 381.05 262.347 380.993C262.683 380.979 262.976 381.179 262.999 381.447C263.021 381.717 262.769 381.949 262.43 381.967C262.02 381.989 261.61 382 261.2 382Z" fill="#363E44"/>
  <path d="M262.197 390C261.487 390 260.781 389.95 260.076 389.851C258.469 389.625 256.889 389.141 255.381 388.411C255.068 388.258 254.918 387.834 255.045 387.459C255.17 387.084 255.528 386.901 255.841 387.054C257.246 387.737 258.721 388.189 260.221 388.398C261.254 388.544 262.305 388.577 263.347 388.49C263.685 388.477 263.976 388.769 263.999 389.171C264.021 389.575 263.766 389.924 263.43 389.95C263.02 389.983 262.61 390 262.197 390Z" fill="#363E44"/>
  <path d="M477 415.093C443.716 425.114 422.241 432.261 414.916 434.368C414.148 434.589 412.797 434.984 410.966 435C404.186 435.056 401.712 429.794 394.554 426.573C386.435 422.917 379.811 425.493 379.182 423.293C378.745 421.762 380.973 420.082 386.385 418.602V418.599C382.145 419.25 376.356 419.877 376.007 417.511C375.748 414.762 382.465 413.221 386.573 412.487C381.6 413.375 378.692 412.346 378.825 410.981C379.031 408.828 382.727 407.236 389.345 406.322V406.319C384.6 405.666 383.547 404.794 383.954 403.615C384.7 401.46 390.155 400.812 395.062 400.983C400.588 401.175 404.808 403.258 407.437 404.634H407.44C430.029 395.18 445.012 389.065 463.104 381.055C466.805 379.417 477.003 415.093 477 415.093Z" fill="#BC8271"/>
  <path d="M457.596 344C483.323 384.138 492.56 408.384 478.296 415.429C470.212 419.42 446.807 402.238 425 371.461C434.947 362.846 445.299 354.115 457.596 344Z" fill="#BC8271"/>
  <path d="M472 349.243C472 349.243 448.893 332.02 412.668 331.039C375.608 330.035 331 348.62 331 348.62L352.739 395.3L352.115 470L465.846 468.362L463.628 397.779L472 349.243Z" fill="#8B865C"/>
  <path d="M71.4173 485H198.252L211.097 469.108C222.947 453.952 211.973 432 192.546 432H43.8408L40.7003 439.267C31.3325 460.944 47.4897 485 71.4173 485Z" fill="#363E44"/>
  <path d="M208 455H135.862C130.968 455 127 450.969 127 446H208V455Z" fill="#8B865C"/>
  <path d="M208.525 454L230.577 385.146C232.074 380.476 229.47 375.485 224.763 374L200 451.313L208.525 454Z" fill="#8B865C"/>
  <path d="M199.596 442C199.536 442 199.477 441.992 199.417 441.974C199.104 441.876 198.928 441.55 199.028 441.244L220.836 374.404C220.936 374.099 221.271 373.93 221.585 374.028C221.899 374.125 222.072 374.452 221.972 374.757L200.164 441.594C200.085 441.842 199.85 442 199.596 442Z" fill="#363E44"/>
  <path d="M177.977 375.45C177.977 375.45 161.616 384.736 128.534 388.659C91.8734 393.011 127.62 354.249 127.62 354.249C127.62 354.249 154.127 343.71 167.52 338.353C178.992 333.764 177.977 375.45 177.977 375.45Z" fill="#E2A18D"/>
  <path d="M153.402 358.491C153.402 358.491 165.256 323.85 170.954 310.191C176.937 295.848 187.884 275.532 190.735 277.084C192.36 277.968 191.445 281.044 188.451 289.106C189.013 288.848 190.915 288.483 192.287 289.548C194.315 291.124 193.478 293.096 193.489 293.303C193.672 293.2 195.829 292.14 197.368 292.968C199.103 293.9 199.531 295.499 199.391 297.024C199.853 296.785 201.992 296.085 203.431 296.953C205.297 298.081 205.26 300.479 204.547 302.121C203.237 305.134 199.45 313.279 198.003 317.838C195.157 326.813 191.319 361.482 181.791 371.916C164.771 390.555 150.389 367.543 153.402 358.491Z" fill="#E2A18D"/>
  <path d="M186.414 317H186.384C186.07 316.981 185.831 316.705 185.849 316.384C186.021 313.123 184.978 310.679 184.14 308.713C183.259 306.651 182.496 304.868 183.958 303.374C184.783 302.53 185.376 301.057 185.669 299.117C185.749 298.6 185.387 298.345 185.273 298.281C185.037 298.143 184.672 298.095 184.359 298.371L176.933 304.878C176.695 305.088 176.338 305.056 176.134 304.809C175.932 304.562 175.961 304.194 176.2 303.987L183.626 297.477C184.248 296.933 185.114 296.846 185.829 297.26C186.538 297.671 186.913 298.47 186.79 299.298C186.453 301.516 185.769 303.169 184.754 304.204C183.886 305.093 184.279 306.141 185.176 308.243C186.016 310.212 187.167 312.908 186.98 316.448C186.964 316.759 186.712 317 186.414 317Z" fill="#363E44"/>
  <path d="M200.418 307C200.342 307 200.265 306.984 200.191 306.952C198.123 306.067 196.847 304.041 196.808 301.894L196.779 301.944C195.833 303.507 193.909 304.171 192.207 303.517C191.248 303.152 190.494 302.428 190.088 301.484C189.68 300.537 189.669 299.493 190.059 298.541L190.357 297.813C189.527 298.165 188.552 298.16 187.698 297.718C186.28 296.983 185.637 295.301 186.207 293.805L187.511 290.375C187.624 290.076 187.959 289.923 188.259 290.039C188.56 290.153 188.71 290.489 188.597 290.79L187.292 294.22C186.936 295.161 187.34 296.219 188.23 296.682C189.179 297.174 190.36 296.806 190.868 295.867L192.07 293.641C192.215 293.368 192.549 293.26 192.829 293.392C193.108 293.524 193.234 293.855 193.116 294.14L191.134 298.982C190.865 299.643 190.871 300.365 191.153 301.021C191.435 301.674 191.956 302.174 192.621 302.428C193.801 302.88 195.129 302.423 195.785 301.338L197.817 297.977C197.973 297.721 198.291 297.623 198.56 297.75C198.829 297.877 198.961 298.189 198.863 298.469L198.21 300.36C197.456 302.547 198.526 304.972 200.647 305.879C200.942 306.006 201.079 306.349 200.953 306.646C200.858 306.865 200.645 307 200.418 307Z" fill="#363E44"/>
  <path d="M161.701 340C161.701 340 118.661 345.104 87.5895 342.649C72.971 341.495 45.5094 341.367 36.253 347.476C15.5594 361.133 10 383.405 10 383.405L45.962 390.025L32.7238 434.869C28.1303 450.432 30.9476 463.815 40.3549 477H62.7791L58.7249 455.328L70.6339 477L131.979 431.575L132.686 392.144L173 378.98L161.701 340Z" fill="#EFBC73"/>
  <path d="M132 391C131.448 391 131 390.706 131 390.344V378.656C131 378.294 131.448 378 132 378C132.552 378 133 378.294 133 378.656V390.344C133 390.706 132.552 391 132 391Z" fill="#363E44"/>
  <path d="M156.464 344.368C156.844 342.883 167.133 316 167.133 316L198 327.728C198 327.728 196.476 373.495 173.992 378.55C151.51 383.606 156.464 344.368 156.464 344.368Z" fill="#EFBC73"/>
  <path d="M103.427 399.609C100.291 400.688 86.5302 403.121 84.6208 409.24C82.6972 415.402 85.4739 421.957 89.7882 426.783C89.8146 426.786 89.8442 426.789 89.8704 426.791C91.528 427.51 94.1211 428.332 97.0888 427.862C100.472 427.327 101.101 425.623 104.584 424.511C110.463 422.637 114.519 425.799 115.439 423.847C116.071 422.506 113.789 420.564 111.236 419.325C108.614 418.055 106.369 418.318 106.349 417.848C106.328 417.331 108.643 417.354 111.526 417.121C112.865 417.013 116.718 418.94 117.855 417.231C118.762 415.872 115.272 412.883 111.277 412.248C108.451 411.799 106.07 413.219 105.894 412.736C105.762 412.374 107.202 411.56 108.655 411.222C111.051 410.665 115.014 412.594 116.029 411.001C117.024 409.445 113.929 406.886 110.294 406.073C107.229 405.388 104.65 407.096 104.428 406.498C104.272 406.078 105.266 405.078 107.884 403.682C110.07 402.517 115.078 401.63 114.189 399.211C113.442 397.174 108.16 397.982 103.427 399.609Z" fill="#E2A18D"/>
  <path d="M36.0686 416.223C29.1575 418.715 24.5607 425.373 25.0333 432.618C25.3432 437.369 27.841 442.206 35.425 444.944C53.8912 451.61 93.9332 424.544 93.9332 424.544L98 401C74.4939 405.889 55.0917 409.369 36.0686 416.223Z" fill="#E2A18D"/>
  <path d="M60.1123 409.603L65 444.348L34.083 450.443C14.2285 454.357 -3.31087 437.039 0.532979 417.29C3.89655 400.006 8.91887 381.119 16.1108 369L54.2432 377.152L44.2548 410.902L60.1123 409.603Z" fill="#EFBC73"/>
  <path d="M44.5188 411C44.4704 411 44.421 410.992 44.3721 410.977C44.0976 410.886 43.9405 410.57 44.0211 410.267L47.9842 395.41C48.0653 395.109 48.3533 394.933 48.6279 395.024C48.9024 395.112 49.0595 395.431 48.9789 395.734L45.0158 410.588C44.9493 410.837 44.7426 411 44.5188 411Z" fill="#363E44"/>
  <path d="M28.0403 451C26.5208 451 25.0082 450.887 23.5087 450.66C23.1803 450.61 22.956 450.312 23.0073 449.996C23.0589 449.68 23.3635 449.463 23.6948 449.511C26.9851 450.009 30.3469 449.938 33.6879 449.297L64.6506 443.365L63.5354 435.663C63.4892 435.347 63.7188 435.052 64.0479 435.007C64.3763 434.957 64.6812 435.184 64.7273 435.502L66 444.292L33.9224 450.436C31.9632 450.813 29.9967 451 28.0403 451Z" fill="#363E44"/>
  <path d="M39.5968 412C39.289 412 39.0278 411.676 39.002 411.247C38.975 410.792 39.2196 410.397 39.5483 410.36L60.3538 408.003C60.6817 407.962 60.9708 408.302 60.9979 408.753C61.0253 409.208 60.7806 409.603 60.4517 409.64L39.6464 412H39.5968Z" fill="#363E44"/>
  <path d="M93.4213 391C93.1015 391 92.8424 390.735 92.8424 390.409V360.261C92.7613 360.261 92.6809 360.261 92.6003 360.261C75.9887 360.261 73.0452 348.847 73.0169 348.729C72.9405 348.414 73.1306 348.093 73.4412 348.018C73.7507 347.938 74.065 348.133 74.1411 348.448C74.2567 348.916 77.0489 359.465 93.4085 359.074L94 359.061V390.409C94 390.735 93.7409 391 93.4213 391Z" fill="#363E44"/>
  <path d="M89.0659 351.656C83.9463 350.263 80.9382 345.02 82.347 339.951L90.1144 311.997C91.5228 306.928 96.815 303.95 101.934 305.343C107.054 306.738 110.062 311.979 108.653 317.05L100.886 345.005C99.4772 350.074 94.1853 353.052 89.0659 351.656Z" fill="#E2A18D"/>
  <path d="M118.548 328.94C115.949 334.39 99.466 330.899 99.466 330.899L84.8437 321.85C80.8546 314.357 83.553 304.973 90.8703 300.887C98.1874 296.804 107.353 299.566 111.342 307.058C111.342 307.058 121.195 323.388 118.548 328.94Z" fill="#E2A18D"/>
  <path d="M112 312C112 312 117.617 313.774 117.966 314.854C118.383 316.144 114.793 319 114.793 319C114.793 319 112.1 311.958 112 312Z" fill="#E2A18D"/>
  <path d="M99 314.958C99 314.958 100.788 312.915 103.384 312.005C103.936 311.811 104.287 317.093 103.684 316.999C101.032 316.585 99 314.958 99 314.958Z" fill="white"/>
  <path d="M103.151 312.032C104.337 309.756 107.143 308.87 109.42 310.057C111.697 311.241 112.582 314.049 111.397 316.324C110.211 318.602 107.404 319.486 105.128 318.301C102.851 317.115 101.966 314.31 103.151 312.032Z" fill="#363E44"/>
  <path d="M75 308.54C75 308.54 76.3249 326.521 88.7157 327L90.2836 323.481L97.5962 323.212L91.7237 316.897C89.7694 314.309 90.6203 310.54 93.4868 309.088L106 302.749L102.292 296.112C91.4083 295.309 82.0565 298.748 75 308.54Z" fill="#363E44"/>
  <path d="M86.9965 299.219C85.7942 300.389 83.9875 300.225 82.9611 298.856C81.9346 297.488 81.5394 294.712 82.7417 293.545C83.9436 292.375 86.2878 293.253 87.3142 294.624C88.3409 295.993 88.1984 298.049 86.9965 299.219Z" fill="#363E44"/>
  <path d="M89.5973 298.948C87.9756 299.234 86.3956 298.312 86.068 296.886C85.7404 295.457 86.6179 293.321 88.2393 293.033C89.8609 292.744 91.6124 294.414 91.94 295.84C92.2679 297.269 91.2189 298.659 89.5973 298.948Z" fill="#363E44"/>
  <path d="M95.0964 297.999C92.8881 298.051 91.0544 296.333 91.0012 294.162C90.948 291.991 92.6672 289.053 94.8756 289.001C97.0842 288.949 98.9453 291.801 98.9988 293.972C99.052 296.143 97.305 297.944 95.0964 297.999Z" fill="#363E44"/>
  <path d="M83.0701 301.268C81.9076 302.311 80.1061 302.23 79.0463 301.084C77.9867 299.938 77.5155 297.562 78.6783 296.517C79.8411 295.471 82.1971 296.154 83.2569 297.3C84.3165 298.447 84.2329 300.223 83.0701 301.268Z" fill="#363E44"/>
  <path d="M98.4442 297.191C96.7881 295.914 96.5162 293.582 97.8369 291.981C99.1576 290.382 102.262 289.282 103.918 290.558C105.574 291.834 105.154 295.005 103.834 296.604C102.513 298.205 100.1 298.467 98.4442 297.191Z" fill="#363E44"/>
  <path d="M80.254 303.662C79.0251 305.147 76.71 305.44 75.0829 304.319C73.4558 303.199 72.2815 300.499 73.5103 299.015C74.7394 297.53 77.9061 297.821 79.5329 298.944C81.16 300.065 81.4828 302.178 80.254 303.662Z" fill="#363E44"/>
  <path d="M77.9377 306.563C77.5754 308.189 75.7367 309.256 73.8312 308.947C71.9254 308.64 69.6765 306.909 70.0387 305.283C70.4007 303.657 73.2369 302.751 75.1427 303.06C77.0481 303.367 78.2996 304.938 77.9377 306.563Z" fill="#363E44"/>
  <path d="M100.744 301.017C99.3641 298.996 99.9589 296.289 102.072 294.969C104.185 293.65 108.122 293.527 109.501 295.548C110.881 297.569 109.18 300.969 107.067 302.289C104.954 303.609 102.123 303.038 100.744 301.017Z" fill="#363E44"/>
  <path d="M82.0239 324.032C82.2914 327.056 84.7362 329.268 87.4844 328.974C90.2329 328.679 92.2438 325.99 91.9761 322.968C91.7086 319.944 89.2638 317.732 86.5155 318.026C83.7673 318.321 81.7564 321.01 82.0239 324.032Z" fill="#E2A18D"/>
  <path d="M117.073 318L121.783 329.477C122.438 331.075 121.558 332.867 119.849 333.421C119.419 333.56 118.952 333.708 118.453 333.856C109.82 336.433 100.396 334.593 93.5393 328.985C91.2423 327.108 90.4052 324.077 91.435 321.37L91.7746 320.479L94.6563 320.522C94.6563 320.522 99.616 325.575 102.194 324.845C104.771 324.117 108.104 320.168 117.073 318Z" fill="#363E44"/>
  <path d="M111.552 324C111.484 324 111.416 323.998 111.347 323.994C110.329 323.931 109.423 323.397 109.041 322.631C108.923 322.395 109.066 322.128 109.361 322.032C109.654 321.94 109.988 322.053 110.106 322.289C110.327 322.731 110.848 323.04 111.434 323.075C112.04 323.111 112.628 322.856 112.923 322.424C113.075 322.201 113.424 322.117 113.701 322.241C113.979 322.362 114.082 322.641 113.929 322.865C113.452 323.566 112.534 324 111.552 324Z" fill="#E2A18D"/>
  <path d="M90.4073 312C90.3699 312 90.332 311.997 90.294 311.988L82.4806 310.308C82.1589 310.239 81.9486 309.892 82.011 309.533C82.0731 309.177 82.3838 308.941 82.7061 309.013L90.5194 310.693C90.8409 310.762 91.0513 311.109 90.9891 311.468C90.934 311.782 90.6857 312 90.4073 312Z" fill="#E2A18D"/>
</svg>
