<svg width="17" height="17" viewBox="0 0 17 17" fill="none" xmlns="http://www.w3.org/2000/svg">
<path d="M10.5 2.5C10.5 3.16304 10.2366 3.79893 9.76777 4.26777C9.29893 4.73661 8.66304 5 8 5C7.33696 5 6.70107 4.73661 6.23223 4.26777C5.76339 3.79893 5.5 3.16304 5.5 2.5C5.5 1.83696 5.76339 1.20107 6.23223 0.732233C6.70107 0.263392 7.33696 0 8 0C8.66304 0 9.29893 0.263392 9.76777 0.732233C10.2366 1.20107 10.5 1.83696 10.5 2.5ZM15.5 3C15.5 3.53043 15.2893 4.03914 14.9142 4.41421C14.5391 4.78929 14.0304 5 13.5 5C12.9696 5 12.4609 4.78929 12.0858 4.41421C11.7107 4.03914 11.5 3.53043 11.5 3C11.5 2.46957 11.7107 1.96086 12.0858 1.58579C12.4609 1.21071 12.9696 1 13.5 1C14.0304 1 14.5391 1.21071 14.9142 1.58579C15.2893 1.96086 15.5 2.46957 15.5 3ZM2.5 5C3.03043 5 3.53914 4.78929 3.91421 4.41421C4.28929 4.03914 4.5 3.53043 4.5 3C4.5 2.46957 4.28929 1.96086 3.91421 1.58579C3.53914 1.21071 3.03043 1 2.5 1C1.96957 1 1.46086 1.21071 1.08579 1.58579C0.710714 1.96086 0.5 2.46957 0.5 3C0.5 3.53043 0.710714 4.03914 1.08579 4.41421C1.46086 4.78929 1.96957 5 2.5 5ZM4 7.25C4 6.56 4.56 6 5.25 6H10.75C11.0424 5.99986 11.3256 6.10224 11.5504 6.28934C11.7751 6.47643 11.9271 6.7364 11.98 7.024C10.9864 7.11815 10.0371 7.4809 9.23387 8.07339C8.43067 8.66587 7.80383 9.46576 7.42054 10.3873C7.03724 11.3089 6.91194 12.3173 7.05806 13.3047C7.20418 14.292 7.61621 15.221 8.25 15.992C7.70474 16.0261 7.15826 15.9482 6.64427 15.7631C6.13028 15.5779 5.65966 15.2894 5.26145 14.9154C4.86324 14.5413 4.54587 14.0897 4.32892 13.5883C4.11197 13.0869 4.00002 12.5463 4 12V7.25ZM12.989 7.021C14.128 7.121 15.167 7.569 16 8.257V7.25C16 6.56 15.44 6 14.75 6H12.621C12.821 6.298 12.951 6.646 12.988 7.021H12.989ZM3 7.25C3 6.787 3.14 6.358 3.379 6H1.25C0.56 6 1.78381e-08 6.56 1.78381e-08 7.25V11C-4.66659e-05 11.4281 0.0915386 11.8513 0.268602 12.2411C0.445665 12.6309 0.704104 12.9782 1.02655 13.2599C1.34901 13.5415 1.728 13.7508 2.13807 13.8738C2.54813 13.9968 2.97978 14.0307 3.404 13.973C3.13645 13.3497 2.99898 12.6783 3 12V7.25ZM17 12.5C17 13.6935 16.5259 14.8381 15.682 15.682C14.8381 16.5259 13.6935 17 12.5 17C11.3065 17 10.1619 16.5259 9.31802 15.682C8.47411 14.8381 8 13.6935 8 12.5C8 11.3065 8.47411 10.1619 9.31802 9.31802C10.1619 8.47411 11.3065 8 12.5 8C13.6935 8 14.8381 8.47411 15.682 9.31802C16.5259 10.1619 17 11.3065 17 12.5ZM13 10.5C13 10.3674 12.9473 10.2402 12.8536 10.1464C12.7598 10.0527 12.6326 10 12.5 10C12.3674 10 12.2402 10.0527 12.1464 10.1464C12.0527 10.2402 12 10.3674 12 10.5V12H10.5C10.3674 12 10.2402 12.0527 10.1464 12.1464C10.0527 12.2402 10 12.3674 10 12.5C10 12.6326 10.0527 12.7598 10.1464 12.8536C10.2402 12.9473 10.3674 13 10.5 13H12V14.5C12 14.6326 12.0527 14.7598 12.1464 14.8536C12.2402 14.9473 12.3674 15 12.5 15C12.6326 15 12.7598 14.9473 12.8536 14.8536C12.9473 14.7598 13 14.6326 13 14.5V13H14.5C14.6326 13 14.7598 12.9473 14.8536 12.8536C14.9473 12.7598 15 12.6326 15 12.5C15 12.3674 14.9473 12.2402 14.8536 12.1464C14.7598 12.0527 14.6326 12 14.5 12H13V10.5Z" fill="#0C3176"/>
</svg>
