<svg width="20" height="20" viewBox="0 0 20 20" fill="none" xmlns="http://www.w3.org/2000/svg">
  <g clip-path="url(#clip0_991_20254)">
    <path d="M13.8889 2.22266H6.11111C5.81643 2.22266 5.53381 2.33972 5.32544 2.54809C5.11706 2.75647 5 3.03908 5 3.33377V16.6671C5 16.9618 5.11706 17.2444 5.32544 17.4528C5.53381 17.6611 5.81643 17.7782 6.11111 17.7782H13.8889C14.1836 17.7782 14.4662 17.6611 14.6746 17.4528C14.8829 17.2444 15 16.9618 15 16.6671V3.33377C15 3.03908 14.8829 2.75647 14.6746 2.54809C14.4662 2.33972 14.1836 2.22266 13.8889 2.22266V2.22266ZM10.5556 16.6671H9.44444V15.556H10.5556V16.6671ZM6.11111 14.4449V3.33377H13.8889V14.4449H6.11111Z" fill="black"/>
  </g>
  <defs>
    <clipPath id="clip0_991_20254">
      <rect width="20" height="20" fill="white"/>
    </clipPath>
  </defs>
</svg>
