<svg width="21" height="20" viewBox="0 0 21 20" fill="none" xmlns="http://www.w3.org/2000/svg">
  <g clip-path="url(#clip0_1314_10763)">
    <path d="M0.5 15V5C0.5 4.33696 0.763392 3.70107 1.23223 3.23223C1.70107 2.76339 2.33696 2.5 3 2.5H18C18.663 2.5 19.2989 2.76339 19.7678 3.23223C20.2366 3.70107 20.5 4.33696 20.5 5V15C20.5 15.663 20.2366 16.2989 19.7678 16.7678C19.2989 17.2366 18.663 17.5 18 17.5H3C2.33696 17.5 1.70107 17.2366 1.23223 16.7678C0.763392 16.2989 0.5 15.663 0.5 15ZM8.9875 6.36625C8.89405 6.29971 8.78408 6.26018 8.66965 6.25198C8.55522 6.24379 8.44074 6.26724 8.33876 6.31978C8.23678 6.37233 8.15122 6.45192 8.09147 6.54986C8.03172 6.64779 8.00007 6.76028 8 6.875V13.125C8.00007 13.2397 8.03172 13.3522 8.09147 13.4501C8.15122 13.5481 8.23678 13.6277 8.33876 13.6802C8.44074 13.7328 8.55522 13.7562 8.66965 13.748C8.78408 13.7398 8.89405 13.7003 8.9875 13.6337L13.3625 10.5087C13.4435 10.4509 13.5096 10.3746 13.5551 10.2861C13.6007 10.1976 13.6245 10.0995 13.6245 10C13.6245 9.90047 13.6007 9.80237 13.5551 9.71388C13.5096 9.62539 13.4435 9.54906 13.3625 9.49125L8.9875 6.36625V6.36625Z" fill="white"/>
  </g>
  <defs>
    <clipPath id="clip0_1314_10763">
      <rect width="20" height="20" fill="white" transform="translate(0.5)"/>
    </clipPath>
  </defs>
</svg>
