<svg width="20" height="20" viewBox="0 0 20 20" fill="none" xmlns="http://www.w3.org/2000/svg">
  <g clip-path="url(#clip0_520_12513)">
    <path d="M12.5 0.625C12.5 0.45924 12.4342 0.300269 12.3169 0.183058C12.1997 0.065848 12.0408 0 11.875 0L8.125 0C7.95924 0 7.80027 0.065848 7.68306 0.183058C7.56585 0.300269 7.5 0.45924 7.5 0.625C7.5 0.79076 7.43415 0.949732 7.31694 1.06694C7.19973 1.18415 7.04076 1.25 6.875 1.25C6.70924 1.25 6.55027 1.31585 6.43306 1.43306C6.31585 1.55027 6.25 1.70924 6.25 1.875V2.5C6.25 2.66576 6.31585 2.82473 6.43306 2.94194C6.55027 3.05915 6.70924 3.125 6.875 3.125H13.125C13.2908 3.125 13.4497 3.05915 13.5669 2.94194C13.6842 2.82473 13.75 2.66576 13.75 2.5V1.875C13.75 1.70924 13.6842 1.55027 13.5669 1.43306C13.4497 1.31585 13.2908 1.25 13.125 1.25C12.9592 1.25 12.8003 1.18415 12.6831 1.06694C12.5658 0.949732 12.5 0.79076 12.5 0.625Z" fill="#282828"/>
    <path d="M5.10625 1.25H4.375C3.87772 1.25 3.40081 1.44754 3.04917 1.79917C2.69754 2.15081 2.5 2.62772 2.5 3.125V18.125C2.5 18.6223 2.69754 19.0992 3.04917 19.4508C3.40081 19.8025 3.87772 20 4.375 20H15.625C16.1223 20 16.5992 19.8025 16.9508 19.4508C17.3025 19.0992 17.5 18.6223 17.5 18.125V3.125C17.5 2.62772 17.3025 2.15081 16.9508 1.79917C16.5992 1.44754 16.1223 1.25 15.625 1.25H14.8938C14.9625 1.445 15 1.65625 15 1.875V2.5C15 2.99728 14.8025 3.47419 14.4508 3.82583C14.0992 4.17746 13.6223 4.375 13.125 4.375H6.875C6.37772 4.375 5.90081 4.17746 5.54917 3.82583C5.19754 3.47419 5 2.99728 5 2.5V1.875C5 1.65625 5.0375 1.445 5.10625 1.25ZM12.5 8.75C12.5 8.41848 12.6317 8.10054 12.8661 7.86612C13.1005 7.6317 13.4185 7.5 13.75 7.5C14.0815 7.5 14.3995 7.6317 14.6339 7.86612C14.8683 8.10054 15 8.41848 15 8.75V15C15 15.3315 14.8683 15.6495 14.6339 15.8839C14.3995 16.1183 14.0815 16.25 13.75 16.25C13.4185 16.25 13.1005 16.1183 12.8661 15.8839C12.6317 15.6495 12.5 15.3315 12.5 15V8.75ZM5 13.75C5 13.4185 5.1317 13.1005 5.36612 12.8661C5.60054 12.6317 5.91848 12.5 6.25 12.5C6.58152 12.5 6.89946 12.6317 7.13388 12.8661C7.3683 13.1005 7.5 13.4185 7.5 13.75V15C7.5 15.3315 7.3683 15.6495 7.13388 15.8839C6.89946 16.1183 6.58152 16.25 6.25 16.25C5.91848 16.25 5.60054 16.1183 5.36612 15.8839C5.1317 15.6495 5 15.3315 5 15V13.75ZM10 10C10.3315 10 10.6495 10.1317 10.8839 10.3661C11.1183 10.6005 11.25 10.9185 11.25 11.25V15C11.25 15.3315 11.1183 15.6495 10.8839 15.8839C10.6495 16.1183 10.3315 16.25 10 16.25C9.66848 16.25 9.35054 16.1183 9.11612 15.8839C8.8817 15.6495 8.75 15.3315 8.75 15V11.25C8.75 10.9185 8.8817 10.6005 9.11612 10.3661C9.35054 10.1317 9.66848 10 10 10Z" fill="#282828"/>
  </g>
  <defs>
    <clipPath id="clip0_520_12513">
      <rect width="20" height="20" fill="white"/>
    </clipPath>
  </defs>
</svg>
