<svg width="20" height="20" viewBox="0 0 20 20" fill="none" xmlns="http://www.w3.org/2000/svg">
  <path d="M5.41665 10C6.63222 10 7.79801 10.4829 8.65755 11.3424C9.51709 12.202 9.99998 13.3678 9.99998 14.5833C9.99998 15.7989 9.51709 16.9647 8.65755 17.8242C7.79801 18.6838 6.63222 19.1667 5.41665 19.1667C4.20107 19.1667 3.03528 18.6838 2.17574 17.8242C1.3162 16.9647 0.833313 15.7989 0.833313 14.5833C0.833313 13.3678 1.3162 12.202 2.17574 11.3424C3.03528 10.4829 4.20107 10 5.41665 10ZM13.9575 1.66667C14.4548 1.66667 14.9317 1.86422 15.2833 2.21585C15.6349 2.56748 15.8325 3.04439 15.8325 3.54167V16.4583C15.8325 16.9556 15.6349 17.4325 15.2833 17.7842C14.9317 18.1358 14.4548 18.3333 13.9575 18.3333H9.32415C10.1864 17.4355 10.7131 16.2681 10.8156 15.0275C10.9181 13.7869 10.5902 12.5489 9.88708 11.5217C9.18393 10.4945 8.14843 9.74082 6.95481 9.38749C5.7612 9.03416 4.48231 9.10274 3.33331 9.58167V3.54251C3.3332 3.29614 3.38165 3.05216 3.47588 2.82453C3.57011 2.59689 3.70828 2.39006 3.88249 2.21585C4.0567 2.04164 4.26353 1.90347 4.49117 1.80924C4.7188 1.71501 4.96278 1.66656 5.20915 1.66667H13.9583H13.9575ZM5.41665 16.5667C5.34655 16.5639 5.27661 16.5752 5.21103 16.6001C5.14544 16.625 5.08556 16.6629 5.03497 16.7115C4.98439 16.7601 4.94414 16.8184 4.91665 16.883C4.88916 16.9475 4.87498 17.0169 4.87498 17.0871C4.87498 17.1572 4.88916 17.2267 4.91665 17.2912C4.94414 17.3557 4.98439 17.4141 5.03497 17.4627C5.08556 17.5113 5.14544 17.5491 5.21103 17.574C5.27661 17.5989 5.34655 17.6103 5.41665 17.6075C5.55107 17.6021 5.67819 17.5449 5.77139 17.4479C5.8646 17.3509 5.91665 17.2216 5.91665 17.0871C5.91665 16.9526 5.8646 16.8233 5.77139 16.7262C5.67819 16.6292 5.55107 16.5721 5.41665 16.5667ZM5.41665 11.6692C4.54331 11.6692 3.86331 12.35 3.87248 13.2975C3.87358 13.408 3.91854 13.5136 3.99747 13.5909C4.07639 13.6683 4.18281 13.7111 4.29331 13.71C4.40382 13.7089 4.50936 13.6639 4.58672 13.585C4.66408 13.5061 4.70692 13.3997 4.70581 13.2892C4.70081 12.8075 5.00581 12.5025 5.41665 12.5025C5.80998 12.5025 6.12748 12.8292 6.12748 13.2942C6.12748 13.4808 6.06498 13.6192 5.86331 13.8583L5.77998 13.9525L5.55915 14.1942C5.15581 14.6458 4.99998 14.9375 4.99998 15.4175C4.99998 15.528 5.04388 15.634 5.12202 15.7121C5.20016 15.7903 5.30614 15.8342 5.41665 15.8342C5.52715 15.8342 5.63313 15.7903 5.71127 15.7121C5.78941 15.634 5.83331 15.528 5.83331 15.4175C5.83331 15.2233 5.89665 15.0817 6.10331 14.8383L6.18665 14.7425L6.40831 14.5008C6.80665 14.055 6.96081 13.7658 6.96081 13.2942C6.96081 12.3742 6.27581 11.6692 5.41665 11.6692ZM17.2916 12.5017C17.4427 12.5017 17.5886 12.5564 17.7024 12.6556C17.8162 12.7549 17.8903 12.892 17.9108 13.0417L17.9166 13.1267V14.375C17.9166 14.526 17.8619 14.672 17.7627 14.7858C17.6634 14.8996 17.5263 14.9736 17.3766 14.9942L17.2916 15H16.6666V12.5017H17.2916ZM17.2916 9.16834C17.4427 9.16834 17.5886 9.22304 17.7024 9.32231C17.8162 9.42158 17.8903 9.55871 17.9108 9.70834L17.9166 9.79334V11.0417C17.9166 11.1927 17.8619 11.3386 17.7627 11.4524C17.6634 11.5663 17.5263 11.6403 17.3766 11.6608L17.2916 11.6667H16.6666V9.16834H17.2916ZM17.2916 5.835C17.4427 5.83501 17.5886 5.88971 17.7024 5.98898C17.8162 6.08825 17.8903 6.22538 17.9108 6.37501L17.9166 6.46V7.70834C17.9166 7.85937 17.8619 8.00529 17.7627 8.11911C17.6634 8.23294 17.5263 8.30696 17.3766 8.32751L17.2916 8.33334H16.6666V5.835H17.2916ZM12.29 4.58084H6.87665C6.72562 4.58085 6.57969 4.63554 6.46587 4.73481C6.35205 4.83408 6.27802 4.97121 6.25748 5.12084L6.25165 5.20584V6.45917C6.25165 6.77584 6.48748 7.03667 6.79248 7.07834L6.87665 7.08417H12.29C12.441 7.08417 12.5869 7.02947 12.7008 6.9302C12.8146 6.83093 12.8886 6.6938 12.9091 6.54417L12.915 6.45917V5.20584C12.915 5.04008 12.8491 4.88111 12.7319 4.7639C12.6147 4.64669 12.4557 4.58084 12.29 4.58084Z" fill="black"/>
</svg>
