<svg width="22" height="18" viewBox="0 0 22 18" fill="none" xmlns="http://www.w3.org/2000/svg">
<path d="M13.6254 13.5539H11.8887V7.875C11.8887 7.77187 11.8043 7.6875 11.7012 7.6875H10.2949C10.1918 7.6875 10.1074 7.77187 10.1074 7.875V13.5539H8.37538C8.21835 13.5539 8.13163 13.7344 8.22772 13.8563L10.8527 17.1773C10.8703 17.1998 10.8927 17.2179 10.9183 17.2303C10.9438 17.2428 10.9719 17.2493 11.0004 17.2493C11.0288 17.2493 11.0569 17.2428 11.0825 17.2303C11.1081 17.2179 11.1305 17.1998 11.148 17.1773L13.773 13.8563C13.8691 13.7344 13.7824 13.5539 13.6254 13.5539Z" fill="#000"/>
<path d="M18.0172 5.59453C16.9438 2.76328 14.2086 0.75 11.0047 0.75C7.80078 0.75 5.06563 2.76094 3.99219 5.59219C1.98359 6.11953 0.5 7.95 0.5 10.125C0.5 12.7148 2.59766 14.8125 5.18516 14.8125H6.125C6.22813 14.8125 6.3125 14.7281 6.3125 14.625V13.2188C6.3125 13.1156 6.22813 13.0312 6.125 13.0312H5.18516C4.39531 13.0312 3.65234 12.7172 3.09922 12.1477C2.54844 11.5805 2.25547 10.8164 2.28125 10.0242C2.30234 9.40547 2.51328 8.82422 2.89531 8.33438C3.28672 7.83516 3.83516 7.47187 4.44453 7.31016L5.33281 7.07812L5.65859 6.22031C5.86016 5.68594 6.14141 5.18672 6.49531 4.73438C6.8447 4.28603 7.25857 3.89191 7.72344 3.56484C8.68672 2.8875 9.82109 2.52891 11.0047 2.52891C12.1883 2.52891 13.3227 2.8875 14.2859 3.56484C14.7523 3.89297 15.1648 4.28672 15.5141 4.73438C15.868 5.18672 16.1492 5.68828 16.3508 6.22031L16.6742 7.07578L17.5602 7.31016C18.8305 7.65234 19.7188 8.80781 19.7188 10.125C19.7188 10.9008 19.4164 11.632 18.868 12.1805C18.599 12.451 18.2791 12.6655 17.9266 12.8115C17.5742 12.9576 17.1963 13.0323 16.8148 13.0312H15.875C15.7719 13.0312 15.6875 13.1156 15.6875 13.2188V14.625C15.6875 14.7281 15.7719 14.8125 15.875 14.8125H16.8148C19.4023 14.8125 21.5 12.7148 21.5 10.125C21.5 7.95234 20.0211 6.12422 18.0172 5.59453Z" fill="#000"/>
</svg>
