<svg width="20" height="20" viewBox="0 0 20 20" fill="none" xmlns="http://www.w3.org/2000/svg">
  <path fill-rule="evenodd" clip-rule="evenodd" d="M12.5722 0.62625C12.5722 0.460375 12.5064 0.301275 12.3892 0.183866C12.2721 0.0664569 12.1131 0.000331089 11.9472 0L8.22221 0C7.87721 0 7.59721 0.28125 7.59721 0.62625C7.59721 0.791031 7.53201 0.949119 7.41584 1.06599C7.29968 1.18286 7.14198 1.24901 6.97721 1.25C6.81244 1.25 6.65442 1.31545 6.53792 1.43196C6.42141 1.54847 6.35596 1.70648 6.35596 1.87125V2.5C6.35596 2.66576 6.42181 2.82473 6.53902 2.94194C6.65623 3.05915 6.8152 3.125 6.98096 3.125H13.191C13.3567 3.125 13.5157 3.05915 13.6329 2.94194C13.7501 2.82473 13.816 2.66576 13.816 2.5V1.87125C13.816 1.78956 13.7998 1.70867 13.7685 1.63322C13.7372 1.55776 13.6914 1.48922 13.6336 1.43152C13.5757 1.37381 13.5071 1.32808 13.4316 1.29693C13.3561 1.26578 13.2751 1.24984 13.1935 1.25C13.0285 1.24934 12.8704 1.18333 12.754 1.06643C12.6376 0.949522 12.5722 0.791247 12.5722 0.62625V0.62625Z" fill="black"/>
  <path fill-rule="evenodd" clip-rule="evenodd" d="M5.21738 1.25H4.50488C4.0076 1.25 3.53069 1.44754 3.17906 1.79917C2.82743 2.15081 2.62988 2.62772 2.62988 3.125V18.125C2.62988 18.6223 2.82743 19.0992 3.17906 19.4508C3.53069 19.8025 4.0076 20 4.50488 20H15.7549C16.2522 20 16.7291 19.8025 17.0807 19.4508C17.4323 19.0992 17.6299 18.6223 17.6299 18.125V3.125C17.6299 2.62772 17.4323 2.15081 17.0807 1.79917C16.7291 1.44754 16.2522 1.25 15.7549 1.25H14.9524C15.0211 1.445 15.0586 1.65625 15.0586 1.875V2.5C15.0586 3.535 14.2236 4.375 13.1936 4.375H6.97613C6.48039 4.37334 6.0056 4.17491 5.65611 3.82332C5.30663 3.47172 5.11105 2.99574 5.11238 2.5V1.875C5.11238 1.65625 5.14988 1.445 5.21863 1.25H5.21738ZM10.0849 8.1025C12.1549 6.01125 17.3286 9.67 10.0849 14.375C2.84113 9.67 8.01488 6.0125 10.0849 8.1025Z" fill="black"/>
</svg>
