<svg width="14" height="17" viewBox="0 0 14 17" fill="none"
    xmlns="http://www.w3.org/2000/svg">
    <path d="M12.8359 16.3343H1.16927C0.948257 16.3343 0.736296 16.2465 0.580015 16.0902C0.423735 15.9339 0.335938 15.722 0.335938 15.5009V7.46511C0.348771 7.26087 0.435573 7.06831 0.580104 6.92344L6.41344 1.09011C6.49083 1.01263 6.58274 0.951162 6.6839 0.909225C6.78507 0.867288 6.89351 0.845703 7.00302 0.845703C7.11253 0.845703 7.22097 0.867288 7.32214 0.909225C7.4233 0.951162 7.51521 1.01263 7.5926 1.09011L13.4259 6.92344C13.5034 7.00071 13.5648 7.09256 13.6065 7.19368C13.6483 7.2948 13.6696 7.4032 13.6693 7.51261V15.5009C13.6693 15.722 13.5815 15.9339 13.4252 16.0902C13.2689 16.2465 13.057 16.3343 12.8359 16.3343ZM6.48427 12.5634C6.6676 12.7134 6.8451 12.8601 7.0026 13.0009C7.16927 12.8534 7.35594 12.7009 7.55427 12.5393L7.60177 12.5001C8.57344 11.7076 9.78344 10.7218 9.78344 9.50011C9.78337 9.30057 9.74349 9.10306 9.66614 8.91913C9.58879 8.7352 9.47551 8.56855 9.33295 8.42894C9.1904 8.28933 9.02142 8.17956 8.83591 8.10607C8.6504 8.03258 8.4521 7.99684 8.2526 8.00094C8.01685 8.00031 7.78362 8.04949 7.56821 8.14528C7.35279 8.24107 7.16005 8.3813 7.0026 8.55678C6.8452 8.38126 6.65246 8.241 6.43703 8.14521C6.22161 8.04942 5.98837 8.00025 5.7526 8.00094C5.55318 7.99706 5.35499 8.033 5.16962 8.10664C4.98425 8.18028 4.81543 8.29016 4.67304 8.42984C4.53065 8.56951 4.41754 8.73618 4.34034 8.9201C4.26314 9.10401 4.2234 9.30148 4.22344 9.50094C4.22344 10.7184 5.42344 11.6976 6.3901 12.4843H6.38927H6.39344L6.40844 12.4968H6.4126L6.41927 12.5126L6.4626 12.5484L6.47344 12.5568H6.47844L6.48427 12.5634Z" fill="currentColor" fill-opacity="0.6"/>
</svg>
