<svg width="17" height="16" viewBox="0 0 17 16" fill="none"
    xmlns="http://www.w3.org/2000/svg">
    <path d="M1.10673 7.16732C0.787285 7.16732 0.54784 7.03176 0.388396 6.76065C0.228396 6.4901 0.224785 6.21593 0.377563 5.93815L3.12756 0.979818C3.2109 0.82704 3.31506 0.715929 3.44006 0.646484C3.56506 0.57704 3.70395 0.542318 3.85673 0.542318C4.00951 0.542318 4.1484 0.57704 4.2734 0.646484C4.3984 0.715929 4.50256 0.82704 4.5859 0.979818L7.3359 5.93815C7.48867 6.21593 7.48534 6.4901 7.3259 6.76065C7.1659 7.03176 6.92617 7.16732 6.60673 7.16732H1.10673ZM3.85673 15.5007C2.94006 15.5007 2.15534 15.1743 1.50256 14.5215C0.849785 13.8687 0.523396 13.084 0.523396 12.1673C0.523396 11.2368 0.849785 10.4484 1.50256 9.80232C2.15534 9.15676 2.94006 8.83398 3.85673 8.83398C4.7734 8.83398 5.55812 9.16037 6.2109 9.81315C6.86367 10.4659 7.19006 11.2507 7.19006 12.1673C7.19006 13.084 6.86367 13.8687 6.2109 14.5215C5.55812 15.1743 4.7734 15.5007 3.85673 15.5007ZM9.69006 15.5007C9.45395 15.5007 9.2559 15.4207 9.0959 15.2607C8.93645 15.1012 8.85673 14.9034 8.85673 14.6673V9.66732C8.85673 9.43121 8.93645 9.23315 9.0959 9.07315C9.2559 8.91371 9.45395 8.83398 9.69006 8.83398H14.6901C14.9262 8.83398 15.1242 8.91371 15.2842 9.07315C15.4437 9.23315 15.5234 9.43121 15.5234 9.66732V14.6673C15.5234 14.9034 15.4437 15.1012 15.2842 15.2607C15.1242 15.4207 14.9262 15.5007 14.6901 15.5007H9.69006ZM12.1901 6.85482C12.079 6.85482 11.9678 6.83732 11.8567 6.80232C11.7456 6.76787 11.6484 6.71593 11.5651 6.64648C10.8012 6.0076 10.1865 5.47982 9.7209 5.06315C9.2559 4.64648 8.8984 4.28537 8.6484 3.97982C8.3984 3.67426 8.23173 3.39648 8.1484 3.14648C8.06506 2.89648 8.0234 2.61871 8.0234 2.31315C8.0234 1.68815 8.24201 1.16037 8.67923 0.729818C9.11701 0.299262 9.66228 0.0839844 10.3151 0.0839844C10.6901 0.0839844 11.0409 0.170651 11.3676 0.343984C11.6937 0.517873 11.9678 0.757595 12.1901 1.06315C12.4123 0.757595 12.6867 0.517873 13.0134 0.343984C13.3395 0.170651 13.6901 0.0839844 14.0651 0.0839844C14.7178 0.0839844 15.2631 0.299262 15.7009 0.729818C16.1381 1.16037 16.3567 1.68815 16.3567 2.31315C16.3567 2.60482 16.3187 2.87565 16.2426 3.12565C16.1659 3.37565 16.0026 3.65343 15.7526 3.95898C15.5026 4.26454 15.1451 4.62898 14.6801 5.05232C14.2145 5.47621 13.5998 6.0076 12.8359 6.64648C12.7526 6.71593 12.652 6.76787 12.5342 6.80232C12.4159 6.83732 12.3012 6.85482 12.1901 6.85482Z" fill="currentColor" fill-opacity="0.6"/>
</svg>
