<svg width="18" height="14" viewBox="0 0 18 14" fill="none"
    xmlns="http://www.w3.org/2000/svg">
    <path d="M3.10826 0.572266C2.39786 0.572266 1.71655 0.854471 1.21422 1.3568C0.711893 1.85913 0.429688 2.54044 0.429688 3.25084V3.78655H17.5697V3.25084C17.5697 2.54044 17.2875 1.85913 16.7852 1.3568C16.2828 0.854471 15.6015 0.572266 14.8911 0.572266H3.10897H3.10826ZM0.429688 10.7508V4.85798H17.5697V10.7508C17.5697 11.4612 17.2875 12.1425 16.7852 12.6449C16.2828 13.1472 15.6015 13.4294 14.8911 13.4294H3.10897C2.39857 13.4294 1.71727 13.1472 1.21494 12.6449C0.712608 12.1425 0.430402 11.4612 0.430402 10.7508H0.429688ZM12.034 8.78655C11.8919 8.78655 11.7556 8.84299 11.6552 8.94346C11.5547 9.04392 11.4983 9.18019 11.4983 9.32226C11.4983 9.46434 11.5547 9.60061 11.6552 9.70107C11.7556 9.80154 11.8919 9.85798 12.034 9.85798H14.534C14.6761 9.85798 14.8123 9.80154 14.9128 9.70107C15.0132 9.60061 15.0697 9.46434 15.0697 9.32226C15.0697 9.18019 15.0132 9.04392 14.9128 8.94346C14.8123 8.84299 14.6761 8.78655 14.534 8.78655H12.034Z" fill="currentColor" fill-opacity="0.6"/>
</svg>
