<svg width="16" height="19" viewBox="0 0 16 19" fill="none"
    xmlns="http://www.w3.org/2000/svg">
    <path d="M3.10625 0.25H2.375C1.87772 0.25 1.40081 0.447544 1.04917 0.799175C0.697544 1.15081 0.5 1.62772 0.5 2.125V17.125C0.5 17.6223 0.697544 18.0992 1.04917 18.4508C1.40081 18.8025 1.87772 19 2.375 19H13.625C14.1223 19 14.5992 18.8025 14.9508 18.4508C15.3025 18.0992 15.5 17.6223 15.5 17.125V2.125C15.5 1.62772 15.3025 1.15081 14.9508 0.799175C14.5992 0.447544 14.1223 0.25 13.625 0.25H12.8938C12.9625 0.445 13 0.65625 13 0.875V1.5C13 1.99728 12.8025 2.47419 12.4508 2.82583C12.0992 3.17746 11.6223 3.375 11.125 3.375H4.875C4.37772 3.375 3.90081 3.17746 3.54917 2.82583C3.19754 2.47419 3 1.99728 3 1.5V0.875C3 0.65625 3.0375 0.445 3.10625 0.25ZM10.5 7.75C10.5 7.41848 10.6317 7.10054 10.8661 6.86612C11.1005 6.6317 11.4185 6.5 11.75 6.5C12.0815 6.5 12.3995 6.6317 12.6339 6.86612C12.8683 7.10054 13 7.41848 13 7.75V14C13 14.3315 12.8683 14.6495 12.6339 14.8839C12.3995 15.1183 12.0815 15.25 11.75 15.25C11.4185 15.25 11.1005 15.1183 10.8661 14.8839C10.6317 14.6495 10.5 14.3315 10.5 14V7.75ZM3 12.75C3 12.4185 3.1317 12.1005 3.36612 11.8661C3.60054 11.6317 3.91848 11.5 4.25 11.5C4.58152 11.5 4.89946 11.6317 5.13388 11.8661C5.3683 12.1005 5.5 12.4185 5.5 12.75V14C5.5 14.3315 5.3683 14.6495 5.13388 14.8839C4.89946 15.1183 4.58152 15.25 4.25 15.25C3.91848 15.25 3.60054 15.1183 3.36612 14.8839C3.1317 14.6495 3 14.3315 3 14V12.75ZM8 9C8.33152 9 8.64946 9.1317 8.88388 9.36612C9.1183 9.60054 9.25 9.91848 9.25 10.25V14C9.25 14.3315 9.1183 14.6495 8.88388 14.8839C8.64946 15.1183 8.33152 15.25 8 15.25C7.66848 15.25 7.35054 15.1183 7.11612 14.8839C6.8817 14.6495 6.75 14.3315 6.75 14V10.25C6.75 9.91848 6.8817 9.60054 7.11612 9.36612C7.35054 9.1317 7.66848 9 8 9Z" fill="currentColor"/>
</svg>
