<svg width="18" height="18" viewBox="0 0 18 18" fill="none"
    xmlns="http://www.w3.org/2000/svg">
    <path d="M9 0.25C11.3206 0.25 13.5462 1.17187 15.1872 2.81282C16.8281 4.45376 17.75 6.67936 17.75 9C17.75 11.3206 16.8281 13.5462 15.1872 15.1872C13.5462 16.8281 11.3206 17.75 9 17.75C6.67936 17.75 4.45376 16.8281 2.81282 15.1872C1.17187 13.5462 0.25 11.3206 0.25 9C0.25 6.67936 1.17187 4.45376 2.81282 2.81282C4.45376 1.17187 6.67936 0.25 9 0.25ZM7.91 10.7262L5.96625 8.78125C5.89657 8.71157 5.81384 8.65629 5.7228 8.61858C5.63175 8.58087 5.53417 8.56146 5.43563 8.56146C5.33708 8.56146 5.2395 8.58087 5.14845 8.61858C5.05741 8.65629 4.97468 8.71157 4.905 8.78125C4.76427 8.92198 4.68521 9.11285 4.68521 9.31188C4.68521 9.5109 4.76427 9.70177 4.905 9.8425L7.38 12.3175C7.44949 12.3875 7.53215 12.4431 7.62322 12.481C7.71429 12.519 7.81197 12.5385 7.91062 12.5385C8.00928 12.5385 8.10696 12.519 8.19803 12.481C8.2891 12.4431 8.37176 12.3875 8.44125 12.3175L13.5662 7.19125C13.6369 7.12186 13.693 7.03917 13.7315 6.94796C13.77 6.85674 13.7901 6.75881 13.7906 6.65981C13.791 6.5608 13.7719 6.46269 13.7342 6.37112C13.6966 6.27956 13.6412 6.19635 13.5712 6.1263C13.5012 6.05625 13.4181 6.00075 13.3266 5.963C13.2351 5.92524 13.137 5.90598 13.038 5.90632C12.939 5.90667 12.841 5.92661 12.7497 5.965C12.6585 6.00339 12.5757 6.05947 12.5063 6.13L7.91 10.7262Z" fill="#116A2C"/>
</svg>
