<svg width="20" height="16" viewBox="0 0 20 16" fill="none" xmlns="http://www.w3.org/2000/svg">
  <g clip-path="url(#clip0_991_28083)">
    <path d="M6.50005 11C6.42536 11 6.35068 11.0109 6.27943 11.0341C5.87443 11.1656 5.44849 11.25 5.00005 11.25C4.55161 11.25 4.12568 11.1656 3.72036 11.0341C3.64911 11.0109 3.57474 11 3.50005 11C1.56068 11 -0.010262 12.5775 5.04837e-05 14.5194C0.00442548 15.34 0.679113 16 1.50005 16H8.50005C9.32099 16 9.99568 15.34 10.0001 14.5194C10.0104 12.5775 8.43943 11 6.50005 11ZM5.00005 10C6.65693 10 8.00005 8.65687 8.00005 7C8.00005 5.34312 6.65693 4 5.00005 4C3.34318 4 2.00005 5.34312 2.00005 7C2.00005 8.65687 3.34318 10 5.00005 10ZM18.5 0H6.50005C5.67286 0 5.00005 0.695312 5.00005 1.54969V3C5.73193 3 6.40943 3.21187 7.00005 3.55625V2H18V11H16V9H12.0001V11H9.61755C10.2144 11.5216 10.6526 12.2103 10.8579 13H18.5C19.3272 13 20 12.3047 20 11.4503V1.54969C20 0.695312 19.3272 0 18.5 0Z" fill="#282828"/>
  </g>
  <defs>
    <clipPath id="clip0_991_28083">
      <rect width="20" height="16" fill="white"/>
    </clipPath>
  </defs>
</svg>
