<svg width="18" height="16" viewBox="0 0 18 16" fill="none"
    xmlns="http://www.w3.org/2000/svg">
    <path d="M3.5 3.75C3.5 3.15326 3.73705 2.58097 4.15901 2.15901C4.58097 1.73705 5.15326 1.5 5.75 1.5C6.34674 1.5 6.91903 1.73705 7.34099 2.15901C7.76295 2.58097 8 3.15326 8 3.75C8 4.34674 7.76295 4.91903 7.34099 5.34099C6.91903 5.76295 6.34674 6 5.75 6C5.15326 6 4.58097 5.76295 4.15901 5.34099C3.73705 4.91903 3.5 4.34674 3.5 3.75ZM5.75 0.5C4.88805 0.5 4.0614 0.84241 3.4519 1.4519C2.84241 2.0614 2.5 2.88805 2.5 3.75C2.5 4.61195 2.84241 5.4386 3.4519 6.0481C4.0614 6.65759 4.88805 7 5.75 7C6.61195 7 7.4386 6.65759 8.0481 6.0481C8.65759 5.4386 9 4.61195 9 3.75C9 2.88805 8.65759 2.0614 8.0481 1.4519C7.4386 0.84241 6.61195 0.5 5.75 0.5ZM9 8C9.52087 7.9998 10.0213 8.2028 10.3948 8.56585C10.7683 8.9289 10.9854 9.42333 11 9.944L9.584 11.359C9.80548 10.9939 9.94535 10.5852 9.994 10.161C9.997 10.123 9.999 10.095 9.999 10.078L10 10.061V10C10 9.73478 9.89464 9.48043 9.70711 9.29289C9.51957 9.10536 9.26522 9 9 9H2.5C2.23478 9 1.98043 9.10536 1.79289 9.29289C1.60536 9.48043 1.5 9.73478 1.5 10V10.078L1.507 10.161C1.56118 10.6404 1.73219 11.0991 2.005 11.497C2.492 12.201 3.513 13 5.75 13C7.31 13 8.279 12.611 8.887 12.137C8.678 12.447 8.524 12.79 8.433 13.155L8.327 13.58C7.645 13.84 6.798 14 5.75 14C3.237 14 1.883 13.08 1.182 12.066C0.812824 11.5283 0.582633 10.9074 0.512 10.259C0.506024 10.2008 0.502022 10.1425 0.5 10.084V10C0.5 9.46957 0.710714 8.96086 1.08579 8.58579C1.46086 8.21071 1.96957 8 2.5 8H9ZM16 4.5C16 5.16304 15.7366 5.79893 15.2678 6.26777C14.7989 6.73661 14.163 7 13.5 7C12.837 7 12.2011 6.73661 11.7322 6.26777C11.2634 5.79893 11 5.16304 11 4.5C11 3.83696 11.2634 3.20107 11.7322 2.73223C12.2011 2.26339 12.837 2 13.5 2C14.163 2 14.7989 2.26339 15.2678 2.73223C15.7366 3.20107 16 3.83696 16 4.5ZM12 4.5C12 4.89782 12.158 5.27936 12.4393 5.56066C12.7206 5.84196 13.1022 6 13.5 6C13.8978 6 14.2794 5.84196 14.5607 5.56066C14.842 5.27936 15 4.89782 15 4.5C15 4.10218 14.842 3.72064 14.5607 3.43934C14.2794 3.15804 13.8978 3 13.5 3C13.1022 3 12.7206 3.15804 12.4393 3.43934C12.158 3.72064 12 4.10218 12 4.5ZM14.81 7.548L9.98 12.378C9.6985 12.6594 9.49872 13.0119 9.402 13.398L9.027 14.896C8.99002 15.045 8.9922 15.201 9.03333 15.3489C9.07447 15.4968 9.15316 15.6315 9.26175 15.74C9.37035 15.8485 9.50516 15.9271 9.6531 15.9681C9.80103 16.0091 9.95705 16.0111 10.106 15.974L11.604 15.6C11.9901 15.5034 12.3427 15.3036 12.624 15.022L17.454 10.192C17.8001 9.84032 17.9932 9.36609 17.9912 8.87265C17.9892 8.37921 17.7923 7.90656 17.4433 7.5577C17.0943 7.20885 16.6216 7.01207 16.1281 7.01026C15.6347 7.00844 15.1605 7.20173 14.809 7.548H14.81Z" fill="#0C3176"/>
</svg>
