<svg width="20" height="20" viewBox="0 0 20 20" fill="none" xmlns="http://www.w3.org/2000/svg">
  <path d="M8.33317 1.66699H11.6665C12.1085 1.66699 12.5325 1.84259 12.845 2.15515C13.1576 2.46771 13.3332 2.89163 13.3332 3.33366V5.00033H16.6665C17.1085 5.00033 17.5325 5.17592 17.845 5.48848C18.1576 5.80104 18.3332 6.22496 18.3332 6.66699V15.8337C18.3332 16.2757 18.1576 16.6996 17.845 17.0122C17.5325 17.3247 17.1085 17.5003 16.6665 17.5003H3.33317C2.89114 17.5003 2.46722 17.3247 2.15466 17.0122C1.8421 16.6996 1.6665 16.2757 1.6665 15.8337V6.66699C1.6665 5.74199 2.40817 5.00033 3.33317 5.00033H6.6665V3.33366C6.6665 2.40866 7.40817 1.66699 8.33317 1.66699ZM11.6665 5.00033V3.33366H8.33317V5.00033H11.6665ZM9.99984 15.8337L14.1665 11.667H11.6665V8.33366H8.33317V11.667H5.83317L9.99984 15.8337Z" fill="black"/>
</svg>
