<svg width="20" height="20" viewBox="0 0 20 20" fill="none" xmlns="http://www.w3.org/2000/svg">
  <path d="M15.8335 18.3333H4.16683C3.94582 18.3333 3.73385 18.2455 3.57757 18.0892C3.42129 17.9329 3.3335 17.721 3.3335 17.5V9.46413C3.34633 9.2599 3.43313 9.06733 3.57766 8.92247L9.411 3.08913C9.48839 3.01165 9.5803 2.95019 9.68146 2.90825C9.78263 2.86631 9.89107 2.84473 10.0006 2.84473C10.1101 2.84473 10.2185 2.86631 10.3197 2.90825C10.4209 2.95019 10.5128 3.01165 10.5902 3.08913L16.4235 8.92247C16.501 8.99973 16.5623 9.09158 16.6041 9.1927C16.6459 9.29383 16.6672 9.40222 16.6668 9.51163V17.5C16.6668 17.721 16.579 17.9329 16.4228 18.0892C16.2665 18.2455 16.0545 18.3333 15.8335 18.3333ZM9.48183 14.5625C9.66516 14.7125 9.84266 14.8591 10.0002 15C10.1668 14.8525 10.3535 14.7 10.5518 14.5383L10.5993 14.4991C11.571 13.7066 12.781 12.7208 12.781 11.4991C12.7809 11.2996 12.741 11.1021 12.6637 10.9182C12.5863 10.7342 12.4731 10.5676 12.3305 10.428C12.188 10.2884 12.019 10.1786 11.8335 10.1051C11.648 10.0316 11.4497 9.99586 11.2502 9.99997C11.0144 9.99933 10.7812 10.0485 10.5658 10.1443C10.3503 10.2401 10.1576 10.3803 10.0002 10.5558C9.84275 10.3803 9.65002 10.24 9.43459 10.1442C9.21917 10.0484 8.98592 9.99928 8.75016 9.99997C8.55074 9.99609 8.35255 10.032 8.16718 10.1057C7.98181 10.1793 7.81299 10.2892 7.6706 10.4289C7.52821 10.5685 7.4151 10.7352 7.3379 10.9191C7.2607 11.103 7.22096 11.3005 7.221 11.5C7.221 12.7175 8.421 13.6966 9.38766 14.4833H9.38683H9.391L9.406 14.4958H9.41016L9.41683 14.5116L9.46016 14.5475L9.471 14.5558H9.476L9.48183 14.5625Z" fill="#282828"/>
</svg>
