<svg width="16" height="18" viewBox="0 0 16 18" fill="none" xmlns="http://www.w3.org/2000/svg">
<path d="M13.8333 2.33341H12.1667V0.666748H10.5V2.33341H5.5V0.666748H3.83333V2.33341H2.16667C1.2475 2.33341 0.5 3.08091 0.5 4.00008V15.6667C0.5 16.5859 1.2475 17.3334 2.16667 17.3334H13.8333C14.7525 17.3334 15.5 16.5859 15.5 15.6667V4.00008C15.5 3.08091 14.7525 2.33341 13.8333 2.33341ZM10.7933 12.0926L8.00167 14.8334L5.21083 12.0926C5.03871 11.927 4.90177 11.7285 4.80824 11.5087C4.7147 11.289 4.66649 11.0526 4.66649 10.8138C4.66649 10.575 4.7147 10.3387 4.80824 10.1189C4.90177 9.89921 5.03871 9.70062 5.21083 9.53508C5.55769 9.19264 6.02549 9.00062 6.51292 9.00062C7.00034 9.00062 7.46814 9.19264 7.815 9.53508L8.00167 9.71758L8.18833 9.53508C8.53533 9.19258 9.00327 9.00055 9.49083 9.00055C9.97839 9.00055 10.4463 9.19258 10.7933 9.53508C10.9655 9.70062 11.1024 9.89921 11.1959 10.1189C11.2895 10.3387 11.3377 10.575 11.3377 10.8138C11.3377 11.0526 11.2895 11.289 11.1959 11.5087C11.1024 11.7285 10.9655 11.927 10.7933 12.0926ZM13.8333 6.50008H2.16667V4.83341H13.8333V6.50008Z" fill="white"/>
</svg>
