<svg width="18" height="19" viewBox="0 0 18 19" fill="none" xmlns="http://www.w3.org/2000/svg">
<path d="M10.6289 7.3754V10.2916C10.6289 10.3654 10.5742 10.4229 10.5039 10.4229H10.0586C10.0156 10.4229 9.97657 10.3983 9.95704 10.3695L8.6836 8.56485V10.2957C8.6836 10.3695 8.62891 10.427 8.5586 10.427H8.11329C8.04298 10.427 7.98829 10.3695 7.98829 10.2957V7.3795C7.98829 7.30567 8.04298 7.24825 8.11329 7.24825H8.5547C8.59376 7.24825 8.63673 7.26876 8.65626 7.30567L9.9297 9.11036V7.3795C9.9297 7.30567 9.98438 7.24825 10.0547 7.24825H10.5C10.5703 7.24415 10.6289 7.30567 10.6289 7.3754ZM7.42579 7.24415H6.98048C6.91016 7.24415 6.85548 7.30157 6.85548 7.3754V10.2916C6.85548 10.3654 6.91016 10.4229 6.98048 10.4229H7.42579C7.4961 10.4229 7.55079 10.3654 7.55079 10.2916V7.3754C7.55079 7.30567 7.4961 7.24415 7.42579 7.24415ZM6.35157 9.68868H5.13673V7.3754C5.13673 7.30157 5.08204 7.24415 5.01173 7.24415H4.56641C4.4961 7.24415 4.44141 7.30157 4.44141 7.3754V10.2916C4.44141 10.3285 4.45313 10.3572 4.47657 10.3818C4.50001 10.4024 4.52735 10.4188 4.56251 10.4188H6.34766C6.41798 10.4188 6.47266 10.3613 6.47266 10.2875V9.81993C6.47266 9.7502 6.41798 9.68868 6.35157 9.68868ZM12.9727 7.24415H11.1875C11.1211 7.24415 11.0625 7.30157 11.0625 7.3754V10.2916C11.0625 10.3613 11.1172 10.4229 11.1875 10.4229H12.9727C13.043 10.4229 13.0977 10.3654 13.0977 10.2916V9.82403C13.0977 9.7502 13.043 9.69278 12.9727 9.69278H11.7578V9.20059H12.9727C13.043 9.20059 13.0977 9.14317 13.0977 9.06934V8.59766C13.0977 8.52384 13.043 8.46642 12.9727 8.46642H11.7578V7.97423H12.9727C13.043 7.97423 13.0977 7.91681 13.0977 7.84298V7.3754C13.0938 7.30567 13.0391 7.24415 12.9727 7.24415ZM17.5 3.66348V15.3652C17.4961 17.2027 16.0625 18.6916 14.3086 18.6875H3.16407C1.41407 18.6834 -0.0038982 17.174 8.05142e-06 15.3365V3.63477C0.0039143 1.79727 1.44141 0.308407 3.19141 0.312508H14.3359C16.0859 0.31661 17.5039 1.82188 17.5 3.66348ZM15.0938 8.692C15.0938 5.69786 12.2344 3.26153 8.72266 3.26153C5.21095 3.26153 2.35157 5.69786 2.35157 8.692C2.35157 11.3744 4.6172 13.6221 7.6797 14.0486C8.42579 14.2168 8.33985 14.5039 8.17188 15.558C8.14454 15.7262 8.04298 16.2184 8.72266 15.919C9.40235 15.6195 12.3906 13.6508 13.7305 12.0348C14.6524 10.9684 15.0938 9.88966 15.0938 8.692Z" fill="black"/>
</svg>
