<svg width="18" height="21" viewBox="0 0 18 21" fill="white" xmlns="http://www.w3.org/2000/svg">
  <g clip-path="url(#clip0_1314_10767)">
    <path d="M11.1289 8.3754V11.2916C11.1289 11.3654 11.0742 11.4229 11.0039 11.4229H10.5586C10.5156 11.4229 10.4766 11.3983 10.457 11.3695L9.1836 9.56485V11.2957C9.1836 11.3695 9.12891 11.427 9.0586 11.427H8.61329C8.54298 11.427 8.48829 11.3695 8.48829 11.2957V8.3795C8.48829 8.30567 8.54298 8.24825 8.61329 8.24825H9.0547C9.09376 8.24825 9.13673 8.26876 9.15626 8.30567L10.4297 10.1104V8.3795C10.4297 8.30567 10.4844 8.24825 10.5547 8.24825H11C11.0703 8.24415 11.1289 8.30567 11.1289 8.3754V8.3754ZM7.92579 8.24415H7.48048C7.41016 8.24415 7.35548 8.30157 7.35548 8.3754V11.2916C7.35548 11.3654 7.41016 11.4229 7.48048 11.4229H7.92579C7.9961 11.4229 8.05079 11.3654 8.05079 11.2916V8.3754C8.05079 8.30567 7.9961 8.24415 7.92579 8.24415V8.24415ZM6.85157 10.6887H5.63673V8.3754C5.63673 8.30157 5.58204 8.24415 5.51173 8.24415H5.06641C4.9961 8.24415 4.94141 8.30157 4.94141 8.3754V11.2916C4.94141 11.3285 4.95313 11.3572 4.97657 11.3818C5.00001 11.4024 5.02735 11.4188 5.06251 11.4188H6.84766C6.91798 11.4188 6.97266 11.3613 6.97266 11.2875V10.8199C6.97266 10.7502 6.91798 10.6887 6.85157 10.6887V10.6887ZM13.4727 8.24415H11.6875C11.6211 8.24415 11.5625 8.30157 11.5625 8.3754V11.2916C11.5625 11.3613 11.6172 11.4229 11.6875 11.4229H13.4727C13.543 11.4229 13.5977 11.3654 13.5977 11.2916V10.824C13.5977 10.7502 13.543 10.6928 13.4727 10.6928H12.2578V10.2006H13.4727C13.543 10.2006 13.5977 10.1432 13.5977 10.0693V9.59767C13.5977 9.52384 13.543 9.46642 13.4727 9.46642H12.2578V8.97423H13.4727C13.543 8.97423 13.5977 8.91681 13.5977 8.84298V8.3754C13.5938 8.30567 13.5391 8.24415 13.4727 8.24415V8.24415ZM18 4.66348V16.3652C17.9961 18.2027 16.5625 19.6916 14.8086 19.6875H3.66407C1.91407 19.6834 0.496102 18.174 0.500008 16.3365V4.63477C0.503914 2.79727 1.94141 1.30841 3.69141 1.31251H14.8359C16.5859 1.31661 18.0039 2.82188 18 4.66348ZM15.5938 9.692C15.5938 6.69786 12.7344 4.26153 9.22266 4.26153C5.71095 4.26153 2.85157 6.69786 2.85157 9.692C2.85157 12.3744 5.1172 14.6221 8.1797 15.0486C8.92579 15.2168 8.83985 15.5039 8.67188 16.558C8.64454 16.7262 8.54298 17.2184 9.22266 16.919C9.90235 16.6195 12.8906 14.6508 14.2305 13.0348C15.1524 11.9684 15.5938 10.8897 15.5938 9.692Z" fill="white"/>
  </g>
  <defs>
    <clipPath id="clip0_1314_10767">
      <rect width="17.5" height="21" fill="white" transform="translate(0.5)"/>
    </clipPath>
  </defs>
</svg>
