<svg width="48" height="48" viewBox="0 0 48 48" fill="none"
    xmlns="http://www.w3.org/2000/svg">
    <path d="M18.2383 38.7228V18.3203L47.9993 0V20.4025L18.2383 38.7228ZM22.0562 21.0862V31.2628L44.1876 17.6427V7.46612L22.0562 21.0862Z" fill="white"/>
    <path d="M20.8588 47.9998C9.3554 47.9998 0 38.7226 0 27.3017C0 15.8807 9.3554 6.60352 20.8588 6.60352C32.3621 6.60352 41.7175 15.8869 41.7175 27.3017C41.7175 38.7164 32.3621 47.9998 20.8588 47.9998ZM20.8588 10.7986C11.6896 10.7986 4.22763 18.2031 4.22763 27.3017C4.22763 36.4002 11.6896 43.8047 20.8588 43.8047C30.0279 43.8047 37.4899 36.4064 37.4899 27.3017C37.4899 18.1969 30.0341 10.7986 20.8588 10.7986Z" fill="white"/>
</svg>
