<svg width="157" height="52" viewBox="0 0 157 52" fill="none" xmlns="http://www.w3.org/2000/svg">
  <path d="M56.1137 42.1033H55.1685L54.5539 43.6501C54.4903 43.8289 54.3036 44.0465 54.0943 44.0465H53.8849V44.7953H54.3354C54.5665 44.7953 54.7741 44.74 54.9399 44.6148C55.0923 44.5016 55.212 44.3436 55.3033 44.1372L55.387 43.9213H59.6009V43.1181H55.7077L56.1137 42.1033Z" fill="white"/>
  <path d="M57.3089 49.2172H59.2061V48.414H57.3089V46.6263H59.4246V45.8119H57.3089V44.4776H56.4197V45.8119H55.3857L55.5314 45.1098H54.7175L54.3893 46.66C54.3575 46.8085 54.2261 46.9657 54.062 46.9657H53.8945V47.7231H54.2579C54.4563 47.7231 54.6422 47.6437 54.7921 47.5305C54.9813 47.3734 55.1127 47.1479 55.1579 46.9044L55.2107 46.6263H56.4189V48.414H54.3458V49.2172H56.4189V51.1068H54.026V51.9083H59.5987V51.1068H57.308V49.2172H57.3089Z" fill="white"/>
  <path d="M52.3521 42.1033H51.4964V43.4255H49.9257V44.2305H50.5319V50.6541C50.5319 50.8346 50.2765 51.1075 50.1225 51.1075H49.873V51.909H50.3653C50.6366 51.909 50.8701 51.7959 51.0443 51.6171C51.2318 51.4115 51.3532 51.1309 51.3532 50.8346V46.6383H52.7347V50.5971C52.7347 50.845 52.4492 51.1084 52.2508 51.1084H51.7007V51.9099H52.4266C52.7439 51.9099 53.0051 51.7734 53.2078 51.5489C53.4238 51.3114 53.5468 50.984 53.5468 50.6446V45.8359H51.3524V44.2322H53.6423V43.4273H52.3504V42.1033H52.3521Z" fill="white"/>
  <path d="M72.3659 50.8811L71.8191 50.1625H70.8312L71.6174 51.274C71.7505 51.458 71.9506 51.6152 72.1674 51.7162C72.3868 51.8276 72.6179 51.8881 72.8339 51.8881H73.3848V51.1289H72.8498C72.6848 51.1289 72.4655 51.0141 72.3659 50.8811Z" fill="white"/>
  <path d="M68.4718 50.8655C68.3856 50.9804 68.1436 51.1289 67.9996 51.1289H67.3968V51.8881H68.0775C68.3178 51.8881 68.5371 51.8173 68.7255 51.7041C68.9005 51.5893 69.0512 51.4329 69.1835 51.2421L69.8759 50.1625H68.944L68.4718 50.8655Z" fill="white"/>
  <path d="M65.9936 42.1228H65.1387V43.4467H63.6434V44.2516H64.1298V50.8826C64.1298 50.9923 64.0076 51.1305 63.8862 51.1305H63.5999V51.8896H64.1047C64.3249 51.8896 64.5434 51.7713 64.6967 51.6063C64.8516 51.4345 64.9621 51.222 64.9621 50.9819V46.6085H66.2657V50.7764C66.2657 50.9284 66.0915 51.1305 65.9475 51.1305H65.3899V51.8896H66.0606C66.3553 51.8896 66.6198 51.7376 66.8057 51.5355C66.9924 51.3213 67.1013 51.0277 67.1013 50.7531V45.801H64.9629V44.2525H67.1892V43.4476H65.9927V42.1228H65.9936Z" fill="white"/>
  <path d="M73.2786 49.1053H72.4657V45.776H73.112V45.0168H72.4565V44.2508H71.6418V45.0168H69.1099V44.2508H68.7558C68.8119 44.18 68.9015 44.0902 68.945 43.9796L69.1191 43.5513H73.2225V42.7567H69.4256L69.6809 42.1228H68.801L68.2852 43.4822C68.2325 43.6169 68.0458 43.7758 67.9043 43.7758H67.4647V44.5453H68.266V45.0177H67.5978V45.7768H68.266V49.1061H67.4321V49.8635H73.2795V49.1053H73.2786ZM71.6418 49.1053H69.1099V48.4221H71.6418V49.1053ZM71.6418 47.7105H69.1099V47.1016H71.6418V47.7105ZM71.6418 46.3969H69.1099V45.776H71.6418V46.3969Z" fill="white"/>
  <path d="M85.6875 50.6869L84.733 48.5718L85.4916 46.126C85.5887 45.7987 85.654 45.3565 85.654 45.0283V44.5007H86.5984V43.6923H83.6345L84.0088 42.0557H83.1322L82.5829 44.7373C82.5285 44.9955 82.3427 45.2028 81.9466 45.1864V45.9671H82.1451C82.3879 45.9671 82.629 45.8877 82.8375 45.7529C83.066 45.5975 83.2402 45.3703 83.3172 45.1121L83.4847 44.4998H84.8427V45.0275C84.8427 45.3246 84.8092 45.6502 84.7339 45.9032L84.239 47.4854L83.6697 46.2271H82.8048L83.8547 48.5805L83.1673 50.6635C83.066 50.9719 82.8048 51.1187 82.5076 51.1187H81.7172V51.8623H82.6625C82.9472 51.8623 83.2075 51.807 83.4152 51.6818C83.6253 51.5583 83.7911 51.376 83.8782 51.1187L84.3604 49.7015L84.9842 51.1282C85.0629 51.2948 85.2396 51.4857 85.4355 51.6377C85.6205 51.7595 85.8198 51.8623 85.9956 51.8623H86.6637V51.1187H86.1923C86.0048 51.1187 85.7888 50.8915 85.6875 50.6869Z" fill="white"/>
  <path d="M82.1894 48.4692H81.3781C81.1026 48.4692 80.6965 48.5469 80.4345 48.6393L80.0301 48.7723V48.4683L81.8151 47.3361V46.6124H78.9207L79.2958 45.7272H81.7624V44.9499H81.0934L82.1149 42.4972H81.2031L80.1816 44.9499H79.6357V43.7745H80.4671V43.0033H79.6357V42.1465H78.7884V43.0033H77.2412V43.7745H78.7884V44.9499H77.0135V45.7272H78.4041L77.7251 47.362C77.6489 47.5391 77.376 47.6859 77.1457 47.6859H76.9138V48.4347H77.3542C77.6389 48.4347 77.8591 48.3552 78.0433 48.217C78.24 48.0754 78.3966 47.8793 78.4929 47.6539L78.6034 47.3741H80.5224L79.228 48.1531V49.0807L78.6612 49.3389C78.4745 49.4183 78.2534 49.4857 78.0232 49.4857H77.0352V50.2802L78.0131 50.2682C78.2986 50.2682 78.5507 50.2207 78.8152 50.1092L79.228 49.9167V50.5929C79.228 50.8796 79.0011 51.1171 78.6829 51.1171H77.9688V51.8866H78.7374C79.1744 51.8866 79.5035 51.7467 79.7103 51.5325C79.933 51.3062 80.0309 50.9893 80.0309 50.6196V49.655L80.4688 49.4658C80.7418 49.3458 81.0825 49.2715 81.4886 49.2715H82.1902V48.4692H82.1894Z" fill="white"/>
  <path d="M90.1679 47.9984H97.5935C98.1227 47.9984 98.4701 47.8162 98.7012 47.5416C98.9114 47.2833 99.0077 46.9465 99.0077 46.5803V44.9058H90.1679V47.9984ZM95.0047 45.5751H98.1428V46.7747C98.1428 47.1253 97.8556 47.3395 97.5299 47.3395H95.0047V45.5751ZM91.047 45.5751H94.1516V47.3395H91.047V45.5751Z" fill="white"/>
  <path d="M98.4487 43.6309L97.4959 42.2698H91.692L90.6631 43.7302C90.5408 43.8857 90.3097 43.9677 90.1021 43.9677H89.6952V44.6578H90.2771C90.6279 44.6578 90.9687 44.5213 91.209 44.3166H97.9874C98.2611 44.5308 98.6471 44.6578 98.9778 44.6578H99.4676V43.9677H99.1277C98.8665 43.9677 98.5935 43.8399 98.4487 43.6309ZM91.7599 43.6491L92.2538 42.9486H96.9366L97.4298 43.6491H91.7599Z" fill="white"/>
  <path d="M92.7567 46.1828L92.4151 45.8658H91.3862L92.1188 46.6483C92.2753 46.8089 92.6018 46.9065 92.8781 46.9065H93.7665V46.2856H93.0196C92.9234 46.2856 92.8229 46.2536 92.7567 46.1828Z" fill="white"/>
  <path d="M90.4321 51.9086H97.3646C97.8125 51.9086 98.1968 51.7177 98.4371 51.4111C98.6481 51.1512 98.767 50.8239 98.767 50.4611V48.6078H90.4321V51.9086ZM91.333 49.2754H97.9013V49.9412H91.333V49.2754ZM91.333 50.5535H97.9013V50.6986C97.9013 50.9819 97.6174 51.2522 97.275 51.2522H91.333V50.5535Z" fill="white"/>
  <path d="M96.761 45.8658L96.4973 46.1543C96.4295 46.2286 96.2562 46.2856 96.1122 46.2856H95.4323V46.9065H96.4077C96.6279 46.9065 97.0231 46.7398 97.1646 46.5792L97.811 45.8658H96.761Z" fill="white"/>
  <path d="M21.5381 7.16772C9.68087 7.16772 0.0407104 17.1141 0.0407104 29.3406C0.0407104 41.5713 9.68087 51.5186 21.5381 51.5186C33.3945 51.5186 43.0363 41.5713 43.0363 29.3406C43.0363 28.2843 42.9593 27.2454 42.8203 26.2298L49.5083 21.9479V0.090271L33.047 10.6266C29.7172 8.44071 25.7696 7.16772 21.5381 7.16772ZM38.675 29.3406C38.675 39.0918 30.989 47.0199 21.5381 47.0199C12.088 47.0199 4.39946 39.0918 4.39946 29.3406C4.39946 19.5936 12.088 11.6603 21.5381 11.6603C24.1378 11.6603 26.6026 12.264 28.8122 13.3375L18.8388 19.7197V41.5747L38.6633 28.888C38.6675 29.04 38.675 29.1903 38.675 29.3406ZM37.8512 23.9308L22.7714 33.581V22.6811L32.9507 16.1667C35.1945 18.2377 36.9067 20.9063 37.8512 23.9308ZM45.5782 18.9856L41.6448 21.5031C40.5622 18.5599 38.8927 15.912 36.7786 13.7175L45.5782 8.08662V18.9856Z" fill="white"/>
  <path d="M56.6987 36.4565C56.8552 35.7872 56.8686 34.7189 56.4525 34.1368C56.2708 33.8924 56.0356 33.6947 55.7559 33.5789C56.172 33.3121 56.409 32.9882 56.5304 32.5953C56.7204 31.9916 56.666 31.0623 56.3839 30.4949C55.9678 29.6529 55.0685 29.4879 54.2371 29.4879H49.7051V37.8833H54.3728C55.4034 37.8833 56.4174 37.6138 56.6987 36.4565ZM50.6822 30.3939H54.3401C54.8643 30.3939 55.2159 30.5882 55.4168 30.8896C55.6312 31.2169 55.6881 31.6219 55.6211 32.1194C55.5332 32.8241 55.0803 33.1385 54.4038 33.1385H50.6822V30.3939ZM50.6822 36.9661V34.0582H54.3276C55.0351 34.0582 55.5868 34.3467 55.7559 35.0886C55.8221 35.3787 55.8087 35.6456 55.7769 35.9608C55.6982 36.7588 55.0007 36.9661 54.3401 36.9661H50.6822Z" fill="white"/>
  <path d="M65.8176 37.883H66.2572V36.9909H65.929C65.7272 36.9909 65.5698 36.8864 65.5698 36.6774V33.5096C65.5698 32.5855 64.9301 31.8298 64.0301 31.7625C63.2866 31.702 62.4669 31.702 61.6615 31.7253C60.7112 31.7486 59.961 32.1062 59.961 33.2013V33.5467H60.9933V33.2686C60.9933 32.7694 61.3391 32.6174 61.7703 32.5959C62.2099 32.5743 63.0747 32.5484 63.6818 32.6174C64.2369 32.6779 64.5919 32.8843 64.5919 33.5009V34.058H61.7351C61.0712 34.058 60.1502 34.4155 60.0054 35.1816C59.9526 35.47 59.9141 35.7706 59.9367 36.1566C60.0054 37.1403 60.4893 37.794 61.4882 37.8485C62.0742 37.8839 62.7474 37.8925 63.3201 37.8839C63.8735 37.87 64.3909 37.7319 64.8506 37.4417C65.0758 37.731 65.4819 37.883 65.8176 37.883ZM64.5927 36.5729C64.1757 36.8864 63.6709 36.9779 63.1325 36.9909C62.6687 37.0012 62.2233 37.0125 61.736 36.977C61.2412 36.9468 60.9624 36.7024 60.9389 36.2231C60.928 36.0253 60.928 35.7861 60.9515 35.5521C60.9933 35.1341 61.4203 34.9259 61.8733 34.9259H64.5927V36.5729Z" fill="white"/>
  <path d="M73.4854 31.7853C72.4279 31.6929 71.1695 31.5875 70.2402 32.2154V31.7499H69.2706V37.8851H70.2402V33.3018C70.5851 32.9322 71.028 32.7111 71.4969 32.6558C71.9373 32.6066 72.5987 32.5868 73.0358 32.6187C73.6218 32.6679 74.0698 33.0505 74.0698 33.6784V37.8851H75.051V33.5488C75.051 32.6334 74.3729 31.8674 73.4854 31.7853Z" fill="white"/>
  <path d="M78.1912 33.301C78.537 32.9313 78.9774 32.7103 79.4521 32.655C79.89 32.6058 80.5515 32.5859 80.991 32.6178C81.5763 32.6671 82.0242 33.0497 82.0242 33.6775V37.8843H83.0021V33.548C83.0021 32.6334 82.3289 31.8682 81.4381 31.7853C80.3848 31.6929 79.1256 31.5875 78.1912 32.2154V31.7499H77.225V37.8851H78.1912V33.301Z" fill="white"/>
  <path d="M92.0676 36.8975C92.1128 36.7714 92.1882 36.6565 92.2141 36.1807L91.2931 36.1876C91.2119 36.97 91.119 37.002 90.2223 37.0262C89.6253 37.0365 88.8978 37.0365 88.3628 37.0028C87.8956 36.9674 87.59 36.8422 87.4133 36.5995C87.1529 36.2385 87.1981 35.6599 87.1981 35.216H92.2677V33.9171C92.2677 32.7227 91.6398 31.9264 90.4458 31.7986C90.0088 31.7494 89.1891 31.714 88.5796 31.7381C87.2643 31.7856 86.3425 32.3099 86.2512 33.8031C86.2077 34.5449 86.2403 35.3688 86.2621 36.0528C86.2864 36.6436 86.499 37.0495 86.8247 37.3379C87.6904 38.1022 89.2536 37.8708 90.2993 37.8604C91.0445 37.8604 91.7427 37.6851 92.0676 36.8975ZM87.2233 33.8022C87.2986 32.8522 87.7926 32.6553 88.6131 32.6182C89.2201 32.5966 90.121 32.6337 90.6267 32.7365C91.0855 32.841 91.2546 33.3013 91.2781 33.7452C91.2906 33.9525 91.2781 34.1589 91.2781 34.3575H87.2082C87.2233 34.1727 87.2082 33.9879 87.2233 33.8022Z" fill="white"/>
  <path d="M96.5089 32.4951V31.7498H95.5051V37.8833H96.5089V33.756C96.8321 33.0142 97.3839 32.6342 98.1717 32.6342H99.4988V31.7507H98.047C97.4617 31.7498 96.8522 31.9908 96.5089 32.4951Z" fill="white"/>
  <path d="M113.234 35.1238C113.234 36.1559 112.769 36.8157 111.702 36.8882C111.104 36.9219 109.942 36.9081 109.393 36.8407C108.264 36.6905 108.039 35.9227 107.969 34.8941C107.912 34.0339 107.904 32.8162 107.992 31.9673C108.13 30.6917 108.602 30.2556 109.829 30.2184C110.405 30.1951 111.137 30.1951 111.813 30.2435C112.658 30.3005 113.185 30.937 113.185 31.7971V31.8498H114.166V31.7505C114.166 30.3333 113.301 29.4412 111.925 29.3738C111.204 29.3384 110.438 29.3246 109.727 29.3487C107.992 29.4092 107.103 30.1502 106.988 32.0035C106.935 32.9095 106.944 33.8707 106.988 34.7628C107.071 36.4331 107.608 37.6189 109.412 37.757C110.089 37.8158 111.058 37.7942 111.578 37.7691C112.488 37.7234 113.211 37.479 113.672 36.934C114.022 36.516 114.213 35.9236 114.213 35.1497V35.0556H113.234V35.1238Z" fill="white"/>
  <path d="M121.374 31.5993C120.91 31.5518 120.369 31.5674 119.895 31.5872C119.307 31.6227 118.73 31.7133 118.247 32.0035V29.3582H117.245V37.757H118.247V33.1046C118.668 32.6625 119.152 32.5157 119.801 32.4785C120.191 32.4552 120.639 32.4552 121.021 32.4872C121.676 32.5511 122.33 32.8395 122.33 33.6159V37.757H123.334V34.0339C123.334 32.539 122.86 31.7513 121.374 31.5993Z" fill="white"/>
  <path d="M132.013 36.4089V31.6114H131.042V36.1558C130.717 36.5859 130.278 36.7698 129.781 36.8407C129.41 36.8864 128.945 36.8864 128.586 36.8743C127.685 36.8286 127.372 36.4935 127.372 35.5634V31.6114H126.41V35.7629C126.41 36.9659 127.132 37.6758 128.281 37.7682C128.846 37.8157 129.443 37.7803 130.007 37.719C130.346 37.6853 130.863 37.5687 131.236 37.2112C131.447 37.5229 131.856 37.7561 132.193 37.7561H132.757V36.8623H132.427C132.27 36.8631 132.013 36.7448 132.013 36.4089Z" fill="white"/>
  <path d="M136.556 32.3623V31.6222H135.552V37.7574H136.556V33.6284C136.881 32.8848 137.435 32.5048 138.226 32.5048H139.552V31.6231H138.1C137.514 31.6213 136.903 31.8657 136.556 32.3623Z" fill="white"/>
  <path d="M148.173 33.792C148.173 33.3282 148.074 32.8524 147.802 32.468C147.499 32.031 146.992 31.7141 146.214 31.6683C145.549 31.6346 144.806 31.5992 144.138 31.6804C143.025 31.8203 142.237 32.4128 142.149 33.6642C142.101 34.292 142.065 34.9648 142.132 35.6229C142.268 36.8898 142.778 37.6567 144.105 37.7699C144.718 37.8191 145.491 37.8389 146.053 37.8053C146.744 37.7578 147.24 37.5384 147.589 37.1999C147.993 36.8069 148.173 36.2836 148.173 35.7645L148.167 35.6497L147.24 35.6376V35.622C147.24 36.376 146.879 36.8518 146.091 36.9071C145.47 36.9563 144.907 36.9563 144.266 36.889C143.476 36.7948 143.158 36.2499 143.113 35.4838C143.079 34.9847 143.047 34.3231 143.103 33.8412C143.227 32.8394 143.698 32.5743 144.602 32.5406C145.052 32.5138 145.682 32.5034 146.182 32.5743C146.838 32.6624 147.206 33.1408 147.225 33.7989H148.154L148.173 33.792Z" fill="white"/>
  <path d="M147.227 33.8457C147.227 33.8275 147.225 33.8134 147.225 33.7976L147.227 33.8457Z" fill="white"/>
  <path d="M154.999 31.5993C154.536 31.5518 153.995 31.5674 153.522 31.5872C152.937 31.6227 152.359 31.7133 151.878 32.0035V29.3582H150.873V37.757H151.878V33.1046C152.291 32.6625 152.777 32.5157 153.43 32.4785C153.814 32.4552 154.264 32.4552 154.649 32.4872C155.302 32.5511 155.955 32.8395 155.955 33.6159V37.757H156.958V34.0339C156.959 32.539 156.484 31.7513 154.999 31.5993Z" fill="white"/>
</svg>
