<svg width="20" height="20" viewBox="0 0 20 20" fill="none" xmlns="http://www.w3.org/2000/svg">
  <path d="M7.49935 9.16667C8.15862 9.16667 8.80309 8.97117 9.35125 8.6049C9.89941 8.23863 10.3267 7.71803 10.5789 7.10895C10.8312 6.49986 10.8973 5.82964 10.7686 5.18303C10.64 4.53643 10.3225 3.94249 9.85637 3.47631C9.3902 3.01014 8.79625 2.69267 8.14965 2.56405C7.50305 2.43543 6.83282 2.50144 6.22374 2.75374C5.61465 3.00603 5.09405 3.43327 4.72778 3.98143C4.36151 4.5296 4.16602 5.17406 4.16602 5.83334C4.16602 6.71739 4.5172 7.56524 5.14233 8.19036C5.76745 8.81548 6.61529 9.16667 7.49935 9.16667ZM14.166 10.8333C14.6605 10.8333 15.1438 10.6867 15.5549 10.412C15.9661 10.1373 16.2865 9.74686 16.4757 9.29004C16.6649 8.83323 16.7144 8.33056 16.618 7.84561C16.5215 7.36066 16.2834 6.9152 15.9338 6.56557C15.5842 6.21594 15.1387 5.97784 14.6537 5.88137C14.1688 5.78491 13.6661 5.83442 13.2093 6.02364C12.7525 6.21286 12.362 6.53329 12.0873 6.94441C11.8126 7.35553 11.666 7.83888 11.666 8.33334C11.666 8.99638 11.9294 9.63226 12.3982 10.1011C12.8671 10.5699 13.503 10.8333 14.166 10.8333ZM17.4993 16.6667C17.7204 16.6667 17.9323 16.5789 18.0886 16.4226C18.2449 16.2663 18.3327 16.0543 18.3327 15.8333C18.332 15.0545 18.1131 14.2914 17.7007 13.6307C17.2883 12.97 16.699 12.4381 15.9996 12.0954C15.3003 11.7527 14.5188 11.6128 13.744 11.6917C12.9692 11.7705 12.232 12.065 11.616 12.5417C10.7998 11.7286 9.76106 11.1755 8.63087 10.952C7.50067 10.7285 6.32962 10.8447 5.26537 11.2859C4.20113 11.7272 3.29136 12.4736 2.6508 13.4312C2.01024 14.3888 1.66757 15.5146 1.66602 16.6667C1.66602 16.8877 1.75381 17.0996 1.91009 17.2559C2.06637 17.4122 2.27834 17.5 2.49935 17.5H12.4993C12.7204 17.5 12.9323 17.4122 13.0886 17.2559C13.2449 17.0996 13.3327 16.8877 13.3327 16.6667" fill="#282828"/>
</svg>
