<svg width="20" height="20" viewBox="0 0 20 20" fill="none" xmlns="http://www.w3.org/2000/svg">
  <path d="M5.62501 8.125H8.12501V11.875H5.62501V8.125ZM18.125 4.375V16.875C18.1256 16.9817 18.0986 17.0867 18.0466 17.1798C17.9946 17.2729 17.9193 17.3509 17.8281 17.4063C17.7377 17.4631 17.6342 17.4958 17.5275 17.5013C17.4208 17.5068 17.3145 17.4848 17.2188 17.4375L15 16.3203L12.7813 17.4375C12.6932 17.4787 12.5972 17.5 12.5 17.5C12.4028 17.5 12.3068 17.4787 12.2188 17.4375L10 16.3203L7.78126 17.4375C7.69352 17.4797 7.59739 17.5017 7.50001 17.5017C7.40263 17.5017 7.3065 17.4797 7.21876 17.4375L5.00001 16.3203L2.78126 17.4375C2.68548 17.4848 2.57918 17.5068 2.4725 17.5013C2.36582 17.4958 2.26232 17.4631 2.17189 17.4063C2.08072 17.3509 2.00545 17.2729 1.95342 17.1798C1.90139 17.0867 1.87437 16.9817 1.87501 16.875V4.375C1.87501 4.04348 2.00671 3.72554 2.24113 3.49112C2.47555 3.2567 2.79349 3.125 3.12501 3.125H16.875C17.2065 3.125 17.5245 3.2567 17.7589 3.49112C17.9933 3.72554 18.125 4.04348 18.125 4.375ZM9.37501 7.5C9.37501 7.33424 9.30916 7.17527 9.19195 7.05806C9.07474 6.94085 8.91577 6.875 8.75001 6.875H5.00001C4.83425 6.875 4.67528 6.94085 4.55807 7.05806C4.44086 7.17527 4.37501 7.33424 4.37501 7.5V12.5C4.37501 12.6658 4.44086 12.8247 4.55807 12.9419C4.67528 13.0592 4.83425 13.125 5.00001 13.125H8.75001C8.91577 13.125 9.07474 13.0592 9.19195 12.9419C9.30916 12.8247 9.37501 12.6658 9.37501 12.5V7.5ZM15.625 11.25C15.625 11.0842 15.5592 10.9253 15.442 10.8081C15.3247 10.6908 15.1658 10.625 15 10.625H11.25C11.0843 10.625 10.9253 10.6908 10.8081 10.8081C10.6909 10.9253 10.625 11.0842 10.625 11.25C10.625 11.4158 10.6909 11.5747 10.8081 11.6919C10.9253 11.8092 11.0843 11.875 11.25 11.875H15C15.1658 11.875 15.3247 11.8092 15.442 11.6919C15.5592 11.5747 15.625 11.4158 15.625 11.25ZM15.625 8.75C15.625 8.58424 15.5592 8.42527 15.442 8.30806C15.3247 8.19085 15.1658 8.125 15 8.125H11.25C11.0843 8.125 10.9253 8.19085 10.8081 8.30806C10.6909 8.42527 10.625 8.58424 10.625 8.75C10.625 8.91576 10.6909 9.07473 10.8081 9.19194C10.9253 9.30915 11.0843 9.375 11.25 9.375H15C15.1658 9.375 15.3247 9.30915 15.442 9.19194C15.5592 9.07473 15.625 8.91576 15.625 8.75Z" fill="black"/>
</svg>
