<svg width="48" height="48" viewBox="0 0 48 48" fill="none" xmlns="http://www.w3.org/2000/svg">
  <rect width="48" height="48" rx="24" fill="#DBDBDB"/>
  <path d="M23.708 30.724C25.804 30.724 27.484 29.46 27.484 27.38C27.484 25.764 26.364 24.724 24.988 24.388V24.324C26.236 23.876 27.068 22.932 27.068 21.508C27.068 19.636 25.628 18.564 23.66 18.564C22.316 18.564 21.276 19.156 20.396 19.956L21.18 20.9C21.836 20.228 22.668 19.748 23.612 19.748C24.828 19.748 25.58 20.484 25.58 21.604C25.58 22.884 24.764 23.844 22.348 23.844V24.98C25.052 24.98 25.996 25.908 25.996 27.316C25.996 28.66 25.004 29.508 23.612 29.508C22.268 29.508 21.388 28.868 20.7 28.148L19.964 29.108C20.732 29.956 21.868 30.724 23.708 30.724Z" fill="white"/>
</svg>
