<svg width="28" height="29" viewBox="0 0 28 29" fill="none" xmlns="http://www.w3.org/2000/svg">
  <path d="M7.58329 14.4997C9.2851 14.4997 10.9172 15.1757 12.1206 16.3791C13.3239 17.5824 14 19.2145 14 20.9163C14 22.6181 13.3239 24.2503 12.1206 25.4536C10.9172 26.657 9.2851 27.333 7.58329 27.333C5.88149 27.333 4.24938 26.657 3.04602 25.4536C1.84267 24.2503 1.16663 22.6181 1.16663 20.9163C1.16663 19.2145 1.84267 17.5824 3.04602 16.3791C4.24938 15.1757 5.88149 14.4997 7.58329 14.4997ZM19.5405 2.83301C20.2367 2.83301 20.9043 3.10957 21.3966 3.60185C21.8889 4.09414 22.1655 4.76181 22.1655 5.45801V23.5413C22.1655 24.2375 21.8889 24.9052 21.3966 25.3975C20.9043 25.8898 20.2367 26.1663 19.5405 26.1663H13.0538C14.2609 24.9094 14.9983 23.275 15.1418 21.5382C15.2854 19.8014 14.8263 18.0681 13.8419 16.63C12.8575 15.1919 11.4078 14.1368 9.73673 13.6422C8.06566 13.1475 6.27522 13.2435 4.66663 13.914V5.45917C4.66647 5.11426 4.7343 4.77269 4.86622 4.454C4.99814 4.13531 5.19158 3.84575 5.43547 3.60185C5.67936 3.35796 5.96893 3.16452 6.28762 3.0326C6.60631 2.90068 6.94788 2.83285 7.29279 2.83301H19.5416H19.5405ZM7.58329 23.693C7.48516 23.6891 7.38725 23.705 7.29543 23.7399C7.2036 23.7747 7.11977 23.8277 7.04895 23.8958C6.97813 23.9638 6.92178 24.0455 6.88329 24.1358C6.84481 24.2262 6.82497 24.3234 6.82497 24.4216C6.82497 24.5198 6.84481 24.617 6.88329 24.7074C6.92178 24.7977 6.97813 24.8794 7.04895 24.9474C7.11977 25.0154 7.2036 25.0685 7.29543 25.1033C7.38725 25.1382 7.48516 25.1541 7.58329 25.1502C7.77148 25.1426 7.94945 25.0626 8.07994 24.9268C8.21042 24.791 8.2833 24.6099 8.2833 24.4216C8.2833 24.2333 8.21042 24.0522 8.07994 23.9164C7.94945 23.7806 7.77148 23.7005 7.58329 23.693ZM7.58329 16.8365C6.36063 16.8365 5.40863 17.7897 5.42146 19.1162C5.42301 19.2709 5.48595 19.4186 5.59644 19.5269C5.70693 19.6352 5.85592 19.6952 6.01063 19.6937C6.16534 19.6921 6.31309 19.6292 6.4214 19.5187C6.5297 19.4082 6.58967 19.2592 6.58813 19.1045C6.58113 18.4302 7.00813 18.0032 7.58329 18.0032C8.13396 18.0032 8.57846 18.4605 8.57846 19.1115C8.57846 19.3728 8.49096 19.5665 8.20863 19.9013L8.09196 20.0332L7.78279 20.3715C7.21813 21.0038 6.99996 21.4122 6.99996 22.0842C6.99996 22.2389 7.06142 22.3873 7.17081 22.4967C7.28021 22.606 7.42858 22.6675 7.58329 22.6675C7.738 22.6675 7.88638 22.606 7.99577 22.4967C8.10517 22.3873 8.16663 22.2389 8.16663 22.0842C8.16663 21.8123 8.25529 21.614 8.54463 21.2733L8.66129 21.1392L8.97163 20.8008C9.52929 20.1767 9.74513 19.7718 9.74513 19.1115C9.74513 17.8235 8.78613 16.8365 7.58329 16.8365ZM24.2083 18.002C24.4197 18.002 24.624 18.0786 24.7834 18.2176C24.9427 18.3565 25.0464 18.5485 25.0751 18.758L25.0833 18.877V20.6247C25.0833 20.8361 25.0067 21.0404 24.8677 21.1998C24.7288 21.3591 24.5368 21.4628 24.3273 21.4915L24.2083 21.4997H23.3333V18.002H24.2083ZM24.2083 13.3353C24.4197 13.3353 24.624 13.4119 24.7834 13.5509C24.9427 13.6899 25.0464 13.8819 25.0751 14.0913L25.0833 14.2103V15.958C25.0833 16.1695 25.0067 16.3737 24.8677 16.5331C24.7288 16.6924 24.5368 16.7961 24.3273 16.8248L24.2083 16.833H23.3333V13.3353H24.2083ZM24.2083 8.66867C24.4197 8.66868 24.624 8.74526 24.7834 8.88424C24.9427 9.02321 25.0464 9.2152 25.0751 9.42467L25.0833 9.54367V11.2913C25.0833 11.5028 25.0067 11.7071 24.8677 11.8664C24.7288 12.0258 24.5368 12.1294 24.3273 12.1582L24.2083 12.1663H23.3333V8.66867H24.2083ZM17.206 6.91284H9.62729C9.41585 6.91285 9.21156 6.98942 9.05221 7.1284C8.89285 7.26738 8.78922 7.45936 8.76046 7.66884L8.75229 7.78784V9.54251C8.75229 9.98584 9.08246 10.351 9.50946 10.4093L9.62729 10.4175H17.206C17.4174 10.4175 17.6217 10.3409 17.781 10.2019C17.9404 10.063 18.044 9.87099 18.0728 9.66151L18.081 9.54251V7.78784C18.081 7.55578 17.9888 7.33322 17.8247 7.16912C17.6606 7.00503 17.438 6.91284 17.206 6.91284Z" fill="white"/>
</svg>
