<svg width="20" height="20" viewBox="0 0 20 20" fill="none" xmlns="http://www.w3.org/2000/svg">
  <g clip-path="url(#clip0_851_98911)">
    <path d="M8.15001 7.94444C9.99096 7.94444 11.4833 6.45205 11.4833 4.6111C11.4833 2.77016 9.99096 1.27777 8.15001 1.27777C6.30906 1.27777 4.81668 2.77016 4.81668 4.6111C4.81668 6.45205 6.30906 7.94444 8.15001 7.94444Z" fill="black"/>
    <path d="M9.13334 17.6778C8.94974 17.4962 8.82994 17.26 8.79188 17.0046C8.75382 16.7492 8.79955 16.4883 8.92223 16.2611L9.21667 15.7056L8.61111 15.5222C8.36418 15.4449 8.1492 15.2892 7.9988 15.0786C7.8484 14.8681 7.7708 14.6142 7.77778 14.3556V13.2167C7.77731 12.9591 7.8597 12.7083 8.01277 12.5012C8.16583 12.2941 8.38146 12.1418 8.62778 12.0667L9.23334 11.8833L8.94445 11.3278C8.82537 11.1037 8.78006 10.8477 8.81497 10.5963C8.84989 10.3449 8.96324 10.111 9.13889 9.92777C8.71149 9.87174 8.28105 9.84206 7.85 9.83888C6.57685 9.80891 5.31277 10.0603 4.14791 10.575C2.98306 11.0897 1.94614 11.8551 1.11111 12.8167V17.1222C1.11111 17.2696 1.16965 17.4109 1.27383 17.5151C1.37802 17.6192 1.51933 17.6778 1.66667 17.6778H9.13334Z" fill="black"/>
    <path d="M18.7222 13.0333L17.6111 12.7C17.5341 12.4256 17.426 12.1609 17.2889 11.9111L17.8445 10.8778C17.8659 10.8394 17.8738 10.7949 17.8667 10.7515C17.8597 10.7082 17.8381 10.6685 17.8056 10.6389L17 9.82778C16.969 9.79759 16.9294 9.77766 16.8867 9.7707C16.844 9.76375 16.8001 9.7701 16.7611 9.78889L15.7333 10.3444C15.4804 10.207 15.2142 10.0953 14.9389 10.0111L14.6 8.9C14.5851 8.85903 14.5579 8.82369 14.5221 8.79882C14.4862 8.77395 14.4436 8.76078 14.4 8.76111H13.2445C13.2011 8.76232 13.1592 8.77683 13.1245 8.80268C13.0897 8.82852 13.0637 8.86444 13.05 8.90556L12.7167 10.0167C12.436 10.0983 12.1657 10.212 11.9111 10.3556L10.9056 9.8C10.8665 9.77923 10.8218 9.77127 10.778 9.77725C10.7341 9.78323 10.6932 9.80285 10.6611 9.83334L9.84446 10.6333C9.8123 10.6643 9.79111 10.7049 9.7841 10.749C9.77708 10.7932 9.78462 10.8383 9.80557 10.8778L10.3611 11.8889C10.2123 12.1398 10.0912 12.4062 10 12.6833L8.8889 13.0222C8.84687 13.0344 8.80999 13.06 8.7839 13.0951C8.75781 13.1302 8.74395 13.1729 8.74446 13.2167V14.3556C8.74395 14.3993 8.75781 14.442 8.7839 14.4771C8.80999 14.5123 8.84687 14.5379 8.8889 14.55L10 14.8889C10.0833 15.161 10.195 15.4235 10.3333 15.6722L9.77779 16.7278C9.75684 16.7672 9.7493 16.8124 9.75632 16.8565C9.76334 16.9006 9.78453 16.9412 9.81668 16.9722L10.6445 17.7778C10.6766 17.8083 10.7174 17.8279 10.7613 17.8339C10.8052 17.8399 10.8498 17.8319 10.8889 17.8111L11.9278 17.2556C12.175 17.3885 12.4358 17.4947 12.7056 17.5722L13.0389 18.7111C13.0529 18.7531 13.0797 18.7897 13.1156 18.8156C13.1515 18.8415 13.1946 18.8555 13.2389 18.8556H14.3778C14.4211 18.8543 14.463 18.8398 14.4978 18.814C14.5326 18.7882 14.5586 18.7522 14.5722 18.7111L14.9056 17.5722C15.1722 17.4957 15.4293 17.3894 15.6722 17.2556L16.7222 17.8111C16.7613 17.8319 16.806 17.8399 16.8498 17.8339C16.8937 17.8279 16.9346 17.8083 16.9667 17.7778L17.7778 16.9722C17.8083 16.9401 17.8279 16.8992 17.8339 16.8554C17.8399 16.8115 17.8319 16.7669 17.8111 16.7278L17.2556 15.6833C17.3885 15.4399 17.4946 15.1829 17.5722 14.9167L18.6833 14.5778C18.7251 14.5644 18.7618 14.5386 18.7886 14.5039C18.8153 14.4691 18.831 14.4271 18.8333 14.3833V13.2333C18.8347 13.1931 18.8251 13.1532 18.8055 13.1179C18.7859 13.0827 18.7572 13.0535 18.7222 13.0333ZM13.8167 15.6556C13.4495 15.6567 13.0902 15.5488 12.7843 15.3455C12.4784 15.1423 12.2397 14.8529 12.0984 14.514C11.9571 14.175 11.9196 13.8017 11.9905 13.4414C12.0615 13.0811 12.2378 12.75 12.4971 12.4899C12.7564 12.2298 13.087 12.0526 13.4471 11.9805C13.8072 11.9085 14.1805 11.9449 14.5199 12.0852C14.8593 12.2254 15.1494 12.4633 15.3536 12.7685C15.5577 13.0738 15.6667 13.4328 15.6667 13.8C15.6667 14.2912 15.472 14.7623 15.1252 15.1101C14.7784 15.4579 14.3078 15.6541 13.8167 15.6556Z" fill="black"/>
  </g>
  <defs>
    <clipPath id="clip0_851_98911">
      <rect width="20" height="20" fill="white"/>
    </clipPath>
  </defs>
</svg>
