<svg width="20" height="20" viewBox="0 0 20 20" fill="none" xmlns="http://www.w3.org/2000/svg">
  <path d="M6.7857 10C7.20781 10 7.62578 9.91686 8.01575 9.75532C8.40573 9.59379 8.76007 9.35703 9.05854 9.05855C9.35702 8.76008 9.59378 8.40574 9.75531 8.01577C9.91685 7.62579 9.99999 7.20782 9.99999 6.78571C9.99999 6.36361 9.91685 5.94563 9.75531 5.55566C9.59378 5.16568 9.35702 4.81134 9.05854 4.51287C8.76007 4.21439 8.40573 3.97763 8.01575 3.8161C7.62578 3.65457 7.20781 3.57143 6.7857 3.57143C5.93322 3.57143 5.11565 3.91007 4.51286 4.51287C3.91006 5.11566 3.57142 5.93323 3.57142 6.78571C3.57142 7.63819 3.91006 8.45576 4.51286 9.05855C5.11565 9.66135 5.93322 10 6.7857 10ZM16.7857 7.5C16.7857 7.8283 16.721 8.15339 16.5954 8.45671C16.4698 8.76002 16.2856 9.03562 16.0535 9.26776C15.8213 9.49991 15.5457 9.68406 15.2424 9.8097C14.9391 9.93533 14.614 10 14.2857 10C13.9574 10 13.6323 9.93533 13.329 9.8097C13.0257 9.68406 12.7501 9.49991 12.5179 9.26776C12.2858 9.03562 12.1016 8.76002 11.976 8.45671C11.8504 8.15339 11.7857 7.8283 11.7857 7.5C11.7857 6.83696 12.0491 6.20107 12.5179 5.73223C12.9868 5.26339 13.6227 5 14.2857 5C14.9487 5 15.5846 5.26339 16.0535 5.73223C16.5223 6.20107 16.7857 6.83696 16.7857 7.5ZM1.42856 13.0357C1.42856 12.6095 1.59788 12.2007 1.89928 11.8993C2.20068 11.5979 2.60946 11.4286 3.0357 11.4286H10.5357C10.7043 11.4286 10.8671 11.4543 11.02 11.5029C10.9004 11.6406 10.8124 11.8028 10.7622 11.9781C10.7121 12.1535 10.7009 12.3377 10.7295 12.5178C10.758 12.6979 10.8257 12.8696 10.9277 13.0208C11.0298 13.1719 11.1636 13.2989 11.32 13.3929C11.1382 13.5019 10.9871 13.6555 10.8811 13.8391C10.775 14.0227 10.7174 14.2302 10.7137 14.4422C10.71 14.6542 10.7603 14.8636 10.8598 15.0508C10.9594 15.238 11.105 15.3967 11.2828 15.5121C11.2417 15.5606 11.1993 15.608 11.1557 15.6543C11.1027 15.699 11.0535 15.7479 11.0086 15.8007C10.24 16.5307 8.94999 17.1429 6.7857 17.1429C1.42856 17.1429 1.42856 13.3929 1.42856 13.3929V13.0357ZM11.9643 11.7857C11.8222 11.7857 11.6859 11.8422 11.5855 11.9426C11.485 12.0431 11.4286 12.1793 11.4286 12.3214C11.4286 12.4635 11.485 12.5998 11.5855 12.7002C11.6859 12.8007 11.8222 12.8571 11.9643 12.8571H18.0357C18.1778 12.8571 18.314 12.8007 18.4145 12.7002C18.515 12.5998 18.5714 12.4635 18.5714 12.3214C18.5714 12.1793 18.515 12.0431 18.4145 11.9426C18.314 11.8422 18.1778 11.7857 18.0357 11.7857H11.9643ZM11.9643 13.9286C11.8222 13.9286 11.6859 13.985 11.5855 14.0855C11.485 14.1859 11.4286 14.3222 11.4286 14.4643C11.4286 14.6064 11.485 14.7426 11.5855 14.8431C11.6859 14.9436 11.8222 15 11.9643 15H18.0357C18.1778 15 18.314 14.9436 18.4145 14.8431C18.515 14.7426 18.5714 14.6064 18.5714 14.4643C18.5714 14.3222 18.515 14.1859 18.4145 14.0855C18.314 13.985 18.1778 13.9286 18.0357 13.9286H11.9643ZM11.9643 16.0714C11.8222 16.0714 11.6859 16.1279 11.5855 16.2283C11.485 16.3288 11.4286 16.4651 11.4286 16.6071C11.4286 16.7492 11.485 16.8855 11.5855 16.9859C11.6859 17.0864 11.8222 17.1429 11.9643 17.1429H18.0357C18.1778 17.1429 18.314 17.0864 18.4145 16.9859C18.515 16.8855 18.5714 16.7492 18.5714 16.6071C18.5714 16.4651 18.515 16.3288 18.4145 16.2283C18.314 16.1279 18.1778 16.0714 18.0357 16.0714H11.9643Z" fill="black"/>
</svg>
