<svg width="18" height="16" viewBox="0 0 18 16" fill="none" xmlns="http://www.w3.org/2000/svg">
<path d="M5.24984 10.5H6.49984V7.16667H5.24984V8.20833H3.99984V9.45833H5.24984V10.5ZM7.33317 9.45833H13.9998V8.20833H7.33317V9.45833ZM11.4998 7.16667H12.7498V6.125H13.9998V4.875H12.7498V3.83333H11.4998V7.16667ZM3.99984 6.125H10.6665V4.875H3.99984V6.125ZM5.6665 15.5V13.8333H2.33317C1.87484 13.8333 1.48262 13.6703 1.1565 13.3442C0.829837 13.0175 0.666504 12.625 0.666504 12.1667V2.16667C0.666504 1.70833 0.829837 1.31583 1.1565 0.989167C1.48262 0.663055 1.87484 0.5 2.33317 0.5H15.6665C16.1248 0.5 16.5173 0.663055 16.844 0.989167C17.1701 1.31583 17.3332 1.70833 17.3332 2.16667V12.1667C17.3332 12.625 17.1701 13.0175 16.844 13.3442C16.5173 13.6703 16.1248 13.8333 15.6665 13.8333H12.3332V15.5H5.6665ZM2.33317 12.1667H15.6665V2.16667H2.33317V12.1667ZM2.33317 12.1667V2.16667V12.1667Z" fill="white"/>
</svg>
