<svg width="692" height="459" viewBox="0 0 692 459" fill="none" xmlns="http://www.w3.org/2000/svg">
  <g clip-path="url(#clip0_2479_24534)">
  <path d="M584.857 30.2823C580.024 32.8764 574.006 31.0638 571.41 26.223C568.814 21.393 570.628 15.3691 575.462 12.775C580.295 10.1809 586.335 12.0044 588.92 16.8344C591.527 21.6752 589.702 27.6883 584.857 30.2823ZM595.133 37.9343L601.531 27.634L598.37 25.6803C597.447 25.105 596.936 24.0522 597.034 22.9668C597.088 22.3699 597.11 21.762 597.088 21.1542C597.066 20.0688 597.631 19.0486 598.587 18.5384L601.857 16.7801L596.121 6.08903L592.852 7.84736C591.896 8.35749 590.734 8.27066 589.843 7.65199C589.344 7.30467 588.833 6.9899 588.301 6.69685C587.345 6.17586 586.748 5.1773 586.78 4.08106L586.9 0.369032L574.777 0L574.669 3.72288C574.636 4.81913 573.963 5.76341 572.974 6.23013C572.703 6.36038 572.442 6.49062 572.181 6.63172C571.921 6.77282 571.66 6.92478 571.41 7.07673C570.476 7.64114 569.325 7.6737 568.401 7.09844L565.219 5.13389L558.821 15.4342L561.982 17.3988C562.905 17.974 563.416 19.0269 563.318 20.1123C563.264 20.7092 563.242 21.317 563.264 21.914C563.285 22.9994 562.721 24.0088 561.754 24.5298L558.484 26.2881L564.22 36.9792L567.489 35.2209C568.445 34.7107 569.607 34.7976 570.498 35.4162C570.997 35.7636 571.508 36.0783 572.04 36.3605C572.996 36.8815 573.594 37.8801 573.561 38.9763L573.452 42.6992L585.574 43.0791L585.694 39.3562C585.726 38.2708 586.4 37.3265 587.377 36.8598C587.649 36.7295 587.91 36.5993 588.181 36.4582C588.442 36.3171 588.703 36.1651 588.963 36.0132C589.897 35.4488 591.06 35.4162 591.994 35.9915L595.133 37.9343Z" fill="#ECEDEB"/>
  <path d="M68.8078 327.296C68.8078 331.138 65.6904 334.253 61.8452 334.253C58 334.253 54.8826 331.138 54.8826 327.296C54.8826 323.453 58 320.338 61.8452 320.338C65.6904 320.338 68.8078 323.453 68.8078 327.296ZM76.9326 323.497L72.6855 316.138L70.4371 317.44C69.7745 317.82 68.9599 317.788 68.319 317.364C67.9606 317.136 67.6021 316.919 67.2219 316.724C66.5376 316.377 66.1031 315.693 66.1031 314.933V312.328H57.5981V314.933C57.5981 315.693 57.1637 316.387 56.4794 316.724C56.0992 316.919 55.7299 317.126 55.3823 317.364C54.7414 317.788 53.9268 317.82 53.2642 317.44L51.0157 316.138L46.7687 323.497L49.028 324.799C49.6906 325.179 50.0599 325.906 50.0164 326.677C50.0056 326.883 50.0056 327.089 50.0056 327.306C50.0056 327.513 50.0164 327.73 50.0164 327.936C50.0599 328.696 49.6906 329.423 49.028 329.803L46.7578 331.116L51.0049 338.475L53.2642 337.173C53.9268 336.793 54.7414 336.825 55.3823 337.249C55.7299 337.477 56.0992 337.694 56.4794 337.878C57.1637 338.225 57.5981 338.909 57.5981 339.669V342.274H66.1031V339.669C66.1031 338.909 66.5376 338.225 67.2219 337.878C67.6021 337.683 67.9606 337.477 68.319 337.249C68.9599 336.825 69.7745 336.793 70.4371 337.173L72.6964 338.475L76.9435 331.116L74.6842 329.814C74.0216 329.434 73.6631 328.707 73.6957 327.947C73.7066 327.741 73.7066 327.524 73.7066 327.317C73.7066 327.111 73.7066 326.905 73.6957 326.688C73.6523 325.928 74.0216 325.19 74.6842 324.81L76.9326 323.497Z" fill="#ECEDEB"/>
  <path d="M42.3858 263.806C33.8482 263.806 26.929 256.892 26.929 248.361C26.929 239.83 33.8482 232.916 42.3858 232.916C50.9233 232.916 57.8425 239.83 57.8425 248.361C57.8533 256.892 50.9233 263.806 42.3858 263.806ZM42.3858 215.289C24.1049 215.289 9.28906 230.094 9.28906 248.361C9.28906 266.617 24.1049 281.433 42.3858 281.433C60.6666 281.433 75.4824 266.617 75.4824 248.361C75.4824 230.094 60.6666 215.289 42.3858 215.289Z" fill="#ECEDEB"/>
  <path d="M48.746 216.654H36.0156L36.7217 207.656H48.0399L48.746 216.654Z" fill="#ECEDEB"/>
  <path d="M24.5295 220.942L15.5248 229.94L9.64844 223.07L17.6538 215.07L24.5295 220.942Z" fill="#ECEDEB"/>
  <path d="M10.4296 241.086V253.807L1.41406 253.101V241.791L10.4296 241.086Z" fill="#ECEDEB"/>
  <path d="M14.7201 265.305L23.7139 274.292L16.8491 280.164L8.84375 272.164L14.7201 265.305Z" fill="#ECEDEB"/>
  <path d="M34.875 279.391H47.6053L46.8993 288.389H35.581L34.875 279.391Z" fill="#ECEDEB"/>
  <path d="M59.1016 275.099L68.1062 266.102L73.9717 272.972L65.9772 280.971L59.1016 275.099Z" fill="#ECEDEB"/>
  <path d="M73.2031 254.955V242.234L82.2186 242.94V254.25L73.2031 254.955Z" fill="#ECEDEB"/>
  <path d="M68.9078 230.742L59.9141 221.755L66.7789 215.883L74.7842 223.882L68.9078 230.742Z" fill="#ECEDEB"/>
  <path d="M651.417 100.717C642.879 100.717 635.96 93.803 635.96 85.2719C635.96 76.7407 642.879 69.8268 651.417 69.8268C659.955 69.8268 666.874 76.7407 666.874 85.2719C666.874 93.8139 659.955 100.717 651.417 100.717ZM651.417 52.2109C633.136 52.2109 618.32 67.0156 618.32 85.2827C618.32 103.55 633.136 118.355 651.417 118.355C669.698 118.355 684.514 103.539 684.514 85.2827C684.514 67.0156 669.687 52.2109 651.417 52.2109Z" fill="#ECEDEB"/>
  <path d="M657.774 53.576H645.055L645.761 44.5781H657.079L657.774 53.576Z" fill="#ECEDEB"/>
  <path d="M633.55 57.8641L624.545 66.8512L618.68 59.9915L626.685 51.9922L633.55 57.8641Z" fill="#ECEDEB"/>
  <path d="M619.45 78.0078V90.7286L610.445 90.0231V78.7133L619.45 78.0078Z" fill="#ECEDEB"/>
  <path d="M623.744 102.211L632.748 111.209L625.873 117.081L617.867 109.081L623.744 102.211Z" fill="#ECEDEB"/>
  <path d="M643.906 116.297H656.637L655.931 125.306H644.612L643.906 116.297Z" fill="#ECEDEB"/>
  <path d="M668.133 112.021L677.127 103.023L683.003 109.883L674.998 117.882L668.133 112.021Z" fill="#ECEDEB"/>
  <path d="M682.234 91.8692V79.1484L691.239 79.8539V91.1637L682.234 91.8692Z" fill="#ECEDEB"/>
  <path d="M677.942 67.6637L668.938 58.6658L675.813 52.8047L683.808 60.804L677.942 67.6637Z" fill="#ECEDEB"/>
  <path d="M564.255 279.422L563.191 285.978L562.039 293.022L551.547 357.266H534.406L544.888 293.022L546.04 285.978L547.104 279.422H564.255Z" fill="#ECEDEB"/>
  <path d="M561.761 279.422C560.859 285.923 559.882 292.425 558.904 298.926L555.884 318.398L552.713 337.848L551.073 347.563L549.367 357.266L550.758 347.508L552.224 337.762L555.244 318.29L558.415 298.839C559.512 292.371 560.599 285.891 561.761 279.422Z" fill="#C9C9C7"/>
  <path d="M563.185 285.977L562.034 293.021H544.883L546.034 285.977H563.185Z" fill="#C9C9C7"/>
  <path d="M648.898 279.422L649.963 285.978L651.114 293.022L661.596 357.266H678.747L668.265 293.022L667.114 285.978L666.05 279.422H648.898Z" fill="#ECEDEB"/>
  <path d="M651.438 279.422C652.339 285.923 653.317 292.425 654.294 298.926L657.314 318.398L660.486 337.848L662.126 347.563L663.831 357.266L662.441 347.508L660.974 337.762L657.944 318.29L654.772 298.839C653.686 292.371 652.6 285.891 651.438 279.422Z" fill="#C9C9C7"/>
  <path d="M649.961 285.977H667.112L668.263 293.021H651.112L649.961 285.977Z" fill="#C9C9C7"/>
  <path d="M563.62 261.351H550.031L551.715 248.695H561.936L563.62 261.351Z" fill="#C9C9C7"/>
  <path d="M569.497 239.64C569.497 246.63 563.827 252.307 556.832 252.307C549.837 252.307 544.156 246.641 544.156 239.64C544.156 232.639 549.826 226.984 556.832 226.984C563.827 226.974 569.497 232.639 569.497 239.64Z" fill="#DCDDDB"/>
  <path d="M566.457 239.643C566.457 244.961 562.145 249.27 556.822 249.27C551.5 249.27 547.188 244.961 547.188 239.643C547.188 234.325 551.5 230.016 556.822 230.016C562.145 230.016 566.457 234.325 566.457 239.643Z" fill="white"/>
  <path d="M564.88 239.081C564.706 236.726 563.511 234.566 561.73 233.177C559.949 231.777 557.591 231.136 555.256 231.484C552.997 231.82 550.944 233.155 549.684 235.098C548.413 237.041 547.979 239.591 548.674 242.044C549.228 244.052 550.629 245.8 552.432 246.798C554.224 247.819 556.375 248.133 558.33 247.699C560.296 247.287 562.067 246.191 563.272 244.671C564.5 243.162 565.227 241.263 565.304 239.309L565.227 239.135L565.13 239.298C565.097 240.091 564.923 240.872 564.684 241.621C564.424 242.359 564.054 243.065 563.62 243.716C563.164 244.356 562.631 244.931 562.045 245.452C561.437 245.952 560.774 246.386 560.046 246.744C558.004 247.721 555.571 247.797 553.475 246.896C551.378 246.028 549.695 244.204 549.01 242.012C548.283 239.678 548.641 237.193 549.858 235.272C551.063 233.35 553.073 232.026 555.278 231.711C558.319 231.277 561.393 232.384 563.261 234.881C563.707 235.499 564.065 236.172 564.337 236.878C564.597 237.594 564.76 238.343 564.836 239.114L564.869 239.135L564.88 239.081Z" fill="#ECEDEB"/>
  <path d="M563.749 239.088C563.576 237.069 562.544 235.235 561.023 234.041C559.492 232.858 557.493 232.304 555.494 232.576C553.561 232.847 551.779 233.976 550.672 235.647C549.553 237.308 549.151 239.522 549.737 241.66C550.204 243.419 551.432 244.949 553.007 245.817C554.571 246.707 556.45 246.979 558.145 246.588C559.85 246.219 561.381 245.253 562.424 243.94C563.478 242.626 564.108 240.987 564.184 239.294L564.108 239.142L564.01 239.283C563.869 242.062 562.098 244.493 559.611 245.698C557.862 246.555 555.744 246.631 553.919 245.861C552.105 245.112 550.639 243.527 550.063 241.617C549.444 239.598 549.781 237.449 550.834 235.81C551.888 234.171 553.626 233.053 555.505 232.804C558.101 232.467 560.697 233.39 562.316 235.506C562.707 236.027 563.011 236.602 563.25 237.21C563.478 237.818 563.619 238.458 563.706 239.121L563.739 239.142L563.749 239.088Z" fill="#ECEDEB"/>
  <path d="M562.621 239.097C562.447 237.404 561.578 235.906 560.308 234.918C559.037 233.941 557.397 233.475 555.713 233.681C554.105 233.876 552.595 234.81 551.64 236.199C550.673 237.577 550.314 239.455 550.782 241.279C551.162 242.776 552.204 244.101 553.551 244.839C554.887 245.598 556.495 245.815 557.94 245.468C559.384 245.143 560.677 244.318 561.557 243.189C562.447 242.071 562.969 240.692 563.045 239.26L562.969 239.129L562.882 239.249C562.741 241.582 561.253 243.612 559.178 244.643C557.712 245.381 555.908 245.468 554.377 244.817C552.834 244.187 551.596 242.831 551.129 241.213C550.629 239.509 550.923 237.697 551.824 236.34C552.726 234.983 554.192 234.072 555.746 233.887C556.832 233.768 557.885 233.887 558.852 234.256C559.819 234.625 560.699 235.244 561.383 236.112C561.709 236.546 561.959 237.013 562.176 237.512C562.371 238.012 562.502 238.543 562.589 239.097L562.621 239.108V239.097Z" fill="#ECEDEB"/>
  <path d="M561.49 239.111C561.317 237.743 560.6 236.582 559.589 235.8C558.579 235.04 557.298 234.661 555.951 234.791C554.669 234.921 553.431 235.637 552.627 236.766C551.823 237.873 551.497 239.404 551.856 240.923C552.138 242.161 553.007 243.279 554.126 243.886C555.234 244.505 556.57 244.679 557.765 244.386C558.949 244.103 560.002 243.409 560.719 242.475C561.436 241.553 561.86 240.435 561.925 239.263L561.849 239.154L561.762 239.252C561.632 241.151 560.415 242.758 558.753 243.637C557.58 244.255 556.092 244.342 554.843 243.821C553.583 243.311 552.562 242.193 552.203 240.869C551.812 239.469 552.084 237.993 552.833 236.929C553.583 235.844 554.778 235.149 556.005 235.04C556.863 234.975 557.689 235.073 558.449 235.355C559.209 235.637 559.915 236.115 560.458 236.788C560.719 237.124 560.926 237.493 561.11 237.884C561.273 238.286 561.382 238.698 561.469 239.143L561.501 239.154L561.49 239.111Z" fill="#ECEDEB"/>
  <path d="M662.823 261.351H649.234L650.918 248.695H661.139L662.823 261.351Z" fill="#C9C9C7"/>
  <path d="M668.704 239.64C668.704 246.63 663.034 252.307 656.028 252.307C649.032 252.307 643.352 246.641 643.352 239.64C643.352 232.639 649.022 226.984 656.028 226.984C663.034 226.974 668.704 232.639 668.704 239.64Z" fill="#DCDDDB"/>
  <path d="M665.66 239.643C665.66 244.961 661.348 249.27 656.025 249.27C650.703 249.27 646.391 244.961 646.391 239.643C646.391 234.325 650.703 230.016 656.025 230.016C661.348 230.016 665.66 234.325 665.66 239.643Z" fill="white"/>
  <path d="M664.083 239.081C663.909 236.726 662.714 234.566 660.933 233.177C659.152 231.777 656.795 231.136 654.459 231.484C652.2 231.82 650.147 233.155 648.887 235.098C647.616 237.041 647.182 239.591 647.877 242.044C648.431 244.052 649.843 245.8 651.635 246.798C653.427 247.819 655.578 248.133 657.533 247.699C659.499 247.287 661.27 246.191 662.486 244.671C663.714 243.162 664.441 241.263 664.518 239.309L664.441 239.135L664.355 239.298C664.322 240.091 664.148 240.872 663.909 241.621C663.648 242.359 663.279 243.065 662.845 243.716C662.388 244.356 661.856 244.931 661.27 245.452C660.661 245.952 659.999 246.386 659.271 246.744C657.229 247.721 654.796 247.797 652.7 246.896C650.603 246.028 648.92 244.204 648.235 242.012C647.507 239.678 647.866 237.193 649.082 235.272C650.288 233.35 652.298 232.026 654.503 231.711C657.544 231.277 660.618 232.384 662.486 234.881C662.932 235.499 663.29 236.172 663.562 236.878C663.822 237.594 663.985 238.343 664.072 239.114L664.105 239.135L664.083 239.081Z" fill="#ECEDEB"/>
  <path d="M662.957 239.088C662.784 237.069 661.752 235.235 660.231 234.041C658.699 232.858 656.701 232.304 654.702 232.576C652.769 232.847 650.987 233.976 649.89 235.647C648.771 237.308 648.37 239.522 648.956 241.66C649.423 243.419 650.651 244.949 652.226 245.817C653.79 246.707 655.669 246.979 657.363 246.588C659.069 246.219 660.6 245.253 661.643 243.94C662.697 242.626 663.327 240.987 663.403 239.294L663.327 239.142L663.229 239.283C663.088 242.062 661.317 244.493 658.83 245.698C657.081 246.555 654.963 246.631 653.138 245.861C651.324 245.112 649.858 243.527 649.282 241.617C648.663 239.598 649 237.449 650.053 235.81C651.107 234.171 652.845 233.053 654.724 232.804C657.32 232.467 659.916 233.39 661.524 235.506C661.915 236.027 662.219 236.602 662.458 237.21C662.686 237.818 662.827 238.458 662.914 239.121L662.946 239.142L662.957 239.088Z" fill="#ECEDEB"/>
  <path d="M661.828 239.097C661.655 237.404 660.775 235.906 659.515 234.918C658.244 233.941 656.604 233.475 654.92 233.681C653.313 233.876 651.803 234.81 650.847 236.199C649.88 237.577 649.522 239.455 650 241.279C650.38 242.776 651.423 244.101 652.769 244.839C654.105 245.598 655.713 245.815 657.158 245.468C658.602 245.143 659.895 244.318 660.775 243.189C661.655 242.071 662.187 240.692 662.263 239.26L662.187 239.129L662.1 239.249C661.959 241.582 660.471 243.612 658.396 244.643C656.93 245.381 655.126 245.468 653.595 244.817C652.052 244.187 650.814 242.831 650.347 241.213C649.847 239.509 650.141 237.697 651.042 236.34C651.944 234.983 653.41 234.072 654.964 233.887C656.05 233.768 657.103 233.887 658.07 234.256C659.037 234.625 659.917 235.244 660.59 236.112C660.916 236.546 661.177 237.013 661.383 237.512C661.579 238.012 661.709 238.543 661.796 239.097L661.828 239.108V239.097Z" fill="#ECEDEB"/>
  <path d="M660.693 239.111C660.52 237.743 659.803 236.582 658.793 235.8C657.782 235.04 656.501 234.661 655.143 234.791C653.861 234.921 652.623 235.637 651.819 236.766C651.015 237.873 650.679 239.404 651.048 240.923C651.33 242.161 652.199 243.279 653.318 243.886C654.426 244.505 655.762 244.679 656.957 244.386C658.152 244.103 659.194 243.409 659.911 242.475C660.628 241.553 661.052 240.435 661.117 239.263L661.041 239.154L660.943 239.252C660.813 241.151 659.596 242.758 657.934 243.637C656.761 244.255 655.273 244.342 654.024 243.821C652.764 243.311 651.743 242.193 651.385 240.869C650.994 239.469 651.265 237.993 652.015 236.929C652.764 235.844 653.959 235.149 655.186 235.04C656.055 234.975 656.87 235.073 657.63 235.355C658.391 235.637 659.097 236.115 659.64 236.788C659.9 237.124 660.107 237.493 660.292 237.884C660.454 238.286 660.563 238.698 660.65 239.143L660.683 239.154L660.693 239.111Z" fill="#ECEDEB"/>
  <path d="M691.998 254.891V287.55H521.148V254.891H691.998Z" fill="#DCDDDB"/>
  <path d="M556.27 254.891L543.866 287.55H521.805L534.198 254.891H556.27Z" fill="#ECEDEB"/>
  <path d="M601.5 254.891L589.095 287.55H567.023L579.428 254.891H601.5Z" fill="#ECEDEB"/>
  <path d="M646.715 254.891L634.311 287.55H612.25L624.655 254.891H646.715Z" fill="#ECEDEB"/>
  <path d="M691.945 254.891L679.54 287.55H657.469L669.873 254.891H691.945Z" fill="#ECEDEB"/>
  <path d="M688.543 317.75V338.416H524.602V317.75H688.543Z" fill="#DCDDDB"/>
  <path d="M558.298 317.75L546.405 338.416H525.234L537.128 317.75H558.298Z" fill="#ECEDEB"/>
  <path d="M601.703 317.75L589.798 338.416H568.617L580.522 317.75H601.703Z" fill="#ECEDEB"/>
  <path d="M645.088 317.75L633.194 338.416H612.023L623.917 317.75H645.088Z" fill="#ECEDEB"/>
  <path d="M688.489 317.75L676.584 338.416H655.414L667.308 317.75H688.489Z" fill="#ECEDEB"/>
  <path d="M671.945 445.663C671.945 453.033 583.354 459.013 474.082 459.013C364.799 459.013 276.219 453.033 276.219 445.663C276.219 438.293 364.81 432.312 474.082 432.312C583.365 432.312 671.945 438.293 671.945 445.663Z" fill="#ECEDEB"/>
  <path d="M0.648438 357.254L87.067 356.993L173.486 356.895L346.323 356.711L519.16 356.895L605.578 356.982L691.997 357.254L605.578 357.514L519.16 357.612L346.323 357.796L173.486 357.612L87.067 357.514L0.648438 357.254Z" fill="#002A34"/>
  <path d="M554.91 360.425H137.742V81.5781H554.91V360.425Z" fill="#DCDDDB"/>
  <path d="M551.881 357.026H140.773V84.9844H551.881V357.026Z" fill="#002A34"/>
  <path d="M609.238 400.479H83.4062V381.344H609.238V400.479Z" fill="#C9C9C7"/>
  <path d="M83.4062 381.337L137.738 360.422H554.906L609.238 381.337H83.4062Z" fill="#DCDDDB"/>
  <path d="M142.594 373.913L177.656 360.422H514.989L550.051 373.913H142.594Z" fill="#002A34"/>
  <path d="M528.951 336.46H163.703V105.555H528.951V336.46Z" fill="white"/>
  <path d="M528.951 114.444H163.703V105.555H528.951V114.444Z" fill="#2D5A66"/>
  <path d="M170.762 109.992C170.762 111.208 169.773 112.196 168.557 112.196C167.34 112.196 166.352 111.208 166.352 109.992C166.352 108.777 167.34 107.789 168.557 107.789C169.784 107.789 170.762 108.777 170.762 109.992Z" fill="#FBC70A"/>
  <path d="M179.777 109.992C179.777 111.208 178.789 112.196 177.572 112.196C176.356 112.196 175.367 111.208 175.367 109.992C175.367 108.777 176.356 107.789 177.572 107.789C178.789 107.789 179.777 108.777 179.777 109.992Z" fill="#ECEDEB"/>
  <path d="M188.769 109.992C188.769 111.208 187.781 112.196 186.564 112.196C185.348 112.196 184.359 111.208 184.359 109.992C184.359 108.777 185.348 107.789 186.564 107.789C187.792 107.789 188.769 108.777 188.769 109.992Z" fill="white"/>
  <path d="M338.367 265.063H404.908V214.039H338.367V265.063Z" fill="#ECEDEB"/>
  <path d="M344.979 225.198C344.175 229.453 347.835 233.111 352.093 232.308C354.472 231.863 356.395 229.942 356.84 227.565C357.644 223.31 353.983 219.652 349.725 220.455C347.347 220.9 345.435 222.821 344.979 225.198Z" fill="white"/>
  <path d="M360.312 254.07H404.901L382.612 226.609L360.312 254.07Z" fill="#C9C9C7"/>
  <path d="M338.367 254.087H377.916L358.136 236.211L338.367 254.087Z" fill="#DCDDDB"/>
  <path d="M404.908 265.065H338.367V254.07H404.908V265.065Z" fill="#DCDDDB"/>
  <path d="M231.722 218.24H181.734V214.039H231.722V218.24Z" fill="#DCDDDB"/>
  <path d="M326.395 227.99H181.734V223.789H326.395V227.99Z" fill="#DCDDDB"/>
  <path d="M326.395 237.232H181.734V233.031H326.395V237.232Z" fill="#DCDDDB"/>
  <path d="M326.395 246.482H181.734V242.281H326.395V246.482Z" fill="#DCDDDB"/>
  <path d="M326.395 255.732H181.734V251.531H326.395V255.732Z" fill="#DCDDDB"/>
  <path d="M326.395 264.974H181.734V260.773H326.395V264.974Z" fill="#DCDDDB"/>
  <path d="M352.206 142.784H302.219V131.539H352.206V142.784Z" fill="#DCDDDB"/>
  <path d="M404.909 154.732H302.219V150.531H404.909V154.732Z" fill="#DCDDDB"/>
  <path d="M404.909 163.982H302.219V159.781H404.909V163.982Z" fill="#DCDDDB"/>
  <path d="M404.909 173.232H302.219V169.031H404.909V173.232Z" fill="#DCDDDB"/>
  <path d="M404.909 182.474H302.219V178.273H404.909V182.474Z" fill="#DCDDDB"/>
  <path d="M404.909 194.771H302.219V190.57H404.909V194.771Z" fill="#DCDDDB"/>
  <path d="M404.909 204.021H302.219V199.82H404.909V204.021Z" fill="#DCDDDB"/>
  <path d="M510.907 142.99H419.492V131.539H510.907V142.99Z" fill="#FBC70A"/>
  <path d="M510.668 322.525H419.742V143.078H510.668V322.525Z" fill="white"/>
  <path d="M419.992 322.229H510.408V143.378H419.992V322.229ZM510.918 322.826H419.492V142.781H510.929V322.826H510.918Z" fill="#DCDDDB"/>
  <path d="M419.978 322.644L419.5 322.416L510.426 142.969L510.904 143.186L419.978 322.644Z" fill="#DCDDDB"/>
  <path d="M510.426 322.644L419.5 143.186L419.978 142.969L510.904 322.416L510.426 322.644Z" fill="#DCDDDB"/>
  <path d="M290.882 203.807L181.936 203.84L181.914 131.759L290.86 131.727L290.882 203.807Z" fill="white"/>
  <path d="M182.104 131.941L182.125 203.663L290.703 203.631L290.681 131.908L182.104 131.941ZM181.756 204.021V203.837L181.734 131.572H181.919L291.05 131.539L291.072 203.989H290.887L181.756 204.021Z" fill="#DCDDDB"/>
  <path d="M182.102 131.938C191.269 137.733 200.372 143.627 209.463 149.532L236.673 167.354L263.763 185.371L277.264 194.445L290.7 203.617L276.993 194.857L263.339 186.012L236.129 168.189L209.05 150.172C200.035 144.137 191.041 138.081 182.102 131.938Z" fill="#DCDDDB"/>
  <path d="M290.697 131.938C281.758 138.081 272.764 144.137 263.759 150.183L236.68 168.2L209.471 186.022L195.817 194.868L182.109 203.627L195.546 194.456L209.047 185.382L236.137 167.365L263.347 149.543C272.427 143.627 281.53 137.733 290.697 131.938Z" fill="#DCDDDB"/>
  <path d="M404.394 271.984V322.683H182.102V271.984H404.394Z" fill="white"/>
  <path d="M404.037 322.547V272.142H182.473V322.547H404.037ZM404.765 271.859V322.829H181.734V271.859H404.765Z" fill="#DCDDDB"/>
  <path d="M404.535 322.558L404.264 322.818L181.961 272.131L182.243 271.859L404.535 322.558Z" fill="#DCDDDB"/>
  <path d="M404.535 272.131L182.243 322.818L181.961 322.558L404.264 271.859L404.535 272.131Z" fill="#DCDDDB"/>
  <path d="M71.8224 114.399L69.4219 112.142L92.6232 87.5469L95.0238 89.8045L71.8224 114.399Z" fill="#002A34"/>
  <path d="M94.3912 115.956H70.625V112.656H94.3912V115.956Z" fill="#2D5A66"/>
  <path d="M94.3912 90.323H70.625V87.0234H94.3912V90.323Z" fill="#2D5A66"/>
  <path d="M92.6232 114.399L69.4219 89.8045L71.8224 87.5469L95.0238 112.142L92.6232 114.399Z" fill="#2D5A66"/>
  <path d="M71.8224 140.024L69.4219 137.767L92.6232 113.172L95.0238 115.429L71.8224 140.024Z" fill="#002A34"/>
  <path d="M94.3912 141.581H70.625V138.281H94.3912V141.581Z" fill="#2D5A66"/>
  <path d="M94.3912 115.956H70.625V112.656H94.3912V115.956Z" fill="#2D5A66"/>
  <path d="M92.6232 140.024L69.4219 115.429L71.8224 113.172L95.0238 137.767L92.6232 140.024Z" fill="#2D5A66"/>
  <path d="M71.8224 165.649L69.4219 163.392L92.6232 138.797L95.0238 141.054L71.8224 165.649Z" fill="#002A34"/>
  <path d="M94.3912 167.206H70.625V163.906H94.3912V167.206Z" fill="#2D5A66"/>
  <path d="M94.3912 141.581H70.625V138.281H94.3912V141.581Z" fill="#2D5A66"/>
  <path d="M92.6232 165.649L69.4219 141.054L71.8224 138.797L95.0238 163.392L92.6232 165.649Z" fill="#2D5A66"/>
  <path d="M71.8224 191.274L69.4219 189.017L92.6232 164.422L95.0238 166.679L71.8224 191.274Z" fill="#002A34"/>
  <path d="M94.3912 192.82H70.625V189.531H94.3912V192.82Z" fill="#2D5A66"/>
  <path d="M94.3912 167.206H70.625V163.906H94.3912V167.206Z" fill="#2D5A66"/>
  <path d="M92.6232 191.274L69.4219 166.679L71.8224 164.422L95.0238 189.017L92.6232 191.274Z" fill="#2D5A66"/>
  <path d="M71.8224 216.907L69.4219 214.65L92.6232 190.055L95.0238 192.312L71.8224 216.907Z" fill="#002A34"/>
  <path d="M94.3912 218.445H70.625V215.156H94.3912V218.445Z" fill="#2D5A66"/>
  <path d="M94.3912 192.82H70.625V189.531H94.3912V192.82Z" fill="#2D5A66"/>
  <path d="M92.6232 216.907L69.4219 192.312L71.8224 190.055L95.0238 214.65L92.6232 216.907Z" fill="#2D5A66"/>
  <path d="M71.8224 242.527L69.4219 240.259L92.6232 215.664L95.0238 217.933L71.8224 242.527Z" fill="#002A34"/>
  <path d="M94.3912 244.07H70.625V240.781H94.3912V244.07Z" fill="#2D5A66"/>
  <path d="M94.3912 218.445H70.625V215.156H94.3912V218.445Z" fill="#2D5A66"/>
  <path d="M92.6232 242.527L69.4219 217.933L71.8224 215.664L95.0238 240.259L92.6232 242.527Z" fill="#2D5A66"/>
  <path d="M71.8224 268.142L69.4219 265.884L92.6232 241.289L95.0238 243.547L71.8224 268.142Z" fill="#002A34"/>
  <path d="M94.3912 269.698H70.625V266.398H94.3912V269.698Z" fill="#2D5A66"/>
  <path d="M94.3912 244.07H70.625V240.781H94.3912V244.07Z" fill="#2D5A66"/>
  <path d="M92.6232 268.142L69.4219 243.547L71.8224 241.289L95.0238 265.884L92.6232 268.142Z" fill="#2D5A66"/>
  <path d="M71.8224 293.774L69.4219 291.517L92.6232 266.922L95.0238 269.179L71.8224 293.774Z" fill="#002A34"/>
  <path d="M94.3912 295.323H70.625V292.023H94.3912V295.323Z" fill="#2D5A66"/>
  <path d="M94.3912 269.698H70.625V266.398H94.3912V269.698Z" fill="#2D5A66"/>
  <path d="M92.6232 293.774L69.4219 269.179L71.8224 266.922L95.0238 291.517L92.6232 293.774Z" fill="#2D5A66"/>
  <path d="M71.8224 319.399L69.4219 317.142L92.6232 292.547L95.0238 294.804L71.8224 319.399Z" fill="#002A34"/>
  <path d="M94.3912 320.948H70.625V317.648H94.3912V320.948Z" fill="#2D5A66"/>
  <path d="M94.3912 295.323H70.625V292.023H94.3912V295.323Z" fill="#2D5A66"/>
  <path d="M92.6232 319.399L69.4219 294.804L71.8224 292.547L95.0238 317.142L92.6232 319.399Z" fill="#2D5A66"/>
  <path d="M71.8224 345.024L69.4219 342.767L92.6232 318.172L95.0238 320.429L71.8224 345.024Z" fill="#002A34"/>
  <path d="M94.3912 346.562H70.625V343.273H94.3912V346.562Z" fill="#2D5A66"/>
  <path d="M94.3912 320.948H70.625V317.648H94.3912V320.948Z" fill="#2D5A66"/>
  <path d="M92.6232 345.024L69.4219 320.429L71.8224 318.172L95.0238 342.767L92.6232 345.024Z" fill="#2D5A66"/>
  <path d="M71.8224 370.649L69.4219 368.392L92.6232 343.797L95.0238 346.054L71.8224 370.649Z" fill="#002A34"/>
  <path d="M94.3912 372.187H70.625V368.898H94.3912V372.187Z" fill="#2D5A66"/>
  <path d="M94.3912 346.562H70.625V343.273H94.3912V346.562Z" fill="#2D5A66"/>
  <path d="M92.6232 370.649L69.4219 346.054L71.8224 343.797L95.0238 368.392L92.6232 370.649Z" fill="#2D5A66"/>
  <path d="M64.8672 383.479V368.555H99.1478V383.479H64.8672Z" fill="#2D5A66"/>
  <path d="M64.8672 369.502V88.375H73.4591V369.502H64.8672Z" fill="#2D5A66"/>
  <path d="M90.5547 369.502V88.375H99.1466V369.502H90.5547Z" fill="#2D5A66"/>
  <path d="M324.959 86.3675L299.281 61.0888L82.5399 20.7232L16.6724 61.2734L14.9453 58.4622L81.899 17.25L300.878 58.028L327.273 84.0231L324.959 86.3675Z" fill="#2D5A66"/>
  <path d="M108.677 64.6248L82.2821 27.9604L57.017 64.5706L51.5859 60.8368L82.1626 16.5312L114.032 60.7825L108.677 64.6248Z" fill="#002A34"/>
  <path d="M297.457 89.5748L272.844 66.3909L275.103 63.9922L299.716 87.1761L297.457 89.5748Z" fill="#002A34"/>
  <path d="M301.26 88.3733H297.969V64.625H301.26V88.3733Z" fill="#2D5A66"/>
  <path d="M275.612 88.3733H272.32V64.625H275.612V88.3733Z" fill="#2D5A66"/>
  <path d="M275.103 89.5748L272.844 87.1761L297.457 63.9922L299.716 66.3909L275.103 89.5748Z" fill="#2D5A66"/>
  <path d="M271.809 89.5748L247.195 66.3909L249.455 63.9922L274.068 87.1761L271.809 89.5748Z" fill="#002A34"/>
  <path d="M275.612 88.3733H272.32V64.625H275.612V88.3733Z" fill="#2D5A66"/>
  <path d="M249.982 88.3733H246.68V64.625H249.982V88.3733Z" fill="#2D5A66"/>
  <path d="M249.455 89.5748L247.195 87.1761L271.809 63.9922L274.068 66.3909L249.455 89.5748Z" fill="#2D5A66"/>
  <path d="M246.168 89.5748L221.555 66.3909L223.814 63.9922L248.427 87.1761L246.168 89.5748Z" fill="#002A34"/>
  <path d="M249.982 88.3733H246.68V64.625H249.982V88.3733Z" fill="#2D5A66"/>
  <path d="M224.333 88.3733H221.031V64.625H224.333V88.3733Z" fill="#2D5A66"/>
  <path d="M223.814 89.5748L221.555 87.1761L246.168 63.9922L248.427 66.3909L223.814 89.5748Z" fill="#2D5A66"/>
  <path d="M220.52 89.5748L195.906 66.3909L198.166 63.9922L222.779 87.1761L220.52 89.5748Z" fill="#002A34"/>
  <path d="M224.333 88.3733H221.031V64.625H224.333V88.3733Z" fill="#2D5A66"/>
  <path d="M198.69 88.3733H195.398V64.625H198.69V88.3733Z" fill="#2D5A66"/>
  <path d="M198.166 89.5748L195.906 87.1761L220.52 63.9922L222.779 66.3909L198.166 89.5748Z" fill="#2D5A66"/>
  <path d="M194.879 89.5748L170.266 66.3909L172.536 63.9922L197.138 87.1761L194.879 89.5748Z" fill="#002A34"/>
  <path d="M198.69 88.3733H195.398V64.625H198.69V88.3733Z" fill="#2D5A66"/>
  <path d="M173.041 88.3733H169.75V64.625H173.041V88.3733Z" fill="#2D5A66"/>
  <path d="M172.536 89.5748L170.266 87.1761L194.879 63.9922L197.138 66.3909L172.536 89.5748Z" fill="#2D5A66"/>
  <path d="M169.231 89.5748L144.617 66.3909L146.887 63.9922L171.501 87.1761L169.231 89.5748Z" fill="#002A34"/>
  <path d="M173.041 88.3733H169.75V64.625H173.041V88.3733Z" fill="#2D5A66"/>
  <path d="M147.401 88.3733H144.109V64.625H147.401V88.3733Z" fill="#2D5A66"/>
  <path d="M146.887 89.5748L144.617 87.1761L169.231 63.9922L171.501 66.3909L146.887 89.5748Z" fill="#2D5A66"/>
  <path d="M143.598 89.5748L118.984 66.3909L121.244 63.9922L145.857 87.1761L143.598 89.5748Z" fill="#002A34"/>
  <path d="M147.401 88.3733H144.109V64.625H147.401V88.3733Z" fill="#2D5A66"/>
  <path d="M121.752 88.3733H118.461V64.625H121.752V88.3733Z" fill="#2D5A66"/>
  <path d="M121.244 89.5748L118.984 87.1761L143.598 63.9922L145.857 66.3909L121.244 89.5748Z" fill="#2D5A66"/>
  <path d="M117.949 89.5748L93.3359 66.3909L95.5952 63.9922L120.209 87.1761L117.949 89.5748Z" fill="#002A34"/>
  <path d="M121.752 88.3733H118.461V64.625H121.752V88.3733Z" fill="#2D5A66"/>
  <path d="M96.1146 88.3733H92.8125V64.625H96.1146V88.3733Z" fill="#2D5A66"/>
  <path d="M95.5952 89.5748L93.3359 87.1761L117.949 63.9922L120.209 66.3909L95.5952 89.5748Z" fill="#2D5A66"/>
  <path d="M92.3087 89.5748L67.6953 66.3909L69.9546 63.9922L94.568 87.1761L92.3087 89.5748Z" fill="#002A34"/>
  <path d="M96.1146 88.3733H92.8125V64.625H96.1146V88.3733Z" fill="#2D5A66"/>
  <path d="M70.4739 88.3733H67.1719V64.625H70.4739V88.3733Z" fill="#2D5A66"/>
  <path d="M69.9546 89.5748L67.6953 87.1761L92.3087 63.9922L94.568 66.3909L69.9546 89.5748Z" fill="#2D5A66"/>
  <path d="M66.6603 89.5748L42.0469 66.3909L44.3062 63.9922L68.9196 87.1761L66.6603 89.5748Z" fill="#002A34"/>
  <path d="M70.4739 88.3733H67.1719V64.625H70.4739V88.3733Z" fill="#2D5A66"/>
  <path d="M44.8255 88.3733H41.5234V64.625H44.8255V88.3733Z" fill="#2D5A66"/>
  <path d="M44.3062 89.5748L42.0469 87.1761L66.6603 63.9922L68.9196 66.3909L44.3062 89.5748Z" fill="#2D5A66"/>
  <path d="M41.0119 89.5748L16.3984 66.3909L18.6577 63.9922L43.2712 87.1761L41.0119 89.5748Z" fill="#002A34"/>
  <path d="M44.8255 88.3733H41.5234V64.625H44.8255V88.3733Z" fill="#2D5A66"/>
  <path d="M19.1818 88.3733H15.8906V64.625H19.1818V88.3733Z" fill="#2D5A66"/>
  <path d="M18.6577 89.5748L16.3984 87.1761L41.0119 63.9922L43.2712 66.3909L18.6577 89.5748Z" fill="#2D5A66"/>
  <path d="M14.9136 92.672H0V58.4062H14.9136V92.672Z" fill="#002A34"/>
  <path d="M29.8385 92.672H14.9141V58.4062H29.8385V92.672Z" fill="#2D5A66"/>
  <path d="M49.5621 109.756H20.9297V92.6719H49.5621V109.756Z" fill="#2D5A66"/>
  <path d="M327.274 92.6714H14.9141V84.0859H327.274V92.6714Z" fill="#2D5A66"/>
  <path d="M309.45 66.9917H14.9141V58.4062H301.053L309.45 66.9917Z" fill="#2D5A66"/>
  <path d="M306.877 88.3733H303.586V64.625H306.877V88.3733Z" fill="#2D5A66"/>
  <path d="M186.57 186.025L207.208 182.726L227.846 179.535L269.165 173.316L269.274 173.305L269.383 173.326L338.15 191.148L372.507 200.157L406.831 209.274L372.377 200.678L337.933 191.973L269.111 174.368L269.328 174.379L227.976 180.349L207.284 183.236L186.57 186.025Z" fill="#002A34"/>
  <path d="M256.63 144.789H253.328V96.1641H256.63V144.789Z" fill="#002A34"/>
  <path d="M284.513 145.875H281.211V97.25H284.513V145.875Z" fill="#002A34"/>
  <path d="M290.873 99.6618H247.414V92.6719H290.873V99.6618Z" fill="#2D5A66"/>
  <path d="M270.787 152.977L270.418 160.281L269.364 159.022C270.624 159.348 271.645 159.804 272.688 160.455C273.698 161.084 274.643 161.942 275.295 163.016C276.642 165.198 276.446 167.998 275.121 169.963C273.829 171.971 271.493 173.089 269.234 173.002C266.931 172.926 264.987 171.482 263.781 169.746C265.172 171.363 267.17 172.503 269.234 172.362C271.254 172.231 273.155 171.027 274.024 169.301C274.926 167.629 274.795 165.48 273.698 164.08C272.645 162.669 270.668 161.833 268.919 161.54L267.92 161.377L267.865 160.281L267.496 152.977H270.787Z" fill="#002A34"/>
  <path d="M290.878 137.984V149.902L269.143 155.058L247.43 149.902V137.984H290.878Z" fill="#2D5A66"/>
  <path d="M257.384 144.979C257.384 146.368 256.254 147.497 254.864 147.497C253.473 147.497 252.344 146.368 252.344 144.979C252.344 143.59 253.473 142.461 254.864 142.461C256.254 142.461 257.384 143.59 257.384 144.979Z" fill="#002A34"/>
  <path d="M285.946 144.979C285.946 146.368 284.817 147.497 283.426 147.497C282.036 147.497 280.906 146.368 280.906 144.979C280.906 143.59 282.036 142.461 283.426 142.461C284.817 142.461 285.946 143.59 285.946 144.979Z" fill="#002A34"/>
  <path d="M179.789 235.693L401.429 259.506L406.828 209.274L185.198 185.461L179.789 235.693Z" fill="#FBC70A"/>
  <path d="M300.969 237.763L402.594 248.682L354.714 215.914L300.969 237.763Z" fill="#FBC70A"/>
  <path d="M402.594 248.682L340.995 242.061L318.891 230.469L354.714 215.914L402.594 248.682Z" fill="#DDA600"/>
  <path d="M250.922 232.417L341.044 242.099L297.9 219.469L250.922 232.417Z" fill="#FBC70A"/>
  <path d="M340.995 242.067L250.992 232.396L297.905 219.469L340.995 242.067Z" fill="#F6BA00"/>
  <path d="M401.429 259.502L179.789 235.689L180.962 224.867L402.592 248.681L401.429 259.502Z" fill="#FBC70A"/>
  <path d="M401.429 259.502L179.789 235.689L180.962 224.867L402.592 248.681L401.429 259.502Z" fill="#F6BA00"/>
  <path d="M205.703 211.171C205.453 211.171 205.214 211.16 204.964 211.127C201.184 210.726 198.458 207.339 198.86 203.562C199.24 200.045 202.216 197.43 205.692 197.43C205.942 197.43 206.181 197.441 206.43 197.473C210.21 197.875 212.937 201.261 212.524 205.038C212.144 208.555 209.168 211.171 205.703 211.171Z" fill="#FFE9A6"/>
  <path d="M87.7868 18.9869C87.7868 22.0585 85.2994 24.5441 82.2254 24.5441C79.1515 24.5441 76.6641 22.0585 76.6641 18.9869C76.6641 15.9152 79.1515 13.4297 82.2254 13.4297C85.2885 13.4297 87.7868 15.9152 87.7868 18.9869Z" fill="#A7A8A6"/>
  <path d="M84.8249 18.9847C84.8249 20.4174 83.6626 21.5788 82.2288 21.5788C80.7951 21.5788 79.6328 20.4174 79.6328 18.9847C79.6328 17.552 80.7951 16.3906 82.2288 16.3906C83.6626 16.3906 84.8249 17.552 84.8249 18.9847Z" fill="#2D5A66"/>
  <path d="M106.004 394.808H58.0156V383.477H106.004V394.808Z" fill="#002A34"/>
  <path d="M116.41 417.041H47.6094V394.812H116.41V417.041Z" fill="#2D5A66"/>
  <path d="M109.91 112.489H58.5547V55.6797H92.0967C97.9731 55.6797 102.937 60.0321 103.708 65.8498L109.91 112.489Z" fill="#FBC70A"/>
  <path d="M95.9468 95.225H71.8657C71.5833 95.225 71.3334 95.1924 71.0945 95.1056C69.9757 94.78 69.1719 93.7272 69.1719 92.5007V62.1641H86.2905C86.8662 62.1641 87.4419 62.2183 88.0067 62.3269C89.321 62.5548 90.5484 63.0541 91.602 63.7596C92.3624 64.2697 93.0358 64.8775 93.6006 65.5722C94.7412 66.9181 95.5124 68.5896 95.7622 70.4456L98.6406 92.1425C98.847 93.7814 97.5762 95.225 95.9468 95.225Z" fill="#002A34"/>
  <path d="M78.6212 95.2181H71.865C71.5825 95.2181 71.3327 95.1856 71.0938 95.0987L88.7446 77.472C89.2768 76.9402 89.9611 76.6797 90.6563 76.6797C91.3515 76.6797 92.0358 76.9402 92.568 77.472C93.1003 78.0039 93.361 78.6877 93.361 79.3823C93.361 80.077 93.1003 80.7607 92.568 81.2926L78.6212 95.2181Z" fill="#798588"/>
  <path d="M69.1562 89.9699V86.1711L91.5864 63.7578C92.3467 64.2679 93.0202 64.8758 93.585 65.5704L69.1562 89.9699Z" fill="#798588"/>
  <path d="M72.6874 76.7842C72.1661 76.7842 71.6447 76.5889 71.2537 76.1873C70.8626 75.7965 70.6562 75.2864 70.6562 74.7546C70.6562 74.2444 70.8518 73.7343 71.2537 73.3436L82.4416 62.1641H86.2759C86.8516 62.1641 87.4273 62.2183 87.9921 62.3269L74.1212 76.1873C73.7302 76.5889 73.2088 76.7842 72.6874 76.7842Z" fill="#798588"/>
  <path d="M54.9327 349.062L53.9008 356.432L52.782 364.366L42.5826 436.675H25.8984L36.0979 364.366L37.2167 356.432L38.2486 349.062H54.9327Z" fill="#FBC70A"/>
  <path d="M40.4609 436.67L41.8187 425.697L43.2416 414.724L46.1852 392.81L49.2701 370.917C49.5851 368.736 49.9001 366.543 50.2259 364.362H50.6061C50.3237 366.576 50.0304 368.79 49.748 371.004L46.8044 392.918L43.7196 414.811L42.1228 425.751L40.4609 436.67ZM51.6054 356.428H51.3882C51.7575 353.964 52.1268 351.511 52.5178 349.047C52.2245 351.511 51.9204 353.975 51.6054 356.428Z" fill="#F6BA00"/>
  <path d="M52.7779 364.369H50.6055C50.9422 361.731 51.2789 359.083 51.6156 356.445H53.8967L53.7989 357.097L53.7555 357.422L52.7779 364.369ZM50.2144 364.369H36.0938L37.2125 356.445H51.3984C50.9965 359.083 50.6055 361.72 50.2144 364.369Z" fill="#F6BA00"/>
  <path d="M50.5989 364.369H50.2188C50.6098 361.72 50.99 359.083 51.3919 356.445H51.6091C51.2832 359.083 50.9465 361.72 50.5989 364.369Z" fill="#DFA900"/>
  <path d="M137.297 349.062L138.329 356.432L139.448 364.366L149.658 436.675H166.342L156.132 364.366L155.013 356.432L153.981 349.062H137.297Z" fill="#FBC70A"/>
  <path d="M151.819 436.67L150.158 425.751L148.572 414.811L145.487 392.918L142.543 371.004C142.25 368.79 141.968 366.576 141.674 364.362H142.054C142.369 366.543 142.684 368.736 142.999 370.917L146.084 392.81L149.028 414.724L150.451 425.697L151.819 436.67ZM140.892 356.428H140.675C140.371 353.975 140.067 351.511 139.773 349.047C140.143 351.511 140.523 353.975 140.892 356.428Z" fill="#F6BA00"/>
  <path d="M156.131 364.369H142.054C141.663 361.72 141.283 359.083 140.881 356.445H155.012L156.131 364.369ZM141.674 364.369H139.447L138.328 356.445H140.663C141 359.083 141.337 361.72 141.674 364.369Z" fill="#F6BA00"/>
  <path d="M142.062 364.369H141.682C141.345 361.731 141.009 359.083 140.672 356.445H140.889C141.28 359.083 141.671 361.72 142.062 364.369Z" fill="#DFA900"/>
  <path d="M54.3237 333.889H41.0938L42.7448 321.57H52.6836L54.3237 333.889Z" fill="#FBC70A"/>
  <path d="M54.3237 333.889H41.0938L42.7448 321.57H52.6836L54.3237 333.889Z" fill="#F6BA00"/>
  <path d="M60.0319 312.764C60.0319 319.57 54.5139 325.084 47.7034 325.084C40.8929 325.084 35.375 319.57 35.375 312.764C35.375 305.959 40.8929 300.445 47.7034 300.445C54.5139 300.445 60.0319 305.959 60.0319 312.764Z" fill="#FBC70A"/>
  <path d="M57.0838 312.765C57.0838 317.932 52.8911 322.132 47.7099 322.132C42.5287 322.132 38.3359 317.943 38.3359 312.765C38.3359 307.588 42.5287 303.398 47.7099 303.398C52.8911 303.398 57.0838 307.588 57.0838 312.765Z" fill="white"/>
  <path d="M55.5514 312.226C55.3885 309.936 54.2262 307.83 52.4883 306.473C50.7504 305.117 48.4585 304.487 46.1883 304.824C43.9942 305.149 41.9955 306.452 40.7681 308.34C39.5299 310.229 39.1062 312.714 39.7797 315.091C40.3228 317.045 41.6914 318.738 43.4402 319.726C45.189 320.725 47.2854 321.028 49.1754 320.605C51.0871 320.204 52.8033 319.14 53.9873 317.664C55.1821 316.198 55.8881 314.353 55.9641 312.443L55.8881 312.28L55.8012 312.443C55.7686 313.214 55.5948 313.973 55.3667 314.701C55.106 315.428 54.7585 316.101 54.3348 316.73C53.8895 317.349 53.379 317.913 52.8033 318.413C52.2167 318.901 51.565 319.324 50.859 319.672C48.8712 320.627 46.5033 320.692 44.4612 319.824C42.4192 318.977 40.779 317.208 40.1273 315.07C39.4212 312.801 39.7688 310.381 40.9528 308.514C42.1259 306.647 44.0811 305.355 46.2317 305.041C49.1971 304.617 52.1842 305.703 53.9981 308.134C54.4326 308.731 54.7802 309.393 55.0409 310.077C55.2907 310.772 55.4536 311.499 55.5297 312.248L55.5623 312.269L55.5514 312.226Z" fill="#FBC70A"/>
  <path d="M54.4549 312.225C54.292 310.26 53.2818 308.48 51.8046 307.319C50.3165 306.168 48.3722 305.626 46.417 305.897C44.5379 306.157 42.7999 307.254 41.7246 308.882C40.6384 310.499 40.2473 312.648 40.8122 314.732C41.2684 316.447 42.4632 317.934 43.9839 318.781C45.5046 319.649 47.3403 319.909 48.9913 319.529C50.6532 319.171 52.1413 318.238 53.1623 316.946C54.1942 315.665 54.8025 314.07 54.8785 312.42L54.8025 312.279L54.7156 312.42C54.5744 315.123 52.8582 317.489 50.436 318.661C48.7306 319.497 46.6668 319.573 44.9072 318.824C43.1367 318.086 41.7137 316.555 41.1598 314.699C40.5623 312.735 40.8773 310.64 41.9092 309.045C42.9303 307.449 44.6248 306.364 46.4496 306.114C48.9804 305.788 51.5004 306.678 53.0754 308.741C53.4556 309.251 53.7489 309.804 53.9879 310.39C54.2051 310.987 54.3463 311.606 54.4332 312.246L54.4658 312.268L54.4549 312.225Z" fill="#FBC70A"/>
  <path d="M53.3564 312.231C53.1934 310.581 52.3353 309.127 51.1079 308.172C49.8697 307.217 48.2729 306.772 46.6436 306.967C45.0795 307.162 43.6131 308.063 42.6898 309.42C41.7557 310.766 41.3972 312.589 41.8535 314.369C42.2228 315.824 43.2329 317.115 44.5472 317.832C45.8507 318.57 47.4148 318.776 48.816 318.45C50.2281 318.136 51.4772 317.332 52.3353 316.236C53.1934 315.151 53.7148 313.805 53.78 312.416L53.704 312.296L53.6171 312.416C53.4867 314.695 52.0312 316.66 50.0109 317.669C48.5879 318.385 46.8283 318.472 45.3402 317.843C43.8412 317.224 42.6355 315.911 42.1793 314.348C41.6905 312.687 41.9838 310.918 42.8636 309.605C43.7326 308.28 45.1664 307.401 46.6762 307.217C47.7298 307.108 48.7617 307.228 49.6959 307.575C50.63 307.933 51.499 308.541 52.1507 309.377C52.4657 309.8 52.7155 310.256 52.9219 310.744C53.1174 311.233 53.2369 311.754 53.3238 312.285L53.3564 312.296V312.231Z" fill="#FBC70A"/>
  <path d="M52.2583 312.241C52.0954 310.917 51.3893 309.777 50.4118 309.018C49.4233 308.28 48.1742 307.911 46.8707 308.03C45.6216 308.16 44.4159 308.855 43.6447 309.951C42.8626 311.026 42.5368 312.523 42.8952 314C43.1776 315.204 44.014 316.29 45.1002 316.876C46.1864 317.484 47.479 317.646 48.6412 317.353C49.7926 317.082 50.8245 316.409 51.5088 315.497C52.204 314.597 52.6168 313.511 52.6819 312.371L52.6059 312.274L52.519 312.371C52.3886 314.217 51.2155 315.78 49.5862 316.637C48.4457 317.234 47.0011 317.321 45.7845 316.811C44.5571 316.311 43.5578 315.226 43.2102 313.945C42.83 312.589 43.0907 311.145 43.8185 310.103C44.5462 309.05 45.7085 308.366 46.9033 308.258C47.7397 308.193 48.5435 308.29 49.2821 308.562C50.0207 308.833 50.705 309.3 51.2373 309.962C51.498 310.288 51.6935 310.657 51.8673 311.036C52.0302 311.427 52.1388 311.829 52.2149 312.274L52.2474 312.285L52.2583 312.241Z" fill="#FBC70A"/>
  <path d="M150.839 333.889H137.609L139.26 321.57H149.199L150.839 333.889Z" fill="#FBC70A"/>
  <path d="M150.839 333.889H137.609L139.26 321.57H149.199L150.839 333.889Z" fill="#F6BA00"/>
  <path d="M156.555 312.764C156.555 319.57 151.037 325.084 144.227 325.084C137.416 325.084 131.898 319.57 131.898 312.764C131.898 305.959 137.416 300.445 144.227 300.445C151.037 300.445 156.555 305.959 156.555 312.764Z" fill="#FBC70A"/>
  <path d="M153.599 312.765C153.599 317.932 149.407 322.132 144.226 322.132C139.055 322.132 134.852 317.943 134.852 312.765C134.852 307.588 139.044 303.398 144.226 303.398C149.407 303.398 153.599 307.588 153.599 312.765Z" fill="white"/>
  <path d="M152.067 312.226C151.904 309.936 150.742 307.83 149.004 306.473C147.266 305.117 144.974 304.487 142.704 304.824C140.51 305.149 138.511 306.452 137.284 308.34C136.045 310.229 135.622 312.714 136.295 315.091C136.838 317.045 138.207 318.738 139.956 319.726C141.705 320.725 143.801 321.028 145.691 320.605C147.603 320.204 149.319 319.14 150.503 317.664C151.698 316.198 152.404 314.353 152.48 312.443L152.404 312.28L152.317 312.443C152.284 313.214 152.121 313.973 151.882 314.701C151.622 315.428 151.274 316.101 150.85 316.73C150.405 317.349 149.895 317.913 149.319 318.413C148.732 318.901 148.081 319.324 147.375 319.672C145.387 320.627 143.019 320.692 140.977 319.824C138.935 318.977 137.295 317.208 136.643 315.07C135.937 312.801 136.284 310.381 137.468 308.514C138.642 306.647 140.597 305.355 142.747 305.041C145.713 304.617 148.7 305.703 150.514 308.134C150.948 308.731 151.296 309.393 151.556 310.077C151.806 310.772 151.969 311.499 152.045 312.248L152.078 312.269L152.067 312.226Z" fill="#FBC70A"/>
  <path d="M150.971 312.225C150.808 310.26 149.797 308.48 148.32 307.319C146.832 306.168 144.888 305.626 142.933 305.897C141.053 306.157 139.316 307.254 138.24 308.882C137.154 310.499 136.763 312.648 137.328 314.732C137.784 316.447 138.968 317.934 140.5 318.781C142.02 319.649 143.856 319.909 145.507 319.529C147.169 319.171 148.657 318.238 149.678 316.946C150.699 315.665 151.318 314.07 151.394 312.42L151.318 312.279L151.231 312.42C151.09 315.123 149.374 317.489 146.952 318.661C145.246 319.497 143.182 319.573 141.423 318.824C139.652 318.086 138.229 316.555 137.675 314.699C137.078 312.735 137.393 310.64 138.425 309.045C139.446 307.449 141.14 306.364 142.965 306.114C145.496 305.788 148.016 306.678 149.591 308.741C149.971 309.251 150.265 309.804 150.503 310.39C150.732 310.987 150.862 311.606 150.949 312.246L150.981 312.268L150.971 312.225Z" fill="#FBC70A"/>
  <path d="M149.871 312.231C149.708 310.581 148.85 309.127 147.623 308.172C146.385 307.217 144.788 306.772 143.158 306.967C141.594 307.162 140.128 308.063 139.194 309.42C138.26 310.766 137.901 312.589 138.368 314.369C138.738 315.824 139.748 317.115 141.062 317.832C142.366 318.57 143.93 318.776 145.331 318.45C146.743 318.136 147.992 317.332 148.85 316.236C149.708 315.151 150.23 313.805 150.295 312.416L150.219 312.296L150.132 312.416C150.002 314.695 148.546 316.66 146.526 317.669C145.103 318.385 143.354 318.472 141.855 317.843C140.356 317.224 139.15 315.911 138.694 314.348C138.205 312.687 138.499 310.918 139.378 309.605C140.247 308.28 141.681 307.401 143.191 307.217C144.245 307.108 145.266 307.228 146.211 307.575C147.156 307.933 148.014 308.541 148.666 309.377C148.981 309.8 149.23 310.256 149.437 310.744C149.632 311.233 149.752 311.754 149.839 312.285L149.871 312.296V312.231Z" fill="#FBC70A"/>
  <path d="M148.774 312.241C148.611 310.917 147.905 309.777 146.927 309.018C145.939 308.28 144.69 307.911 143.386 308.03C142.137 308.16 140.932 308.855 140.16 309.951C139.378 311.026 139.052 312.523 139.411 314C139.693 315.204 140.53 316.29 141.616 316.876C142.702 317.484 143.995 317.646 145.157 317.353C146.308 317.082 147.329 316.409 148.024 315.497C148.72 314.597 149.132 313.511 149.198 312.371L149.122 312.274L149.035 312.371C148.904 314.217 147.731 315.78 146.102 316.637C144.961 317.234 143.517 317.321 142.289 316.811C141.062 316.311 140.063 315.226 139.715 313.945C139.335 312.589 139.595 311.145 140.323 310.103C141.051 309.05 142.213 308.366 143.408 308.258C144.244 308.193 145.048 308.29 145.787 308.562C146.525 308.833 147.21 309.3 147.742 309.962C148.003 310.288 148.198 310.657 148.372 311.036C148.535 311.427 148.644 311.829 148.72 312.274L148.752 312.285L148.774 312.241Z" fill="#FBC70A"/>
  <path d="M179.236 327.617V359.386H12.9922V327.617H179.236Z" fill="white"/>
  <path d="M179.234 327.615H178.963V359.113H13.2619V327.886H179.234V327.615H178.963H179.234V327.344H12.7188V359.656H179.506V327.344H179.234V327.615Z" fill="#002A34"/>
  <path d="M47.164 327.617L35.0962 359.386H13.6328L25.6897 327.617H47.164Z" fill="#FBC70A"/>
  <path d="M91.164 327.617L79.1071 359.386H57.6328L69.6897 327.617H91.164Z" fill="#FBC70A"/>
  <path d="M135.164 327.617L123.096 359.386H101.633L113.701 327.617H135.164Z" fill="#FBC70A"/>
  <path d="M179.183 327.617L167.115 359.386H145.641L157.698 327.617H179.183Z" fill="#FBC70A"/>
  <path d="M175.869 398.219V418.32H16.3594V398.219H175.869Z" fill="white"/>
  <path d="M175.867 398.217H175.595V418.047H16.629V398.488H175.867V398.217H175.595H175.867V397.945H16.0859V418.589H176.138V397.945H175.867V398.217Z" fill="#002A34"/>
  <path d="M49.1422 398.219L37.5741 418.32H16.9688L28.5477 398.219H49.1422Z" fill="#FBC70A"/>
  <path d="M91.3718 398.219L79.7928 418.32H59.1875L70.7665 398.219H91.3718Z" fill="#FBC70A"/>
  <path d="M133.591 398.219L122.012 418.32H101.406L112.985 398.219H133.591Z" fill="#FBC70A"/>
  <path d="M175.817 398.219L164.238 418.32H143.633L155.212 398.219H175.817Z" fill="#FBC70A"/>
  <path d="M121.981 343.492C121.981 357.764 110.402 369.345 96.1078 369.345C81.8242 369.345 70.2344 357.775 70.2344 343.492C70.2344 329.219 81.8133 317.648 96.1078 317.648C110.402 317.648 121.981 329.219 121.981 343.492Z" fill="white"/>
  <path d="M121.979 343.489H121.708C121.708 350.555 118.84 356.948 114.213 361.572C109.575 366.196 103.188 369.061 96.1168 369.061C89.0456 369.061 82.6478 366.196 78.0206 361.572C73.3933 356.937 70.5258 350.555 70.5258 343.489C70.5258 336.424 73.3933 330.031 78.0206 325.407C82.6587 320.772 89.0564 317.918 96.1168 317.918C103.188 317.918 109.586 320.783 114.213 325.407C118.84 330.041 121.708 336.424 121.708 343.489H121.979H122.251C122.251 329.065 110.542 317.375 96.1059 317.375C81.6702 317.375 69.9609 329.065 69.9609 343.489C69.9609 357.914 81.6594 369.615 96.1059 369.615C110.542 369.615 122.24 357.925 122.251 343.489H121.979Z" fill="#002A34"/>
  <path d="M118.048 343.492C118.048 355.594 108.229 365.417 96.118 365.417C84.0068 365.417 74.1875 355.605 74.1875 343.492C74.1875 331.39 84.0068 321.578 96.118 321.578C108.229 321.578 118.048 331.39 118.048 343.492Z" fill="#FBC70A"/>
  <path d="M109.873 346.044H82.3594V340.953H109.873V346.044Z" fill="white"/>
  <path d="M458.078 439.335L463.574 401.531L465.171 402.248L467.724 403.409L478.759 408.391L488.655 412.863L495.161 415.804L505.046 420.265L510.477 422.718C514.745 425.03 513.822 431.401 509.065 432.4L506.773 432.714H506.762L503.156 433.203L492.402 434.668L485.32 435.634L474.567 437.099L470.07 437.707L458.078 439.335Z" fill="#FBC70A"/>
  <path d="M459.117 432.124C458.107 421.965 459.943 413.173 462.626 408.039L459.117 432.124ZM508.355 421.715C508.312 421.704 508.257 421.693 508.214 421.693L505.031 420.261L495.147 415.8L488.64 412.858L478.745 408.387L477.105 407.648L478.745 408.365L488.64 412.837L495.147 415.778L505.031 420.239L508.355 421.715Z" fill="#E6E7E5"/>
  <path d="M460.279 438.83C459.791 437.832 459.617 435.976 459.465 434.934C459.324 433.989 459.204 433.045 459.117 432.122L462.626 408.038C462.886 407.538 463.147 407.082 463.429 406.659C464.646 404.76 465.45 402.578 465.45 402.578L477.116 407.636L478.756 408.374L488.651 412.846L495.157 415.787L505.042 420.248L508.225 421.681C503.999 420.899 500.121 420.552 496.58 420.552C470.848 420.552 462.582 438.678 462.582 438.678L460.279 438.83Z" fill="#F6BA00"/>
  <path d="M492.406 434.653L495.154 415.789L505.039 420.25L503.16 433.188L492.406 434.653Z" fill="#ECEDEB"/>
  <path d="M474.57 437.073L478.741 408.375L488.637 412.847L485.324 435.607L474.57 437.073Z" fill="#ECEDEB"/>
  <path d="M361.572 438.386H324.75L325.217 436.769L325.967 434.186L329.182 422.984L332.071 412.945L333.972 406.335L336.861 396.295L338.447 390.781C340.065 386.396 346.268 386.396 347.875 390.781L348.494 392.919V392.93L349.461 396.295L352.34 406.335L354.24 412.945L357.13 422.984L358.335 427.185L361.572 438.386Z" fill="#FBC70A"/>
  <path d="M362.89 447.939H314.5L322.212 428.836H370.603L362.89 447.939Z" fill="#FBC70A"/>
  <path d="M352.355 406.326H333.977L336.866 396.297H349.466L352.355 406.326Z" fill="#ECEDEB"/>
  <path d="M357.146 422.988H329.188L332.077 412.938H354.257L357.146 422.988Z" fill="#ECEDEB"/>
  <path d="M324.234 435.828C327.221 437.228 330.382 438.086 333.565 438.661C336.758 439.225 339.995 439.453 343.232 439.399C344.851 439.29 346.469 439.28 348.077 439.03C348.88 438.921 349.695 438.867 350.488 438.726C351.281 438.574 352.085 438.422 352.888 438.281C353.29 438.205 353.692 438.151 354.094 438.064L355.278 437.771L357.657 437.196C359.232 436.772 360.785 436.241 362.393 435.828C360.905 436.534 359.406 437.239 357.874 437.858L355.517 438.661L354.333 439.052C353.942 439.171 353.529 439.258 353.127 439.356C352.324 439.562 351.509 439.757 350.705 439.942C349.891 440.126 349.065 440.213 348.24 440.354C346.599 440.647 344.927 440.68 343.265 440.81C339.93 440.843 336.574 440.539 333.337 439.736C330.122 438.932 326.95 437.738 324.234 435.828Z" fill="#002A34"/>
  <path d="M328.711 424.659L329.156 422.988L332.056 412.937L333.957 406.327L335.63 400.477H335.663L333.979 406.327L332.078 412.937L329.189 422.988L328.711 424.659Z" fill="#E6E7E5"/>
  <path d="M335.658 400.473H335.625L336.82 396.294L337.787 392.93C337.787 392.973 337.787 393.017 337.787 393.071L336.852 396.294L335.658 400.473Z" fill="#B5B6B3"/>
  <path d="M351.141 428.834H327.57L328.711 424.655L329.189 422.984L332.078 412.944L333.979 406.334L335.663 400.473L336.868 396.294L337.802 393.07C337.759 394.177 337.748 395.252 337.748 396.294H336.868L333.979 406.334H338.671C339.117 408.732 339.714 410.925 340.409 412.944H332.078L329.189 422.984H345.656C347.426 425.382 349.327 427.303 351.141 428.834Z" fill="#F6BA00"/>
  <path d="M342.308 439.411C339.386 439.411 336.454 439.172 333.564 438.662C332.207 438.412 330.849 438.108 329.502 437.739C328.133 437.142 326.689 436.741 325.972 436.567C325.82 436.502 325.668 436.448 325.516 436.382L327.569 428.828H351.139C356.005 432.909 360.329 434.168 360.329 434.168L360.774 436.263C359.731 436.578 358.699 436.893 357.646 437.186L355.267 437.761L354.083 438.054C353.681 438.141 353.279 438.206 352.877 438.271C352.073 438.412 351.27 438.553 350.477 438.716C349.684 438.857 348.869 438.911 348.065 439.02C346.458 439.27 344.839 439.28 343.221 439.389C342.928 439.411 342.623 439.411 342.308 439.411Z" fill="#F6BA00"/>
  <path d="M338.669 406.329H333.977L336.866 396.289H337.746C337.778 399.979 338.104 403.312 338.669 406.329Z" fill="#D4D5D4"/>
  <path d="M345.654 422.985H329.188L332.077 412.945H340.408C341.809 416.972 343.656 420.283 345.654 422.985Z" fill="#D4D5D4"/>
  <path d="M341.967 439.975C336.851 439.975 332.549 439.128 329.671 437.815C329.617 437.793 329.562 437.771 329.508 437.739C330.844 438.108 332.202 438.412 333.571 438.661C336.46 439.171 339.382 439.41 342.314 439.41C342.619 439.41 342.934 439.41 343.238 439.399C344.856 439.291 346.475 439.28 348.082 439.03C348.886 438.922 349.701 438.867 350.494 438.726C351.287 438.574 352.09 438.422 352.894 438.281C353.296 438.205 353.698 438.151 354.1 438.064L355.284 437.771L357.663 437.196C358.705 436.914 359.748 436.588 360.791 436.273L360.802 436.349C359.911 436.957 358.173 437.37 357.195 437.663C351.754 439.302 346.54 439.975 341.967 439.975ZM325.978 436.577C325.674 436.501 325.5 436.469 325.5 436.469L325.522 436.393C325.674 436.458 325.826 436.512 325.978 436.577Z" fill="#00232C"/>
  <path d="M448.062 439.256L455.286 389.578L473.773 400.345L466.539 450.034L448.062 439.256Z" fill="#FBC70A"/>
  <path d="M466.471 420.914C465.44 430.097 462.105 437.25 459.042 436.913C455.968 436.566 454.317 428.849 455.36 419.666C456.391 410.484 459.715 403.331 462.789 403.668C465.852 404.015 467.503 411.732 466.471 420.914Z" fill="#002A34"/>
  <path d="M549.329 447.861C551.491 448.534 612.861 447.22 615.175 445.69C616.044 445.126 616.381 436.171 616.467 425.35C616.489 423.016 616.489 420.607 616.478 418.154C616.467 415.256 616.457 412.314 616.424 409.46C616.261 396.652 615.87 385.375 615.87 385.375L575.919 386.113L576.386 410.198L576.56 418.892L576.897 426.088C576.897 426.088 553.63 437.094 551.273 439.047C548.938 440.99 547.168 447.199 549.329 447.861Z" fill="#ED7966"/>
  <path d="M549.329 447.862C551.491 448.535 612.861 447.222 615.175 445.691C616.044 445.127 616.381 436.172 616.467 425.351C616.489 423.017 616.489 420.608 616.478 418.155C616.467 415.257 616.457 412.316 616.424 409.461L576.386 410.199L576.56 418.893L576.897 426.089C576.897 426.089 553.63 437.095 551.273 439.049C548.938 440.991 547.168 447.2 549.329 447.862Z" fill="white"/>
  <path d="M549.141 447.964C550.553 448.398 576.687 448.007 595.718 447.258C600.117 447.084 604.147 446.889 607.394 446.683C611.87 446.39 614.868 446.097 615.356 445.782C616.421 445.066 616.692 431.943 616.682 418.094L576.525 418.832L576.861 426.06C576.861 426.06 553.464 437.131 551.096 439.085C548.75 441.061 546.98 447.28 549.141 447.964Z" fill="#FBC70A"/>
  <path d="M549.978 445.472C560.319 444.995 602.062 444.061 612.326 444.376V444.441C602.094 445.136 560.341 445.744 549.989 445.646C549.761 445.646 549.75 445.483 549.978 445.472Z" fill="#002A34"/>
  <path d="M575.349 423.798C579.4 422.952 584.397 423.473 587.568 426.306C587.688 426.414 587.536 426.588 587.405 426.555C583.365 425.372 579.596 424.645 575.381 424.319C575.088 424.298 575.066 423.864 575.349 423.798Z" fill="#002A34"/>
  <path d="M572.45 425.634C576.502 424.788 581.498 425.309 584.67 428.142C584.789 428.25 584.637 428.424 584.507 428.38C580.466 427.197 576.697 426.47 572.483 426.145C572.189 426.123 572.168 425.7 572.45 425.634Z" fill="#002A34"/>
  <path d="M569.556 427.471C573.607 426.624 578.604 427.145 581.775 429.967C581.895 430.076 581.743 430.249 581.612 430.217C577.572 429.034 573.803 428.306 569.588 427.981C569.284 427.959 569.273 427.536 569.556 427.471Z" fill="#002A34"/>
  <path d="M566.65 429.306C570.702 428.46 575.699 428.981 578.87 431.814C578.99 431.922 578.838 432.096 578.697 432.052C574.656 430.869 570.887 430.142 566.672 429.816C566.379 429.795 566.368 429.371 566.65 429.306Z" fill="#002A34"/>
  <path d="M568.48 417.062C567.665 412.611 572.51 414.858 573.748 415.933C574.541 416.627 575.269 417.42 575.953 418.212C577.398 419.873 578.582 421.707 579.853 423.498C578.223 422.814 576.551 422.282 574.9 421.674C572.934 420.936 568.925 419.515 568.48 417.062ZM569.588 420.318C572.51 422.489 576.279 423.324 579.668 424.496C580.016 424.616 580.287 424.279 580.298 423.975L580.385 423.824C579.201 420.448 576.713 416.888 573.911 414.641C572.184 413.252 569.186 412.329 567.633 414.565C566.166 416.671 567.883 419.048 569.588 420.318Z" fill="#002A34"/>
  <path d="M585.239 422.725C583.49 422.974 581.742 423.137 580.004 423.452C581.622 421.976 583.175 420.435 584.935 419.121C585.782 418.492 586.662 417.873 587.575 417.363C589.008 416.571 594.222 415.42 592.473 419.588C591.528 421.9 587.325 422.432 585.239 422.725ZM593.853 417.33C592.81 414.812 589.682 415.084 587.694 416.071C584.479 417.678 581.285 420.619 579.406 423.658L579.461 423.821C579.406 424.125 579.591 424.505 579.96 424.461C583.523 424.038 587.379 424.027 590.703 422.529C592.658 421.661 594.83 419.718 593.853 417.33Z" fill="#002A34"/>
  <path d="M599.508 447.103C602.147 446.984 604.58 446.865 606.709 446.734C604.58 446.865 602.136 446.984 599.508 447.103Z" fill="#BDBEBC"/>
  <path d="M616.445 436.388C616.521 434.217 616.576 431.764 616.619 429.148C616.576 431.764 616.521 434.217 616.445 436.388Z" fill="#CDCECC"/>
  <path d="M616.172 441.394C616.28 439.983 616.367 438.29 616.443 436.391C616.367 438.301 616.28 439.983 616.172 441.394Z" fill="#BDBEBC"/>
  <path d="M580.555 447.744C581.641 447.006 582.847 446.181 584.15 445.291C596.131 445.074 607.59 444.77 612.326 444.444V444.379C610.903 444.336 608.872 444.314 606.396 444.314C600.889 444.314 593.209 444.412 585.215 444.553C594.86 437.964 608.926 428.37 616.671 423.203C616.66 425.244 616.649 427.241 616.617 429.151C616.584 431.778 616.519 434.22 616.443 436.391C616.367 438.301 616.28 439.994 616.171 441.394C615.976 443.934 615.704 445.54 615.357 445.779C614.879 446.105 611.87 446.398 607.406 446.691C607.178 446.702 606.95 446.723 606.721 446.734C604.592 446.865 602.159 446.984 599.52 447.103C598.292 447.158 597.032 447.212 595.729 447.255C590.939 447.44 585.714 447.614 580.555 447.744Z" fill="#DDA600"/>
  <path d="M584.141 445.294C584.488 445.055 584.847 444.817 585.216 444.567C593.21 444.426 600.89 444.328 606.397 444.328C608.874 444.328 610.905 444.35 612.328 444.393V444.458C607.592 444.762 596.121 445.066 584.141 445.294Z" fill="#001B26"/>
  <path d="M572.948 425.603L618.547 425.646C618.547 425.646 616.049 323.088 616.538 320.7C617.711 315.002 643.639 224.578 643.639 224.578L607.631 225.197L595.335 225.414C595.335 225.414 596.399 240.468 595.965 242.075C589.947 264.01 578.206 301.467 575.805 315.349C571.656 339.412 572.948 425.603 572.948 425.603Z" fill="#002A34"/>
  <path d="M574.426 417.994C581.541 417.809 606.73 417.06 616.212 417.766V417.907C612.964 418.439 581.541 418.287 574.426 418.189C574.296 418.178 574.296 417.994 574.426 417.994Z" fill="#1D444F"/>
  <path d="M612.958 318.434C614.315 312.888 624.471 278.351 627.578 267.442C630.684 256.545 633.596 245.583 636.278 234.566C636.615 233.166 636.963 231.776 637.332 230.387C637.365 230.268 637.528 230.322 637.506 230.441C636.485 235.988 635.127 241.491 633.824 246.972C632.52 252.464 631.13 257.934 629.663 263.383C626.72 274.335 623.516 285.21 620.029 295.999C618.291 301.372 615.423 312.421 613.892 317.859C612.371 323.296 614.858 412.613 614.695 414.057C614.652 414.469 614.055 414.469 614.044 414.057C613.87 403.539 611.611 323.915 612.958 318.434Z" fill="#1D444F"/>
  <path d="M607.633 225.189C607.633 225.189 616.442 321.159 616.54 320.692C617.68 315.179 642.055 230.149 643.586 224.831C643.641 224.657 643.651 224.57 643.651 224.57L607.633 225.189Z" fill="#1D444F"/>
  <path d="M596.613 453.131C598.775 453.804 660.145 452.491 662.459 450.96C663.328 450.396 663.664 441.442 663.751 430.631C663.773 428.298 663.773 425.888 663.773 423.435C663.762 420.537 663.751 417.596 663.719 414.741C663.556 401.933 663.165 390.656 663.165 390.656L623.214 391.394L623.681 415.479L623.855 424.162L624.192 431.358C624.192 431.358 600.925 442.364 598.568 444.318C596.222 446.25 594.462 452.458 596.613 453.131Z" fill="#ED7966"/>
  <path d="M596.613 453.125C598.775 453.798 660.145 452.484 662.459 450.954C663.328 450.389 663.664 441.435 663.751 430.624C663.773 428.291 663.773 425.881 663.773 423.428C663.762 420.53 663.751 417.589 663.719 414.734L623.681 415.472L623.855 424.156L624.192 431.352C624.192 431.352 600.925 442.358 598.568 444.311C596.222 446.243 594.462 452.452 596.613 453.125Z" fill="white"/>
  <path d="M596.422 453.217C597.823 453.651 623.968 453.26 642.999 452.511C647.398 452.338 651.428 452.142 654.675 451.936C659.15 451.643 662.148 451.35 662.637 451.024C663.702 450.308 663.973 437.185 663.962 423.336L623.816 424.074L624.153 431.303C624.153 431.303 600.756 442.374 598.388 444.327C596.031 446.314 594.261 452.544 596.422 453.217Z" fill="#FBC70A"/>
  <path d="M597.263 450.733C607.604 450.255 649.347 449.311 659.611 449.625V449.691C649.379 450.385 607.626 450.993 597.274 450.895C597.046 450.906 597.046 450.743 597.263 450.733Z" fill="#002A34"/>
  <path d="M622.646 429.064C626.697 428.217 631.694 428.738 634.865 431.571C634.985 431.68 634.833 431.854 634.703 431.821C630.662 430.638 626.893 429.911 622.678 429.585C622.374 429.553 622.352 429.118 622.646 429.064Z" fill="#002A34"/>
  <path d="M619.747 430.9C623.799 430.053 628.795 430.574 631.967 433.407C632.087 433.516 631.934 433.689 631.804 433.657C627.763 432.474 623.994 431.747 619.78 431.421C619.476 431.388 619.454 430.954 619.747 430.9Z" fill="#002A34"/>
  <path d="M616.849 432.72C620.9 431.874 625.897 432.395 629.069 435.228C629.188 435.336 629.036 435.51 628.906 435.466C624.865 434.283 621.096 433.556 616.881 433.23C616.577 433.22 616.556 432.785 616.849 432.72Z" fill="#002A34"/>
  <path d="M613.944 434.556C617.995 433.71 622.992 434.231 626.164 437.064C626.283 437.172 626.131 437.346 625.99 437.302C621.949 436.119 618.18 435.392 613.966 435.066C613.672 435.045 613.65 434.621 613.944 434.556Z" fill="#002A34"/>
  <path d="M615.767 422.31C614.952 417.86 619.796 420.107 621.035 421.181C621.828 421.876 622.555 422.668 623.24 423.461C624.684 425.121 625.868 426.956 627.139 428.736C625.51 428.063 623.837 427.531 622.186 426.912C620.209 426.185 616.212 424.763 615.767 422.31ZM616.874 425.566C619.796 427.737 623.566 428.573 626.954 429.745C627.302 429.865 627.574 429.539 627.585 429.224L627.682 429.072C626.498 425.697 624.011 422.137 621.208 419.89C619.481 418.501 616.483 417.567 614.93 419.803C613.453 421.93 615.158 424.297 616.874 425.566Z" fill="#002A34"/>
  <path d="M632.517 427.99C630.769 428.24 629.02 428.403 627.293 428.718C628.911 427.242 630.464 425.7 632.224 424.387C633.071 423.757 633.951 423.139 634.864 422.629C636.297 421.836 641.511 420.686 639.762 424.854C638.806 427.155 634.603 427.687 632.517 427.99ZM641.131 422.596C640.088 420.078 636.96 420.349 634.972 421.337C631.757 422.943 628.564 425.885 626.695 428.924L626.75 429.087C626.695 429.391 626.88 429.77 627.249 429.727C630.812 429.304 634.668 429.293 637.992 427.795C639.936 426.927 642.119 424.973 641.131 422.596Z" fill="#002A34"/>
  <path d="M621.491 430.252L665.733 429.438C665.733 429.438 653.306 269.994 654.849 261.539C657.38 247.711 655.218 231.93 648.57 224.43L605.459 225.233C605.459 225.233 604.829 237.335 609.413 244.477C609.413 244.477 613.508 246.951 615.485 248.048L621.491 430.252Z" fill="#002A34"/>
  <path d="M622.715 422.403C629.427 422.099 627.494 422.099 634.207 421.871C637.487 421.763 659.07 421.057 662.155 421.491V421.633C659.103 422.208 637.509 422.544 634.218 422.588C627.505 422.685 629.427 422.588 622.715 422.599C622.595 422.599 622.595 422.403 622.715 422.403Z" fill="#1D444F"/>
  <path d="M606.688 242.575C610.978 244.463 615.062 246.949 618.94 249.521C619.092 249.619 618.962 249.858 618.799 249.76C614.66 247.567 610.424 245.451 606.405 243.041C606.09 242.868 606.362 242.434 606.688 242.575Z" fill="#1D444F"/>
  <path d="M612.171 241.855C612.443 242.68 612.638 243.537 612.801 244.395C612.921 245.057 613.105 245.773 612.964 246.446C612.931 246.576 612.758 246.576 612.692 246.479C612.291 245.882 612.171 245.111 611.986 244.427C611.769 243.646 611.53 242.864 611.335 242.072C611.204 241.529 611.997 241.345 612.171 241.855Z" fill="#1D444F"/>
  <path d="M612.48 237.703C612.35 236.986 612.22 236.27 612.078 235.554C611.926 234.816 611.731 234.077 611.644 233.329C611.633 233.209 611.438 233.253 611.459 233.372C611.59 234.088 611.611 234.837 611.687 235.554C611.764 236.281 611.84 237.008 611.926 237.735C612.089 239.092 612.35 240.449 612.643 241.784C611.937 241.632 611.22 241.447 610.645 241.002C610.026 240.514 609.754 239.689 609.548 238.951C609.32 238.126 609.124 237.301 608.885 236.487C608.624 235.586 608.309 234.685 608.201 233.741C608.19 233.622 608.005 233.665 608.016 233.784C608.288 235.738 608.559 237.681 609.222 239.57C609.482 240.308 609.667 241.057 610.341 241.469C611.068 241.903 611.937 242.033 612.763 242.142C612.861 242.196 613.002 242.153 612.991 242.023C612.882 240.579 612.73 239.114 612.48 237.703Z" fill="#1D444F"/>
  <path d="M647.847 261.114C648.097 257.945 648.553 254.786 648.847 251.617C649.422 245.245 648.825 238.896 647.348 232.677C647.315 232.557 647.5 232.514 647.521 232.633C648.673 238.125 649.694 243.607 649.52 249.251C649.346 254.84 648.466 260.365 648.477 265.966C648.488 271.631 649.042 277.286 649.509 282.941C649.976 288.618 650.454 294.305 650.921 299.982C652.811 322.807 654.593 345.644 656.417 368.48C656.928 374.852 657.406 381.234 657.895 387.605C658.394 394.096 659.144 410.094 659.502 416.585C659.535 417.149 658.698 417.117 658.644 416.585C657.46 405.134 656.504 384.121 655.559 372.648C654.625 361.295 653.745 349.931 652.844 338.567C651.942 327.214 651.041 315.85 650.161 304.486C649.716 298.809 649.292 293.133 648.857 287.445C648.423 281.79 647.902 276.125 647.717 270.459C647.597 267.333 647.608 264.218 647.847 261.114Z" fill="#1D444F"/>
  <path d="M632.05 232.569L632.224 232.547C632.593 233.155 632.55 234.164 632.68 234.859C632.832 235.705 633.028 236.541 633.31 237.344C633.897 238.994 634.657 240.459 635.982 241.642C638.741 244.128 642.391 244.996 645.91 245.789C646.041 245.821 645.997 245.995 645.878 246.006C643.814 246.19 641.717 245.789 639.751 245.159C638.024 244.606 636.341 243.835 634.983 242.608C633.625 241.393 632.778 239.808 632.354 238.05C632.137 237.149 632.061 236.194 632.007 235.26C631.985 234.815 631.963 234.359 631.963 233.914C631.952 233.491 631.876 232.981 632.05 232.569Z" fill="#1D444F"/>
  <path d="M615.122 166.402C597.102 179.763 567.774 180.968 564.494 179.459C557.586 176.279 547.527 146.42 545.094 135.534C544.388 132.375 567.188 133.156 569.48 135.751C571.554 138.106 576.583 158.739 578.68 159.043C579.798 159.206 597.438 159.499 610.104 158.175C625.224 156.601 620.455 162.451 615.122 166.402Z" fill="#ED7966"/>
  <path d="M592.914 157.479L595.619 178.558C595.619 178.558 611.662 172.284 618.646 165.848C625.631 159.411 621.644 157.056 614.671 156.698C607.697 156.329 592.914 157.479 592.914 157.479Z" fill="#ECEDEB"/>
  <path d="M596.371 158.131C596.349 157.99 596.436 157.936 596.468 158.066C597.728 164.904 598.717 172.849 598.749 175.758L598.673 175.769C597.924 172.925 596.599 159.651 596.371 158.131Z" fill="#002A34"/>
  <path d="M657.243 238.338C657.102 238.501 593.277 239.868 592.679 239.217C591.854 238.305 602.14 174.354 612.264 160.396C614.795 156.901 623.843 154.503 627.623 158.03C638.572 168.254 640.874 176.862 643.731 183.895C645.849 189.105 648.424 197.994 650.737 207.111C654.571 222.122 657.754 237.73 657.243 238.338Z" fill="#ECEDEB"/>
  <path d="M628.699 158.188C628.699 158.188 619.303 179.624 617.75 185.083C615.632 192.573 612.547 241.936 612.547 241.936L658.211 239.266C658.211 239.266 649.5 189.903 639.583 172.395C631.794 158.611 628.699 158.188 628.699 158.188Z" fill="#FBC70A"/>
  <path d="M613.894 159.219C613.894 159.219 608.593 178.777 607.551 181.708C606.497 184.639 597.275 241.969 597.275 241.969L591.648 239.874C591.648 239.874 597.981 200.192 603.564 179.993C609.147 159.794 613.894 159.219 613.894 159.219Z" fill="#FBC70A"/>
  <path d="M613.883 222.626L654.746 222.54C654.398 221.009 654.04 219.403 653.66 217.742L614.252 217.829C614.122 219.457 614.002 221.063 613.883 222.626Z" fill="#ECEDEB"/>
  <path d="M594.57 222.668L600.414 222.657C600.664 221.094 600.935 219.487 601.207 217.859L595.439 217.87C595.135 219.509 594.842 221.116 594.57 222.668Z" fill="#ECEDEB"/>
  <path d="M613.273 231.045L656.548 230.958C656.255 229.515 655.907 227.908 655.538 226.172L613.621 226.259C613.502 227.952 613.382 229.558 613.273 231.045Z" fill="#ECEDEB"/>
  <path d="M593.094 231.086L599.035 231.076C599.274 229.578 599.535 227.961 599.806 226.289L593.919 226.3C593.626 228.026 593.344 229.632 593.094 231.086Z" fill="#ECEDEB"/>
  <path d="M635.735 172.079C638.157 189.955 634.735 214.843 630.662 217.741C619.04 226.012 599.043 230.408 590.538 231.385C585.574 231.96 583.532 207.495 587.909 206.757C594.817 205.607 611.349 202.09 613.696 201.048C616.042 199.995 620.582 183.682 624.851 171.851C629.522 158.978 634.562 163.418 635.735 172.079Z" fill="#ED7966"/>
  <path d="M593.393 207.605C593.393 207.605 587.246 203.589 583.324 198.444C580.022 194.124 575.612 187.33 573.223 189.012C568.313 192.475 579.316 209.418 579.316 209.418C579.316 209.418 585.366 216.114 590.548 213.119C593.784 211.23 593.393 207.605 593.393 207.605Z" fill="#ED7966"/>
  <path d="M559.398 208.201C558.561 210.708 560.777 212.314 560.777 212.314C560.777 212.314 559.104 213.617 558.833 215.625C558.518 217.926 561.983 219.434 561.983 219.434C561.983 219.434 560.56 221.095 560.484 223.244C560.397 225.48 563.688 227.499 563.688 227.499C563.688 227.499 563.221 229.767 564.481 231.678C566.643 234.945 572.628 234.793 576.44 234.728C580.242 234.662 590.984 230.94 593.103 230.429L592.929 206.019C592.929 206.019 575.788 201.439 571.324 202.144C567.555 202.752 560.343 205.389 559.398 208.201Z" fill="#ED7966"/>
  <path d="M560.937 211.921C564.782 210.325 568.888 209.967 572.972 209.359L572.994 209.5C568.932 210.054 565.032 211.4 560.992 212.105C560.883 212.138 560.84 211.964 560.937 211.921Z" fill="#002A34"/>
  <path d="M562.059 219.121C562.938 218.784 563.927 218.741 564.861 218.654C565.86 218.557 566.86 218.481 567.87 218.415C569.879 218.285 571.889 218.209 573.909 218.188L573.931 218.329C571.932 218.459 569.923 218.622 567.935 218.828C566.936 218.936 565.936 219.056 564.937 219.175C564.014 219.284 563.036 219.49 562.102 219.392C561.961 219.381 561.928 219.164 562.059 219.121Z" fill="#002A34"/>
  <path d="M563.766 227.497C564.515 227.172 565.504 227.248 566.307 227.215C567.22 227.172 568.143 227.128 569.055 227.085C570.891 226.987 572.716 226.889 574.552 226.727L574.573 226.868C572.716 227.041 570.859 227.237 569.001 227.399C568.089 227.475 567.176 227.551 566.264 227.617C565.493 227.671 564.526 227.834 563.766 227.595V227.497Z" fill="#002A34"/>
  <path d="M618.148 188.957L638.721 194.351C638.721 194.351 638.906 177.137 635.549 168.247C632.193 159.369 628.511 162.18 625.567 168.497C622.624 174.825 618.148 188.957 618.148 188.957Z" fill="#ECEDEB"/>
  <path d="M620.051 186.002C619.909 185.97 619.898 185.872 620.029 185.894C626.85 187.283 634.584 189.345 637.299 190.409L637.278 190.485C634.356 190.094 621.539 186.35 620.051 186.002Z" fill="#002A34"/>
  <path d="M660.013 124.274C669.745 124.621 677.968 130.526 681.726 138.818L661.414 138.091L657.091 148.988L660.621 160.168L680.944 160.895C676.588 168.905 667.964 174.191 658.231 173.844C644.534 173.355 633.824 161.861 634.313 148.163C634.802 134.498 646.316 123.785 660.013 124.274Z" fill="#2D5A66"/>
  <path d="M515.62 168.754C505.887 168.407 497.665 162.491 493.906 154.21L514.218 154.937L518.541 144.029L515.011 132.849L494.688 132.122C499.044 124.112 507.668 118.815 517.401 119.173C531.098 119.662 541.808 131.156 541.319 144.854C540.83 158.54 529.317 169.253 515.62 168.754Z" fill="#2D5A66"/>
  <path d="M651.384 137.745L650.592 159.822L529.914 155.502L530.707 133.414L651.384 137.745Z" fill="#2D5A66"/>
  <path d="M615.66 142.968L615.335 152.063L565.641 150.283L565.966 141.188L615.66 142.968Z" fill="#1D444F"/>
  <path d="M616.27 166.898C618.92 167.408 625.188 163.251 627.968 159.387C628.153 159.126 628.088 156.066 628.175 152.354C628.24 150.107 628.359 147.6 628.642 145.32L613.913 147.046C613.913 147.046 614.738 151.995 614.228 155.968C614.184 156.304 614.108 156.608 614.011 156.891L613.967 157.043C613.468 158.779 612.131 166.095 616.27 166.898Z" fill="#ED7966"/>
  <path d="M614.007 156.891L613.964 157.043C614.409 157.152 614.898 157.25 615.43 157.304C623.739 158.129 627.052 148.187 627.802 145.43L613.898 147.047C613.898 147.047 614.724 151.996 614.213 155.958C614.17 156.294 614.094 156.598 614.007 156.891Z" fill="#002A34"/>
  <path d="M631.259 126.023C632.812 131.135 630.108 145.874 626.48 149.163C621.212 153.928 612.576 154.384 608.525 148.045C604.604 141.913 608.46 122.745 612.522 119.76C618.507 115.375 628.956 118.479 631.259 126.023Z" fill="#ED7966"/>
  <path d="M618.954 135.109L619.008 135.207C618.758 136.184 618.628 137.345 619.453 137.877L619.432 137.931C618.378 137.541 618.552 135.999 618.954 135.109Z" fill="#002A34"/>
  <path d="M620.059 134.274C621.677 134.502 621.091 137.715 619.592 137.498C618.115 137.292 618.701 134.079 620.059 134.274Z" fill="#002A34"/>
  <path d="M612.738 133.891L612.64 133.967C612.488 134.965 612.151 136.083 611.195 136.246V136.3C612.325 136.354 612.759 134.857 612.738 133.891Z" fill="#002A34"/>
  <path d="M612.046 132.685C610.471 132.273 609.754 135.453 611.22 135.833C612.654 136.213 613.371 133.033 612.046 132.685Z" fill="#002A34"/>
  <path d="M621.595 133.047C621.182 132.862 620.824 132.613 620.433 132.385C619.988 132.124 619.607 131.961 619.379 131.484C619.26 131.223 619.401 130.832 619.64 130.681C620.194 130.344 620.824 130.529 621.367 130.822C621.954 131.136 622.334 131.538 622.594 132.146C622.844 132.732 622.149 133.296 621.595 133.047Z" fill="#002A34"/>
  <path d="M611.154 131.236C611.61 131.247 612.034 131.182 612.49 131.138C613 131.095 613.413 131.116 613.837 130.78C614.065 130.595 614.097 130.183 613.945 129.944C613.587 129.402 612.946 129.293 612.327 129.326C611.654 129.358 611.143 129.553 610.643 129.998C610.165 130.422 610.557 131.225 611.154 131.236Z" fill="#002A34"/>
  <path d="M617.333 144.48C617.05 144.664 616.757 144.946 616.388 144.914C616.04 144.881 615.66 144.653 615.367 144.469L615.312 144.512C615.497 144.935 615.997 145.283 616.475 145.283C616.942 145.283 617.235 144.935 617.42 144.545L617.333 144.48Z" fill="#002A34"/>
  <path d="M616.825 141.307C616.108 142.066 615.206 142.392 614.294 142.403C613.881 142.414 613.468 142.349 613.066 142.24L612.838 142.175L612.632 142.099C612.523 142.056 612.469 141.958 612.469 141.838V141.828L612.502 141.73V141.719L612.523 141.632C612.643 140.862 612.925 139.711 612.925 139.711C612.621 139.798 611.079 140.178 611.176 139.787C611.98 136.52 612.871 132.873 614.359 129.791C614.402 129.682 614.565 129.747 614.533 129.845C613.881 133.025 612.686 136.064 611.98 139.244C612.469 139.158 613.262 138.973 613.664 139.049C613.762 139.103 613.066 141.263 613.045 141.611V141.654C614.305 142.056 615.336 141.838 616.749 141.209L616.825 141.307Z" fill="#002A34"/>
  <path d="M613.586 141.922C613.586 141.922 614.096 142.964 614.965 143.463C615.28 143.647 615.65 143.767 616.052 143.734C616.888 143.669 617.04 142.942 617.007 142.302C616.986 141.77 616.823 141.281 616.823 141.281C616.823 141.281 615.465 142.15 613.586 141.922Z" fill="#002A34"/>
  <path d="M614.969 143.467C615.284 143.651 615.653 143.771 616.055 143.738C616.891 143.673 617.043 142.946 617.011 142.306C616.142 142.23 615.197 142.653 614.969 143.467Z" fill="#F097B9"/>
  <path d="M610.07 123.514C610.288 123.101 610.885 122.059 611.461 122.103C612.188 122.146 612.569 123.383 613.894 123.883C614.784 124.219 616.055 123.991 617.435 123.763C618.945 123.514 620.563 123.253 621.921 123.763C624.441 124.697 625.853 127.378 625.94 132.142C626.027 136.907 629.394 141.032 630.73 138.036C630.773 137.928 630.849 137.732 630.98 137.45C631.784 132.967 632.001 128.441 631.262 126.032C628.97 118.488 618.51 115.373 612.525 119.78C611.667 120.399 610.831 121.744 610.07 123.514Z" fill="#002A34"/>
  <path d="M628.098 138.053C628.098 138.053 631.531 133.353 633.67 134.59C635.81 135.828 633.16 142.687 630.596 143.577C628.033 144.467 627.164 142.112 627.164 142.112L628.098 138.053Z" fill="#ED7966"/>
  <path d="M632.866 136.531L632.877 136.596C631.084 137.28 630.107 138.919 629.412 140.612C629.955 139.961 630.682 139.614 631.551 140.265L631.497 140.363C630.769 140.189 630.237 140.308 629.737 140.884C629.379 141.296 629.129 141.806 628.869 142.284C628.782 142.436 628.499 142.349 628.564 142.164L628.575 142.121C628.586 139.853 630.422 136.705 632.866 136.531Z" fill="#002A34"/>
  <path d="M607.93 125.518C607.93 125.518 612.307 111.332 625.005 115.131C637.692 118.93 633.542 133.192 633.542 133.192L607.93 125.518Z" fill="#FBC70A"/>
  <path d="M634.178 134.483L606.664 126.235L607.272 124.227L634.775 132.465L634.178 134.483Z" fill="#FBC70A"/>
  <path d="M620.818 128.284L615.094 126.569L620.622 113.023L626.358 114.749L620.818 128.284Z" fill="#FBC70A"/>
  <path d="M626.358 113.023H615.094V128.273H626.358V113.023Z" fill="#F6BA00"/>
  <path d="M544.101 149.079C546.882 150.946 547.49 146.605 547.49 146.605C547.49 146.605 548.109 153.073 551.726 153.887C555.213 154.669 555.767 149.394 555.81 149.014C555.843 149.361 556.571 155.288 560.286 155.733C564.142 156.199 563.794 150.805 563.772 150.458C563.903 150.772 565.771 154.864 568.671 154.571C573.657 154.061 569.334 141.905 571.017 138.225L578.382 136.543C577.002 136.076 575.579 135.772 573.461 133.645C571.484 131.659 570.181 130.313 568.519 129.759C565.771 128.858 564.315 131.008 564.315 131.008C564.315 131.008 563.381 127.578 560.459 127.133C558.96 126.905 557.277 129.097 557.277 129.097C557.277 129.097 556.408 126.384 553.79 126.145C551.705 125.95 550.325 128.175 550.325 128.175C550.325 128.175 548.283 125.96 546.089 126.449C541.657 127.458 538.149 145.074 544.101 149.079Z" fill="#ED7966"/>
  <path d="M572.65 137.596L578.234 136.575C578.429 136.489 578.635 136.402 578.82 136.315C585.348 133.146 587.423 124.093 582.285 124.929C578.375 125.559 575.681 131.713 571.586 131.767V131.778L572.65 137.596Z" fill="#ED7966"/>
  <path d="M550.053 128.509L549.966 128.477C547.402 133.99 546.262 140.828 547.424 146.83C547.457 147.026 547.804 147.048 547.804 146.83C547.793 140.416 548.293 134.718 550.053 128.509Z" fill="#002A34"/>
  <path d="M557.252 129.017L557.133 128.984C554.515 134.683 553.451 142.421 555.612 149.183C555.688 149.411 555.982 149.552 555.916 149.27C554.819 144.668 555.634 134.585 557.252 129.017Z" fill="#002A34"/>
  <path d="M564.089 150.889C562.275 144.322 562.742 137.832 564.186 131.243L564.045 131.211C562.459 134.239 561.981 138.537 561.884 141.913C561.797 145.147 562.362 148.078 563.85 150.954C563.915 151.063 564.132 151.03 564.089 150.889Z" fill="#002A34"/>
  </g>
  <defs>
  <clipPath id="clip0_2479_24534">
  <rect width="692" height="459" fill="white"/>
  </clipPath>
  </defs>
  </svg>
