<svg width="20" height="20" viewBox="0 0 20 20" fill="none" xmlns="http://www.w3.org/2000/svg">
  <path d="M10.0002 1.66699V6.66699C10.0002 7.10902 10.1758 7.53294 10.4883 7.8455C10.8009 8.15806 11.2248 8.33366 11.6668 8.33366H16.6668V16.667C16.6668 17.109 16.4912 17.5329 16.1787 17.8455C15.8661 18.1581 15.4422 18.3337 15.0002 18.3337H10.7918C10.8193 18.1987 10.8335 18.0595 10.8335 17.917V13.7503C10.8336 13.2701 10.6678 12.8045 10.364 12.4324C10.0603 12.0604 9.6374 11.8047 9.16683 11.7087V11.4587C9.16683 10.8509 8.92539 10.268 8.49562 9.83821C8.06584 9.40843 7.48295 9.16699 6.87516 9.16699H3.9585C3.74183 9.16699 3.53183 9.19699 3.3335 9.25366V3.33366C3.3335 2.89163 3.50909 2.46771 3.82165 2.15515C4.13421 1.84259 4.55814 1.66699 5.00016 1.66699H10.0002ZM11.2502 2.08366V6.66699C11.2502 6.7775 11.2941 6.88348 11.3722 6.96162C11.4503 7.03976 11.5563 7.08366 11.6668 7.08366H16.2502L11.2502 2.08366ZM2.50016 12.5003H2.0835C1.75198 12.5003 1.43403 12.632 1.19961 12.8664C0.965192 13.1009 0.833496 13.4188 0.833496 13.7503V17.917C0.833496 18.2485 0.965192 18.5665 1.19961 18.8009C1.43403 19.0353 1.75198 19.167 2.0835 19.167H8.75016C9.08168 19.167 9.39963 19.0353 9.63405 18.8009C9.86847 18.5665 10.0002 18.2485 10.0002 17.917V13.7503C10.0002 13.4188 9.86847 13.1009 9.63405 12.8664C9.39963 12.632 9.08168 12.5003 8.75016 12.5003H8.3335V11.4587C8.3335 11.0719 8.17985 10.701 7.90636 10.4275C7.63287 10.154 7.26194 10.0003 6.87516 10.0003H3.9585C3.57172 10.0003 3.20079 10.154 2.9273 10.4275C2.65381 10.701 2.50016 11.0719 2.50016 11.4587V12.5003ZM3.75016 11.4587C3.75016 11.4034 3.77211 11.3504 3.81118 11.3113C3.85025 11.2723 3.90324 11.2503 3.9585 11.2503H6.87516C6.93042 11.2503 6.98341 11.2723 7.02248 11.3113C7.06155 11.3504 7.0835 11.4034 7.0835 11.4587V12.5003H3.75016V11.4587Z" fill="black"/>
</svg>
